<svg version="1.1" xmlns="http://www.w3.org/2000/svg" xmlns:xlink="http://www.w3.org/1999/xlink" width="77.65245" height="76.22826" viewBox="0,0,77.65245,76.22826"><defs><linearGradient x1="240" y1="143.13588" x2="240" y2="216.86414" gradientUnits="userSpaceOnUse" id="color-1"><stop offset="0" stop-color="#b1aab3"/><stop offset="1" stop-color="#ffffff"/></linearGradient></defs><g transform="translate(-201.0381,-141.88587)"><g data-paper-data="{&quot;isPaintingLayer&quot;:true}" fill-rule="nonzero" stroke-linejoin="miter" stroke-miterlimit="10" stroke-dasharray="" stroke-dashoffset="0" style="mix-blend-mode: normal"><path d="M202.55946,184.59103c-2.47681,-20.19883 12.27804,-38.62867 32.95588,-41.16422c20.67784,-2.53556 39.4484,11.78336 41.92521,31.98217c2.47681,20.19883 -12.27804,38.62867 -32.95588,41.16422c-20.67784,2.53556 -39.44839,-11.78335 -41.9252,-31.98217z" data-paper-data="{&quot;index&quot;:null}" fill="url(#color-1)" stroke="#000000" stroke-width="2.5" stroke-linecap="butt"/><path d="M231.23396,183.97355l-0.20395,-24.67826" fill="none" stroke="#000000" stroke-width="2.5" stroke-linecap="round"/><path d="M246.93843,158.98461l0.20395,24.67826" fill="none" stroke="#000000" stroke-width="2.5" stroke-linecap="round"/><path d="M262.66494,182.8463c1.11803,0.55902 0.55902,1.67705 0.55902,1.67705l-0.32442,0.57455c-4.02705,4.82568 -6.66005,11.43935 -13.05461,13.54878c-2.30182,0.75932 -4.85611,0.56766 -7.239,0.56766c-10.0873,0 -21.47863,-1.0855 -25.82726,-11.78576c0,0 -0.46424,-1.1606 0.69636,-1.62483c1.1606,-0.46424 1.62483,0.69636 1.62483,0.69636c3.79263,9.66656 14.62035,10.21424 23.50607,10.21424c2.08046,0 4.42019,0.24567 6.42766,-0.43234c5.75151,-1.94252 8.28699,-8.38873 11.94539,-12.78456l0.00891,-0.09212c0,0 0.55902,-1.11803 1.67705,-0.55902z" fill="#000000" stroke="none" stroke-width="0.5" stroke-linecap="butt"/></g></g></svg>