<svg version="1.1" xmlns="http://www.w3.org/2000/svg" xmlns:xlink="http://www.w3.org/1999/xlink" width="75.84847" height="77.75946" viewBox="0,0,75.84847,77.75946"><defs><linearGradient x1="203.4666" y1="179.07474" x2="277.17163" y2="180.92527" gradientUnits="userSpaceOnUse" id="color-1"><stop offset="0" stop-color="#b1aab3"/><stop offset="1" stop-color="#ffffff"/></linearGradient><linearGradient x1="236.19815" y1="200.83535" x2="236.6118" y2="184.35984" gradientUnits="userSpaceOnUse" id="color-2"><stop offset="0" stop-color="#e2ff00"/><stop offset="1" stop-color="#00ffea"/></linearGradient></defs><g transform="translate(-202.39488,-141.20602)"><g stroke-miterlimit="10"><path d="M243.96896,217.54398c-20.25463,1.96905 -38.30833,-13.24372 -40.32408,-33.97869c-2.01576,-20.73497 12.76977,-39.14022 33.02439,-41.10927c20.25463,-1.96905 38.30833,13.24372 40.32408,33.97869c2.01576,20.73497 -12.76976,39.14021 -33.02439,41.10926z" fill="url(#color-1)" stroke="#000000" stroke-width="2.5" stroke-linecap="butt"/><path d="M275.74264,180.32083c-0.06427,6.64108 -2.64199,14.79392 -5.60691,20.07363c-2.71888,4.84157 -8.45197,8.90035 -12.52758,11.55275c-5.42127,3.52816 -9.71548,4.83288 -17.62853,4.75631c-7.37357,-0.07135 -14.02083,-2.6472 -19.5129,-6.2437c-9.66459,-6.32891 -15.71492,-16.88803 -15.58637,-30.17132c0.00765,-0.7905 -0.96469,-0.75774 0.09021,-0.50118c1.7775,0.43231 3.66619,0.79259 -2.14781,0.83698c5.06526,-0.28628 6.40322,-0.26561 9.2294,-0.24926c1.41014,0.00816 2.91705,-0.41859 5.98809,-0.02014c2.66981,0.3464 36.25636,-0.4645 37.36216,-0.5745c0.91912,-0.09143 -9.10115,0.79691 -8.36958,-0.01751c0.38833,-0.43231 -2.86617,0.1878 -7.47204,0.20799c-10.44214,0.04576 -0.6249,0.26048 1.10445,0.32536c2.65675,0.09967 -21.0903,-0.59137 -18.74381,-0.46575c7.28004,0.38971 12.63244,0.09486 19.31816,0.15956c7.29237,0.07058 28.25063,0.12264 35.10264,-0.44849c1.72655,-0.14391 0.06671,-5.98661 -1.57092,-11.25427c-2.17253,-6.98826 -8.66324,-15.12036 -7.25711,-13.30765c5.06541,6.53016 9.53935,16.17884 9.45235,25.16868z" fill="#00caca" stroke="#000000" stroke-width="0" stroke-linecap="butt"/><path d="M275.9455,179.66261l-71.64501,0.6646" fill="none" stroke="#000000" stroke-width="2.5" stroke-linecap="round"/><path d="M236.6118,184.35984c10.6163,0.26655 15.8944,4.08954 15.78018,8.63912c-0.11423,4.54959 -5.57751,8.10292 -16.19383,7.83638c-10.61629,-0.26655 -16.40643,-3.53393 -16.2922,-8.08353c0.11423,-4.54959 6.08956,-8.65851 16.70586,-8.39197z" fill="url(#color-2)" stroke="#000000" stroke-width="1.5" stroke-linecap="butt"/><path d="M272.93087,186.5221c-0.69014,-0.01733 -1.23556,-0.59084 -1.21823,-1.28098c0.01733,-0.69014 0.59084,-1.23556 1.28098,-1.21823c0.69014,0.01733 1.23556,0.59084 1.21823,1.28098c-0.01733,0.69014 -0.59084,1.23556 -1.28098,1.21823z" fill="#000000" stroke="none" stroke-width="0.5" stroke-linecap="butt"/><path d="M272.27718,189.91657c-0.69014,-0.01733 -1.23556,-0.59084 -1.21823,-1.28098c0.01733,-0.69014 0.59084,-1.23556 1.28098,-1.21823c0.69014,0.01733 1.23556,0.59084 1.21823,1.28098c-0.01733,0.69014 -0.59084,1.23556 -1.28098,1.21823z" fill="#000000" stroke="none" stroke-width="0.5" stroke-linecap="butt"/><path d="M271.25425,192.92277c-0.69014,-0.01733 -1.23556,-0.59084 -1.21823,-1.28098c0.01733,-0.69014 0.59084,-1.23556 1.28098,-1.21823c0.69014,0.01733 1.23556,0.59084 1.21823,1.28098c-0.01733,0.69014 -0.59084,1.23556 -1.28098,1.21823z" fill="#000000" stroke="none" stroke-width="0.5" stroke-linecap="butt"/><path d="M267.69338,198.89713c-0.69014,-0.01733 -1.23556,-0.59084 -1.21823,-1.28098c0.01733,-0.69014 0.59084,-1.23556 1.28098,-1.21823c0.69014,0.01733 1.23556,0.59084 1.21823,1.28098c-0.01733,0.69014 -0.59084,1.23556 -1.28098,1.21823z" fill="#000000" stroke="none" stroke-width="0.5" stroke-linecap="butt"/><path d="M264.93279,203.18617c-0.69014,-0.01733 -1.23556,-0.59084 -1.21823,-1.28098c0.01733,-0.69014 0.59084,-1.23556 1.28098,-1.21823c0.69014,0.01733 1.23556,0.59084 1.21823,1.28098c-0.01733,0.69014 -0.59084,1.23556 -1.28098,1.21823z" fill="#000000" stroke="none" stroke-width="0.5" stroke-linecap="butt"/><path d="M260.66672,207.0584c-0.69014,-0.01733 -1.23556,-0.59084 -1.21823,-1.28098c0.01733,-0.69014 0.59084,-1.23556 1.28098,-1.21823c0.69014,0.01733 1.23556,0.59084 1.21823,1.28098c-0.01733,0.69014 -0.59084,1.23556 -1.28098,1.21823z" fill="#000000" stroke="none" stroke-width="0.5" stroke-linecap="butt"/><path d="M251.7701,214.22526c-0.69014,-0.01733 -1.23556,-0.59084 -1.21823,-1.28098c0.01733,-0.69014 0.59084,-1.23556 1.28098,-1.21823c0.69014,0.01733 1.23556,0.59084 1.21823,1.28098c-0.01733,0.69014 -0.59084,1.23556 -1.28098,1.21823z" fill="#000000" stroke="none" stroke-width="0.5" stroke-linecap="butt"/><path d="M243.75937,216.29805c-0.69014,-0.01733 -1.23556,-0.59084 -1.21823,-1.28098c0.01733,-0.69014 0.59084,-1.23556 1.28098,-1.21823c0.69014,0.01733 1.23556,0.59084 1.21823,1.28098c-0.01733,0.69014 -0.59084,1.23556 -1.28098,1.21823z" fill="#000000" stroke="none" stroke-width="0.5" stroke-linecap="butt"/><path d="M233.92144,215.67206c-0.69014,-0.01733 -1.23556,-0.59084 -1.21823,-1.28098c0.01733,-0.69014 0.59084,-1.23556 1.28098,-1.21823c0.69014,0.01733 1.23556,0.59084 1.21823,1.28098c-0.01733,0.69014 -0.59084,1.23556 -1.28098,1.21823z" fill="#000000" stroke="none" stroke-width="0.5" stroke-linecap="butt"/><path d="M225.26253,213.37024c-0.69014,-0.01733 -1.23556,-0.59084 -1.21823,-1.28098c0.01733,-0.69014 0.59084,-1.23556 1.28098,-1.21823c0.69014,0.01733 1.23556,0.59084 1.21823,1.28098c-0.01733,0.69014 -0.59084,1.23556 -1.28098,1.21823z" fill="#000000" stroke="none" stroke-width="0.5" stroke-linecap="butt"/><path d="M220.05518,209.44963c-0.69014,-0.01733 -1.23556,-0.59084 -1.21823,-1.28098c0.01733,-0.69014 0.59084,-1.23556 1.28098,-1.21823c0.69014,0.01733 1.23556,0.59084 1.21823,1.28098c-0.01733,0.69014 -0.59084,1.23556 -1.28098,1.21823z" fill="#000000" stroke="none" stroke-width="0.5" stroke-linecap="butt"/><path d="M215.05621,204.77629c-0.69014,-0.01733 -1.23556,-0.59084 -1.21823,-1.28098c0.01733,-0.69014 0.59084,-1.23556 1.28098,-1.21823c0.69014,0.01733 1.23556,0.59084 1.21823,1.28098c-0.01733,0.69014 -0.59084,1.23556 -1.28098,1.21823z" fill="#000000" stroke="none" stroke-width="0.5" stroke-linecap="butt"/><path d="M210.65864,198.7916c-0.69014,-0.01733 -1.23556,-0.59084 -1.21823,-1.28098c0.01733,-0.69014 0.59084,-1.23556 1.28098,-1.21823c0.69014,0.01733 1.23556,0.59084 1.21823,1.28098c-0.01733,0.69014 -0.59084,1.23556 -1.28098,1.21823z" fill="#000000" stroke="none" stroke-width="0.5" stroke-linecap="butt"/><path d="M207.78555,192.46621c-0.69014,-0.01733 -1.23556,-0.59084 -1.21823,-1.28098c0.01733,-0.69014 0.59084,-1.23556 1.28098,-1.21823c0.69014,0.01733 1.23556,0.59084 1.21823,1.28098c-0.01733,0.69014 -0.59084,1.23556 -1.28098,1.21823z" fill="#000000" stroke="none" stroke-width="0.5" stroke-linecap="butt"/><path d="M206.08199,184.84371c-0.69014,-0.01733 -1.23556,-0.59084 -1.21823,-1.28098c0.01733,-0.69014 0.59084,-1.23556 1.28098,-1.21823c0.69014,0.01733 1.23556,0.59084 1.21823,1.28098c-0.01733,0.69014 -0.59084,1.23556 -1.28098,1.21823z" fill="#000000" stroke="none" stroke-width="0.5" stroke-linecap="butt"/><path d="M225.01748,166.92433l25.26087,-0.11601" fill="none" stroke="#000000" stroke-width="2.5" stroke-linecap="round"/><path d="M263.06872,190.26174l-0.48461,-25.5202" fill="none" stroke="#000000" stroke-width="2.5" stroke-linecap="round"/></g></g></svg>