<svg version="1.1" xmlns="http://www.w3.org/2000/svg" xmlns:xlink="http://www.w3.org/1999/xlink" width="77.93297" height="85.1896" viewBox="0,0,77.93297,85.1896"><defs><linearGradient x1="202.27915" y1="175.50001" x2="277.72083" y2="175.50001" gradientUnits="userSpaceOnUse" id="color-1"><stop offset="0" stop-color="#fcf2ff"/><stop offset="1" stop-color="#ffffff"/></linearGradient></defs><g transform="translate(-201.03354,-132.90783)"><g data-paper-data="{&quot;isPaintingLayer&quot;:true}" fill-rule="nonzero" stroke="#000000" stroke-width="2.5" stroke-linejoin="miter" stroke-miterlimit="10" stroke-dasharray="" stroke-dashoffset="0" style="mix-blend-mode: normal"><path d="M240.56837,216.84217c-20.83024,0.36057 -37.97094,-17.85664 -38.28483,-40.6893c-0.31389,-22.83265 16.3179,-41.63448 37.14814,-41.99504c20.83024,-0.36057 37.97094,17.85664 38.28483,40.6893c0.31389,22.83265 -16.3179,41.63448 -37.14814,41.99504z" fill="url(#color-1)" stroke-linecap="butt"/><path d="M231.16651,185.25607v-27.30504" fill="none" stroke-linecap="round"/><path d="M248.38879,184.25858l0.33333,-25.31016" fill="none" stroke-linecap="round"/><path d="M254.25705,195.12313c0,0 -21.59373,0.76387 -26.92722,0.72396c-2.55504,-0.01911 -5.66858,-2.54143 -5.66858,-2.54143" fill="none" stroke-linecap="round"/><path d="M226.52029,158.09221c0,0 2.79331,-2.20671 4.32304,-2.05744c1.57341,0.15353 4.99006,2.96617 4.99006,2.96617" fill="none" stroke-linecap="round"/><path d="M244.06558,159.52641c0,0 2.79331,-2.20671 4.32304,-2.05744c1.57341,0.15353 4.99006,2.96617 4.99006,2.96617" fill="none" stroke-linecap="round"/></g></g></svg>