<svg version="1.1" xmlns="http://www.w3.org/2000/svg" xmlns:xlink="http://www.w3.org/1999/xlink" width="111.61644" height="148.5" viewBox="0,0,111.61644,148.5"><defs><linearGradient x1="240" y1="108" x2="240" y2="252" gradientUnits="userSpaceOnUse" id="color-1"><stop offset="0" stop-color="#000000"/><stop offset="1" stop-color="#525252"/></linearGradient><linearGradient x1="242.68965" y1="161.28692" x2="242.68965" y2="226.851" gradientUnits="userSpaceOnUse" id="color-2"><stop offset="0" stop-color="#d6bcbc"/><stop offset="1" stop-color="#413737"/></linearGradient><linearGradient x1="251.70284" y1="179.16619" x2="251.70284" y2="202.08171" gradientUnits="userSpaceOnUse" id="color-3"><stop offset="0" stop-color="#d60000"/><stop offset="1" stop-color="#d60066"/></linearGradient><linearGradient x1="232.9894" y1="179.04834" x2="232.9894" y2="201.96385" gradientUnits="userSpaceOnUse" id="color-4"><stop offset="0" stop-color="#d60000"/><stop offset="1" stop-color="#d60049"/></linearGradient></defs><g transform="translate(-184.19178,-105.75001)"><g stroke-miterlimit="10"><path d="M186.44178,248.21348c0,-17.0667 0,-88.07171 0,-135.66785c0,-2.99995 2.05724,-4.54562 4.83944,-4.54562c10.70155,0 81.52994,0 98.58683,0c2.1263,0 3.69017,1.08098 3.69017,3.3737c0,12.19511 0,133.25963 0,133.25963c0,0 0,2.37004 0,3.58014c0,3.04179 -2.89821,3.78653 -5.71921,3.78653c-20.48312,0 -89.43036,0 -98.20864,0c-1.80888,0 -3.18859,-3.78653 -3.18859,-3.78653z" fill="#ca0303" stroke="url(#color-1)" stroke-width="4.5"/><text transform="translate(197.59266,133.25822) scale(0.45376,0.45376)" font-size="40" xml:space="preserve" fill="#c9c9c9" stroke="none" stroke-width="1" font-family="Pixel" font-weight="normal" text-anchor="start"><tspan x="0" dy="0">PVP</tspan><tspan x="0" dy="48px">Bots</tspan></text><path d="M242.52855,161.28733c18.1048,-0.08897 32.85376,14.51574 32.94273,32.62053c0.08897,18.1048 -14.51574,32.85376 -32.62053,32.94273c-18.1048,0.08897 -32.85376,-14.51574 -32.94273,-32.62053c-0.08897,-18.1048 14.51574,-32.85376 32.62053,-32.94273z" fill="url(#color-2)" stroke="#652929" stroke-width="3.5"/><path d="M251.64653,179.16623c3.18672,-0.01566 5.79529,5.10144 5.82639,11.42937c0.0311,6.32792 -2.52704,11.47042 -5.71377,11.48608c-3.18672,0.01566 -5.79529,-5.10144 -5.82639,-11.42937c-0.0311,-6.32792 2.52704,-11.47042 5.71377,-11.48608z" fill="url(#color-3)" stroke="#000000" stroke-width="1.5"/><path d="M232.9331,179.04837c3.18673,-0.01566 5.79528,5.10144 5.82638,11.42937c0.0311,6.32792 -2.52704,11.47042 -5.71376,11.48608c-3.18673,0.01566 -5.79529,-5.10144 -5.82639,-11.42937c-0.0311,-6.32792 2.52704,-11.47042 5.71377,-11.48608z" fill="url(#color-4)" stroke="#000000" stroke-width="1.5"/></g></g></svg>