<svg version="1.1" xmlns="http://www.w3.org/2000/svg" xmlns:xlink="http://www.w3.org/1999/xlink" width="77.93297" height="76.19018" viewBox="0,0,77.93297,76.19018"><defs><linearGradient x1="240.00017" y1="143.15272" x2="240.00017" y2="216.84758" gradientUnits="userSpaceOnUse" id="color-1"><stop offset="0" stop-color="#5175ca"/><stop offset="1" stop-color="#39418e"/></linearGradient><linearGradient x1="225.82581" y1="162.88393" x2="225.82581" y2="182.31798" gradientUnits="userSpaceOnUse" id="color-2"><stop offset="0" stop-color="#ff0000"/><stop offset="1" stop-color="#e786ff"/></linearGradient><linearGradient x1="252.2211" y1="162.5351" x2="252.2211" y2="181.96916" gradientUnits="userSpaceOnUse" id="color-3"><stop offset="0" stop-color="#ff0000"/><stop offset="1" stop-color="#e57bff"/></linearGradient></defs><g transform="translate(-201.03369,-141.90741)"><g data-paper-data="{&quot;isPaintingLayer&quot;:true}" fill-rule="nonzero" stroke-linejoin="miter" stroke-miterlimit="10" stroke-dasharray="" stroke-dashoffset="0" style="mix-blend-mode: normal"><path d="M240.56852,216.8429c-20.83024,0.32133 -37.97094,-15.91323 -38.28483,-36.26093c-0.31389,-20.34768 16.3179,-37.10324 37.14814,-37.42456c20.83024,-0.32133 37.97094,15.91323 38.28483,36.26093c0.31389,20.34768 -16.3179,37.10324 -37.14814,37.42456z" fill="url(#color-1)" stroke="#000000" stroke-width="2.5" stroke-linecap="butt"/><path d="M235.81028,172.60096c0,5.36656 -4.4702,9.71702 -9.98447,9.71702c-5.51427,0 -9.98447,-4.35046 -9.98447,-9.71702c0,-5.36656 4.4702,-9.71702 9.98447,-9.71702c5.51427,0 9.98447,4.35046 9.98447,9.71702z" fill="url(#color-2)" stroke-opacity="0.88627" stroke="#4c0000" stroke-width="1.5" stroke-linecap="butt"/><path d="M262.20556,172.25213c0,5.36657 -4.47019,9.71702 -9.98447,9.71702c-5.51427,0 -9.98446,-4.35045 -9.98446,-9.71702c0,-5.36657 4.47019,-9.71703 9.98447,-9.71703c5.51427,0 9.98447,4.35046 9.98447,9.71703z" fill="url(#color-3)" stroke-opacity="0.88627" stroke="#4c0000" stroke-width="1.5" stroke-linecap="butt"/><path d="M218.94361,156.91483l15.196,10.218" fill="none" stroke-opacity="0.88627" stroke="#4c0000" stroke-width="2.5" stroke-linecap="round"/><path d="M258.79157,156.91418l-17.14869,11.75004" fill="none" stroke-opacity="0.88627" stroke="#4c0000" stroke-width="2.5" stroke-linecap="round"/><path d="M222.55756,196.39275c0,0 20.88403,-1.21324 27.01917,-1.03065c3.20554,0.0954 7.1174,2.04662 7.1174,2.04662" data-paper-data="{&quot;index&quot;:null}" fill="none" stroke-opacity="0.88627" stroke="#4c0000" stroke-width="2.5" stroke-linecap="round"/></g></g></svg>