<svg version="1.1" xmlns="http://www.w3.org/2000/svg" xmlns:xlink="http://www.w3.org/1999/xlink" width="392.14848" height="333.06621" viewBox="0,0,392.14848,333.06621"><defs><linearGradient x1="256.32258" y1="64.20475" x2="256.32258" y2="295.79525" gradientUnits="userSpaceOnUse" id="color-1"><stop offset="0" stop-color="#61a6c2"/><stop offset="1" stop-color="#3c7578"/></linearGradient><linearGradient x1="256.32258" y1="64.20475" x2="256.32258" y2="295.79525" gradientUnits="userSpaceOnUse" id="color-2"><stop offset="0" stop-color="#00d6d6"/><stop offset="1" stop-color="#5ab1d6"/></linearGradient><linearGradient x1="465.5" y1="65.20474" x2="465.5" y2="144.79526" gradientUnits="userSpaceOnUse" id="color-3"><stop offset="0" stop-color="#61a6c2"/><stop offset="1" stop-color="#3c7578"/></linearGradient><linearGradient x1="465.5" y1="65.20474" x2="465.5" y2="144.79526" gradientUnits="userSpaceOnUse" id="color-4"><stop offset="0" stop-color="#00d6d6"/><stop offset="1" stop-color="#5ab1d6"/></linearGradient><linearGradient x1="465.5" y1="215.20475" x2="465.5" y2="294.79526" gradientUnits="userSpaceOnUse" id="color-5"><stop offset="0" stop-color="#61a6c2"/><stop offset="1" stop-color="#3c7578"/></linearGradient><linearGradient x1="465.5" y1="215.20475" x2="465.5" y2="294.79526" gradientUnits="userSpaceOnUse" id="color-6"><stop offset="0" stop-color="#00d6d6"/><stop offset="1" stop-color="#5ab1d6"/></linearGradient><linearGradient x1="290.25208" y1="265.28542" x2="290.25208" y2="279.95209" gradientUnits="userSpaceOnUse" id="color-7"><stop offset="0" stop-color="#000000"/><stop offset="1" stop-color="#1f1f1f"/></linearGradient><linearGradient x1="465.42044" y1="87.60923" x2="465.42044" y2="137.0159" gradientUnits="userSpaceOnUse" id="color-8"><stop offset="0" stop-color="#b1aab3"/><stop offset="1" stop-color="#ffffff"/></linearGradient><linearGradient x1="320.84929" y1="317.52598" x2="320.84929" y2="348.45587" gradientUnits="userSpaceOnUse" id="color-9"><stop offset="0" stop-color="#61a6c2"/><stop offset="1" stop-color="#3c7578"/></linearGradient><linearGradient x1="320.84929" y1="317.52598" x2="320.84929" y2="348.45587" gradientUnits="userSpaceOnUse" id="color-10"><stop offset="0" stop-color="#00d6d6"/><stop offset="1" stop-color="#5ab1d6"/></linearGradient><linearGradient x1="465.81469" y1="262.00222" x2="465.81469" y2="273.1295" gradientUnits="userSpaceOnUse" id="color-11"><stop offset="0" stop-color="#000000"/><stop offset="1" stop-color="#5d5d5d"/></linearGradient><linearGradient x1="459.30032" y1="240.54503" x2="459.30032" y2="253.22984" gradientUnits="userSpaceOnUse" id="color-12"><stop offset="0" stop-color="#000000"/><stop offset="1" stop-color="#5d5d5d"/></linearGradient><linearGradient x1="465.07528" y1="240.17092" x2="465.07528" y2="287.67627" gradientUnits="userSpaceOnUse" id="color-13"><stop offset="0" stop-color="#40cccc"/><stop offset="1" stop-color="#595959"/></linearGradient><linearGradient x1="465.07527" y1="240.17091" x2="465.07527" y2="287.67627" gradientUnits="userSpaceOnUse" id="color-14"><stop offset="0" stop-color="#000000"/><stop offset="1" stop-color="#5d5d5d"/></linearGradient><linearGradient x1="473.02726" y1="248.40179" x2="473.02726" y2="255.40962" gradientUnits="userSpaceOnUse" id="color-15"><stop offset="0" stop-color="#000000"/><stop offset="1" stop-color="#5d5d5d"/></linearGradient><linearGradient x1="477.46923" y1="246.29409" x2="477.46923" y2="254.32583" gradientUnits="userSpaceOnUse" id="color-16"><stop offset="0" stop-color="#000000"/><stop offset="1" stop-color="#5d5d5d"/></linearGradient><linearGradient x1="481.6221" y1="244.82047" x2="481.6221" y2="252.95858" gradientUnits="userSpaceOnUse" id="color-17"><stop offset="0" stop-color="#000000"/><stop offset="1" stop-color="#5d5d5d"/></linearGradient></defs><g transform="translate(-129.6941,-17.13967)"><g stroke-miterlimit="10"><path d="M131.65591,289.57391c0,-19.52998 0,-191.01385 0,-220.92777c0,-2.87415 1.79998,-4.4414 4.37011,-4.4414c17.63279,0 208.64584,0 240.4781,0c2.90576,0 4.48512,1.64388 4.48512,3.99643c0,16.27975 0,194.08072 0,223.48635c0,2.66186 -1.3386,4.10773 -3.81766,4.10773c-29.23263,0 -217.04357,0 -238.58698,0c-3.95113,0 -6.92869,-2.66471 -6.92869,-6.22134z" fill="url(#color-1)" stroke="url(#color-2)" stroke-width="3.5" stroke-linecap="butt"/><path d="M422.65592,140.62008c0,-8.27735 0,-58.58747 0,-72.0852c0,-2.11848 1.25709,-3.33014 3.4624,-3.33014c14.61315,0 70.86097,0 78.87099,0c1.86089,0 3.35478,1.16848 3.35478,3.2189c0,13.70402 0,66.80384 0,73.75383c0,1.47346 -1.21663,2.61778 -3.35478,2.61778c-14.26118,0 -69.51805,0 -78.20354,0c-2.24749,0 -4.12985,-1.9219 -4.12985,-4.17517z" fill="url(#color-3)" stroke="url(#color-4)" stroke-width="3.5" stroke-linecap="butt"/><path d="M422.65592,291.02006c0,-8.03064 0,-59.57778 0,-72.75265c0,-1.95288 1.17249,-3.06266 3.23991,-3.06266c14.39161,0 72.14948,0 79.64969,0c1.57611,0 2.79857,1.27876 2.79857,3.50763c0,14.04397 0,65.80929 0,73.08638c0,1.66779 -1.08985,2.9965 -3.02105,2.9965c-14.07071,0 -72.80533,0 -80.09466,0c-1.4584,0 -2.57245,-1.71756 -2.57245,-3.7752z" fill="url(#color-5)" stroke="url(#color-6)" stroke-width="3.5" stroke-linecap="butt"/><path d="M262.18958,279.95209v-14.66667h56.125v14.66667z" fill="url(#color-7)" stroke="#000000" stroke-width="2.5" stroke-linecap="butt"/><path d="M297.06458,271.61875l-0.125,3h-13.375v-2.75" fill="none" stroke="#ffffff" stroke-width="2.5" stroke-linecap="round"/><text transform="translate(191.68542,279.26875) scale(0.5,0.5)" font-size="40" xml:space="preserve" fill="#000000" stroke="none" stroke-width="1" stroke-linecap="butt" font-family="Pixel" font-weight="normal" text-anchor="start"><tspan x="0" dy="0">Press</tspan></text><text transform="translate(140.8,88.05465) scale(0.40426,0.40426)" font-size="40" xml:space="preserve" fill="#000000" stroke="none" stroke-width="1" stroke-linecap="butt" font-family="Pixel" font-weight="normal" text-anchor="start"><tspan x="0" dy="0">Tactigun! 2                        1.0.0</tspan></text><text transform="translate(140.57417,113.55559) scale(0.33939,0.33939)" font-size="40" xml:space="preserve" fill="#000000" stroke="none" stroke-width="1" stroke-linecap="butt" font-family="Pixel" font-weight="normal" text-anchor="start"><tspan x="0" dy="0">Welcome to the biggest</tspan><tspan x="0" dy="46.150000000000006px">overhaul yet!</tspan><tspan x="0" dy="46.150000000000006px"> </tspan><tspan x="0" dy="46.150000000000006px">- Remastered skins!</tspan><tspan x="0" dy="46.150000000000006px">- Better gameplay!</tspan><tspan x="0" dy="46.150000000000006px">- Dungeon masters computer?</tspan><tspan x="0" dy="46.150000000000006px">- Changeable guns!</tspan><tspan x="0" dy="46.150000000000006px">- Pets!</tspan><tspan x="0" dy="46.150000000000006px">- Lobby themes!</tspan></text><text transform="translate(428.57527,78.77311) scale(0.24094,0.24094)" font-size="40" xml:space="preserve" fill="#000000" stroke="none" stroke-width="1" stroke-linecap="butt" font-family="Pixel" font-weight="normal" text-anchor="start"><tspan x="0" dy="0">Skin Spotlight:</tspan></text><text transform="translate(428.52739,230.16156) scale(0.24095,0.24095)" font-size="40" xml:space="preserve" fill="#000000" stroke="none" stroke-width="1" stroke-linecap="butt" font-family="Pixel" font-weight="normal" text-anchor="start"><tspan x="0" dy="0">Gun Spotlight:</tspan></text><path d="M440.33085,115.38909c-1.65976,-13.53561 8.22774,-25.88578 22.08434,-27.5849c13.8566,-1.69913 26.4351,7.89625 28.09486,21.43184c1.65976,13.53561 -8.22774,25.88578 -22.08434,27.5849c-13.8566,1.69913 -26.43509,-7.89624 -28.09485,-21.43184z" fill="url(#color-8)" stroke="#000000" stroke-width="1.5" stroke-linecap="butt"/><path d="M459.50109,101.8327v16.30621" fill="none" stroke="#000000" stroke-width="1.5" stroke-linecap="round"/><path d="M471.04204,117.54322l0.22337,-15.1149" fill="none" stroke="#000000" stroke-width="1.5" stroke-linecap="round"/><path d="M475.43341,122.94602c0,0 -2.08644,1.50629 -3.79862,1.5177c-3.57407,0.02383 -18.04443,-0.43234 -18.04443,-0.43234" fill="none" stroke="#000000" stroke-width="1.5" stroke-linecap="round"/><path d="M456.38756,96.55131c0,0 1.87185,-1.31781 2.89695,-1.22868c1.05437,0.09169 3.34393,1.77136 3.34393,1.77136" fill="none" stroke="#000000" stroke-width="1.5" stroke-linecap="round"/><path d="M474.38586,99.6202c0,0 -2.28956,1.67967 -3.34393,1.77136c-1.0251,0.08914 -2.89695,-1.22868 -2.89695,-1.22868" fill="none" stroke="#000000" stroke-width="1.5" stroke-linecap="round"/><text transform="translate(217.01543,51.49229) scale(0.68025,0.68025)" font-size="40" xml:space="preserve" fill="#ffffff" stroke="none" stroke-width="1" stroke-linecap="butt" font-family="Pixel" font-weight="normal" text-anchor="start"><tspan x="0" dy="0">News!</tspan></text><text transform="translate(408.35262,186.20333) scale(0.51237,0.51237)" font-size="40" xml:space="preserve" fill="#ffffff" stroke="none" stroke-width="1" stroke-linecap="butt" font-family="Pixel" font-weight="normal" text-anchor="start"><tspan x="0" dy="0">Cosmetics!</tspan></text><path d="M131.4441,346.98878c0,-3.12081 0,-23.15269 0,-28.27262c0,-0.75891 5.18335,-1.19019 14.323,-1.19019c63.62246,0 318.95857,0 352.11551,0c6.96767,0 12.37192,0.49694 12.37192,1.36311c0,5.45767 0,25.57434 0,28.40231c0,0.64812 -4.81801,1.16448 -13.35546,1.16448c-62.20382,0 -321.85795,0 -354.08264,0c-6.4473,0 -11.37229,-0.66747 -11.37229,-1.46709z" fill="url(#color-9)" stroke="url(#color-10)" stroke-width="3.5" stroke-linecap="butt"/><text transform="translate(162.07794,338.5359) scale(0.32878,0.32878)" font-size="40" xml:space="preserve" fill="#000000" stroke="none" stroke-width="1" stroke-linecap="butt" font-family="Pixel" font-weight="normal" text-anchor="start"><tspan x="0" dy="0">Make sure to read instructions before playing!</tspan></text><text transform="translate(277.27322,260.07235) scale(0.16148,0.16148)" font-size="40" xml:space="preserve" fill="#000000" stroke="none" stroke-width="1" stroke-linecap="butt" font-family="Pixel" font-weight="normal" text-anchor="start"><tspan x="0" dy="0">(Space)</tspan></text><text transform="translate(428.3907,208.20505) scale(0.26917,0.26917)" font-size="40" xml:space="preserve" fill="#ffffff" stroke="none" stroke-width="1" stroke-linecap="butt" font-family="Pixel" font-weight="normal" text-anchor="start"><tspan x="0" dy="0">Hand Cannon</tspan></text><text transform="translate(432.52542,57.22814) scale(0.26917,0.26917)" font-size="40" xml:space="preserve" fill="#ffffff" stroke="none" stroke-width="1" stroke-linecap="butt" font-family="Pixel" font-weight="normal" text-anchor="start"><tspan x="0" dy="0">SmirkSmirk</tspan></text><path d="M466.85255,262.00222l2.86352,8.6864l-7.80276,2.44087" fill="none" stroke="url(#color-11)" stroke-width="1.5" stroke-linecap="round"/><path d="M447.07535,253.22984l-0.83627,-3.8041l23.53025,-8.88071l2.5922,4.94228z" fill="#000000" stroke="url(#color-12)" stroke-width="1.5" stroke-linecap="butt"/><path d="M452.47772,287.67627l-12.36395,-31.70303c0,0 6.40127,-2.27911 11.08863,-3.94799c8.12228,-2.89186 33.29495,-11.85434 33.29495,-11.85434l5.53944,13.26874l-31.51576,11.13837l7.19755,18.28411z" fill="url(#color-13)" stroke="url(#color-14)" stroke-width="1.5" stroke-linecap="round"/><path d="M471.43843,248.40179l3.17765,7.00783" fill="none" stroke="url(#color-15)" stroke-width="1.5" stroke-linecap="round"/><path d="M479.0405,254.32583l-3.14254,-8.03174" fill="none" stroke="url(#color-16)" stroke-width="1.5" stroke-linecap="round"/><path d="M483.0608,252.95858l-2.87741,-8.13811" fill="none" stroke="url(#color-17)" stroke-width="1.5" stroke-linecap="round"/></g></g></svg>