<svg version="1.1" xmlns="http://www.w3.org/2000/svg" xmlns:xlink="http://www.w3.org/1999/xlink" width="76.23158" height="77.92171" viewBox="0,0,76.23158,77.92171"><defs><linearGradient x1="203.13659" y1="180.22998" x2="276.86342" y2="179.77003" gradientUnits="userSpaceOnUse" id="color-1"><stop offset="0" stop-color="#b1aab3"/><stop offset="1" stop-color="#ffffff"/></linearGradient></defs><g transform="translate(-201.88421,-141.03914)"><g stroke="#000000" stroke-width="2.5" stroke-miterlimit="10"><path d="M244.82451,217.41118c-20.18299,2.60277 -38.70451,-12.03682 -41.36901,-32.69844c-2.66451,-20.66162 11.53703,-39.52114 31.72,-42.12391c20.18299,-2.60277 38.70451,12.03682 41.36901,32.69844c2.66451,20.66162 -11.53702,39.52113 -31.72,42.1239z" fill="url(#color-1)" stroke-linecap="butt"/><path d="M248.74945,188.77889l-24.33286,0.1518" fill="none" stroke-linecap="round"/><path d="M225.19589,171.3699l22.5572,0.19261" fill="none" stroke-linecap="round"/><path d="M255.77878,165.64401c0,0 2.26718,3.09946 2.30015,5.65434c0.06883,5.33316 -0.47717,26.93072 -0.47717,26.93072" fill="none" stroke-linecap="round"/><path d="M216.56445,193.626c0,0 -1.98393,-2.78099 -1.86045,-4.31152c0.127,-1.57423 2.61217,-5.00645 2.61217,-5.00645" fill="none" stroke-linecap="round"/><path d="M220.97644,166.73956c0,0 2.5278,3.40095 2.67443,4.97347c0.14256,1.52887 -1.80652,4.33439 -1.80652,4.33439" fill="none" stroke-linecap="round"/></g></g></svg>