<svg version="1.1" xmlns="http://www.w3.org/2000/svg" xmlns:xlink="http://www.w3.org/1999/xlink" width="76.97336" height="73.27094" viewBox="0,0,76.97336,73.27094"><defs><linearGradient x1="241.10102" y1="177.13901" x2="241.10102" y2="193.70793" gradientUnits="userSpaceOnUse" id="color-1"><stop offset="0" stop-color="#000000"/><stop offset="1" stop-color="#5d5d5d"/></linearGradient><linearGradient x1="231.40088" y1="145.18846" x2="231.40088" y2="164.07661" gradientUnits="userSpaceOnUse" id="color-2"><stop offset="0" stop-color="#000000"/><stop offset="1" stop-color="#5d5d5d"/></linearGradient><linearGradient x1="240.00001" y1="144.6314" x2="240.00001" y2="215.36861" gradientUnits="userSpaceOnUse" id="color-3"><stop offset="0" stop-color="#40cccc"/><stop offset="1" stop-color="#595959"/></linearGradient><linearGradient x1="240" y1="144.63139" x2="240" y2="215.36861" gradientUnits="userSpaceOnUse" id="color-4"><stop offset="0" stop-color="#000000"/><stop offset="1" stop-color="#5d5d5d"/></linearGradient><linearGradient x1="251.8408" y1="156.88747" x2="251.8408" y2="167.32239" gradientUnits="userSpaceOnUse" id="color-5"><stop offset="0" stop-color="#000000"/><stop offset="1" stop-color="#5d5d5d"/></linearGradient><linearGradient x1="258.45506" y1="153.74903" x2="258.45506" y2="165.70858" gradientUnits="userSpaceOnUse" id="color-6"><stop offset="0" stop-color="#000000"/><stop offset="1" stop-color="#5d5d5d"/></linearGradient><linearGradient x1="264.63883" y1="151.55476" x2="264.63883" y2="163.6727" gradientUnits="userSpaceOnUse" id="color-7"><stop offset="0" stop-color="#000000"/><stop offset="1" stop-color="#5d5d5d"/></linearGradient></defs><g transform="translate(-201.52541,-143.37137)"><g data-paper-data="{&quot;isPaintingLayer&quot;:true}" fill-rule="nonzero" stroke-linejoin="miter" stroke-miterlimit="10" stroke-dasharray="" stroke-dashoffset="0" style="mix-blend-mode: normal"><path d="M242.64643,177.13901l4.26389,12.93437l-11.6186,3.63455" fill="none" stroke="url(#color-1)" stroke-width="3.5" stroke-linecap="round"/><path d="M213.19746,164.07661l-1.24523,-5.66445l35.03741,-13.2237l3.85988,7.35924z" fill="#000000" stroke="url(#color-2)" stroke-width="1.5" stroke-linecap="butt"/><path d="M221.24178,215.36861l-18.41038,-47.20698c0,0 9.53172,-3.39368 16.51137,-5.8787c12.09437,-4.30609 49.5774,-17.65154 49.5774,-17.65154l8.24843,19.75764l-46.92812,16.58544l10.71741,27.22571z" data-paper-data="{&quot;index&quot;:null}" fill="url(#color-3)" stroke="url(#color-4)" stroke-width="2" stroke-linecap="round"/><path d="M254.20662,167.32239l-4.73164,-10.43492" fill="none" stroke="url(#color-5)" stroke-width="1.5" stroke-linecap="round"/><path d="M260.79473,165.70858l-4.67935,-11.95955" fill="none" stroke="url(#color-6)" stroke-width="1.5" stroke-linecap="round"/><path d="M266.78111,163.6727l-4.28457,-12.11794" fill="none" stroke="url(#color-7)" stroke-width="1.5" stroke-linecap="round"/></g></g></svg>