<svg version="1.1" xmlns="http://www.w3.org/2000/svg" xmlns:xlink="http://www.w3.org/1999/xlink" width="136.45938" height="69.06406" viewBox="0,0,136.45938,69.06406"><defs><linearGradient x1="207.21797" y1="180" x2="272.78203" y2="180" gradientUnits="userSpaceOnUse" id="color-1"><stop offset="0" stop-color="#d6bcbc"/><stop offset="1" stop-color="#b69999"/></linearGradient><linearGradient x1="234.33269" y1="167.01588" x2="257.24841" y2="167.01588" gradientUnits="userSpaceOnUse" id="color-2"><stop offset="0" stop-color="#d60000"/><stop offset="1" stop-color="#d67284"/></linearGradient><linearGradient x1="235.37414" y1="188.22114" x2="258.28986" y2="188.22114" gradientUnits="userSpaceOnUse" id="color-3"><stop offset="0" stop-color="#d60000"/><stop offset="1" stop-color="#d67284"/></linearGradient><linearGradient x1="288.28099" y1="179.58742" x2="324.84483" y2="179.58742" gradientUnits="userSpaceOnUse" id="color-4"><stop offset="0" stop-color="#000000"/><stop offset="1" stop-color="#3c3c3c"/></linearGradient></defs><g transform="translate(-205.46797,-145.46797)"><g stroke="#000000" stroke-miterlimit="10"><path d="M207.21797,180c0,-18.10502 14.67702,-32.78203 32.78203,-32.78203c18.10502,0 32.78203,14.67702 32.78203,32.78203c0,18.10502 -14.67702,32.78203 -32.78203,32.78203c-18.10502,0 -32.78203,-14.67702 -32.78203,-32.78203z" fill="url(#color-1)" stroke-width="3.5"/><path d="M234.33269,167.01588c0,-3.18676 5.12986,-5.77015 11.45786,-5.77015c6.328,0 11.45786,2.58338 11.45786,5.77015c0,3.18676 -5.12986,5.77015 -11.45786,5.77015c-6.328,0 -11.45786,-2.58338 -11.45786,-5.77015z" fill="url(#color-2)" stroke-width="1.5"/><path d="M235.37414,188.22114c0,-3.18677 5.12986,-5.77014 11.45786,-5.77014c6.328,0 11.45786,2.58338 11.45786,5.77014c0,3.18677 -5.12986,5.77015 -11.45786,5.77015c-6.328,0 -11.45786,-2.58338 -11.45786,-5.77015z" fill="url(#color-3)" stroke-width="1.5"/><path d="M288.28099,187.27973v-15.38462h36.56384v15.38462z" fill="url(#color-4)" stroke-width="3.5"/><path d="M325.12393,181.12588v-3.84615h15.05342v3.84615z" fill="#000000" stroke-width="3.5"/><path d="M313.66952,173.23086c-7.59682,0.73771 -14.56108,-3.45406 -15.5551,-9.36257c-0.99403,-5.9085 4.3586,-11.29633 11.95542,-12.03404c7.59682,-0.73771 14.56107,3.45405 15.55509,9.36256c0.75079,4.4627 -2.11905,8.62836 -6.84185,10.71768c-1.53007,0.67688 -3.25462,1.13584 -5.11356,1.31636z" fill="#d2b8b8" stroke-width="2.5"/><path d="M297.96821,208.87234c-5.76169,0.8117 -11.10609,-3.31183 -11.93704,-9.21017c-0.83095,-5.89833 3.16621,-11.33789 8.9279,-12.14959c5.76169,-0.8117 11.10608,3.31183 11.93703,9.21017c0.83095,5.89833 -3.1662,11.33789 -8.92789,12.14959z" fill="#d2b8b8" stroke-width="2.5"/></g></g></svg>