<svg version="1.1" xmlns="http://www.w3.org/2000/svg" xmlns:xlink="http://www.w3.org/1999/xlink" width="209.50001" height="87.5" viewBox="0,0,209.50001,87.5"><defs><linearGradient x1="240.00001" y1="139.50001" x2="240.00001" y2="220.50001" gradientUnits="userSpaceOnUse" id="color-1"><stop offset="0" stop-color="#6af71e"/><stop offset="1" stop-color="#f7801e"/></linearGradient><linearGradient x1="239.99976" y1="157.83685" x2="239.99976" y2="202.16194" gradientTransform="translate(-153.32079,-198.94764) scale(1.04117,1.04117)" gradientUnits="userSpaceOnUse" id="color-2"><stop offset="0" stop-color="#000000"/><stop offset="1" stop-color="#585858"/></linearGradient></defs><g transform="translate(-135.24999,-136.25)"><g stroke-miterlimit="10"><path d="M138.5,211.06075c0,-9.79073 0,-46.9586 0,-63.51748c0,-4.93799 3.42054,-8.04327 7.70702,-8.04327c18.27771,0 145.71937,0 184.27049,0c6.95986,0 11.02249,4.51842 11.02249,8.91576c0,9.32683 0,44.84858 0,62.29599c0,5.94247 -4.26726,9.78825 -11.54599,9.78825c-39.01669,0 -164.56383,0 -183.2235,0c-4.55139,0 -8.23052,-4.82299 -8.23052,-9.43926z" fill="url(#color-1)" stroke="#00f773" stroke-width="6.5"/><text transform="translate(147.25849,191.08125) scale(0.96046,0.96046)" font-size="40" xml:space="preserve" fill="url(#color-2)" stroke="none" stroke-width="1" font-family="Marker" font-weight="normal" text-anchor="start"><tspan x="0" dy="0">Skip Intro</tspan></text></g></g></svg>