<svg version="1.1" xmlns="http://www.w3.org/2000/svg" xmlns:xlink="http://www.w3.org/1999/xlink" width="132.6556" height="40.91539" viewBox="0,0,132.6556,40.91539"><defs><linearGradient x1="290.97362" y1="170.54229" x2="290.97362" y2="188.58573" gradientUnits="userSpaceOnUse" id="color-1"><stop offset="0" stop-color="#008a20"/><stop offset="1" stop-color="#005252"/></linearGradient><linearGradient x1="349.11974" y1="160.17418" x2="349.11974" y2="198.58957" gradientUnits="userSpaceOnUse" id="color-2"><stop offset="0" stop-color="#008a20"/><stop offset="1" stop-color="#005252"/></linearGradient><linearGradient x1="347.43878" y1="168.12108" x2="347.43878" y2="182.016" gradientUnits="userSpaceOnUse" id="color-3"><stop offset="0" stop-color="#ffffff"/><stop offset="1" stop-color="#005252"/></linearGradient><linearGradient x1="351.55777" y1="173.9662" x2="351.55777" y2="177.03126" gradientUnits="userSpaceOnUse" id="color-4"><stop offset="0" stop-color="#000000"/><stop offset="1" stop-color="#005252"/></linearGradient><linearGradient x1="350.48643" y1="186.51142" x2="350.48643" y2="196.79279" gradientUnits="userSpaceOnUse" id="color-5"><stop offset="0" stop-color="#000000"/><stop offset="1" stop-color="#005252"/></linearGradient><linearGradient x1="349.00895" y1="169.29276" x2="349.00895" y2="174.19685" gradientUnits="userSpaceOnUse" id="color-6"><stop offset="0" stop-color="#000000"/><stop offset="1" stop-color="#005252"/></linearGradient><linearGradient x1="348.24283" y1="188.51176" x2="348.24283" y2="193.02869" gradientUnits="userSpaceOnUse" id="color-7"><stop offset="0" stop-color="#000000"/><stop offset="1" stop-color="#005252"/></linearGradient><linearGradient x1="347.22114" y1="192.27585" x2="347.22114" y2="196.14751" gradientUnits="userSpaceOnUse" id="color-8"><stop offset="0" stop-color="#000000"/><stop offset="1" stop-color="#005252"/></linearGradient></defs><g transform="translate(-247.37477,-158.92418)"><g stroke-width="2.5" stroke-miterlimit="10"><path d="M248.62477,188.58573v-18.04344h84.69775v18.04344z" fill="url(#color-1)" stroke="#000000" stroke-linecap="butt"/><path d="M332.00593,198.58957l0.40868,-37.59804l0.40868,-0.81735c0,0 11.10795,-0.01813 17.15572,2.40527c0.36241,0.14522 28.81129,16.43327 28.80136,19.26675c-0.00815,2.32766 -4.98715,5.09478 -5.79445,5.49371c-2.1581,1.06635 -15.09961,5.89824 -21.38523,7.91281c-9.05285,2.90149 -19.59475,3.33685 -19.59475,3.33685z" fill="url(#color-2)" stroke="#000000" stroke-linecap="butt"/><path d="M354.59058,175.06854c0,3.83698 -3.20198,6.94746 -7.1518,6.94746c-3.94984,0 -7.1518,-3.11048 -7.1518,-6.94746c0,-3.83698 3.20196,-6.94746 7.1518,-6.94746c3.94984,0 7.1518,3.11048 7.1518,6.94746z" fill="url(#color-3)" stroke="#000000" stroke-linecap="butt"/><path d="M350.02524,175.49873c0,-0.84641 0.68613,-1.53253 1.53253,-1.53253c0.84641,0 1.53253,0.68613 1.53253,1.53253c0,0.84641 -0.68613,1.53252 -1.53253,1.53252c-0.84641,0 -1.53253,-0.68612 -1.53253,-1.53252z" fill="url(#color-4)" stroke="none" stroke-linecap="butt"/><path d="M336.57409,196.79279l2.48686,-10.28137c0,0 6.16892,1.47685 10.31232,1.83996c5.30077,0.46453 18.88419,0.71866 18.88419,0.71866" fill="url(#color-5)" stroke="#000000" stroke-linecap="round"/><path d="M343.49185,169.29276c0,0 4.05541,1.63091 5.92109,2.4601c1.81074,0.80478 5.11311,2.444 5.11311,2.444" fill="url(#color-6)" stroke="#000000" stroke-linecap="round"/><path d="M356.90026,192.5985l-3.65655,-3.01128l-4.19429,3.44147l-2.47356,-3.9792l-4.51694,3.9792l-2.47355,-4.51694" fill="url(#color-7)" stroke="#000000" stroke-linecap="round"/><path d="M338.40238,196.14751l4.08675,-2.90373l1.50566,2.15091l4.08674,-2.04337l3.54901,0.96791l4.40939,-2.04337" fill="url(#color-8)" stroke="#000000" stroke-linecap="round"/></g></g></svg>