<svg version="1.1" xmlns="http://www.w3.org/2000/svg" xmlns:xlink="http://www.w3.org/1999/xlink" width="77.93297" height="105.22311" viewBox="0,0,77.93297,105.22311"><defs><linearGradient x1="240.00016" y1="143.15269" x2="240.00016" y2="216.84756" gradientUnits="userSpaceOnUse" id="color-1"><stop offset="0" stop-color="#ffad50"/><stop offset="1" stop-color="#309a8c"/></linearGradient><linearGradient x1="240.447" y1="202.37531" x2="240.447" y2="213.82684" gradientUnits="userSpaceOnUse" id="color-2"><stop offset="0" stop-color="#caff69"/><stop offset="1" stop-color="#ff7d67"/></linearGradient></defs><g transform="translate(-201.03367,-118.62619)"><g stroke="#000000" stroke-miterlimit="10"><path d="M234.97551,143.07477v-23.94858h9.58189v23.94858z" fill="#ff0025" stroke-width="1" stroke-linecap="butt"/><path d="M240.56851,216.84287c-20.83024,0.32133 -37.97094,-15.91323 -38.28483,-36.26093c-0.31389,-20.34768 16.3179,-37.10324 37.14814,-37.42456c20.83024,-0.32133 37.97094,15.91323 38.28483,36.26093c0.31389,20.34768 -16.3179,37.10324 -37.14814,37.42456z" fill="url(#color-1)" stroke-width="2.5" stroke-linecap="butt"/><path d="M239.44849,215.9876c0,4.06575 -1.41255,7.3617 -3.15502,7.3617c-1.74247,0 -3.15501,-3.29594 -3.15501,-7.3617c0,-4.06575 1.41254,-7.3617 3.15501,-7.3617c1.74247,0 3.15502,3.29594 3.15502,7.3617z" fill="#ff0025" stroke-width="1" stroke-linecap="butt"/><path d="M224.69251,201.81571l14.34959,-11.45153h0.65225l16.30636,11.45153z" fill="#caff69" stroke-width="1" stroke-linecap="butt"/><path d="M246.67683,215.95481c0,4.06575 -1.41254,7.36169 -3.15501,7.36169c-1.74246,0 -3.15501,-3.29594 -3.15501,-7.36169c0,-4.06575 1.41256,-7.36169 3.15501,-7.36169c1.74246,0 3.15501,3.29594 3.15501,7.36169z" fill="#ff0025" stroke-width="1" stroke-linecap="butt"/><path d="M256.1011,202.37531l-16.30636,11.45153h-0.65226l-14.34959,-11.45153z" fill="url(#color-2)" stroke-width="1" stroke-linecap="butt"/><path d="M231.15976,163.27778l-0.625,22.25" fill="none" stroke-width="2.5" stroke-linecap="round"/><path d="M248.43754,164.25l-0.375,20.125" fill="none" stroke-width="2.5" stroke-linecap="round"/></g></g></svg>