<svg version="1.1" xmlns="http://www.w3.org/2000/svg" xmlns:xlink="http://www.w3.org/1999/xlink" width="75.72278" height="77.69292" viewBox="0,0,75.72278,77.69292"><defs><linearGradient x1="203.13731" y1="179.67433" x2="276.8627" y2="180.32568" gradientUnits="userSpaceOnUse" id="color-1"><stop offset="0" stop-color="#b1aab3"/><stop offset="1" stop-color="#ffffff"/></linearGradient></defs><g transform="translate(-202.13861,-141.27035)"><g stroke="#000000" stroke-width="2.5" stroke-miterlimit="10"><path d="M244.26008,217.47964c-20.21992,2.29827 -38.51869,-12.61883 -40.87147,-33.31826c-2.35278,-20.69943 12.13141,-39.34276 32.35131,-41.64103c20.21992,-2.29827 38.51869,12.61883 40.87147,33.31826c2.35278,20.69943 -12.1314,39.34275 -32.35131,41.64102z" fill="url(#color-1)" stroke-linecap="butt"/><path d="M250.80037,190.50133l-23.39984,0.36742" fill="none" stroke-linecap="round"/><path d="M250.10513,171.71236l-23.97013,-0.06824" fill="none" stroke-linecap="round"/><path d="M260.23528,164.91994c0,0 3.17688,2.41998 3.20178,4.04541c0.07044,4.59892 0.40461,26.41637 0.40461,26.41637" fill="none" stroke-linecap="round"/><path d="M226.6385,195.88582c0,0 -1.16211,-2.76146 -1.16998,-4.31762c-0.00931,-1.84084 1.11775,-6.01753 1.11775,-6.01753" fill="none" stroke-linecap="round"/><path d="M225.94328,177.09685c0,0 -1.26507,-3.02976 -1.24989,-4.74778c0.01811,-2.0503 1.35134,-6.73431 1.35134,-6.73431" fill="none" stroke-linecap="round"/></g></g></svg>