<svg version="1.1" xmlns="http://www.w3.org/2000/svg" xmlns:xlink="http://www.w3.org/1999/xlink" width="118.12012" height="107.32893" viewBox="0,0,118.12012,107.32893"><defs><linearGradient x1="273.5375" y1="128.62814" x2="273.5375" y2="154.73566" gradientUnits="userSpaceOnUse" id="color-1"><stop offset="0" stop-color="#ffffff"/><stop offset="1" stop-color="#1a1a1a"/></linearGradient><linearGradient x1="206.4625" y1="127.82814" x2="206.4625" y2="153.93566" gradientUnits="userSpaceOnUse" id="color-2"><stop offset="0" stop-color="#ffffff"/><stop offset="1" stop-color="#1a1a1a"/></linearGradient><linearGradient x1="240.14418" y1="129.23266" x2="240.14418" y2="202.96092" gradientUnits="userSpaceOnUse" id="color-3"><stop offset="0" stop-color="#2e2d2f"/><stop offset="1" stop-color="#dbdbdb"/></linearGradient><linearGradient x1="241.1441" y1="210.92187" x2="241.1441" y2="232.17187" gradientUnits="userSpaceOnUse" id="color-4"><stop offset="0" stop-color="#1d122f"/><stop offset="1" stop-color="#62e3ff"/></linearGradient><linearGradient x1="241.1441" y1="210.92187" x2="241.1441" y2="232.17187" gradientUnits="userSpaceOnUse" id="color-5"><stop offset="0" stop-color="#000000"/><stop offset="1" stop-color="#e60000"/></linearGradient><linearGradient x1="183.39767" y1="179.17412" x2="183.39767" y2="206.01424" gradientUnits="userSpaceOnUse" id="color-6"><stop offset="0" stop-color="#2e2d2f"/><stop offset="1" stop-color="#dbdbdb"/></linearGradient></defs><g transform="translate(-168.41898,-125.59294)"><g stroke-miterlimit="10"><path d="M261.78589,145.89927l22.89428,-17.27113c0,0 1.5153,8.89828 -0.23483,12.56792c-0.5748,1.20523 -0.78708,2.95607 -2.06316,4.47168c-3.75388,4.45847 -10.15328,9.06793 -10.15328,9.06793" fill="url(#color-1)" stroke="#000000" stroke-width="2.5" stroke-linecap="round"/><path d="M207.7711,153.93566c0,0 -6.02162,-3.61154 -9.70293,-7.7658c-1.65484,-1.86745 -1.81088,-4.30053 -2.51351,-5.7738c-1.75013,-3.66963 -0.23483,-12.56791 -0.23483,-12.56791l22.89428,17.27113" fill="url(#color-2)" stroke="#000000" stroke-width="2.5" stroke-linecap="round"/><path d="M202.70364,170.68781c-2.47681,-20.19883 12.27804,-38.62867 32.95588,-41.16422c20.67784,-2.53556 39.4484,11.78336 41.92521,31.98217c2.47681,20.19883 -12.27804,38.62867 -32.95588,41.16422c-20.67784,2.53556 -39.44839,-11.78335 -41.9252,-31.98217z" fill="url(#color-3)" stroke="#000000" stroke-width="2.5" stroke-linecap="butt"/><path d="M243.74458,177.46297v-24.33333" fill-opacity="0.21961" fill="#0046ff" stroke="#000000" stroke-width="2.5" stroke-linecap="round"/><path d="M223.68548,179.71651l-0.33333,-22.55556" fill-opacity="0.21961" fill="#0046ff" stroke="#000000" stroke-width="2.5" stroke-linecap="round"/><path d="M227.61148,186.46868c0,0 17.62574,-1.76508 22.90455,-2.29372c2.78912,-0.27932 6.6153,1.74946 6.6153,1.74946" fill-opacity="0.21961" fill="#0046ff" stroke="#000000" stroke-width="2.5" stroke-linecap="round"/><path d="M245.6941,203.42187v12.25" fill="none" stroke="#000000" stroke-width="1.5" stroke-linecap="round"/><path d="M235.9441,214.67187v-11.5" fill="none" stroke="#000000" stroke-width="1.5" stroke-linecap="round"/><path d="M230.1441,232.17187v-21.25h22v21.25z" fill="url(#color-4)" stroke="url(#color-5)" stroke-width="1.5" stroke-linecap="butt"/><path d="M239.3691,220.30937c0,-0.9665 0.7835,-1.75 1.75,-1.75c0.9665,0 1.75,0.7835 1.75,1.75c0,0.9665 -0.7835,1.75 -1.75,1.75c-0.9665,0 -1.75,-0.7835 -1.75,-1.75z" fill="#000000" stroke="none" stroke-width="0.5" stroke-linecap="butt"/><path d="M241.2441,221.80937l0.125,3.625" fill="none" stroke="#000000" stroke-width="1.5" stroke-linecap="round"/><path d="M227.14246,159.96928l-7.28571,-7.57142l-1.85715,-2" fill="none" stroke="#000000" stroke-width="2.5" stroke-linecap="round"/><path d="M240.26252,154.08832l6.28572,-4.42857l3.14286,-2.14286" fill="none" stroke="#000000" stroke-width="2.5" stroke-linecap="round"/><path d="M169.76777,194.2655c-0.90166,-7.35321 4.46971,-14.06243 11.9973,-14.98547c7.52759,-0.92305 14.36084,4.28963 15.2625,11.64283c0.90166,7.35321 -4.46971,14.06243 -11.9973,14.98547c-7.52759,0.92305 -14.36084,-4.28962 -15.2625,-11.64283z" fill="url(#color-6)" stroke="#000000" stroke-width="2.5" stroke-linecap="butt"/><path d="M178.90774,204.31289v-24.33406h8.15907v24.33406z" fill="#000000" stroke="#000000" stroke-width="2.5" stroke-linecap="butt"/><path d="M190.43063,191.05627c0,3.95156 -3.22035,7.15494 -7.19286,7.15494c-3.97251,0 -7.19286,-3.20338 -7.19286,-7.15494c0,-3.95156 3.22035,-7.15494 7.19286,-7.15494c3.97251,0 7.19286,3.20338 7.19286,7.15494z" fill="#ffffff" stroke="#000000" stroke-width="2.5" stroke-linecap="butt"/><path d="M179.4803,190.00301l3.07754,1.88861l4.79524,-2.615" fill="none" stroke="#000000" stroke-width="2.5" stroke-linecap="round"/></g></g></svg>