<svg version="1.1" xmlns="http://www.w3.org/2000/svg" xmlns:xlink="http://www.w3.org/1999/xlink" width="112.14283" height="86.22114" viewBox="0,0,112.14283,86.22114"><defs><radialGradient cx="240.36153" cy="180.08916" r="38.45238" gradientUnits="userSpaceOnUse" id="color-1"><stop offset="0" stop-color="#b73435"/><stop offset="1" stop-color="#b83365"/></radialGradient><linearGradient x1="243.89246" y1="169.04462" x2="266.94419" y2="169.04462" gradientUnits="userSpaceOnUse" id="color-2"><stop offset="0" stop-color="#00ff21"/><stop offset="1" stop-color="#fff78a"/></linearGradient><linearGradient x1="215.53257" y1="169.47469" x2="238.33718" y2="169.47469" gradientUnits="userSpaceOnUse" id="color-3"><stop offset="0" stop-color="#00ff21"/><stop offset="1" stop-color="#fffab9"/></linearGradient></defs><g transform="translate(-184.19533,-132.773)"><g data-paper-data="{&quot;isPaintingLayer&quot;:true}" fill-rule="nonzero" stroke="#000000" stroke-width="2.5" stroke-linejoin="miter" stroke-miterlimit="10" stroke-dasharray="" stroke-dashoffset="0" style="mix-blend-mode: normal"><path d="M201.90915,180.08916c0,-20.79627 17.21571,-37.65499 38.45238,-37.65499c21.23666,0 38.45238,16.85873 38.45238,37.65499c0,20.79627 -17.21571,37.65499 -38.45238,37.65499c-21.23667,0 -38.45238,-16.85873 -38.45238,-37.65499z" fill="url(#color-1)" stroke-linecap="butt"/><path d="M277.25236,167.1866c0,0 4.47343,-2.46441 5.21911,-6.40587c0.51415,-2.71765 1.7411,-6.43955 1.85168,-10.14599c0.09139,-3.06336 -0.89304,-6.42939 -0.89304,-6.42939l-13.09684,11.8613" fill="#ffffff" stroke-linecap="round"/><path d="M202.34631,167.73862c0,0 -4.47343,-2.46442 -5.21911,-6.40588c-0.51415,-2.71765 -1.74111,-6.43955 -1.85169,-10.14599c-0.0914,-3.06336 0.89305,-6.42939 0.89305,-6.42939l13.09685,11.86129" data-paper-data="{&quot;index&quot;:null}" fill="#ffffff" stroke-linecap="round"/><path d="M280.35348,184.24975c0,0 5.07666,-0.5589 7.2779,-3.91236c0.60174,-0.91672 1.36751,-1.93619 2.16769,-3.04351c1.2181,-1.68565 2.51589,-3.57486 3.43601,-5.61491c1.26005,-2.79371 1.64281,-6.2798 1.64281,-6.2798l-16.64607,5.92673" fill="#ffffff" stroke-linecap="round"/><path d="M200.57465,184.66191c0,0 -5.08647,-0.46127 -7.35171,-3.77183c-0.61924,-0.90499 -1.40446,-1.90957 -2.22575,-3.00131c-1.25025,-1.66195 -2.58409,-3.52586 -3.54324,-5.54787c-1.31348,-2.76899 -1.76314,-6.24708 -1.76314,-6.24708l16.75685,5.60587" data-paper-data="{&quot;index&quot;:null}" fill="#ffffff" stroke-linecap="round"/><path d="M263.85494,157.36867l-19.96248,15.30457c0,0 0.52878,3.50793 3.163,5.60797c2.09034,1.66646 6.12247,1.95355 7.89465,2.39659c2.06419,0.51604 10.34632,-3.68939 11.75544,-9.77837c1.30741,-5.64941 -3.18331,-13.19805 -3.18331,-13.19805" fill="url(#color-2)" stroke-linecap="round"/><path d="M218.5887,157.92389l19.74848,15.14051c0,0 -0.52311,3.47033 -3.12909,5.54785c-2.06793,1.64859 -6.05684,1.93261 -7.81002,2.3709c-2.04207,0.51051 -10.2354,-3.64983 -11.62942,-9.67354c-1.29339,-5.58885 3.14919,-13.05658 3.14919,-13.05658" data-paper-data="{&quot;index&quot;:null}" fill="url(#color-3)" stroke-linecap="round"/><path d="M218.42693,202.02957c0,0 -3.0186,-5.91688 -1.26033,-9.52277c1.58186,-3.24412 7.7837,-4.24094 10.61637,-3.83177c3.98272,0.57529 7.99744,3.02175 11.14424,2.98981c3.21006,-0.03259 9.53134,-2.03871 13.96253,-2.66981c3.48227,-0.49596 9.23766,0.25892 10.92135,3.40798c1.73258,3.24051 -0.65717,8.88524 -0.65717,8.88524" fill="none" stroke-linecap="round"/><path d="M218.92115,202.02957c0,0 3.70617,-0.41118 8.68171,0.96378c4.03261,1.11439 9.06864,1.85638 12.29604,1.78505c2.68524,-0.05934 6.40073,-0.56051 10.09611,-1.50813c6.86119,-1.75943 13.65311,-2.22914 13.65311,-2.22914" fill="none" stroke-linecap="round"/><path d="M219.66248,190.92365l4.50095,5.03046l6.38956,-5.84239l8.17229,7.1662l6.61902,-5.55999l5.82475,4.23618l4.50094,-6.0895l5.03046,5.03046l3.17714,-2.11808" fill="#ffffff" stroke-linecap="round"/><path d="M259.44725,200.73746l-5.18932,-4.20087l-3.21243,5.43642" fill="#ffffff" stroke-linecap="round"/><path d="M246.84462,203.70279l-2.71821,-3.95377l-5.68354,4.44799" fill="#ffffff" stroke-linecap="round"/><path d="M234.24199,203.9499l-3.95376,-6.91909l-4.44799,4.20088" fill="#ffffff" stroke-linecap="round"/><path d="M217.44992,149.67371c0,0 -1.9428,-2.11988 -1.63113,-4.35671c0.2149,-1.5423 0.23031,-3.74863 0.83847,-5.74577c0.50265,-1.65063 1.63369,-3.26907 1.63369,-3.26907l4.8516,8.68494" data-paper-data="{&quot;index&quot;:null}" fill="#ffffff" stroke-linecap="round"/><path d="M255.62749,143.80934l4.8516,-8.68494c0,0 1.13104,1.61844 1.63369,3.26907c0.60816,1.99714 0.62358,4.20347 0.83848,5.74578c0.31167,2.23683 -1.63113,4.35671 -1.63113,4.35671" data-paper-data="{&quot;index&quot;:null}" fill="#ffffff" stroke-linecap="round"/></g></g></svg>