<svg version="1.1" xmlns="http://www.w3.org/2000/svg" xmlns:xlink="http://www.w3.org/1999/xlink" width="206" height="171.70001" viewBox="0,0,206,171.70001"><defs><linearGradient x1="320.00001" y1="139.5" x2="320.00001" y2="220.5" gradientUnits="userSpaceOnUse" id="color-1"><stop offset="0" stop-color="#6af71e"/><stop offset="1" stop-color="#f7801e"/></linearGradient><linearGradient x1="319.99692" y1="154.20304" x2="319.99692" y2="206.84751" gradientTransform="translate(-235.51967,-169.79231) scale(0.87662,0.87662)" gradientUnits="userSpaceOnUse" id="color-2"><stop offset="0" stop-color="#000000"/><stop offset="1" stop-color="#6d6d6d"/></linearGradient></defs><g transform="translate(-186.95002,-52.05)"><g stroke-miterlimit="10"><path d="M251.2727,211.06075c0,-9.79073 0,-46.95861 0,-63.51748c0,-4.938 2.31611,-8.04326 5.21855,-8.04326c12.37614,0 98.66895,0 124.77254,0c4.71263,0 7.46351,4.51842 7.46351,8.91576c0,9.32683 0,44.84858 0,62.29599c0,5.94248 -2.88943,9.78825 -7.81798,9.78825c-26.41883,0 -111.42884,0 -124.0636,0c-3.08183,0 -5.57302,-4.82299 -5.57302,-9.43926z" fill="url(#color-1)" stroke="#00f773" stroke-width="6.5" stroke-linecap="butt"/><text transform="translate(268.6667,193.68888) scale(1.14074,1.14074)" font-size="40" xml:space="preserve" fill="url(#color-2)" stroke="none" stroke-width="1" stroke-linecap="butt" font-family="Pixel" font-weight="normal" text-anchor="start"><tspan x="0" dy="0">Play</tspan></text><text transform="translate(187.20003,77.3) scale(0.5,0.5)" font-size="40" xml:space="preserve" fill="#000000" stroke="none" stroke-width="1" stroke-linecap="butt" font-family="Pixel" font-weight="normal" text-anchor="start"><tspan x="0" dy="0"> Start a game here!</tspan></text><path d="M290.20003,111.13333l-10.66667,-11.33333" fill="none" stroke="none" stroke-width="0.5" stroke-linecap="round"/><path d="M259.86669,95.8l7.66667,22.33333l-12,-3.66667" fill="none" stroke="#000000" stroke-width="3" stroke-linecap="round"/><path d="M274.53336,106.13333l-7.66667,11.66667" fill="none" stroke="#000000" stroke-width="3" stroke-linecap="round"/><path d="M320.86669,97.8l-0.33333,20.33333l-11.66667,-6" fill="none" stroke="#000000" stroke-width="3" stroke-linecap="round"/><path d="M320.53336,119.13333l12.66667,-6.66667" fill="none" stroke="#000000" stroke-width="3" stroke-linecap="round"/><path d="M374.20002,99.46666l-10,13.66667l-6,-9.66667" fill="none" stroke="#000000" stroke-width="3" stroke-linecap="round"/><path d="M381.20002,113.13333h-17.33333" fill="none" stroke="#000000" stroke-width="3" stroke-linecap="round"/></g></g></svg>