<svg version="1.1" xmlns="http://www.w3.org/2000/svg" xmlns:xlink="http://www.w3.org/1999/xlink" width="77.93297" height="59.19125" viewBox="0,0,77.93297,59.19125"><defs><linearGradient x1="202.27915" y1="188.50001" x2="277.72083" y2="188.50001" gradientUnits="userSpaceOnUse" id="color-1"><stop offset="0" stop-color="#fcf2ff"/><stop offset="1" stop-color="#ffffff"/></linearGradient></defs><g transform="translate(-201.03354,-158.90617)"><g data-paper-data="{&quot;isPaintingLayer&quot;:true}" fill-rule="nonzero" stroke="#000000" stroke-width="2.5" stroke-linejoin="miter" stroke-miterlimit="10" stroke-dasharray="" stroke-dashoffset="0" style="mix-blend-mode: normal"><path d="M240.56837,216.84382c-20.83024,0.24721 -37.97094,-12.24236 -38.28483,-27.89622c-0.31389,-15.65386 16.3179,-28.54423 37.14814,-28.79142c20.83024,-0.24721 37.97094,12.24236 38.28483,27.89622c0.31389,15.65386 -16.3179,28.54423 -37.14814,28.79142z" fill="url(#color-1)" stroke-linecap="butt"/><path d="M231.16651,195.18867v-18.7201" fill="none" stroke-linecap="round"/><path d="M248.38881,194.5048l0.33333,-17.35242" fill="none" stroke-linecap="round"/><path d="M254.25705,201.95344c0,0 -21.59373,0.52371 -26.92722,0.49634c-2.55504,-0.01311 -5.66858,-1.74239 -5.66858,-1.74239" fill="none" stroke-linecap="round"/><path d="M226.52029,176.56537c0,0 2.79331,-1.5129 4.32304,-1.41056c1.57341,0.10526 4.99006,2.03358 4.99006,2.03358" fill="none" stroke-linecap="round"/><path d="M244.06559,177.54865c0,0 2.79331,-1.5129 4.32304,-1.41056c1.57341,0.10526 4.99006,2.03358 4.99006,2.03358" fill="none" stroke-linecap="round"/></g></g></svg>