<svg version="1.1" xmlns="http://www.w3.org/2000/svg" xmlns:xlink="http://www.w3.org/1999/xlink" width="318.56358" height="185.7381" viewBox="0,0,318.56358,185.7381"><defs><linearGradient x1="240.00004" y1="96.65909" x2="240.00004" y2="263.34093" gradientUnits="userSpaceOnUse" id="color-1"><stop offset="0" stop-color="#000000"/><stop offset="1" stop-color="#383838"/></linearGradient><linearGradient x1="235.83335" y1="216.84906" x2="235.83335" y2="262.33333" gradientUnits="userSpaceOnUse" id="color-2"><stop offset="0" stop-color="#000000"/><stop offset="1" stop-color="#383838"/></linearGradient></defs><g transform="translate(-81.01192,-87.13095)"><g stroke-width="6.5" stroke-miterlimit="10"><path d="M90.48029,262.9513c0,0 0,-144.02641 0,-162.7455c0,-4.025 0,-3.2545 0,-3.2545c0,0 260.52254,-0.29223 293.17214,-0.29223c6.72224,0 5.82786,0.29223 5.82786,0.29223v166c0,0 0.1369,0.38963 -7.33473,0.38963c-51.48258,0 -263.39252,-0.09741 -286.9844,-0.09741c-4.36387,0 -4.68087,-0.29222 -4.68087,-0.29222z" fill="#005d5d" stroke="url(#color-1)"/><path d="M166.16669,210.33333v-60.66667h147.66667v60.66667z" fill="#000000" stroke="#ff0000"/><path d="M233.16669,262.33333v-45.48428h5.33333v45.48428z" fill="#005d5d" stroke="url(#color-2)"/><path d="M84.26192,269.61904v-179.2381h312.06358v179.2381z" fill="none" stroke="#ff0000"/></g></g></svg>