<svg version="1.1" xmlns="http://www.w3.org/2000/svg" xmlns:xlink="http://www.w3.org/1999/xlink" width="77.93273" height="100.98077" viewBox="0,0,77.93273,100.98077"><g transform="translate(-201.03364,-117.11667)"><g data-paper-data="{&quot;isPaintingLayer&quot;:true}" fill-rule="nonzero" stroke-linejoin="miter" stroke-miterlimit="10" stroke-dasharray="" stroke-dashoffset="0" style="mix-blend-mode: normal"><path d="M240.57575,216.84263c-20.83017,0.3255 -37.97413,-15.90563 -38.2921,-36.25325c-0.31796,-20.34761 16.31047,-37.1065 37.14064,-37.43201c20.83018,-0.3255 37.97413,15.90563 38.29209,36.25325c0.31797,20.34761 -16.31046,37.10651 -37.14064,37.43201z" data-paper-data="{&quot;index&quot;:null}" fill="#ababab" stroke="#000000" stroke-width="2.5" stroke-linecap="butt"/><path d="M265.26822,170.4341c0,3.35464 1.10337,8.7344 -2.38692,11.17331c-4.72624,3.30255 -15.21805,3.12583 -23.41472,3.12583c-7.03076,0 -17.38952,-0.14619 -22.04325,-2.67377c-4.7784,-2.59529 -3.75839,-7.62458 -3.75839,-11.62536c0,-7.8972 11.95027,-7.76743 26.20012,-7.76743c14.24985,0 25.40316,-0.12977 25.40316,7.76743z" fill="none" stroke="#000000" stroke-width="2.5" stroke-linecap="butt"/><path d="M237.25001,173.28333c0,4.13293 -3.3504,7.48334 -7.48334,7.48334c-4.13293,0 -7.48333,-3.3504 -7.48333,-7.48334c0,-4.13293 3.3504,-7.48333 7.48333,-7.48333c4.13293,0 7.48334,3.3504 7.48334,7.48333z" fill="none" stroke="#000000" stroke-width="2.5" stroke-linecap="butt"/><path d="M227.81896,173.79589c0,-1.35877 1.1015,-2.46027 2.46027,-2.46027c1.35877,0 2.46027,1.1015 2.46027,2.46027c0,1.35877 -1.1015,2.46027 -2.46027,2.46027c-1.35877,0 -2.46027,-1.1015 -2.46027,-2.46027z" fill="#07050c" stroke="none" stroke-width="0.5" stroke-linecap="butt"/><path d="M226.01318,168.26027l8.80021,4.44742l2.11781,1.10622" fill="none" stroke="#000000" stroke-width="2.5" stroke-linecap="round"/><path d="M258.05001,173.41666c0,4.18816 -3.39517,7.58334 -7.58334,7.58334c-4.18816,0 -7.58333,-3.39517 -7.58333,-7.58334c0,-4.18816 3.39517,-7.58333 7.58333,-7.58333c4.18816,0 7.58334,3.39517 7.58334,7.58333z" fill="none" stroke="#000000" stroke-width="2.5" stroke-linecap="butt"/><path d="M247.66188,173.93607c0,-1.37693 1.11622,-2.49315 2.49315,-2.49315c1.37693,0 2.49315,1.11622 2.49315,2.49315c0,1.37693 -1.11622,2.49315 -2.49315,2.49315c-1.37693,0 -2.49315,-1.11622 -2.49315,-2.49315z" fill="#07050c" stroke="none" stroke-width="0.5" stroke-linecap="butt"/><path d="M254.56502,168.13066l-10.95574,5.52582" fill="none" stroke="#000000" stroke-width="2.5" stroke-linecap="round"/><path d="M259.9,196.67143c0,1.15335 -0.55471,2.73194 -2.38739,3.65178c-3.52059,1.76702 -10.41206,2.44822 -17.7126,2.44822c-5.74955,0 -13.73528,0.26738 -17.39886,-0.90705c-3.40987,-1.09309 -2.70114,-3.56891 -2.70114,-5.19295c0,-1.76348 -0.33423,-3.75218 3.60807,-4.86588c3.58903,-1.0139 11.20182,-1.23412 16.49193,-1.23412c6.89099,0 13.57205,-0.94761 17.19334,0.65647c2.21237,0.97998 2.90666,4.16589 2.90666,5.44353z" fill="none" stroke="#000000" stroke-width="2.5" stroke-linecap="butt"/><path d="M229.15001,200.8l-0.3,-9.1" fill="none" stroke="#000000" stroke-width="2.5" stroke-linecap="round"/><path d="M238.45001,191.5l0.5,10" fill="none" stroke="#000000" stroke-width="2.5" stroke-linecap="round"/><path d="M247.95001,191.1l0.5,9.5" fill="none" stroke="#000000" stroke-width="2.5" stroke-linecap="round"/><path d="M258.58335,196.16667l-39.16667,0.66667" fill="none" stroke="#000000" stroke-width="2.5" stroke-linecap="round"/><path d="M240.41668,126.66667v16" fill="none" stroke="#000000" stroke-width="2.5" stroke-linecap="round"/><path d="M235.17401,122.36667c0,-2.89949 2.35051,-5.25 5.25,-5.25c2.89949,0 5.25,2.35051 5.25,5.25c0,2.89949 -2.35051,5.25 -5.25,5.25c-2.89949,0 -5.25,-2.35051 -5.25,-5.25z" fill="#000000" stroke="none" stroke-width="0.5" stroke-linecap="butt"/></g></g></svg>