<svg version="1.1" xmlns="http://www.w3.org/2000/svg" xmlns:xlink="http://www.w3.org/1999/xlink" width="78.43734" height="76.69487" viewBox="0,0,78.43734,76.69487"><defs><linearGradient x1="240" y1="143.15256" x2="240" y2="216.84743" gradientUnits="userSpaceOnUse" id="color-1"><stop offset="0" stop-color="#b1b1b1"/><stop offset="1" stop-color="#fff2f2"/></linearGradient></defs><g transform="translate(-200.78351,-141.65257)"><g stroke="#000000" stroke-miterlimit="10"><path d="M202.28351,179.41819c0.31389,-20.3477 17.45459,-36.58226 38.28483,-36.26093c20.83024,0.32132 37.46203,17.07688 37.14814,37.42456c-0.31389,20.3477 -17.45459,36.58226 -38.28483,36.26093c-20.83024,-0.32132 -37.46203,-17.07688 -37.14814,-37.42456z" fill="url(#color-1)" stroke-width="3" stroke-linecap="butt"/><path d="M248.83349,164.36093c0,0 0,6.97131 0,10.88911c0,4.17673 -0.25,7.69422 -0.25,7.69422" fill="none" stroke-width="2.5" stroke-linecap="round"/><path d="M231.61127,183.55538c0,0 -0.11795,-4.2319 -0.1748,-8.07838c-0.05414,-3.66306 -0.15853,-10.22717 -0.15853,-10.22717" fill="none" stroke-width="2.5" stroke-linecap="round"/><path d="M247.62506,195.62506c0,3.52081 -3.35787,6.375 -7.5,6.375c-4.14213,0 -7.5,-2.85419 -7.5,-6.375c0,-2.81675 2.14919,-5.20683 5.12974,-6.05008c0.745,-0.21078 1.54196,-0.32492 2.37026,-0.32492c4.14213,0 7.5,2.85419 7.5,6.375z" fill="none" stroke-width="2.5" stroke-linecap="butt"/></g></g></svg>