<svg version="1.1" xmlns="http://www.w3.org/2000/svg" xmlns:xlink="http://www.w3.org/1999/xlink" width="77.93297" height="76.19018" viewBox="0,0,77.93297,76.19018"><defs><linearGradient x1="202.27914" y1="180.00001" x2="277.72083" y2="180.00001" gradientUnits="userSpaceOnUse" id="color-1"><stop offset="0" stop-color="#fcf2ff"/><stop offset="1" stop-color="#ffffff"/></linearGradient></defs><g transform="translate(-201.03351,-141.90726)"><g data-paper-data="{&quot;isPaintingLayer&quot;:true}" fill-rule="nonzero" stroke="#000000" stroke-width="2.5" stroke-linejoin="miter" stroke-miterlimit="10" stroke-dasharray="" stroke-dashoffset="0" style="mix-blend-mode: normal"><path d="M240.56835,216.84275c-20.83024,0.32133 -37.97094,-15.91323 -38.28483,-36.26093c-0.31389,-20.34768 16.3179,-37.10324 37.14814,-37.42456c20.83024,-0.32133 37.97094,15.91323 38.28483,36.26093c0.31389,20.34768 -16.3179,37.10324 -37.14814,37.42456z" fill="url(#color-1)" stroke-linecap="butt"/><path d="M231.1665,188.69429v-24.33333" fill="none" stroke-linecap="round"/><path d="M248.72209,165.2498l-0.33333,22.55556" fill="none" stroke-linecap="round"/><path d="M254.25705,197.48748c0,0 -21.59373,0.68073 -26.92722,0.64517c-2.55504,-0.01703 -5.66858,-2.26483 -5.66858,-2.26483" fill="none" stroke-linecap="round"/><path d="M226.52024,164.48677c0,0 2.79331,-1.96654 4.32304,-1.83352c1.57341,0.13682 4.99006,2.64335 4.99006,2.64335" fill="none" stroke-linecap="round"/><path d="M244.06553,165.76488c0,0 2.79331,-1.96654 4.32304,-1.83352c1.57341,0.13682 4.99006,2.64335 4.99006,2.64335" fill="none" stroke-linecap="round"/></g></g></svg>