<svg version="1.1" xmlns="http://www.w3.org/2000/svg" xmlns:xlink="http://www.w3.org/1999/xlink" width="75.77435" height="77.72023" viewBox="0,0,75.77435,77.72023"><defs><linearGradient x1="203.14014" y1="179.43932" x2="276.85987" y2="180.56071" gradientUnits="userSpaceOnUse" id="color-1"><stop offset="0" stop-color="#b1aab3"/><stop offset="1" stop-color="#ffffff"/></linearGradient></defs><g transform="translate(-202.11283,-141.24397)"><g stroke="#000000" stroke-width="2.5" stroke-miterlimit="10"><path d="M244.02103,217.50605c-20.23417,2.1693 -38.43745,-12.86416 -40.6582,-33.57817c-2.22076,-20.71401 12.382,-39.26461 32.61615,-41.43392c20.23417,-2.1693 38.43745,12.86416 40.6582,33.57817c2.22076,20.71401 -12.38199,39.2646 -32.61615,41.43391z" fill="url(#color-1)" stroke-linecap="butt"/><path d="M223.85043,189.56399l23.59375,-0.29635" fill="none" stroke-linecap="round"/><path d="M223.40519,169.64577l24.17644,0.28609" fill="none" stroke-linecap="round"/><path d="M261.16455,195.62789c0,0 -1.80432,-3.4951 -1.85768,-6.34349c-0.11151,-5.95274 -0.11556,-27.58356 -0.11556,-27.58356" fill="none" stroke-linecap="round"/><path d="M219.97821,196.77869l-0.19382,-14.07731" fill="none" stroke-linecap="round"/><path d="M217.14896,178.06528c0,0 -1.7272,-4.73693 -1.22181,-9.83022c0.15711,-3.20234 2.31672,-8.51098 2.31672,-8.51098" fill="none" stroke-linecap="round"/></g></g></svg>