<svg version="1.1" xmlns="http://www.w3.org/2000/svg" xmlns:xlink="http://www.w3.org/1999/xlink" width="75.68561" height="77.67323" viewBox="0,0,75.68561,77.67323"><defs><linearGradient x1="203.13624" y1="179.83582" x2="276.86377" y2="180.16419" gradientUnits="userSpaceOnUse" id="color-1"><stop offset="0" stop-color="#b1aab3"/><stop offset="1" stop-color="#ffffff"/></linearGradient></defs><g transform="translate(-202.15719,-141.28938)"><g stroke="#000000" stroke-width="2.5" stroke-miterlimit="10"><path d="M244.42423,217.46062c-20.20966,2.38682 -38.5736,-12.44996 -41.01703,-33.13889c-2.44344,-20.68893 11.95894,-39.39553 32.16858,-41.78235c20.20966,-2.38682 38.5736,12.44996 41.01703,33.13889c2.44344,20.68893 -11.95893,39.39552 -32.16858,41.78234z" fill="url(#color-1)" stroke-linecap="butt"/><path d="M248.65508,188.87194l-24.33309,-0.10837" fill="none" stroke-linecap="round"/><path d="M247.84285,171.64589l-22.55385,-0.43378" fill="none" stroke-linecap="round"/><path d="M258.05235,198.41912c0,0 -2.23391,-3.12352 -2.23956,-5.67861c-0.01181,-5.3336 0.76509,-26.92408 0.76509,-26.92408" fill="none" stroke-linecap="round"/><path d="M216.42009,193.37466c0,0 -1.95408,-2.80204 -1.81425,-4.33116c0.14383,-1.57279 2.66555,-4.97824 2.66555,-4.97824" fill="none" stroke-linecap="round"/><path d="M217.77633,175.83523c0,0 -1.95408,-2.80204 -1.81425,-4.33116c0.14383,-1.57279 2.66555,-4.97824 2.66555,-4.97824" fill="none" stroke-linecap="round"/></g></g></svg>