<svg version="1.1" xmlns="http://www.w3.org/2000/svg" xmlns:xlink="http://www.w3.org/1999/xlink" width="76.22841" height="77.65114" viewBox="0,0,76.22841,77.65114"><defs><linearGradient x1="203.13588" y1="180.01016" x2="276.86413" y2="179.98988" gradientUnits="userSpaceOnUse" id="color-1"><stop offset="0" stop-color="#b1aab3"/><stop offset="1" stop-color="#ffffff"/></linearGradient></defs><g transform="translate(-201.8858,-141.31073)"><g stroke-miterlimit="10"><path d="M244.60133,217.43929c-20.19815,2.48236 -38.63205,-12.26741 -41.17328,-32.94456c-2.54125,-20.67714 11.77251,-39.45164 31.97064,-41.934c20.19815,-2.48236 38.63205,12.26741 41.17328,32.94455c2.54125,20.67714 -11.7725,39.45163 -31.97064,41.934z" fill="url(#color-1)" stroke="#000000" stroke-width="2.5" stroke-linecap="butt"/><path d="M243.97596,188.76496l-24.6782,0.21074" fill="none" stroke="#000000" stroke-width="2.5" stroke-linecap="round"/><path d="M218.9827,173.06737l24.67821,-0.21073" fill="none" stroke="#000000" stroke-width="2.5" stroke-linecap="round"/><path d="M242.98616,156.89602c0.55871,-1.11819 1.6769,-0.55948 1.6769,-0.55948l0.57463,0.32426c4.82679,4.02572 11.44118,6.6569 13.55237,13.05088c0.75995,2.30161 0.569,4.85595 0.56966,7.23884c0.00277,10.0873 -1.07959,21.47893 -11.77866,25.8305c0,0 -1.16047,0.46456 -1.62502,-0.69591c-0.46456,-1.16047 0.69591,-1.62502 0.69591,-1.62502c9.66551,-3.79529 10.21022,-14.62315 10.20778,-23.50887c-0.00057,-2.08046 0.24445,-4.42025 -0.43411,-6.42754c-1.9441,-5.75098 -8.39101,-8.28468 -12.78785,-11.94188l-0.09212,-0.00888c0,0 -1.11818,-0.55871 -0.55948,-1.6769z" fill="#000000" stroke="none" stroke-width="0.5" stroke-linecap="butt"/></g></g></svg>