<svg version="1.1" xmlns="http://www.w3.org/2000/svg" xmlns:xlink="http://www.w3.org/1999/xlink" width="1336.5" height="977" viewBox="0,0,1336.5,977"><g transform="translate(119,208)"><g stroke-miterlimit="10"><text transform="translate(81.73077,71.25) scale(1.34507,1.34507)" font-size="40" xml:space="preserve" fill="#ffffff" stroke="none" stroke-width="1" font-family="Pixel" font-weight="normal" text-anchor="start"><tspan x="0" dy="0">Hey there!</tspan></text><text transform="translate(46.08487,149.30419) scale(0.58035,0.58035)" font-size="40" xml:space="preserve" fill="#ffffff" stroke="none" stroke-width="1" font-family="Pixel" font-weight="normal" text-anchor="start"><tspan x="0" dy="0">Thanks for playing Tactigun! 2.</tspan><tspan x="0" dy="46.150000000000006px">Feedback is appreciated in your</tspan><tspan x="0" dy="46.150000000000006px">platform's respective comment</tspan><tspan x="0" dy="46.150000000000006px">section. In coming updates there</tspan><tspan x="0" dy="46.150000000000006px">will be a continue screen added!</tspan></text><text transform="translate(45.79412,308) scale(0.5,0.5)" font-size="40" xml:space="preserve" fill="#ffffff" stroke="none" stroke-width="1" font-family="Pixel" font-weight="normal" text-anchor="start"><tspan x="0" dy="0">If you want to play again, refresh the</tspan><tspan x="0" dy="46.150000000000006px">page or press      if you are on scratch!</tspan></text><path d="M215.60706,316.78353v10.67294c0,0.21177 -0.08471,0.42353 -0.25412,0.50824c-1.3553,1.18588 -3.04941,1.77882 -4.78588,1.77882c-1.73647,0 -3.43059,-0.63529 -4.78589,-1.77882c-1.10118,-0.93176 -2.45647,-1.48235 -3.89647,-1.48235c-1.31294,0 -2.58353,0.42353 -3.64236,1.27059v7.07294c0,0.42353 -0.33882,0.76235 -0.76235,0.76235c-0.42353,0 -0.76235,-0.33882 -0.76235,-0.76235v-18.04235c0,-0.33882 0.21176,-0.55059 0.42353,-0.67765c1.3553,-1.10118 2.9647,-1.69412 4.65882,-1.69412c1.73647,0 3.47294,0.6353 4.82824,1.77883c1.10118,0.93176 2.45647,1.44 3.89647,1.44c1.44,0 2.7953,-0.50824 3.89647,-1.44c0.25412,-0.16941 0.55058,-0.21177 0.8047,-0.08471c0.25412,0.12706 0.38118,0.38118 0.38118,0.67765z" fill="#549a10" stroke="none" stroke-width="1"/><text transform="translate(63.05128,104.28372) scale(0.35893,0.35893)" font-size="40" xml:space="preserve" fill="#00ffff" stroke="none" stroke-width="1" font-family="Scratch" font-weight="normal" text-anchor="start"><tspan x="0" dy="0">Your score! (Share in comments!) ==&gt;</tspan></text><path d="M-118,768v-975h1334.5v975z" fill="#000000" stroke="#000000" stroke-width="2"/></g></g></svg>