<svg version="1.1" xmlns="http://www.w3.org/2000/svg" xmlns:xlink="http://www.w3.org/1999/xlink" width="75.90709" height="77.79047" viewBox="0,0,75.90709,77.79047"><defs><linearGradient x1="203.15681" y1="178.75778" x2="276.8432" y2="181.24223" gradientUnits="userSpaceOnUse" id="color-1"><stop offset="0" stop-color="#b1aab3"/><stop offset="1" stop-color="#ffffff"/></linearGradient></defs><g transform="translate(-202.04645,-141.17601)"><g stroke="#000000" stroke-width="2.5" stroke-miterlimit="10"><path d="M243.32676,217.57399c-20.27082,1.79475 -38.19299,-13.57276 -40.03031,-34.3243c-1.83733,-20.75154 13.10598,-39.02893 33.37678,-40.82368c20.27082,-1.79475 38.19299,13.57276 40.03031,34.3243c1.83733,20.75154 -13.10597,39.02892 -33.37678,40.82367z" fill="url(#color-1)" stroke-linecap="butt"/><path d="M225.30527,190.04407l23.59519,0.14001" fill="none" stroke-linecap="round"/><path d="M224.97638,168.40448l24.16701,0.73312" fill="none" stroke-linecap="round"/><path d="M259.08641,162.61486c0,0 0.4206,5.68302 0.37661,17.39276c-0.01165,3.10092 0.19589,8.4806 -0.27841,11.82957c-0.49757,3.51333 -3.84405,5.2818 -3.84405,5.2818" fill="none" stroke-linecap="round"/></g></g></svg>