<svg version="1.1" xmlns="http://www.w3.org/2000/svg" xmlns:xlink="http://www.w3.org/1999/xlink" width="78.43734" height="76.69487" viewBox="0,0,78.43734,76.69487"><defs><linearGradient x1="239.99782" y1="143.15257" x2="239.99782" y2="216.84743" gradientUnits="userSpaceOnUse" id="color-1"><stop offset="0" stop-color="#b8a9a9"/><stop offset="1" stop-color="#ffebeb"/></linearGradient></defs><g transform="translate(-200.78133,-141.65257)"><g stroke="#000000" stroke-miterlimit="10"><path d="M202.28133,179.41819c0.31389,-20.3477 17.45459,-36.58226 38.28483,-36.26093c20.83024,0.32132 37.46203,17.07688 37.14814,37.42456c-0.31389,20.3477 -17.45459,36.58226 -38.28483,36.26093c-20.83024,-0.32132 -37.46203,-17.07688 -37.14814,-37.42456z" fill="url(#color-1)" stroke-width="3" stroke-linecap="butt"/><path d="M248.83131,164.36094c0,0 0,6.97131 0,10.88911c0,4.17673 -0.25,7.69422 -0.25,7.69422" fill="none" stroke-width="2.5" stroke-linecap="round"/><path d="M231.60911,183.55538c0,0 -0.11795,-4.2319 -0.1748,-8.07838c-0.05414,-3.66306 -0.15853,-10.22717 -0.15853,-10.22717" fill="none" stroke-width="2.5" stroke-linecap="round"/><path d="M227.02721,165.74402c0,0 3.17933,-2.33705 4.67409,-2.33705c1.3781,0 3.97298,2.33705 3.97298,2.33705" fill="none" stroke-width="2.5" stroke-linecap="round"/><path d="M244.17985,164.9014c0,0 3.17933,-2.33704 4.67409,-2.33704c1.37811,0 3.97298,2.33704 3.97298,2.33704" fill="none" stroke-width="2.5" stroke-linecap="round"/><path d="M253.66952,192.16263c0,0 -17.51626,1.54736 -22.19961,1.51484c-2.25045,-0.01563 -4.44272,-1.69985 -4.44272,-1.69985" fill="none" stroke-width="2.5" stroke-linecap="round"/></g></g></svg>