<svg version="1.1" xmlns="http://www.w3.org/2000/svg" xmlns:xlink="http://www.w3.org/1999/xlink" width="79.9679" height="85.25336" viewBox="0,0,79.9679,85.25336"><defs><linearGradient x1="240" y1="143.13588" x2="240" y2="216.86414" gradientUnits="userSpaceOnUse" id="color-1"><stop offset="0" stop-color="#b1aab3"/><stop offset="1" stop-color="#ffffff"/></linearGradient></defs><g transform="translate(-200.54939,-132.86078)"><g data-paper-data="{&quot;isPaintingLayer&quot;:true}" fill-rule="nonzero" stroke-linejoin="miter" stroke-miterlimit="10" stroke-dasharray="" stroke-dashoffset="0" style="mix-blend-mode: normal"><path d="M202.55946,184.59103c-2.47681,-20.19883 12.27804,-38.62867 32.95588,-41.16422c20.67784,-2.53556 39.4484,11.78336 41.92521,31.98217c2.47681,20.19883 -12.27804,38.62867 -32.95588,41.16422c-20.67784,2.53556 -39.44839,-11.78335 -41.9252,-31.98217z" data-paper-data="{&quot;index&quot;:null}" fill="url(#color-1)" stroke="#000000" stroke-width="2.5" stroke-linecap="butt"/><path d="M230.19161,164.23153l0.65517,23.58651" fill="none" stroke="#000000" stroke-width="2.5" stroke-linecap="round"/><path d="M250.10074,163.24965l0.08166,24.17799" fill="none" stroke="#000000" stroke-width="2.5" stroke-linecap="round"/><path d="M257.75415,202.15873c0,0 -20.46889,0.695 -25.92598,0.88029c-2.51797,0.0855 -6.49315,-0.05594 -6.49315,-0.05594" fill="none" stroke="#000000" stroke-width="2.5" stroke-linecap="round"/><path d="M202.42837,196.16774l-1.1153,-61.7141l77.04415,-0.01775l1.20561,62.46392c0,0 1.65899,3.07522 -4.47418,1.97643c-1.14881,-0.20582 -3.57106,-1.40508 -5.28789,-1.65607c-1.15542,-0.16891 -8.47021,-4.52254 -9.77327,-4.60742c-1.69948,-0.11071 -6.43114,6.51035 -8.28711,6.34263c-0.99444,-0.08986 -6.21152,-6.07914 -7.21638,-6.14297c-1.52672,-0.09697 -4.86682,6.54637 -6.37279,6.41258c-1.92446,-0.17096 -6.12641,-6.22594 -7.9208,-6.3336c-1.58696,-0.09521 -6.04882,5.99147 -7.44862,5.86907c-2.89373,-0.25303 -4.30295,-7.43789 -6.14605,-7.43747c-7.00693,0.00162 -14.20737,4.84473 -14.20737,4.84473z" fill="#b19a00" stroke="#000000" stroke-width="1.5" stroke-linecap="butt"/><path d="M210.56031,172.29394l1.19949,-23.27293l26.67278,0.0086l-1.19949,23.27293z" fill="none" stroke="#000000" stroke-width="3.5" stroke-linecap="butt"/><path d="M243.65599,171.04335l0.61799,-21.96335l27.21546,0.76577l-0.61799,21.96335z" fill="none" stroke="#000000" stroke-width="3.5" stroke-linecap="butt"/><path d="M219.10048,183.42163l13.63857,-0.45054l27.41885,0.93679" fill="none" stroke="#000000" stroke-width="1.5" stroke-linecap="round"/><path d="M271.01829,166.25275c-0.13757,0.03686 -0.2694,0.06378 -0.39571,0.08177l-1.17186,1.83209c-0.53256,0.87698 -1.57587,1.36885 -2.63875,1.15131c-1.35267,-0.27684 -2.2248,-1.59783 -1.94796,-2.9505c0.04968,-0.24272 0.13297,-0.46996 0.24403,-0.67787l0.86132,-1.70352c-0.02763,-0.08856 -0.05683,-0.16824 -0.08767,-0.23957l-0.67341,0.85786c-0.56227,0.74807 -1.52346,1.14826 -2.5012,0.94815c-0.92164,-0.18863 -1.62019,-0.86197 -1.88424,-1.6998c-0.22375,0.01628 -0.45344,0.00248 -0.68405,-0.04472c-0.01386,-0.00284 -0.02767,-0.00578 -0.04142,-0.00884c-0.64186,0.98293 -1.06068,2.17936 -1.87082,2.97302l-1.77423,3.21127c-0.50327,0.96304 -1.5993,1.51872 -2.71697,1.28997c-0.74872,-0.15324 -1.35022,-0.62637 -1.69113,-1.24771c-0.51464,0.30353 -1.13918,0.42467 -1.77063,0.29544c-1.25786,-0.25744 -2.10018,-1.41777 -1.98947,-2.66686c-0.5428,0.37977 -1.23455,0.54436 -1.93479,0.40105c-1.33977,-0.2742 -2.20812,-1.57272 -1.95557,-2.91181l-1.06264,1.20909c-0.57133,0.67487 -1.48379,1.0251 -2.41114,0.8353c-0.98935,-0.20248 -1.72163,-0.96353 -1.93531,-1.88701c-0.00306,0.01277 -0.00613,0.02554 -0.0092,0.03831c-0.03093,0.24005 -0.08518,0.45286 -0.15741,0.64151c-0.42134,1.68241 -0.91324,3.37139 -1.53139,5.0984c0,0 -0.84261,2.35372 -3.19633,1.51112c-2.35372,-0.84261 -1.51112,-3.19633 -1.51112,-3.19633c0.02332,-0.06514 0.04645,-0.13021 0.06939,-0.19522c-1.08386,1.22585 -2.22619,2.411 -3.42827,3.56714l-1.81818,1.73981c-0.5736,0.56383 -1.40838,0.84116 -2.2556,0.66776c-1.10176,-0.22549 -1.88472,-1.14369 -1.98768,-2.2075l-0.43996,-3.65262c-0.0095,-0.00183 -0.01899,-0.00372 -0.02849,-0.00566c-0.44216,-0.09049 -0.83297,-0.29255 -1.14909,-0.57081c-0.02394,0.00087 -0.04804,0.00169 -0.07229,0.00246c-1.25148,0.03997 -2.07423,-1.50495 -3.28612,-1.81981c-0.03442,-0.00894 -0.0695,-0.01659 -0.10521,-0.02302l-1.51915,2.55529c-0.51859,0.92076 -1.58891,1.44483 -2.67984,1.22155c-1.35267,-0.27684 -2.2248,-1.59783 -1.94796,-2.9505c0.01376,-0.06724 0.0301,-0.13329 0.0489,-0.19808l0.89743,-3.20294l0.0518,0.01451c0.01703,-0.11023 0.03691,-0.22026 0.05988,-0.33006c0.28024,-1.33961 1.2052,-2.4283 2.03236,-3.55467c0.0828,-0.24009 0.16343,-0.47835 0.23924,-0.71423c-0.74329,-0.56304 -1.14018,-1.52109 -0.94073,-2.4956c0.08419,-0.41137 0.26495,-0.77829 0.5138,-1.08197l1.61769,-2.06077c0,0 0.59891,-0.76295 1.52586,-0.96535c1.0401,-1.26899 2.07261,-2.64491 3.13421,-3.98325c0.41683,-0.6143 0.81596,-1.20385 1.18208,-1.76013l1.87202,-3.0784c0.45582,-0.79072 1.32098,-1.28283 2.25219,-1.24971l1.73754,-2.3131c0.55723,-0.77637 1.53682,-1.19629 2.53361,-0.99228c1.35267,0.27684 2.2248,1.59783 1.94796,2.9505c-0.07694,0.37596 -0.23455,0.71479 -0.45107,1.00216l-0.93912,1.30601c0.30927,0.45271 0.5539,0.9768 0.74571,1.5336l1.21135,-0.98588c0.56302,-0.46552 1.32414,-0.68132 2.09556,-0.52344c1.35267,0.27684 2.2248,1.59783 1.94796,2.9505c-0.07497,0.36631 -0.22652,0.69739 -0.43453,0.97994l-1.7093,2.43523c0.10574,0.41779 0.20552,0.85727 0.30014,1.31557c0.13962,0.67626 -0.09327,1.7716 -0.47446,2.95662l0.25949,1.06977c0.11086,-0.17727 0.22166,-0.35469 0.33245,-0.53221l-0.22042,-0.06638l1.43456,-4.76317c0.35827,-1.2401 1.61601,-2.01597 2.90241,-1.75269c1.35267,0.27684 2.2248,1.59783 1.94796,2.9505l-0.57464,2.80772c-0.54646,2.66384 -0.99498,5.19858 -1.52946,7.70807l1.67208,-2.8946l0.01894,0.01094l0.01146,-0.06215c3.33863,-5.19059 7.47675,-9.32658 11.03313,-14.25091c0,0 1.46984,-2.02227 3.49211,-0.55243c0.07468,0.05428 0.1446,0.10931 0.21,0.16497c3.11402,-3.06911 6.30065,-6.06105 9.59622,-8.98959l0.00063,-0.00035l-0.00011,-0.00012l3.39552,-3.01394c0.57015,-0.51726 1.37071,-0.76509 2.18269,-0.59891c1.25461,0.25677 2.09583,1.41178 1.99031,2.65719l-0.24793,3.57063l-0.05282,-0.00367c-0.01358,0.21701 -0.03936,0.43382 -0.07945,0.65039c-0.02534,0.1369 -4.03325,6.10833 -4.84415,7.25065c-0.67609,0.95242 -1.3599,1.89949 -2.04685,2.84436c-0.11679,0.39867 -0.26179,0.79184 -0.42062,1.18184c1.27093,-0.87224 2.62178,-1.59508 4.10148,-1.63848c0.79393,-0.02329 0.80707,1.11471 0.92569,2.09583l1.0463,-0.47596c0.47041,-0.22076 1.01343,-0.29729 1.56165,-0.18508c1.35267,0.27684 2.2248,1.59783 1.94796,2.9505c-0.02376,0.1161 -0.05522,0.22867 -0.09372,0.33727l-1.58974,4.69894l-0.22122,-0.07484c-0.23202,0.89611 -0.52122,1.77351 -0.89406,2.62138l0.60946,1.79796c0,0 0.64698,2.41483 -1.76785,3.06181zM268.97435,157.38572l-0.14074,-0.04761l-0.01289,0.21471l-0.05622,-0.00338c-0.00021,0.05819 -0.00116,0.11642 -0.00288,0.17469c0.06935,-0.11393 0.14025,-0.22677 0.21273,-0.33841zM227.87859,166.96911c0.03274,-0.03656 0.0654,-0.07317 0.09798,-0.10983c-0.01416,-0.01297 -0.02816,-0.02609 -0.042,-0.03936c-0.01863,0.04976 -0.03729,0.09949 -0.05599,0.14919z" fill="#66ff9b" stroke="none" stroke-width="0.5" stroke-linecap="butt"/></g></g></svg>