<svg version="1.1" xmlns="http://www.w3.org/2000/svg" xmlns:xlink="http://www.w3.org/1999/xlink" width="111.61644" height="148.5" viewBox="0,0,111.61644,148.5"><defs><linearGradient x1="240" y1="107.99999" x2="240" y2="251.99999" gradientUnits="userSpaceOnUse" id="color-1"><stop offset="0" stop-color="#000000"/><stop offset="1" stop-color="#525252"/></linearGradient><linearGradient x1="210.75551" y1="162.93925" x2="217.04551" y2="186.00994" gradientTransform="translate(-287.83205,-444.98814) rotate(14.66633) scale(2.00501,1.93519) skewX(-1.14789)" gradientUnits="userSpaceOnUse" id="color-2"><stop offset="0" stop-color="#ff0000"/><stop offset="1" stop-color="#9b9b9b"/></linearGradient></defs><g transform="translate(-184.19178,-105.75)"><g stroke-miterlimit="10"><path d="M186.44178,248.21347c0,-17.0667 0,-88.07171 0,-135.66785c0,-2.99995 2.05724,-4.54562 4.83944,-4.54562c10.70155,0 81.52994,0 98.58683,0c2.1263,0 3.69017,1.08098 3.69017,3.3737c0,12.19511 0,133.25963 0,133.25963c0,0 0,2.37004 0,3.58014c0,3.04179 -2.89821,3.78653 -5.71921,3.78653c-20.48312,0 -89.43036,0 -98.20864,0c-1.80888,0 -3.18859,-3.78653 -3.18859,-3.78653z" fill="#ffffff" stroke="url(#color-1)" stroke-width="4.5"/><text transform="translate(198.77443,184.79495) rotate(-15.2505) scale(0.49739,0.51816) skewX(0)" font-size="40" xml:space="preserve" fill="url(#color-2)" stroke="none" stroke-width="1" font-family="Pixel" font-weight="normal" text-anchor="start"><tspan x="0" dy="0">TOP</tspan><tspan x="0" dy="48px">SECRET</tspan></text></g></g></svg>