<svg version="1.1" xmlns="http://www.w3.org/2000/svg" xmlns:xlink="http://www.w3.org/1999/xlink" width="111.61644" height="148.5" viewBox="0,0,111.61644,148.5"><defs><linearGradient x1="240" y1="107.99999" x2="240" y2="251.99999" gradientUnits="userSpaceOnUse" id="color-1"><stop offset="0" stop-color="#000000"/><stop offset="1" stop-color="#525252"/></linearGradient><linearGradient x1="242.68965" y1="161.28692" x2="242.68965" y2="226.851" gradientUnits="userSpaceOnUse" id="color-2"><stop offset="0" stop-color="#423a3a"/><stop offset="1" stop-color="#413737"/></linearGradient><linearGradient x1="251.70284" y1="179.07717" x2="251.70284" y2="201.99269" gradientUnits="userSpaceOnUse" id="color-3"><stop offset="0" stop-color="#00d61c"/><stop offset="1" stop-color="#d60066"/></linearGradient><linearGradient x1="232.98941" y1="179.04834" x2="232.98941" y2="201.96385" gradientUnits="userSpaceOnUse" id="color-4"><stop offset="0" stop-color="#4cd600"/><stop offset="1" stop-color="#d60049"/></linearGradient><linearGradient x1="235.02786" y1="116.92286" x2="235.02786" y2="160.48382" gradientTransform="translate(-435.45632,-293.67556) scale(2.20381,2.20381)" gradientUnits="userSpaceOnUse" id="color-5"><stop offset="0" stop-color="#000000"/><stop offset="1" stop-color="#fdfdfd"/></linearGradient></defs><g transform="translate(-184.19178,-105.75)"><g stroke-miterlimit="10"><path d="M186.44178,248.21347c0,-17.0667 0,-88.07171 0,-135.66785c0,-2.99995 2.05724,-4.54562 4.83944,-4.54562c10.70155,0 81.52994,0 98.58683,0c2.1263,0 3.69017,1.08098 3.69017,3.3737c0,12.19511 0,133.25963 0,133.25963c0,0 0,2.37004 0,3.58014c0,3.04179 -2.89821,3.78653 -5.71921,3.78653c-20.48312,0 -89.43036,0 -98.20864,0c-1.80888,0 -3.18859,-3.78653 -3.18859,-3.78653z" fill="#52ff79" stroke="url(#color-1)" stroke-width="4.5" stroke-linecap="butt"/><path d="M242.52855,161.28733c18.1048,-0.08898 32.85376,14.51574 32.94274,32.62053c0.08898,18.1048 -14.51575,32.85376 -32.62054,32.94274c-18.1048,0.08898 -32.85376,-14.51574 -32.94273,-32.62053c-0.08898,-18.1048 14.51574,-32.85376 32.62053,-32.94273z" fill="url(#color-2)" stroke="#ffa369" stroke-width="3.5" stroke-linecap="butt"/><path d="M251.64654,179.07721c3.18672,-0.01566 5.79529,5.10144 5.82638,11.42936c0.0311,6.32792 -2.52704,11.47042 -5.71377,11.48608c-3.18672,0.01566 -5.79529,-5.10144 -5.82639,-11.42936c-0.0311,-6.32792 2.52704,-11.47042 5.71377,-11.48608z" fill="url(#color-3)" stroke="#000000" stroke-width="1.5" stroke-linecap="butt"/><path d="M232.9331,179.04837c3.18673,-0.01566 5.79528,5.10144 5.82638,11.42936c0.0311,6.32792 -2.52704,11.47042 -5.71376,11.48608c-3.18673,0.01566 -5.79528,-5.10144 -5.82638,-11.42937c-0.0311,-6.32792 2.52704,-11.47042 5.71377,-11.48608z" fill="url(#color-4)" stroke="#000000" stroke-width="1.5" stroke-linecap="butt"/><text transform="translate(197.59266,133.25822) scale(0.45376,0.45376)" font-size="40" xml:space="preserve" fill="url(#color-5)" stroke="none" stroke-width="1" stroke-linecap="butt" font-family="Pixel" font-weight="normal" text-anchor="start"><tspan x="0" dy="0">PVP </tspan><tspan x="0" dy="48px">ENCORE</tspan></text><path d="M228.54808,183.66343l9.12114,4.27553" fill="none" stroke="#000000" stroke-width="1.5" stroke-linecap="round"/><path d="M256.33905,183.59217l-9.61995,4.27553" fill="none" stroke="#000000" stroke-width="1.5" stroke-linecap="round"/><path d="M239.34757,187.46051c0,0.55228 -0.44772,1 -1,1c-0.20173,0 -0.38951,-0.05973 -0.54662,-0.16248c-0.23695,-0.05549 -0.44147,-0.19525 -0.58022,-0.38594c-1.3023,0.12073 -3.50222,-1.76676 -4.41233,-2.33737c-0.77152,-0.48371 -3.26209,-0.51075 -3.68243,-1.24635c-0.29474,-0.17395 -0.49247,-0.49479 -0.49247,-0.86182c0,-0.31404 0.14476,-0.59427 0.37119,-0.77761c0.36826,-0.88983 0.63898,-1.80718 1.5102,-2.51649c2.90444,-2.36469 6.94408,1.38916 7.03277,4.40008c0.01463,0.49677 0.38476,1.14323 0.556,1.75449c0.17368,0.01267 0.33504,0.06969 0.47282,0.1598c0.44196,0.10351 0.77108,0.50016 0.77108,0.97368z" fill="#000000" stroke="none" stroke-width="0.5" stroke-linecap="butt"/><path d="M250.97146,179.34975c1.39295,-0.34824 5.94488,2.81698 5.15405,4.20094c-0.16124,0.28218 -0.49817,0.44044 -0.79003,0.52669c-2.56212,0.7571 -4.76874,2.61006 -7.18382,3.35042c-0.27252,0.08354 -1.56283,0.45605 -1.77909,0.07759c-0.29474,-0.17395 -0.49247,-0.49479 -0.49247,-0.86182c0,-0.32691 0.15687,-0.61718 0.39944,-0.79965c0.94692,-2.04641 2.47068,-5.93886 4.69193,-6.49417z" fill="#000000" stroke="none" stroke-width="0.5" stroke-linecap="butt"/></g></g></svg>