<svg version="1.1" xmlns="http://www.w3.org/2000/svg" xmlns:xlink="http://www.w3.org/1999/xlink" width="273.05232" height="165.83746" viewBox="0,0,273.05232,165.83746"><defs><linearGradient x1="240" y1="139.5" x2="240" y2="220.5" gradientUnits="userSpaceOnUse" id="color-1"><stop offset="0" stop-color="#6af71e"/><stop offset="1" stop-color="#f7801e"/></linearGradient><linearGradient x1="277.97768" y1="158.28214" x2="277.97768" y2="202.60752" gradientTransform="translate(-192.86029,-199.4102) scale(1.04117,1.04117)" gradientUnits="userSpaceOnUse" id="color-2"><stop offset="0" stop-color="#000000"/><stop offset="1" stop-color="#585858"/></linearGradient></defs><g transform="translate(-111.93931,-136.25)"><g stroke-miterlimit="10"><path d="M138.5,211.06075c0,-9.79073 0,-46.95861 0,-63.51748c0,-4.938 3.42054,-8.04326 7.70702,-8.04326c18.27771,0 145.71937,0 184.27049,0c6.95986,0 11.02249,4.51842 11.02249,8.91576c0,9.32683 0,44.84858 0,62.29599c0,5.94248 -4.26726,9.78825 -11.54599,9.78825c-39.01669,0 -164.56383,0 -183.22349,0c-4.5514,0 -8.23051,-4.82299 -8.23051,-9.43926z" fill="url(#color-1)" stroke="#00f773" stroke-width="6.5" stroke-linecap="butt"/><text transform="translate(185.23459,191.52552) scale(0.96046,0.96046)" font-size="40" xml:space="preserve" fill="url(#color-2)" stroke="none" stroke-width="1" stroke-linecap="butt" font-family="Marker" font-weight="normal" text-anchor="start"><tspan x="0" dy="0">Locker</tspan></text><text transform="translate(113.05229,294.29656) scale(0.74199,0.74199)" font-size="40" xml:space="preserve" fill="#000000" stroke="none" stroke-width="1" stroke-linecap="butt" font-family="Pixel" font-weight="normal" text-anchor="start"><tspan x="0" dy="0">Customize Here!!!</tspan></text><path d="M150.74398,257.12837l14.30888,-14.83238" fill="none" stroke="none" stroke-width="0.5" stroke-linecap="round"/><path d="M157.72393,254.85989l16.40287,-15.87937" fill="none" stroke="#000000" stroke-width="3" stroke-linecap="round"/><path d="M165.92536,235.49054l8.37593,1.91948l1.91948,9.24842" fill="none" stroke="#000000" stroke-width="3" stroke-linecap="round"/><path d="M270.2755,252.06791l0.5235,-11.16791l8.02693,13.26189" fill="none" stroke="#000000" stroke-width="3" stroke-linecap="round"/><path d="M270.2755,239.15501l12.91289,5.75845" fill="none" stroke="#000000" stroke-width="3" stroke-linecap="round"/></g></g></svg>