<svg version="1.1" xmlns="http://www.w3.org/2000/svg" xmlns:xlink="http://www.w3.org/1999/xlink" width="111.61644" height="148.5" viewBox="0,0,111.61644,148.5"><defs><linearGradient x1="240" y1="108.00001" x2="240" y2="252.00001" gradientUnits="userSpaceOnUse" id="color-1"><stop offset="0" stop-color="#050206"/><stop offset="1" stop-color="#7a2d8e"/></linearGradient><linearGradient x1="240" y1="108" x2="240" y2="252" gradientUnits="userSpaceOnUse" id="color-2"><stop offset="0" stop-color="#000000"/><stop offset="1" stop-color="#525252"/></linearGradient><linearGradient x1="240.1713" y1="110.63462" x2="240.1713" y2="176.2621" gradientUnits="userSpaceOnUse" id="color-3"><stop offset="0" stop-color="#fbcece"/><stop offset="1" stop-color="#251f26"/></linearGradient><linearGradient x1="233.77668" y1="160.96447" x2="233.77668" y2="199.81429" gradientTransform="translate(-254.49663,-225.82243) scale(1.23749,1.1879)" gradientUnits="userSpaceOnUse" id="color-4"><stop offset="0" stop-color="#ffffff"/><stop offset="1" stop-color="#ff0000"/></linearGradient></defs><g transform="translate(-184.19178,-105.75001)"><g stroke-miterlimit="10"><path d="M186.44178,248.21348c0,-17.0667 0,-88.07171 0,-135.66785c0,-2.99995 2.05724,-4.54562 4.83944,-4.54562c10.70155,0 81.52994,0 98.58683,0c2.1263,0 3.69017,1.08098 3.69017,3.3737c0,12.19511 0,133.25963 0,133.25963c0,0 0,2.37004 0,3.58014c0,3.04179 -2.89821,3.78653 -5.71921,3.78653c-20.48312,0 -89.43036,0 -98.20864,0c-1.80888,0 -3.18859,-3.78653 -3.18859,-3.78653z" fill="url(#color-1)" stroke="url(#color-2)" stroke-width="4.5"/><path d="M189.09591,167.70199v-57.06737h102.15059v57.06737c0,0 0.16182,-1.94284 -8.94051,-5.99322c-0.90579,-0.40306 -4.44592,-10.9974 -5.48855,-11.21868c-2.20666,-0.46832 -8.57743,11.05991 -11.10678,10.63832c-1.34634,-0.22441 -3.01936,-11.20249 -4.44561,-11.23177c-3.6278,-0.07447 -8.87444,16.14736 -12.81779,16.15293c-0.50589,0.00072 -0.2947,-3.25333 -1.71836,-5.45947c-1.218,-1.88745 -4.09152,-2.77843 -4.52517,-2.76267c-2.30778,0.08385 -5.46538,16.10857 -7.73928,16.10855c-0.857,-0.00001 -4.25772,0.39001 -5.74111,-1.47189c-2.04884,-2.57163 -2.25301,-7.62624 -3.37859,-7.6048c-1.57534,0.03 -4.81788,11.16372 -6.29305,11.14196c-3.5287,-0.05206 -7.54406,-0.4115 -9.63884,-3.88201c-0.92193,-1.5274 0.13863,-8.0287 -0.94837,-7.9758c-1.7949,0.08734 -6.74739,12.11866 -7.95512,12.11866c-6.09013,0 -11.41347,-8.56011 -11.41347,-8.56011z" fill="url(#color-3)" stroke="none" stroke-width="0"/><text transform="translate(205.65618,190.10184) scale(0.80809,0.84182)" font-size="40" xml:space="preserve" fill="url(#color-4)" stroke="none" stroke-width="1" font-family="Pixel" font-weight="normal" text-anchor="start"><tspan x="0" dy="0">DLC</tspan></text></g></g></svg>