<svg version="1.1" xmlns="http://www.w3.org/2000/svg" xmlns:xlink="http://www.w3.org/1999/xlink" width="77.65245" height="76.22826" viewBox="0,0,77.65245,76.22826"><defs><linearGradient x1="240" y1="143.13588" x2="240" y2="216.86414" gradientUnits="userSpaceOnUse" id="color-1"><stop offset="0" stop-color="#b1aab3"/><stop offset="1" stop-color="#ffffff"/></linearGradient></defs><g transform="translate(-201.0381,-141.88587)"><g data-paper-data="{&quot;isPaintingLayer&quot;:true}" fill-rule="nonzero" stroke="#000000" stroke-width="2.5" stroke-linejoin="miter" stroke-miterlimit="10" stroke-dasharray="" stroke-dashoffset="0" style="mix-blend-mode: normal"><path d="M202.55946,184.59103c-2.47681,-20.19883 12.27804,-38.62867 32.95588,-41.16422c20.67784,-2.53556 39.4484,11.78336 41.92521,31.98217c2.47681,20.19883 -12.27804,38.62867 -32.95588,41.16422c-20.67784,2.53556 -39.44839,-11.78335 -41.9252,-31.98217z" data-paper-data="{&quot;index&quot;:null}" fill="url(#color-1)" stroke-linecap="butt"/><path d="M229.46646,165.65208l0.65517,23.58651" fill="none" stroke-linecap="round"/><path d="M251.08268,164.59418l0.08166,24.17799" fill="none" stroke-linecap="round"/><path d="M258.01844,198.48974c0,0 -5.66562,0.61186 -17.37019,0.96249c-3.09955,0.09285 -8.46918,0.48155 -11.83223,0.12038c-3.5281,-0.3789 -5.40834,-3.66388 -5.40834,-3.66388" fill="none" stroke-linecap="round"/></g></g></svg>