<svg version="1.1" xmlns="http://www.w3.org/2000/svg" xmlns:xlink="http://www.w3.org/1999/xlink" width="76.22841" height="77.65106" viewBox="0,0,76.22841,77.65106"><defs><linearGradient x1="203.13588" y1="180.01079" x2="276.86413" y2="179.98922" gradientUnits="userSpaceOnUse" id="color-1"><stop offset="0" stop-color="#b1aab3"/><stop offset="1" stop-color="#ffffff"/></linearGradient></defs><g transform="translate(-201.88579,-141.3108)"><g stroke="#000000" stroke-miterlimit="10"><path d="M244.60198,217.4392c-20.1981,2.48272 -38.63226,-12.26673 -41.17386,-32.94383c-2.54161,-20.6771 11.77181,-39.45185 31.9699,-41.93457c20.1981,-2.48272 38.63226,12.26673 41.17386,32.94383c2.54161,20.6771 -11.7718,39.45184 -31.9699,41.93456z" fill="url(#color-1)" stroke-width="2.5" stroke-linecap="butt"/><path d="M258.82131,194.02355c0,0 -0.68205,-19.91567 -0.87187,-25.45835c-0.09206,-2.68788 1.82696,-5.78442 1.82696,-5.78442" fill="none" stroke-width="2.5" stroke-linecap="round"/><path d="M228.10569,181.49783c9.10266,-0.00266 16.48343,5.48174 16.48542,12.24976c0.00198,6.76801 -7.37558,12.25674 -16.47824,12.2594c-4.81977,0.00141 2.9575,2.39989 -0.05702,-0.05141c-2.67872,-2.17825 -0.74328,-20.39776 -0.74421,-23.58218c-0.00091,-3.11404 -1.81322,1.33814 0.75961,-0.82447c3.01894,-2.53758 -4.87999,-0.04964 0.03444,-0.05108z" fill="#000000" stroke-width="2.5" stroke-linecap="butt"/><path d="M227.96098,155.96115c9.10267,-0.00266 16.775,4.75221 16.77698,11.52023c0.00198,6.76801 -7.37557,12.25674 -16.47824,12.2594c-4.81977,0.00141 2.9575,2.39989 -0.05701,-0.05141c-2.67872,-2.17825 -0.74328,-20.39776 -0.74421,-23.58218c-0.00091,-3.11404 -1.81322,1.33814 0.75961,-0.82447c3.01894,-2.53758 -5.17156,0.67987 -0.25713,0.67844z" fill="#000000" stroke-width="2.5" stroke-linecap="butt"/><path d="M227.27431,208.29366l0.201,-55.22236" fill="none" stroke-width="6" stroke-linecap="round"/></g></g></svg>