<svg version="1.1" xmlns="http://www.w3.org/2000/svg" xmlns:xlink="http://www.w3.org/1999/xlink" width="136.45945" height="69.06406" viewBox="0,0,136.45945,69.06406"><defs><linearGradient x1="207.21797" y1="180.00003" x2="272.78202" y2="180.00003" gradientUnits="userSpaceOnUse" id="color-1"><stop offset="0" stop-color="#d6bcbc"/><stop offset="1" stop-color="#b69999"/></linearGradient><linearGradient x1="234.33269" y1="167.0159" x2="257.24841" y2="167.0159" gradientUnits="userSpaceOnUse" id="color-2"><stop offset="0" stop-color="#d60000"/><stop offset="1" stop-color="#d67284"/></linearGradient><linearGradient x1="235.37414" y1="188.22114" x2="258.28986" y2="188.22114" gradientUnits="userSpaceOnUse" id="color-3"><stop offset="0" stop-color="#d60000"/><stop offset="1" stop-color="#d67284"/></linearGradient><linearGradient x1="288.28099" y1="179.58744" x2="324.84483" y2="179.58744" gradientUnits="userSpaceOnUse" id="color-4"><stop offset="0" stop-color="#000000"/><stop offset="1" stop-color="#3c3c3c"/></linearGradient><linearGradient x1="207.21963" y1="180.33123" x2="272.78036" y2="179.66884" gradientUnits="userSpaceOnUse" id="color-5"><stop offset="0" stop-color="#423a3a"/><stop offset="1" stop-color="#413737"/></linearGradient><linearGradient x1="237.58951" y1="189.11155" x2="257.12599" y2="189.11155" gradientUnits="userSpaceOnUse" id="color-6"><stop offset="0" stop-color="#ffa369"/><stop offset="1" stop-color="#ad17d6"/></linearGradient><linearGradient x1="241.07436" y1="163.90002" x2="256.33745" y2="163.90002" gradientUnits="userSpaceOnUse" id="color-7"><stop offset="0" stop-color="#ffa369"/><stop offset="1" stop-color="#ad17d6"/></linearGradient></defs><g transform="translate(-205.46789,-145.46799)"><g stroke-miterlimit="10"><path d="M207.21797,180.00003c0,-18.10502 14.67702,-32.78203 32.78203,-32.78203c18.10502,0 32.78203,14.67702 32.78203,32.78203c0,18.10502 -14.67702,32.78203 -32.78203,32.78203c-18.10502,0 -32.78203,-14.67702 -32.78203,-32.78203z" fill="url(#color-1)" stroke="#000000" stroke-width="3.5" stroke-linecap="butt"/><path d="M234.33269,167.0159c0,-3.18676 5.12986,-5.77015 11.45786,-5.77015c6.328,0 11.45786,2.58338 11.45786,5.77015c0,3.18676 -5.12986,5.77015 -11.45786,5.77015c-6.328,0 -11.45786,-2.58338 -11.45786,-5.77015z" fill="url(#color-2)" stroke="#000000" stroke-width="1.5" stroke-linecap="butt"/><path d="M235.37414,188.22114c0,-3.18677 5.12986,-5.77014 11.45786,-5.77014c6.328,0 11.45786,2.58338 11.45786,5.77014c0,3.18677 -5.12986,5.77015 -11.45786,5.77015c-6.328,0 -11.45786,-2.58338 -11.45786,-5.77015z" fill="url(#color-3)" stroke="#000000" stroke-width="1.5" stroke-linecap="butt"/><path d="M288.28099,187.27976v-15.38462h36.56384v15.38462z" fill="url(#color-4)" stroke="#ffa369" stroke-width="3.5" stroke-linecap="butt"/><path d="M325.12393,181.12591v-3.84615h15.05342v3.84615z" fill="#000000" stroke="#ffa369" stroke-width="3.5" stroke-linecap="butt"/><path d="M313.66952,173.23089c-7.59682,0.73771 -14.56108,-3.45406 -15.5551,-9.36257c-0.99403,-5.9085 4.3586,-11.29633 11.95542,-12.03404c7.59682,-0.73771 14.56107,3.45405 15.55509,9.36256c0.75079,4.4627 -2.11905,8.62836 -6.84185,10.71768c-1.53007,0.67688 -3.25462,1.13584 -5.11356,1.31636z" fill="#d2b8b8" stroke="#000000" stroke-width="2.5" stroke-linecap="butt"/><path d="M297.96821,208.87236c-5.76169,0.8117 -11.10609,-3.31183 -11.93704,-9.21017c-0.83095,-5.89833 3.16621,-11.33789 8.9279,-12.14959c5.76169,-0.8117 11.10608,3.31183 11.93703,9.21017c0.83095,5.89833 -3.1662,11.33789 -8.92789,12.14959z" fill="#d2b8b8" stroke="#000000" stroke-width="2.5" stroke-linecap="butt"/><path d="M207.22167,180.49232c-0.27188,-18.10297 14.18308,-32.99874 32.28605,-33.27062c18.10297,-0.27188 32.99874,14.18309 33.27062,32.28606c0.27188,18.10298 -14.18309,32.99874 -32.28605,33.27061c-18.10297,0.27188 -32.99874,-14.18308 -33.27061,-32.28605z" fill="url(#color-5)" stroke="#ffa369" stroke-width="3.5" stroke-linecap="butt"/><path d="M237.58951,194.9071l11.78401,-16.25767l3.02988,6.83679l4.72259,14.08747" fill="none" stroke="url(#color-6)" stroke-width="3" stroke-linecap="round"/><path d="M256.33745,155.72633l-3.68957,11.00602l-2.36713,5.34133l-9.20641,-12.70151" fill="none" stroke="url(#color-7)" stroke-width="3" stroke-linecap="round"/></g></g></svg>