<svg version="1.1" xmlns="http://www.w3.org/2000/svg" xmlns:xlink="http://www.w3.org/1999/xlink" width="335.25895" height="181.55381" viewBox="0,0,335.25895,181.55381"><defs><linearGradient x1="240" y1="139.49999" x2="240" y2="220.49999" gradientUnits="userSpaceOnUse" id="color-1"><stop offset="0" stop-color="#6af71e"/><stop offset="1" stop-color="#f7801e"/></linearGradient><linearGradient x1="139.83459" y1="161.50854" x2="139.83459" y2="199.24213" gradientTransform="translate(-126.02516,-232.14387) scale(1.22302,1.22302)" gradientUnits="userSpaceOnUse" id="color-2"><stop offset="0" stop-color="#000000"/><stop offset="1" stop-color="#6d6d6d"/></linearGradient></defs><g transform="translate(-72.37052,-42.19619)"><g stroke-miterlimit="10"><path d="M75.62053,211.06074c0,-9.79073 0,-46.95861 0,-63.51748c0,-4.938 5.53959,-8.04326 12.48154,-8.04326c29.6008,0 235.99283,0 298.42645,0c11.2715,0 17.85095,4.51842 17.85095,8.91576c0,9.32683 0,44.84858 0,62.29599c0,5.94248 -6.91083,9.78825 -18.69876,9.78825c-63.1876,0 -266.51148,0 -296.73084,0c-7.37101,0 -13.32935,-4.82299 -13.32935,-9.43926z" fill="url(#color-1)" stroke="#00f773" stroke-width="6.5"/><text transform="translate(103.04411,189.81177) scale(0.81765,0.81765)" font-size="40" xml:space="preserve" fill="url(#color-2)" stroke="none" stroke-width="1" font-family="Pixel" font-weight="normal" text-anchor="start"><tspan x="0" dy="0">Return To Menu</tspan></text><text transform="translate(174.2953,84.76353) scale(0.84292,0.84292)" font-size="40" xml:space="preserve" fill="#ffffff" stroke="none" stroke-width="1" font-family="Pixel" font-weight="normal" text-anchor="start"><tspan x="0" dy="0">Pause?</tspan></text></g></g></svg>