<svg version="1.1" xmlns="http://www.w3.org/2000/svg" xmlns:xlink="http://www.w3.org/1999/xlink" width="82.88528" height="98.92607" viewBox="0,0,82.88528,98.92607"><defs><linearGradient x1="237.52915" y1="148.58844" x2="237.52915" y2="190.83182" gradientUnits="userSpaceOnUse" id="color-1"><stop offset="0" stop-color="#ffffff" stop-opacity="0"/><stop offset="1" stop-color="#ffffff" stop-opacity="0"/></linearGradient><linearGradient x1="236.83641" y1="171.14913" x2="236.83641" y2="212.38615" gradientUnits="userSpaceOnUse" id="color-2"><stop offset="0" stop-color="#cab6d4"/><stop offset="1" stop-color="#b541a6"/></linearGradient></defs><g transform="translate(-190.90001,-147.33844)"><g stroke-miterlimit="10"><path d="M255.31584,169.71013c0,11.66519 -7.96337,21.12169 -17.78669,21.12169c-9.82332,0 -17.78669,-9.4565 -17.78669,-21.12169c0,-11.66519 7.96337,-21.12169 17.78669,-21.12169c9.82332,0 17.78669,9.4565 17.78669,21.12169z" fill="url(#color-1)" stroke="#ffffff" stroke-width="2.5" stroke-linecap="butt"/><path d="M205.18315,212.38615v-41.23702h63.30654v41.23704z" fill="url(#color-2)" stroke="none" stroke-width="0" stroke-linecap="butt"/><path d="M190.90001,220.72502v-23.25h24.5v23.25z" fill="#ffffff" stroke="none" stroke-width="2.5" stroke-linecap="butt"/><path d="M196.65001,208.47502l10.75,-2.25l-11,10.5" fill="none" stroke="#000000" stroke-width="2" stroke-linecap="round"/><path d="M208.40001,216.22502l-1.25,-9.25" fill="none" stroke="#000000" stroke-width="2" stroke-linecap="round"/><text transform="translate(197.53164,242.13962) scale(0.37843,0.37843)" font-size="40" xml:space="preserve" fill="#000000" stroke="none" stroke-width="1" stroke-linecap="butt" font-family="Pixel" font-weight="normal" text-anchor="start"><tspan x="0" dy="0">Shop DLC</tspan></text><text transform="translate(216.22218,197.13127) scale(0.5,0.5)" font-size="40" xml:space="preserve" fill="#ffffff" stroke="none" stroke-width="1" stroke-linecap="butt" font-family="Pixel" font-weight="normal" text-anchor="start"><tspan x="0" dy="0">DLC</tspan></text></g></g></svg>