<svg version="1.1" xmlns="http://www.w3.org/2000/svg" xmlns:xlink="http://www.w3.org/1999/xlink" width="143.9546" height="87.5" viewBox="0,0,143.9546,87.5"><defs><linearGradient x1="240" y1="139.49999" x2="240" y2="220.49999" gradientUnits="userSpaceOnUse" id="color-1"><stop offset="0" stop-color="#6af71e"/><stop offset="1" stop-color="#f7801e"/></linearGradient><linearGradient x1="223.24918" y1="148.76981" x2="223.24918" y2="179.68908" gradientTransform="translate(-288.21936,-256.66469) scale(1.49258,1.49258)" gradientUnits="userSpaceOnUse" id="color-2"><stop offset="0" stop-color="#000000"/><stop offset="1" stop-color="#6d6d6d"/></linearGradient></defs><g transform="translate(-168.0227,-136.25)"><g stroke-miterlimit="10"><path d="M171.2727,211.06074c0,-9.79073 0,-46.95861 0,-63.51748c0,-4.938 2.31611,-8.04326 5.21855,-8.04326c12.37614,0 98.66895,0 124.77254,0c4.71263,0 7.46351,4.51842 7.46351,8.91576c0,9.32683 0,44.84858 0,62.29599c0,5.94248 -2.88943,9.78825 -7.81798,9.78825c-26.41883,0 -111.42884,0 -124.0636,0c-3.08183,0 -5.57302,-4.82299 -5.57302,-9.43926z" fill="url(#color-1)" stroke="#00f773" stroke-width="6.5"/><text transform="translate(193.10121,171.96021) scale(0.66998,0.66998)" font-size="40" xml:space="preserve" fill="url(#color-2)" stroke="none" stroke-width="1" font-family="Pixel" font-weight="normal" text-anchor="start"><tspan x="0" dy="0">Game</tspan><tspan x="0" dy="48px">Start!</tspan></text></g></g></svg>