<svg version="1.1" xmlns="http://www.w3.org/2000/svg" xmlns:xlink="http://www.w3.org/1999/xlink" width="143.9546" height="87.66849" viewBox="0,0,143.9546,87.66849"><defs><linearGradient x1="240" y1="139.5" x2="240" y2="220.5" gradientUnits="userSpaceOnUse" id="color-1"><stop offset="0" stop-color="#6af71e"/><stop offset="1" stop-color="#f7801e"/></linearGradient><linearGradient x1="239.99692" y1="154.20304" x2="239.99692" y2="206.84751" gradientTransform="translate(-165.38975,-169.79231) scale(0.87662,0.87662)" gradientUnits="userSpaceOnUse" id="color-2"><stop offset="0" stop-color="#000000"/><stop offset="1" stop-color="#6d6d6d"/></linearGradient></defs><g transform="translate(-168.0227,-136.08151)"><g stroke-miterlimit="10"><path d="M171.2727,211.06075c0,-9.79073 0,-46.95861 0,-63.51748c0,-4.938 2.31611,-8.04326 5.21855,-8.04326c12.37614,0 98.66895,0 124.77254,0c4.71263,0 7.46351,4.51842 7.46351,8.91576c0,9.32683 0,44.84858 0,62.29599c0,5.94248 -2.88943,9.78825 -7.81798,9.78825c-26.41883,0 -111.42884,0 -124.0636,0c-3.08183,0 -5.57302,-4.82299 -5.57302,-9.43926z" fill="url(#color-1)" stroke="#00f773" stroke-width="6.5"/><text transform="translate(188.66671,193.68888) scale(1.14074,1.14074)" font-size="40" xml:space="preserve" fill="url(#color-2)" stroke="none" stroke-width="1" font-family="Pixel" font-weight="normal" text-anchor="start"><tspan x="0" dy="0">Play</tspan></text></g></g></svg>