<svg version="1.1" xmlns="http://www.w3.org/2000/svg" xmlns:xlink="http://www.w3.org/1999/xlink" width="136.31712" height="94.55239" viewBox="0,0,136.31712,94.55239"><defs><linearGradient x1="238.15532" y1="154.9075" x2="238.15532" y2="219.6627" gradientUnits="userSpaceOnUse" id="color-1"><stop offset="0" stop-color="#000000"/><stop offset="1" stop-color="#ffffff"/></linearGradient><linearGradient x1="260.54752" y1="194.89788" x2="260.54752" y2="219.14401" gradientUnits="userSpaceOnUse" id="color-2"><stop offset="0" stop-color="#000000"/><stop offset="1" stop-color="#ffffff"/></linearGradient></defs><g transform="translate(-171.38022,-153.6575)"><g data-paper-data="{&quot;isPaintingLayer&quot;:true}" fill-rule="nonzero" stroke-linejoin="miter" stroke-miterlimit="10" stroke-dasharray="" stroke-dashoffset="0" style="mix-blend-mode: normal"><path d="M202.64292,219.6627v-64.75519h71.0248v64.75519z" fill="url(#color-1)" stroke="#000000" stroke-width="2.5" stroke-linecap="butt"/><path d="M190.90002,220.72502v-23.25h24.5v23.25z" fill="#ffffff" stroke="none" stroke-width="2.5" stroke-linecap="butt"/><path d="M196.65002,208.47502l10.75,-2.25l-11,10.5" fill="none" stroke="#000000" stroke-width="2" stroke-linecap="round"/><path d="M208.40002,216.22502l-1.25,-9.25" fill="none" stroke="#000000" stroke-width="2" stroke-linecap="round"/><text transform="translate(171.80437,244.65351) scale(0.32627,0.32627)" font-size="40" xml:space="preserve" fill="#000000" fill-rule="nonzero" stroke="none" stroke-width="1" stroke-linecap="butt" stroke-linejoin="miter" stroke-miterlimit="10" stroke-dasharray="" stroke-dashoffset="0" font-family="Pixel" font-weight="normal" text-anchor="start" style="mix-blend-mode: normal"><tspan x="0" dy="0">Trigonometry Jump</tspan></text><path d="M204.40824,181.02712l29.00184,26.54152l12.02871,-40.76953z" fill="#00ff2d" stroke="#000000" stroke-width="2.5" stroke-linecap="round"/><path d="M222.02055,180.43391l4.19668,-4.72029l5.02159,4.46455l-4.19668,4.72029z" fill="#ffffff" stroke="#000000" stroke-width="2.5" stroke-linecap="butt"/><path d="M230.14034,187.40779l4.19668,-4.72029l5.02159,4.46455l-4.19668,4.72029z" fill="#ffffff" stroke="#000000" stroke-width="2.5" stroke-linecap="butt"/><path d="M217.4441,188.41292l3.0359,-3.41468l11.0475,9.82201l-3.0359,3.41468z" fill="#ffffff" stroke="#000000" stroke-width="2.5" stroke-linecap="butt"/><path d="M247.53228,219.14401v-24.24613h26.03048v24.24613z" fill="url(#color-2)" stroke="#000000" stroke-width="2.5" stroke-linecap="butt"/></g></g></svg>