<svg version="1.1" xmlns="http://www.w3.org/2000/svg" xmlns:xlink="http://www.w3.org/1999/xlink" width="278.77783" height="163.22649" viewBox="0,0,278.77783,163.22649"><defs><linearGradient x1="346.91746" y1="181.35327" x2="372.19589" y2="181.35327" gradientTransform="translate(-206.95552,-120.18729) scale(0.59656,0.59656)" gradientUnits="userSpaceOnUse" id="color-1"><stop offset="0" stop-color="#00ad06"/><stop offset="1" stop-color="#ff5454"/></linearGradient></defs><g transform="translate(-95.95557,-117.77119)"><g stroke-miterlimit="10"><text transform="translate(153.02664,136.52119) scale(0.5,0.5)" font-size="40" xml:space="preserve" fill="#fdfdfd" fill-rule="nonzero" stroke="none" stroke-width="1" stroke-linecap="butt" stroke-linejoin="miter" font-family="Handwriting" font-weight="400" text-anchor="start"><tspan x="0" dy="0">Proudly Powered By: </tspan></text><text transform="translate(145.17334,202.12992) scale(1.84416,1.84416)" font-size="40" xml:space="preserve" fill="#ffffff" fill-rule="nonzero" stroke="#00ad06" stroke-width="1" stroke-linecap="butt" stroke-linejoin="miter" font-family="Scratch" font-weight="400" text-anchor="start"><tspan x="0" dy="0">Scratch</tspan></text><text transform="translate(132.03779,254.23608) scale(1.37239,1.37239)" font-size="40" xml:space="preserve" fill="#ffffff" fill-rule="nonzero" stroke="#ff5454" stroke-width="1" stroke-linecap="butt" stroke-linejoin="miter" font-family="Scratch" font-weight="normal" text-anchor="start"><tspan x="0" dy="0">Turbowarp</tspan></text><text transform="translate(346.91746,201.46875) scale(1.67629,1.67629)" font-size="40" xml:space="preserve" fill="#ffffff" fill-rule="nonzero" stroke="url(#color-1)" stroke-width="1" stroke-linecap="butt" stroke-linejoin="miter" font-family="Scratch" font-weight="normal" text-anchor="start"><tspan x="0" dy="0">+</tspan></text><path d="M97.47882,200.3632c2.03289,-0.80266 1.89844,0.8254 11.12649,24.78095c5.24638,14.01841 9.39949,25.50459 7.87233,25.98422c-2.22855,0.86026 -5.8801,-10.76253 -11.12649,-24.78095c-8.03482,-22.90988 -10.29444,-25.1068 -7.87234,-25.98422z" fill="#d99e82" fill-rule="nonzero" stroke="#000000" stroke-width="0" stroke-linecap="butt" stroke-linejoin="miter"/><path d="M106.6167,232.30606c-4.34891,0 -7.87439,-3.44742 -7.87439,-7.70005c0,-0.37381 -3.00313,-4.40603 -2.7743,-6.13984c0.19242,-1.31423 4.54467,-0.14284 5.48488,-0.26103c2.31222,-0.47656 2.59438,-1.29918 5.16382,-1.29918c0.75096,0 1.6824,-3.34579 2.88898,-2.61086c2.23163,1.35928 4.98541,7.55065 4.98541,10.3109c0,4.25263 -3.52549,7.70005 -7.87439,7.70005z" fill="#fcb1e3" fill-rule="nonzero" stroke="#000000" stroke-width="0" stroke-linecap="butt" stroke-linejoin="miter"/><path d="M117.4781,241.3144c-1.87897,1.30625 -3.87227,2.06407 -5.97243,2.26494c-2.16468,0.20703 -4.02439,0.36206 -5.82388,-1.13561c-3.54535,-2.95069 -3.96852,-9.13773 -1.04252,-11.67768c0.68779,-0.59718 1.55454,-1.16716 2.15513,-1.46322c0.84049,-0.41433 0.91321,-0.47593 2.71894,-0.92753c2.87488,-0.44632 4.72297,-0.43193 6.92225,1.39846c3.54535,2.95069 4.0121,8.04191 1.04252,11.54063z" fill="#ffd983" fill-rule="nonzero" stroke="#000000" stroke-width="0" stroke-linecap="butt" stroke-linejoin="miter"/><path d="M106.93233,253.3784c-1.21825,-2.70381 -0.80336,-3.87545 -0.411,-6.02374c0.64065,-2.98223 1.86109,-4.14326 4.68352,-5.16843c1.05856,-0.38449 3.68287,-1.13327 5.1615,-1.29993c1.72383,-0.16792 3.22649,0.27638 4.47129,1.16744c1.11741,0.79987 1.4452,1.03793 3.01192,3.28598c1.24734,2.13046 2.13565,5.43966 0.35637,8.0414c-1.71292,2.5047 -5.24364,2.83179 -8.83954,2.83179c-3.96257,0 -7.15586,-0.29921 -8.43407,-2.83452z" fill="#a6d388" fill-rule="nonzero" stroke="#000000" stroke-width="0" stroke-linecap="butt" stroke-linejoin="miter"/><path d="M106.71491,223.82348c-0.6714,0 -1.21571,-0.54426 -1.21571,-1.21566c0,-0.6714 0.54431,-1.21566 1.21571,-1.21566c0.67136,0 1.21566,0.54426 1.21566,1.21566c0,0.6714 -0.54426,1.21566 -1.21566,1.21566z" fill="#000000" fill-rule="nonzero" stroke="#000000" stroke-width="0" stroke-linecap="butt" stroke-linejoin="miter"/><path d="M112.40563,220.61694z" fill="#000000" fill-rule="nonzero" stroke="#000000" stroke-width="0" stroke-linecap="butt" stroke-linejoin="miter"/><path d="M113.25132,221.05743c0,0.6519 -0.10565,0.82804 -0.75759,0.82804c-0.32597,0 -0.44489,-0.16739 -0.65851,-0.38096c-0.21362,-0.21362 -0.38096,-0.47353 -0.38096,-0.79945c0,-0.65195 -0.03534,-0.82809 0.61661,-0.82809c0.65195,0 1.18046,0.52851 1.18046,1.18046z" fill="#000000" fill-rule="nonzero" stroke="#000000" stroke-width="0" stroke-linecap="butt" stroke-linejoin="miter"/><g fill-rule="evenodd" stroke-width="0.5"><path d="M115.36818,184.74982c0.31473,0.15737 0.98354,0.51144 0.03934,1.84906c-0.9442,1.33761 -3.65877,1.61301 -3.9735,1.61301c-1.21959,0.03934 -2.71457,0.03934 -4.36692,-0.51144c-4.79968,-1.57366 -4.83902,-6.72741 -3.30469,-7.55359c1.49498,-0.82617 2.16379,2.3605 4.32758,4.28823c0.9442,0.86552 2.08511,1.18025 3.0293,1.37696c1.33761,0.23605 3.89482,-1.25893 4.24889,-1.06222z" fill="#ffab19" stroke="#001026" stroke-linecap="round" stroke-linejoin="round"/><path d="M105.61146,181.56315c0.62947,1.06222 1.84906,2.5572 1.84906,2.5572c0,0 -1.45564,-0.35407 -2.28181,0.31473c-0.66881,0.51144 -0.51144,1.37696 -0.43276,1.65235c-0.51144,-0.51144 -1.14091,-1.21959 -1.53432,-2.59655c-0.39342,-1.37696 0,-3.0293 0.78683,-3.26535c0.78683,-0.15737 0.98354,0.43276 1.61301,1.33761z" fill="#ffffff" stroke="none" stroke-linecap="butt" stroke-linejoin="miter"/></g><path d="M117.33526,188.84135c-0.70815,0.4721 -3.14733,2.20313 -6.25532,3.18667l-0.15737,0.03934c-0.15737,0.03934 -0.23605,0.23605 -0.15737,0.39342c0.66881,0.9442 1.8884,2.8326 -0.27539,3.5014c-2.08511,0.66881 -5.97992,-4.87836 -4.32758,-6.334c0.74749,-0.55078 1.4163,-0.27539 1.77037,-0.11802c0.19671,0.07868 0.39342,0.07868 0.59012,0.03934c0.4721,-0.15737 1.33761,-0.4721 2.00642,-0.82617c1.69169,-0.86552 2.08511,-1.21959 2.87194,-1.80971c0.78683,-0.59012 2.59655,-2.04576 4.05219,-0.78683c1.25893,1.06222 0.55078,2.24247 -0.11802,2.71457z" fill="#ffab19" fill-rule="evenodd" stroke="#001026" stroke-width="0.5" stroke-linecap="round" stroke-linejoin="round"/><path d="M123.59057,180.65829c0.19671,0.15737 2.59655,2.98996 3.38338,2.28181c0.9442,-0.82617 2.24247,-2.43918 3.65877,-1.14091c1.4163,1.29827 -1.25893,3.5014 -2.39984,4.09153c-2.71457,1.21959 -4.9177,-1.10156 -5.3898,-1.73103c-0.4721,-0.62947 -1.29827,-1.69169 -1.29827,-2.71457c0.03934,-1.10156 1.37696,-1.37696 2.04576,-0.78683z" fill="#ffab19" fill-rule="evenodd" stroke="#001026" stroke-width="0.5" stroke-linecap="round" stroke-linejoin="round"/><g fill-rule="evenodd" stroke-width="0.5"><path d="M123.62992,189.82489c0.82617,0.74749 2.63589,2.28181 2.63589,2.28181c0,0 5.62585,-0.98354 5.62585,1.84906c0,1.69169 -2.8326,2.08511 -6.64873,1.73103c-0.23605,-0.03934 -0.4721,-0.11802 -0.66881,-0.27539c-0.86552,-0.74749 -3.34404,-2.95062 -4.9177,-4.48494c-2.32115,-2.28181 -4.24889,-3.77679 -4.24889,-3.77679c-3.34404,-3.26535 -0.62947,-4.64231 0.43276,-6.53071c0.98354,-1.61301 1.4163,-1.29827 3.77679,-0.82617c1.33761,0.19671 2.12445,0.31473 2.98996,0.27539c1.29827,-0.03934 1.06222,1.84906 0.70815,2.8326c0,0 -0.55078,1.45564 -1.06222,2.20313c-0.62947,0.90486 -1.10156,1.49498 -1.57366,1.84906z" fill="#ffab19" stroke="#001026" stroke-linecap="round" stroke-linejoin="round"/><path d="M120.32522,186.91361c0,0 -0.59012,-0.4721 -1.21959,-1.06222c-0.78683,-0.70815 -1.57366,-1.29827 -0.78683,-2.51786c0.70815,-0.9442 1.37696,-2.20313 3.14733,-1.06222c1.69169,1.06222 0.9442,2.04576 0.9442,2.04576c-0.86552,1.77037 -2.08511,2.59655 -2.08511,2.59655z" fill="#ffffff" stroke="none" stroke-linecap="butt" stroke-linejoin="miter"/></g><path d="M114.38464,183.6876c0.86552,1.10156 2.20313,2.47852 0.51144,3.61943c-2.32115,1.29827 -4.24889,-2.63589 -4.64231,-4.01284c-0.35407,-1.21959 0.66881,-2.00642 1.53432,-2.67523c1.69169,-1.21959 3.10799,-2.32115 4.68165,-1.73103c1.96708,0.70815 0.55078,2.28181 -0.43276,2.98996c-0.59012,0.43276 -1.18025,0.90486 -1.61301,1.18025c-0.11802,0.19671 -0.15737,0.43276 -0.03934,0.62947z" fill="#ffab19" fill-rule="evenodd" stroke="#001026" stroke-width="0.5" stroke-linecap="round" stroke-linejoin="round"/><g fill-rule="evenodd" stroke-width="0.5"><path d="M126.77724,157.17136c0.11802,-0.07868 0.31473,-0.03934 0.35407,0.11802l1.02288,4.20955c0,0 2.51786,1.84906 3.26535,3.14733c1.25893,2.16379 1.29827,3.93416 1.29827,3.93416c0,0 2.79325,0.82617 3.26535,3.06865c0.4721,2.24247 -1.25893,6.49136 -8.65515,7.947c-7.39622,1.45564 -13.3368,-0.55078 -16.13006,-5.03573c-2.79325,-4.48494 1.61301,-9.8354 1.37696,-9.52067l-0.82617,-7.04215c-0.03934,-0.15737 0.15737,-0.27539 0.31473,-0.19671l4.76033,3.10799c0,0 1.77037,-0.66881 3.61943,-0.74749c1.10156,-0.07868 2.04576,0 2.95062,0.15737z" fill="#ffab19" stroke="#001026" stroke-linecap="butt" stroke-linejoin="miter"/><path d="M132.5998,168.73779c0,0 2.71457,0.70815 3.18667,2.95062c0.4721,2.24247 -1.4163,6.29466 -8.73384,7.71095c-9.52067,1.96708 -14.04495,-3.69811 -11.40907,-7.86832c2.63589,-4.20955 7.16017,-0.62947 10.46487,-0.86552c2.8326,-0.19671 3.14733,-2.67523 6.49136,-1.92774z" fill="#ffffff" stroke="none" stroke-linecap="butt" stroke-linejoin="miter"/><path d="M120.2072,172.94734c0,-0.15737 0.15737,-0.27539 0.31473,-0.23605c0.74749,0.27539 2.87194,0.90486 5.23243,1.06222c2.12445,0.11802 3.38338,0 3.9735,-0.11802c0.19671,-0.03934 0.35407,0.15737 0.27539,0.35407c-0.35407,1.06222 -1.84906,4.01284 -5.97992,3.77679c-3.58009,-0.39342 -3.93416,-2.91128 -3.81614,-4.83902z" fill="#ffffff" stroke="#001026" stroke-linecap="round" stroke-linejoin="round"/><path d="M139.83866,169.17055c-1.84906,1.49498 -4.68165,1.53432 -4.68165,1.53432" fill="none" stroke="#001026" stroke-linecap="round" stroke-linejoin="round"/><path d="M139.32722,173.57681c-2.47852,0.19671 -4.01284,-0.55078 -4.01284,-0.55078" fill="none" stroke="#001026" stroke-linecap="round" stroke-linejoin="round"/><path d="M125.95107,169.64264c0.82617,0 1.69169,0.07868 1.73103,0.35407c0.03934,0.55078 -0.55078,1.65235 -1.18025,1.69169c-0.70815,0.07868 -2.3605,-0.90486 -2.3605,-1.53432c-0.03934,-0.4721 1.02288,-0.51144 1.80971,-0.51144z" fill="#001026" stroke="#001026" stroke-linecap="round" stroke-linejoin="round"/><path d="M108.24735,169.05252c0,0 3.38338,1.10156 4.76033,2.32115" fill="none" stroke="#001026" stroke-linecap="round" stroke-linejoin="round"/><path d="M113.12571,172.75063c-1.69169,0.66881 -4.60297,0.23605 -4.60297,0.23605" fill="none" stroke="#001026" stroke-linecap="round" stroke-linejoin="round"/><g><path d="M130.59338,165.03968c1.14091,1.77037 1.18025,3.77679 0.07868,4.48494c-1.10156,0.70815 -2.91128,-0.11802 -4.09153,-1.8884c-1.14091,-1.77037 -1.18025,-3.77679 -0.07868,-4.48494c1.10156,-0.74749 2.95062,0.11802 4.09153,1.8884z" fill="#ffffff" stroke="#001026" stroke-linecap="round" stroke-linejoin="round"/><path d="M130.43601,167.28215c0,0.43276 -0.31473,0.78683 -0.70815,0.78683c-0.39342,0 -0.70815,-0.35407 -0.70815,-0.78683c0,-0.43276 0.31473,-0.78683 0.70815,-0.78683c0.39342,0 0.70815,0.35407 0.70815,0.78683" fill="#001026" stroke="none" stroke-linecap="butt" stroke-linejoin="miter"/></g><g><path d="M120.83666,166.14124c1.18025,1.73103 1.10156,3.85548 0.03934,4.60297c-1.29827,0.74749 -3.0293,0.19671 -4.20955,-1.53432c-1.21959,-1.73103 -1.29827,-3.9735 -0.07868,-4.83902c1.21959,-0.90486 3.06865,0.03934 4.24889,1.77037z" fill="#ffffff" stroke="#001026" stroke-linecap="round" stroke-linejoin="round"/><path d="M120.60061,168.42305c0,0.43276 -0.31473,0.78683 -0.70815,0.78683c-0.39342,0 -0.70815,-0.35407 -0.70815,-0.78683c0,-0.43276 0.31473,-0.78683 0.70815,-0.78683c0.39342,0.03934 0.70815,0.35407 0.70815,0.78683" fill="#001026" stroke="none" stroke-linecap="butt" stroke-linejoin="miter"/></g></g></g></g></svg>