<svg version="1.1" xmlns="http://www.w3.org/2000/svg" xmlns:xlink="http://www.w3.org/1999/xlink" width="91" height="85.375" viewBox="0,0,91,85.375"><defs><linearGradient x1="240.00001" y1="143.15256" x2="240.00001" y2="216.84743" gradientUnits="userSpaceOnUse" id="color-1"><stop offset="0" stop-color="#b1b1b1"/><stop offset="1" stop-color="#fff2f2"/></linearGradient></defs><g transform="translate(-192.3125,-138.125)"><g stroke-miterlimit="10"><path d="M202.28352,179.41819c0.31389,-20.3477 17.45459,-36.58226 38.28483,-36.26093c20.83024,0.32132 37.46203,17.07688 37.14814,37.42456c-0.31389,20.3477 -17.45459,36.58226 -38.28483,36.26093c-20.83024,-0.32132 -37.46203,-17.07688 -37.14814,-37.42456z" fill="url(#color-1)" stroke="#000000" stroke-width="3" stroke-linecap="butt"/><path d="M248.8335,164.36093c0,0 0,6.97131 0,10.88911c0,4.17673 -0.25,7.69422 -0.25,7.69422" fill="none" stroke="#000000" stroke-width="2.5" stroke-linecap="round"/><path d="M231.61128,183.55538c0,0 -0.11795,-4.2319 -0.1748,-8.07838c-0.05414,-3.66306 -0.15853,-10.22717 -0.15853,-10.22717" fill="none" stroke="#000000" stroke-width="2.5" stroke-linecap="round"/><path d="M230.3125,195.625l21.875,0.375" fill="none" stroke="#000000" stroke-width="2.5" stroke-linecap="round"/><path d="M194.5625,140.375l82,79.375" fill="none" stroke="#ff0000" stroke-width="4.5" stroke-linecap="round"/><path d="M281.0625,145.5l-79.75,75.75" fill="none" stroke="#ff0000" stroke-width="4.5" stroke-linecap="round"/></g></g></svg>