<svg version="1.1" xmlns="http://www.w3.org/2000/svg" xmlns:xlink="http://www.w3.org/1999/xlink" width="68.53468" height="68.56518" viewBox="0,0,68.53468,68.56518"><g transform="translate(-205.71741,-145.71741)"><g stroke="#000000" stroke-miterlimit="10"><path d="M272.75209,181.40073c-0.7736,18.08847 -16.06433,32.12496 -34.15282,31.35136c-18.08847,-0.7736 -32.12496,-16.06433 -31.35136,-34.15282c0.7736,-18.08847 16.06433,-32.12496 34.15282,-31.35136c18.08847,0.7736 32.12496,16.06433 31.35136,34.15282z" fill="#ffffff" stroke-width="3" stroke-linecap="butt"/><path d="M253.64764,187.69457l3.45263,-24.08714" fill-opacity="0.21961" fill="#0046ff" stroke-width="2.5" stroke-linecap="round"/><path d="M239.22156,162.76049l-2.87043,22.37465" fill-opacity="0.21961" fill="#0046ff" stroke-width="2.5" stroke-linecap="round"/><path d="M250.86113,198.955c0,0 -19.74848,-2.72717 -24.04985,-3.32117c-1.57705,-0.21778 -2.35789,-3.07145 -2.35789,-3.07145" fill="none" stroke-width="2.5" stroke-linecap="round"/><path d="M234.6875,161l8.625,1.625" fill="none" stroke-width="3" stroke-linecap="round"/><path d="M253.9375,157.875c0,0 1.7035,-0.58065 2.85659,-0.49679c1.13839,0.08279 4.01841,0.99679 4.01841,0.99679" fill="none" stroke-width="3" stroke-linecap="round"/></g></g></svg>