<svg version="1.1" xmlns="http://www.w3.org/2000/svg" xmlns:xlink="http://www.w3.org/1999/xlink" width="84.72844" height="79.39884" viewBox="0,0,84.72844,79.39884"><defs><linearGradient x1="208.13988" y1="180.33726" x2="281.86526" y2="180.98912" gradientUnits="userSpaceOnUse" id="color-1"><stop offset="0" stop-color="#b1aab3"/><stop offset="1" stop-color="#ffffff"/></linearGradient></defs><g transform="translate(-198.13554,-140.30409)"><g stroke-miterlimit="10"><path d="M249.26238,218.14286c-20.21994,2.29813 -38.5186,-12.61909 -40.87123,-33.31854c-2.35264,-20.69945 12.13168,-39.34268 32.3516,-41.6408c20.21994,-2.29813 38.5186,12.61909 40.87123,33.31854c2.35264,20.69945 -12.13167,39.34267 -32.3516,41.64079z" fill="url(#color-1)" stroke="#000000" stroke-width="2.5" stroke-linecap="butt"/><path d="M252.73937,189.88517l-23.59138,0.44661" fill="none" stroke="#000000" stroke-width="2.5" stroke-linecap="round"/><path d="M228.34217,170.41475l24.17777,0.13211" fill="none" stroke="#000000" stroke-width="2.5" stroke-linecap="round"/><path d="M267.3174,163.10565c0,0 0.514,20.47423 0.65103,25.93275c0.06323,2.51863 -0.11335,6.4924 -0.11335,6.4924" fill="none" stroke="#000000" stroke-width="2.5" stroke-linecap="round"/><path d="M260.83748,218.3763l-61.72155,0.56962l0.66343,-77.0413l62.47214,-0.65329c0,0 3.08977,-1.63174 1.93679,4.49148c-0.21597,1.14695 -1.4366,3.5585 -1.70276,5.27304c-0.17912,1.15388 -4.59725,8.42989 -4.69365,9.73215c-0.12573,1.69843 6.45324,6.48845 6.26911,8.34286c-0.09865,0.99361 -6.13382,6.15753 -6.20653,7.16179c-0.11046,1.5258 6.50308,4.92451 6.35598,6.42924c-0.18797,1.92287 -6.27986,6.07112 -6.40338,7.86449c-0.10924,1.58606 5.93776,6.10156 5.80298,7.50022c-0.2786,2.89138 -7.47564,4.23702 -7.49152,6.08005c-0.06033,7.00667 4.71893,14.24965 4.71893,14.24965z" fill="#b19a00" stroke="#000000" stroke-width="1.5" stroke-linecap="butt"/><path d="M237.03651,210.0336l-23.26142,-1.40521l0.24442,-26.67166l23.26142,1.40521z" fill="none" stroke="#000000" stroke-width="3.5" stroke-linecap="butt"/><path d="M236.07858,176.92815l-21.95703,-0.81215l1.00636,-27.20763l21.95703,0.81215z" fill="none" stroke="#000000" stroke-width="3.5" stroke-linecap="butt"/><path d="M248.23928,201.59214l-0.32994,-13.64202l1.17917,-27.4095" fill="none" stroke="#000000" stroke-width="1.5" stroke-linecap="round"/><path d="M231.53009,149.52457c0.03564,0.13789 0.0614,0.26995 0.07827,0.39642l1.82166,1.18801c0.87224,0.54029 1.35486,1.58791 1.12793,2.64883c-0.28879,1.35017 -1.61744,2.21059 -2.96761,1.9218c-0.24227,-0.05182 -0.46877,-0.13712 -0.67569,-0.25001l-1.69584,-0.87635c-0.0888,0.02685 -0.16874,0.05534 -0.24034,0.08555l0.85187,0.68097c0.74307,0.56886 1.13475,1.53355 0.926,2.50949c-0.19677,0.91994 -0.87626,1.61251 -1.71639,1.86914c0.0143,0.22389 -0.00153,0.45344 -0.05077,0.68363c-0.00296,0.01383 -0.00602,0.02762 -0.00921,0.04134c0.97722,0.65053 2.1699,1.07991 2.95636,1.89703l3.19546,1.80255c0.95855,0.51176 1.50452,1.61267 1.2659,2.72827c-0.15985,0.74734 -0.63828,1.34463 -1.26261,1.68003c0.29897,0.5173 0.41458,1.14289 0.27977,1.77317c-0.26855,1.25553 -1.43628,2.08756 -2.68435,1.96581c0.37496,0.54614 0.53342,1.23931 0.38393,1.93826c-0.28603,1.33729 -1.59218,2.19413 -2.92899,1.92975l1.19965,1.07329c0.66979,0.57727 1.01194,1.4928 0.81395,2.41843c-0.21122,0.98752 -0.97871,1.71304 -1.90405,1.91855c0.01274,0.00317 0.02548,0.00636 0.03823,0.00954c0.23977,0.03305 0.45209,0.08918 0.64009,0.16308c1.67862,0.4362 3.36318,0.94301 5.08466,1.57641c0,0 2.34618,0.86339 1.4828,3.20957c-0.86339,2.34618 -3.20957,1.4828 -3.20957,1.4828c-0.06493,-0.0239 -0.12979,-0.0476 -0.1946,-0.07111c1.21622,1.09466 2.39122,2.24742 3.53669,3.45967l1.72367,1.83349c0.55874,0.57856 0.82868,1.41576 0.64779,2.26142c-0.23522,1.09972 -1.16031,1.87453 -2.22499,1.96808l-3.65637,0.40765c-0.00191,0.00948 -0.00389,0.01896 -0.00591,0.02844c-0.0944,0.44134 -0.2999,0.83035 -0.58095,1.144c0.00066,0.02395 0.00127,0.04805 0.00182,0.07231c0.0289,1.25178 -1.52323,2.06084 -1.84879,3.2699c-0.00924,0.03434 -0.0172,0.06935 -0.02395,0.105l2.54176,1.54168c0.91614,0.52671 1.43073,1.60162 1.19781,2.69054c-0.28879,1.35017 -1.61744,2.21059 -2.96761,1.9218c-0.06712,-0.01435 -0.13302,-0.03128 -0.19764,-0.05065l-3.19488,-0.92571l0.01497,-0.05167c-0.11008,-0.018 -0.21993,-0.03886 -0.32952,-0.0628c-1.33708,-0.29207 -2.41755,-1.22662 -3.53656,-2.06371c-0.23935,-0.08492 -0.47689,-0.16765 -0.71209,-0.24555c-0.56959,0.73828 -1.53111,1.12669 -2.50382,0.91863c-0.41061,-0.08782 -0.77592,-0.27182 -1.07738,-0.52335l-2.04639,-1.63585c0,0 -0.75762,-0.60563 -0.95182,-1.53434c-1.25974,-1.05128 -2.62648,-2.09591 -3.95538,-3.16931c-0.61059,-0.42224 -1.19659,-0.82657 -1.74961,-1.1976l-3.06173,-1.89916c-0.78666,-0.46279 -1.2711,-1.33227 -1.22975,-2.26315l-2.29765,-1.75792c-0.77141,-0.56407 -1.18266,-1.54734 -0.96984,-2.54228c0.28879,-1.35017 1.61744,-2.21059 2.96761,-1.9218c0.37527,0.08026 0.71269,0.24086 0.99813,0.45991l1.29766,0.95063c0.45543,-0.30526 0.98166,-0.54524 1.54013,-0.73212l-0.97513,-1.22002c-0.46052,-0.56711 -0.66959,-1.33011 -0.50489,-2.10011c0.28879,-1.35017 1.61744,-2.21059 2.96761,-1.9218c0.36563,0.07821 0.69536,0.23268 0.97606,0.44318l2.42002,1.73076c0.41871,-0.10204 0.85905,-0.19793 1.31817,-0.2885c0.67747,-0.13364 1.77071,0.10893 2.95231,0.50058l1.07202,-0.25002c-0.17628,-0.11242 -0.35272,-0.22479 -0.52925,-0.33714l-0.06833,0.21982l-4.7503,-1.47662c-1.23688,-0.36922 -2.0016,-1.63377 -1.72696,-2.91779c0.28879,-1.35017 1.61744,-2.21059 2.96761,-1.9218l2.80253,0.59944c2.6589,0.56999 5.18958,1.0409 7.69425,1.59755l-2.8797,-1.69761l0.01111,-0.01884l-0.06205,-0.01201c-5.16087,-3.38439 -9.26011,-7.55892 -14.1528,-11.1587c0,0 -2.0092,-1.48766 -0.52153,-3.49686c0.05494,-0.0742 0.11058,-0.14363 0.16682,-0.20853c-3.04146,-3.14103 -6.00511,-6.35399 -8.90439,-9.67533l-0.00034,-0.00063l-0.00012,0.00011l-2.9838,-3.42203c-0.5122,-0.5747 -0.75294,-1.37742 -0.57959,-2.1879c0.26785,-1.25229 1.43025,-2.08327 2.67468,-1.96674l3.5683,0.27949l-0.00414,0.05279c0.21688,0.0155 0.43346,0.04319 0.64966,0.0852c0.13667,0.02655 6.07243,4.0871 7.20754,4.90807c0.94641,0.68448 1.88739,1.37664 2.82615,2.07192c0.39762,0.12031 0.78949,0.26878 1.17807,0.43105c-0.86097,-1.27859 -1.57184,-2.63578 -1.60215,-4.11581c-0.01627,-0.7941 1.1218,-0.79718 2.10393,-0.90712l-0.46669,-1.05047c-0.21659,-0.47234 -0.28832,-1.01602 -0.17127,-1.56323c0.28879,-1.35017 1.61744,-2.21059 2.96761,-1.9218c0.11589,0.02479 0.22817,0.05724 0.33643,0.0967l4.6847,1.63122l-0.07679,0.22055c0.89402,0.23993 1.76883,0.53688 2.61337,0.9172l1.80328,-0.59354c0,0 2.42046,-0.6256 3.04606,1.79485zM222.64534,151.49003l-0.04885,0.14031l0.21459,0.01479l-0.00388,0.05619c0.05819,0.00072 0.11641,0.00219 0.17466,0.00442c-0.11331,-0.07035 -0.22552,-0.14225 -0.33652,-0.21571zM231.86501,192.66891c-0.03627,-0.03306 -0.07259,-0.06604 -0.10896,-0.09895c-0.01309,0.01404 -0.02634,0.02793 -0.03973,0.04165c0.04959,0.01907 0.09916,0.03817 0.14869,0.05731z" fill="#66ff9b" stroke="none" stroke-width="0.5" stroke-linecap="butt"/></g></g></svg>