<svg version="1.1" xmlns="http://www.w3.org/2000/svg" xmlns:xlink="http://www.w3.org/1999/xlink" width="1471.45455" height="862" viewBox="0,0,1471.45455,862"><defs><linearGradient x1="442.55455" y1="-167.55455" x2="442.55455" y2="692.44545" gradientUnits="userSpaceOnUse" id="color-1"><stop offset="0" stop-color="#528234"/><stop offset="1" stop-color="#543722"/></linearGradient><linearGradient x1="-316.39999" y1="223.39999" x2="-316.39999" y2="225.39999" gradientUnits="userSpaceOnUse" id="color-2"><stop offset="0" stop-color="#a0ff66"/><stop offset="1" stop-color="#543722"/></linearGradient><linearGradient x1="104.31818" y1="238.86364" x2="104.31818" y2="302.5" gradientUnits="userSpaceOnUse" id="color-3"><stop offset="0" stop-color="#75826d"/><stop offset="1" stop-color="#543722"/></linearGradient><linearGradient x1="414.43182" y1="96.10284" x2="414.43182" y2="119.17784" gradientTransform="translate(-741.36364,-226.81818) scale(2,2)" gradientUnits="userSpaceOnUse" id="color-4"><stop offset="0" stop-color="#000000"/><stop offset="1" stop-color="#717171"/></linearGradient><linearGradient x1="350.79545" y1="158.83011" x2="350.79545" y2="181.90511" gradientTransform="translate(-654.09091,-352.27273) scale(2,2)" gradientUnits="userSpaceOnUse" id="color-5"><stop offset="0" stop-color="#000000"/><stop offset="1" stop-color="#dedede"/></linearGradient><linearGradient x1="307.57867" y1="249.1483" x2="307.57867" y2="281.90512" gradientTransform="translate(-385.83744,-385.62931) scale(1.40887,1.40887)" gradientUnits="userSpaceOnUse" id="color-6"><stop offset="0" stop-color="#000000"/><stop offset="1" stop-color="#dedede"/></linearGradient></defs><g transform="translate(320.39999,168.55455)"><g stroke-miterlimit="10"><path d="M-264.94545,692.44545v-860h1415v860z" fill="url(#color-1)" stroke="#000000" stroke-width="2" stroke-linecap="butt"/><path d="M-319.39999,224.89999v-1h6v1z" fill="url(#color-2)" stroke="#000000" stroke-width="2" stroke-linecap="butt"/><path d="M67.5,444l220,-249" fill="none" stroke="none" stroke-width="0.5" stroke-linecap="round"/><path d="M525.5,-164l-402,612l476.27273,-4.13636l0.68182,-536.13636l-124.31818,-3.40909" fill="#00bb3c" stroke="#000000" stroke-width="2.5" stroke-linecap="round"/><path d="M186.59091,270.68182c0,17.5727 -36.83475,31.81818 -82.27273,31.81818c-45.43797,0 -82.27273,-14.24549 -82.27273,-31.81818c0,-17.5727 36.83475,-31.81818 82.27273,-31.81818c45.43797,0 82.27273,14.24549 82.27273,31.81818z" fill="url(#color-3)" stroke="#000000" stroke-width="2" stroke-linecap="butt"/><text transform="translate(370.68182,113.40909) scale(0.5,0.5)" font-size="40" xml:space="preserve" fill="url(#color-4)" stroke="none" stroke-width="1" stroke-linecap="butt" font-family="Pixel" font-weight="normal" text-anchor="start"><tspan x="0" dy="0">Results!</tspan></text><text transform="translate(327.04545,176.13636) scale(0.5,0.5)" font-size="40" xml:space="preserve" fill="url(#color-5)" stroke="none" stroke-width="1" stroke-linecap="butt" font-family="Pixel" font-weight="normal" text-anchor="start"><tspan x="0" dy="0">Kills!</tspan></text><text transform="translate(273.86364,273.71591) scale(0.70979,0.70979)" font-size="40" xml:space="preserve" fill="url(#color-6)" stroke="none" stroke-width="1" stroke-linecap="butt" font-family="Pixel" font-weight="normal" text-anchor="start"><tspan x="0" dy="0">RANK:</tspan></text></g></g></svg>