<svg version="1.1" xmlns="http://www.w3.org/2000/svg" xmlns:xlink="http://www.w3.org/1999/xlink" width="77.65245" height="76.22826" viewBox="0,0,77.65245,76.22826"><defs><linearGradient x1="240" y1="143.13588" x2="240" y2="216.86414" gradientUnits="userSpaceOnUse" id="color-1"><stop offset="0" stop-color="#b1aab3"/><stop offset="1" stop-color="#ffffff"/></linearGradient></defs><g transform="translate(-201.0381,-141.88588)"><g data-paper-data="{&quot;isPaintingLayer&quot;:true}" fill-rule="nonzero" stroke="#000000" stroke-width="2.5" stroke-linejoin="miter" stroke-miterlimit="10" stroke-dasharray="" stroke-dashoffset="0" style="mix-blend-mode: normal"><path d="M202.55946,184.59103c-2.47681,-20.19883 12.27804,-38.62867 32.95588,-41.16422c20.67784,-2.53556 39.4484,11.78336 41.92521,31.98217c2.47681,20.19883 -12.27804,38.62867 -32.95588,41.16422c-20.67784,2.53556 -39.44839,-11.78335 -41.9252,-31.98217z" data-paper-data="{&quot;index&quot;:null}" fill="url(#color-1)" stroke-linecap="butt"/><path d="M230.1916,164.23153l0.65517,23.58651" fill="none" stroke-linecap="round"/><path d="M250.10073,163.24965l0.08166,24.17799" fill="none" stroke-linecap="round"/><path d="M257.57583,197.16649c0,0 0.01435,3.70007 -2.00743,5.5973c-1.63997,1.53894 -4.9902,1.16453 -6.57949,1.2185c-3.38867,0.11506 -5.58692,-2.78076 -8.20212,-2.69197c-3.01784,0.10247 -6.62771,3.11407 -9.95964,3.2272c-1.65137,0.05607 -4.3129,-0.92917 -5.09192,-2.83381c-0.31452,-0.76896 0.57321,-3.6278 0.57321,-3.6278" fill="none" stroke-linecap="round"/></g></g></svg>