<svg version="1.1" xmlns="http://www.w3.org/2000/svg" xmlns:xlink="http://www.w3.org/1999/xlink" width="111.61644" height="148.5" viewBox="0,0,111.61644,148.5"><defs><linearGradient x1="240" y1="108.00001" x2="240" y2="252.00001" gradientUnits="userSpaceOnUse" id="color-1"><stop offset="0" stop-color="#c9daff"/><stop offset="1" stop-color="#5f52ff"/></linearGradient><linearGradient x1="240" y1="108" x2="240" y2="252" gradientUnits="userSpaceOnUse" id="color-2"><stop offset="0" stop-color="#000000"/><stop offset="1" stop-color="#525252"/></linearGradient><linearGradient x1="218.76262" y1="121.74217" x2="218.76262" y2="137.41571" gradientTransform="translate(-602.45854,-408.83442) scale(3.0625,3.0625)" gradientUnits="userSpaceOnUse" id="color-3"><stop offset="0" stop-color="#000000"/><stop offset="1" stop-color="#4c4c4c"/></linearGradient><linearGradient x1="239.9" y1="166.12814" x2="239.9" y2="216.12814" gradientUnits="userSpaceOnUse" id="color-4"><stop offset="0" stop-color="#000000"/><stop offset="1" stop-color="#ffffff"/></linearGradient></defs><g transform="translate(-184.19178,-105.75001)"><g stroke-miterlimit="10"><path d="M186.44178,248.21348c0,-17.0667 0,-88.07171 0,-135.66785c0,-2.99995 2.05724,-4.54562 4.83944,-4.54562c10.70155,0 81.52994,0 98.58683,0c2.1263,0 3.69017,1.08098 3.69017,3.3737c0,12.19511 0,133.25963 0,133.25963c0,0 0,2.37004 0,3.58014c0,3.04179 -2.89821,3.78653 -5.71921,3.78653c-20.48312,0 -89.43036,0 -98.20864,0c-1.80888,0 -3.18859,-3.78653 -3.18859,-3.78653z" fill="url(#color-1)" stroke="url(#color-2)" stroke-width="4.5"/><text transform="translate(196.72109,133.49691) scale(0.32653,0.32653)" font-size="40" xml:space="preserve" fill="url(#color-3)" stroke="none" stroke-width="1" font-family="Pixel" font-weight="normal" text-anchor="start"><tspan x="0" dy="0">Coming Soon!</tspan></text><path d="M262.2,171.72814v25.2c0,0.5 -0.2,1 -0.6,1.2c-3.2,2.8 -7.2,4.2 -11.3,4.2c-4.1,0 -8.1,-1.5 -11.3,-4.2c-2.6,-2.2 -5.8,-3.5 -9.2,-3.5c-3.1,0 -6.1,1 -8.6,3v16.7c0,1 -0.8,1.8 -1.8,1.8c-1,0 -1.8,-0.8 -1.8,-1.8v-42.6c0,-0.8 0.5,-1.3 1,-1.6c3.2,-2.6 7,-4 11,-4c4.1,0 8.2,1.5 11.4,4.2c2.6,2.2 5.8,3.4 9.2,3.4c3.4,0 6.6,-1.2 9.2,-3.4c0.6,-0.4 1.3,-0.5 1.9,-0.2c0.6,0.3 0.9,0.9 0.9,1.6z" fill="url(#color-4)" stroke="none" stroke-width="1"/></g></g></svg>