<svg version="1.1" xmlns="http://www.w3.org/2000/svg" xmlns:xlink="http://www.w3.org/1999/xlink" width="86.13632" height="112.14491" viewBox="0,0,86.13632,112.14491"><defs><radialGradient cx="243.61221" cy="179.98337" r="38.45238" gradientUnits="userSpaceOnUse" id="color-1"><stop offset="0" stop-color="#b73435"/><stop offset="1" stop-color="#b83365"/></radialGradient><linearGradient x1="232.58267" y1="176.40585" x2="232.67999" y2="153.35432" gradientUnits="userSpaceOnUse" id="color-2"><stop offset="0" stop-color="#00ff21"/><stop offset="1" stop-color="#fff78a"/></linearGradient><linearGradient x1="232.89301" y1="204.7673" x2="232.98929" y2="181.96289" gradientUnits="userSpaceOnUse" id="color-3"><stop offset="0" stop-color="#00ff21"/><stop offset="1" stop-color="#fffab9"/></linearGradient></defs><g transform="translate(-196.3809,-123.93741)"><g stroke="#000000" stroke-width="2.5" stroke-miterlimit="10"><path d="M243.44987,218.43541c-20.79608,-0.0878 -37.58197,-17.37453 -37.49232,-38.61101c0.08966,-21.23647 17.02092,-38.38086 37.81699,-38.29307c20.79608,0.0878 37.58197,17.37453 37.49232,38.61101c-0.08966,21.23648 -17.02092,38.38086 -37.81699,38.29307z" fill="url(#color-1)" stroke-linecap="butt"/><path d="M219.71645,149.91048l-11.8059,-13.1468c0,0 3.37016,-0.97021 6.4331,-0.86589c3.70594,0.12623 7.42263,1.36888 10.13808,1.8945c3.93828,0.76231 6.38378,5.24611 6.38378,5.24611" fill="#ffffff" stroke-linecap="round"/><path d="M231.10129,217.94611c0,0 -2.48328,4.46299 -6.42786,5.19202c-2.7198,0.50267 -6.44684,1.71391 -10.15372,1.80884c-3.06372,0.07847 -6.42556,-0.92019 -6.42556,-0.92019l11.91648,-13.04666" fill="#ffffff" stroke-linecap="round"/><path d="M235.0089,142.07642l-5.8564,-16.67094c0,0 3.48444,0.39747 6.27281,1.66931c2.03615,0.92872 3.91986,2.23448 5.60035,3.45968c1.10393,0.80485 2.12016,1.57491 3.03433,2.18052c3.34414,2.21538 3.8816,7.29435 3.8816,7.29435" fill="#ffffff" stroke-linecap="round"/><path d="M248.01695,219.7892c0,0 -0.48274,5.08448 -3.80283,7.33572c-0.9076,0.61541 -1.91548,1.39639 -3.01068,2.21306c-1.66721,1.24322 -3.53674,2.56918 -5.56278,3.51979c-2.77451,1.30178 -6.25447,1.73675 -6.25447,1.73675l5.67656,-16.73303" fill="#ffffff" stroke-linecap="round"/><path d="M221.32241,156.72835c0,0 7.56753,-4.45881 13.21137,-3.12756c6.08298,1.43481 10.2534,9.73462 9.72865,11.79662c-0.45052,1.77029 -0.75463,5.80118 -2.4299,7.88446c-2.11114,2.62533 -5.62127,3.1393 -5.62127,3.1393l-15.22016,-20.02691" fill="url(#color-2)" stroke-linecap="round"/><path d="M221.35522,201.66243l15.22375,-19.68438c0,0 3.46809,0.53776 5.53459,3.15248c1.63985,2.07487 1.90702,6.06495 2.33791,7.81996c0.50188,2.04421 -3.69301,10.2199 -9.72255,11.58848c-5.59426,1.26978 -13.04317,-3.20428 -13.04317,-3.20428" fill="url(#color-3)" stroke-linecap="round"/><path d="M265.45982,202.0104c0,0 -5.92957,2.99359 -9.52801,1.22012c-3.23741,-1.59554 -4.20804,-7.80153 -3.78692,-10.63245c0.5921,-3.98026 3.05549,-7.98461 3.03683,-11.13152c-0.01904,-3.21017 -1.99845,-9.53986 -2.61084,-13.97368c-0.48125,-3.48433 0.29792,-9.23648 3.45406,-10.90687c3.2478,-1.71888 8.88239,0.69468 8.88239,0.69468" fill="none" stroke-linecap="round"/><path d="M264.6623,156.78544c0,0 0.44103,6.79384 2.17148,13.6624c0.93201,3.69935 1.41749,7.41692 1.46549,10.10239c0.0577,3.22767 -0.70554,8.26053 -1.83694,12.28839c-1.39595,4.96969 -1.00042,8.67756 -1.00042,8.67756" fill="none" stroke-linecap="round"/><path d="M256.3992,156.52109l2.10465,3.18605l-5.05165,5.00918l6.07044,4.52661l-4.26073,5.80681l5.532,6.64243l-7.20064,8.14196l5.81536,6.41417l-5.04942,4.47967" fill="#ffffff" stroke-linecap="round"/><path d="M265.54097,169.39188l-5.42281,-3.23535l4.22274,-5.17154" fill="#ffffff" stroke-linecap="round"/><path d="M267.71174,182.00379l-4.42396,-5.70227l3.96521,-2.70149" fill="#ffffff" stroke-linecap="round"/><path d="M264.69324,194.59379l-4.18206,-4.46569l6.93572,-3.92451" fill="#ffffff" stroke-linecap="round"/><path d="M213.1003,202.76637c0,0 -2.12806,1.93383 -4.36356,1.61272c-1.54138,-0.22141 -3.74762,-0.24613 -5.74218,-0.86272c-1.64849,-0.50961 -3.26214,-1.64748 -3.26214,-1.64748l8.70534,-4.81489" fill="#ffffff" stroke-linecap="round"/><path d="M207.39716,164.56438l-8.66438,-4.88822c0,0 1.6232,-1.1242 3.27594,-1.61987c1.99969,-0.59972 4.20607,-0.60583 5.74927,-0.81422c2.23813,-0.30222 4.34978,1.64951 4.34978,1.64951" fill="#ffffff" stroke-linecap="round"/></g></g></svg>