<svg version="1.1" xmlns="http://www.w3.org/2000/svg" xmlns:xlink="http://www.w3.org/1999/xlink" width="76.24432" height="77.91332" viewBox="0,0,76.24432,77.91332"><defs><linearGradient x1="203.15053" y1="181.0392" x2="276.84948" y2="178.96081" gradientUnits="userSpaceOnUse" id="color-1"><stop offset="0" stop-color="#b1aab3"/><stop offset="1" stop-color="#ffffff"/></linearGradient></defs><g transform="translate(-201.87784,-141.04334)"><g stroke="#000000" stroke-width="2.5" stroke-miterlimit="10"><path d="M245.64465,217.29624c-20.12098,3.04523 -38.95944,-11.18422 -42.07688,-31.78237c-3.11746,-20.59815 10.66663,-39.76489 30.78759,-42.81012c20.12098,-3.04523 38.95944,11.18422 42.07688,31.78237c3.11746,20.59815 -10.66662,39.76488 -30.78759,42.81011z" fill="url(#color-1)" stroke-linecap="butt"/><path d="M228.26429,190.24902l23.55867,-1.31981" fill="none" stroke-linecap="round"/><path d="M226.72156,170.37548l24.16608,-0.7632" fill="none" stroke-linecap="round"/><path d="M258.5392,161.94724c0,0 3.6982,-0.11865 5.65166,1.84884c1.58456,1.59594 1.30474,4.95539 1.40349,6.54253c0.21054,3.38408 -2.62216,5.66309 -2.45968,8.27475c0.1875,3.01375 3.29967,6.53729 3.50668,9.86471c0.1026,1.64913 -0.80722,4.33738 -2.68914,5.16978c-0.75979,0.33607 -3.64252,-0.47071 -3.64252,-0.47071" fill="none" stroke-linecap="round"/></g></g></svg>