<svg version="1.1" xmlns="http://www.w3.org/2000/svg" xmlns:xlink="http://www.w3.org/1999/xlink" width="407.61246" height="302.96224" viewBox="0,0,407.61246,302.96224"><defs><linearGradient x1="74.77326" y1="272.29427" x2="74.77326" y2="293.29427" gradientUnits="userSpaceOnUse" id="color-1"><stop offset="0" stop-color="#ffffff"/><stop offset="1" stop-color="#a4a4a4"/></linearGradient><linearGradient x1="187.77326" y1="269.15142" x2="187.77326" y2="290.15142" gradientUnits="userSpaceOnUse" id="color-2"><stop offset="0" stop-color="#ffffff"/><stop offset="1" stop-color="#a4a4a4"/></linearGradient><linearGradient x1="130.33516" y1="225.44593" x2="130.33516" y2="299.17419" gradientUnits="userSpaceOnUse" id="color-3"><stop offset="0" stop-color="#b1aab3"/><stop offset="1" stop-color="#ffffff"/></linearGradient><linearGradient x1="133.53516" y1="289.03235" x2="133.53516" y2="330.36569" gradientUnits="userSpaceOnUse" id="color-4"><stop offset="0" stop-color="#2c5623"/><stop offset="1" stop-color="#ffc668"/></linearGradient><linearGradient x1="133.84945" y1="300.93236" x2="133.84945" y2="321.78951" gradientUnits="userSpaceOnUse" id="color-5"><stop offset="0" stop-color="#9e7509"/><stop offset="1" stop-color="#099e65"/></linearGradient><linearGradient x1="59.03186" y1="86.20866" x2="59.03186" y2="107.20866" gradientUnits="userSpaceOnUse" id="color-6"><stop offset="0" stop-color="#ffffff"/><stop offset="1" stop-color="#a4a4a4"/></linearGradient><linearGradient x1="172.03186" y1="83.06581" x2="172.03186" y2="104.06581" gradientUnits="userSpaceOnUse" id="color-7"><stop offset="0" stop-color="#ffffff"/><stop offset="1" stop-color="#a4a4a4"/></linearGradient><linearGradient x1="114.59376" y1="39.36032" x2="114.59376" y2="113.08858" gradientUnits="userSpaceOnUse" id="color-8"><stop offset="0" stop-color="#b1aab3"/><stop offset="1" stop-color="#ffffff"/></linearGradient><linearGradient x1="307.14892" y1="35.9755" x2="307.14892" y2="109.70376" gradientUnits="userSpaceOnUse" id="color-9"><stop offset="0" stop-color="#b1aab3"/><stop offset="1" stop-color="#ffffff"/></linearGradient><linearGradient x1="387.17346" y1="210.94879" x2="387.17346" y2="284.67705" gradientUnits="userSpaceOnUse" id="color-10"><stop offset="0" stop-color="#b1aab3"/><stop offset="1" stop-color="#ffffff"/></linearGradient><linearGradient x1="245.8897" y1="156.99385" x2="245.8897" y2="230.72211" gradientUnits="userSpaceOnUse" id="color-11"><stop offset="0" stop-color="#b1aab3"/><stop offset="1" stop-color="#ffffff"/></linearGradient></defs><g transform="translate(-23.28516,-28.65345)"><g stroke-miterlimit="10"><path d="M85.43993,282.79427c0,5.79899 -4.77563,10.5 -10.66666,10.5c-5.89103,0 -10.66667,-4.70101 -10.66667,-10.5c0,-5.79899 4.77564,-10.5 10.66667,-10.5c5.89103,0 10.66666,4.70101 10.66666,10.5z" fill="url(#color-1)" stroke="#000000" stroke-width="2.5" stroke-linecap="butt"/><path d="M198.43993,279.65142c0,5.79899 -4.77563,10.5 -10.66666,10.5c-5.89103,0 -10.66667,-4.70101 -10.66667,-10.5c0,-5.79899 4.77564,-10.5 10.66667,-10.5c5.89103,0 10.66666,4.70101 10.66666,10.5z" fill="url(#color-2)" stroke="#000000" stroke-width="2.5" stroke-linecap="butt"/><path d="M92.89462,266.90108c-2.47681,-20.19883 12.27804,-38.62867 32.95588,-41.16422c20.67784,-2.53556 39.4484,11.78336 41.92521,31.98217c2.47681,20.19883 -12.27804,38.62867 -32.95588,41.16422c-20.67784,2.53556 -39.44839,-11.78335 -41.9252,-31.98217z" fill="url(#color-3)" stroke="#000000" stroke-width="2.5" stroke-linecap="butt"/><path d="M172.40531,264.34682c0,0 -23.63787,-19.03575 -29.88018,-21.75864c-2.71984,-1.1864 -6.68138,-4.54765 -6.68138,-4.54765c0,0 -3.3305,7.08036 -5.50847,9.63232c-3.82544,4.48231 -22.6402,20.22275 -22.6402,20.22275c0,0 0.563,-8.11727 -1.01219,-13.5848c-0.94723,-3.28781 -3.7114,-4.6577 -4.89888,-5.42892c-1.21939,-0.79195 -11.90963,8.27489 -13.57298,6.33178c-0.59503,-0.6951 1.57674,-5.685 3.54066,-9.31144c1.54936,-2.86092 2.94052,-4.59947 2.94052,-4.59947c0,0 1.03673,-1.98697 3.34938,-4.75806c2.69897,-3.23397 6.91005,-7.42319 9.7846,-9.04342c2.12545,-1.19801 6.51848,-3.93736 10.57187,-5.35597c5.54254,-1.93976 10.68521,-2.42362 10.68521,-2.42362c0,0 11.46824,-0.70691 16.6844,1.68036c3.13121,1.43308 11.02785,4.32452 15.1833,7.55342c2.30313,1.78959 5.92705,2.19462 8.03242,7.30229c2.53502,6.14991 3.57593,27.40038 3.57593,27.40038" fill="#9e7509" stroke="#000000" stroke-width="3" stroke-linecap="round"/><path d="M127.67501,270.08691l-0.23386,-18.94275" fill="none" stroke="#000000" stroke-width="3" stroke-linecap="round"/><path d="M144.51301,270.08691l0.46772,-18.47503" fill="none" stroke="#000000" stroke-width="3" stroke-linecap="round"/><path d="M132.58609,252.54733l-8.419,-7.01584" fill="none" stroke="#000000" stroke-width="3" stroke-linecap="round"/><path d="M152.69815,244.36218l-10.75761,7.95128" fill="none" stroke="#000000" stroke-width="3" stroke-linecap="round"/><path d="M144.04529,284.35244c0,0 -19.13204,-0.16352 -23.61625,-0.20185c-1.78581,-0.01526 -4.44709,-3.30607 -4.44709,-3.30607" fill="none" stroke="#000000" stroke-width="3" stroke-linecap="round"/><path d="M24.53516,330.36569v-41.33334h218v41.33334z" fill="url(#color-4)" stroke="#000000" stroke-width="2.5" stroke-linecap="butt"/><path d="M98.42087,301.21808l0.14286,-10.57143" fill="none" stroke="#000000" stroke-width="3" stroke-linecap="round"/><path d="M90.27802,321.78951v-20.85714h87.14286v20.85714z" fill="url(#color-5)" stroke="#000000" stroke-width="3" stroke-linecap="butt"/><path d="M168.84945,289.50379v10.42857" fill="none" stroke="#000000" stroke-width="3" stroke-linecap="round"/><text transform="translate(106.42088,314.4343) scale(0.28315,0.28315)" font-size="40" xml:space="preserve" fill="#000000" stroke="none" stroke-width="1" stroke-linecap="butt" font-family="Marker" font-weight="normal" text-anchor="start"><tspan x="0" dy="0">The Locker</tspan></text><path d="M69.69853,96.70866c0,5.79899 -4.77563,10.5 -10.66666,10.5c-5.89103,0 -10.66667,-4.70101 -10.66667,-10.5c0,-5.79899 4.77564,-10.5 10.66667,-10.5c5.89103,0 10.66666,4.70101 10.66666,10.5z" fill="url(#color-6)" stroke="#000000" stroke-width="2.5" stroke-linecap="butt"/><path d="M182.69853,93.56581c0,5.79899 -4.77563,10.5 -10.66666,10.5c-5.89103,0 -10.66667,-4.70101 -10.66667,-10.5c0,-5.79899 4.77564,-10.5 10.66667,-10.5c5.89103,0 10.66666,4.70101 10.66666,10.5z" fill="url(#color-7)" stroke="#000000" stroke-width="2.5" stroke-linecap="butt"/><path d="M77.15322,80.81547c-2.47681,-20.19883 12.27804,-38.62867 32.95588,-41.16422c20.67784,-2.53556 39.4484,11.78336 41.92521,31.98217c2.47681,20.19883 -12.27804,38.62867 -32.95588,41.16422c-20.67784,2.53556 -39.44839,-11.78335 -41.9252,-31.98217z" fill="url(#color-8)" stroke="#000000" stroke-width="2.5" stroke-linecap="butt"/><path d="M156.66391,78.26121c0,0 -23.63787,-19.03575 -29.88018,-21.75864c-2.71984,-1.1864 -6.68138,-4.54765 -6.68138,-4.54765c0,0 -3.3305,7.08036 -5.50847,9.63232c-3.82544,4.48231 -22.6402,20.22275 -22.6402,20.22275c0,0 0.563,-8.11727 -1.01219,-13.5848c-0.94723,-3.28781 -3.7114,-4.6577 -4.89888,-5.42892c-1.21939,-0.79195 -11.90963,8.27489 -13.57298,6.33178c-0.59503,-0.6951 1.57674,-5.685 3.54066,-9.31144c1.54936,-2.86092 2.94052,-4.59947 2.94052,-4.59947c0,0 1.03673,-1.98697 3.34938,-4.75806c2.69897,-3.23397 6.91005,-7.42319 9.7846,-9.04342c2.12545,-1.19801 6.51848,-3.93736 10.57187,-5.35597c5.54254,-1.93976 10.68521,-2.42362 10.68521,-2.42362c0,0 11.46824,-0.70691 16.6844,1.68036c3.13121,1.43308 11.02785,4.32452 15.1833,7.55342c2.30313,1.78959 5.92705,2.19462 8.03242,7.30229c2.53502,6.14991 3.57593,27.40038 3.57593,27.40038" fill="#9e7509" stroke="#000000" stroke-width="3" stroke-linecap="round"/><path d="M111.69975,65.05855l0.23386,18.94275" fill="none" stroke="#000000" stroke-width="3" stroke-linecap="round"/><path d="M128.77161,84.0013l0.46772,-18.47503" fill="none" stroke="#000000" stroke-width="3" stroke-linecap="round"/><path d="M108.42569,59.44588l8.419,7.01584" fill="none" stroke="#000000" stroke-width="3" stroke-linecap="round"/><path d="M136.95675,58.27657l-10.75761,7.95128" fill="none" stroke="#000000" stroke-width="3" stroke-linecap="round"/><path d="M128.30389,98.26683c0,0 -19.13204,-0.16352 -23.61625,-0.20185c-1.78581,-0.01526 -4.44709,-3.30607 -4.44709,-3.30607" fill="none" stroke="#000000" stroke-width="3" stroke-linecap="round"/><path d="M269.70838,77.43065c-2.47681,-20.19883 12.27804,-38.62867 32.95588,-41.16422c20.67784,-2.53556 39.4484,11.78336 41.92521,31.98217c2.47681,20.19883 -12.27804,38.62867 -32.95588,41.16422c-20.67784,2.53556 -39.44839,-11.78335 -41.9252,-31.98217z" fill="url(#color-9)" stroke="#000000" stroke-width="2.5" stroke-linecap="butt"/><path d="M349.21907,74.87639c0,0 -23.63787,-19.03575 -29.88018,-21.75864c-2.71984,-1.1864 -6.68138,-4.54765 -6.68138,-4.54765c0,0 -3.3305,7.08036 -5.50847,9.63232c-3.82544,4.48231 -22.6402,20.22275 -22.6402,20.22275c0,0 0.563,-8.11727 -1.01219,-13.5848c-0.94723,-3.28781 -3.7114,-4.6577 -4.89888,-5.42892c-1.21939,-0.79195 -11.90963,8.27489 -13.57298,6.33178c-0.59503,-0.6951 1.57674,-5.685 3.54066,-9.31144c1.54936,-2.86092 2.94052,-4.59947 2.94052,-4.59947c0,0 1.03673,-1.98697 3.34938,-4.75806c2.69897,-3.23397 6.91005,-7.42319 9.7846,-9.04342c2.12545,-1.19801 6.51848,-3.93736 10.57187,-5.35597c5.54254,-1.93976 10.68521,-2.42362 10.68521,-2.42362c0,0 11.46824,-0.70691 16.6844,1.68036c3.13121,1.43308 11.02785,4.32452 15.1833,7.55342c2.30313,1.78959 5.92705,2.19462 8.03242,7.30229c2.53502,6.14991 3.57593,27.40038 3.57593,27.40038" fill="#9e7509" stroke="#000000" stroke-width="3" stroke-linecap="round"/><path d="M304.48877,80.61648l-0.23386,-18.94275" fill="none" stroke="#000000" stroke-width="3" stroke-linecap="round"/><path d="M321.32677,80.61648l0.46772,-18.47503" fill="none" stroke="#000000" stroke-width="3" stroke-linecap="round"/><path d="M309.39985,63.0769l-8.419,-7.01584" fill="none" stroke="#000000" stroke-width="3" stroke-linecap="round"/><path d="M329.51191,54.89175l-10.75761,7.95128" fill="none" stroke="#000000" stroke-width="3" stroke-linecap="round"/><path d="M320.85905,94.88201c0,0 -19.13204,-0.16352 -23.61625,-0.20185c-1.78581,-0.01526 -4.44709,-3.30607 -4.44709,-3.30607" fill="none" stroke="#000000" stroke-width="3" stroke-linecap="round"/><path d="M349.73292,252.40394c-2.47681,-20.19883 12.27804,-38.62867 32.95588,-41.16422c20.67784,-2.53556 39.4484,11.78336 41.92521,31.98217c2.47681,20.19883 -12.27804,38.62867 -32.95588,41.16422c-20.67784,2.53556 -39.44839,-11.78335 -41.9252,-31.98217z" fill="url(#color-10)" stroke="#000000" stroke-width="2.5" stroke-linecap="butt"/><path d="M429.24361,249.84968c0,0 -23.63787,-19.03575 -29.88018,-21.75864c-2.71984,-1.1864 -6.68138,-4.54765 -6.68138,-4.54765c0,0 -3.3305,7.08036 -5.50847,9.63232c-3.82544,4.48231 -22.6402,20.22275 -22.6402,20.22275c0,0 0.563,-8.11727 -1.01219,-13.5848c-0.94723,-3.28781 -3.7114,-4.6577 -4.89888,-5.42892c-1.21939,-0.79195 -11.90963,8.27489 -13.57298,6.33178c-0.59503,-0.6951 1.57674,-5.685 3.54066,-9.31144c1.54936,-2.86092 2.94052,-4.59947 2.94052,-4.59947c0,0 1.03673,-1.98697 3.34938,-4.75806c2.69897,-3.23397 6.91005,-7.42319 9.7846,-9.04342c2.12545,-1.19801 6.51848,-3.93736 10.57187,-5.35597c5.54254,-1.93976 10.68521,-2.42362 10.68521,-2.42362c0,0 11.46824,-0.70691 16.6844,1.68036c3.13121,1.43308 11.02785,4.32452 15.1833,7.55342c2.30313,1.78959 5.92705,2.19462 8.03242,7.30229c2.53502,6.14991 3.57593,27.40038 3.57593,27.40038" fill="#9e7509" stroke="#000000" stroke-width="3" stroke-linecap="round"/><path d="M377.99929,255.78716l-0.23386,-18.94275" fill="none" stroke="#000000" stroke-width="3" stroke-linecap="round"/><path d="M407.86532,255.58977l0.46772,-18.47503" fill="none" stroke="#000000" stroke-width="3" stroke-linecap="round"/><path d="M382.91037,238.24758l-8.419,-7.01584" fill="none" stroke="#000000" stroke-width="3" stroke-linecap="round"/><path d="M416.05046,229.86504l-10.75761,7.95128" fill="none" stroke="#000000" stroke-width="3" stroke-linecap="round"/><path d="M400.88359,269.8553c0,0 -19.13204,-0.16352 -23.61625,-0.20185c-1.78581,-0.01526 -4.44709,-3.30607 -4.44709,-3.30607" fill="none" stroke="#000000" stroke-width="3" stroke-linecap="round"/><path d="M208.44916,198.449c-2.47681,-20.19883 12.27804,-38.62867 32.95588,-41.16422c20.67784,-2.53556 39.4484,11.78336 41.92521,31.98217c2.47681,20.19883 -12.27804,38.62867 -32.95588,41.16422c-20.67784,2.53556 -39.44839,-11.78335 -41.9252,-31.98217z" fill="url(#color-11)" stroke="#000000" stroke-width="2.5" stroke-linecap="butt"/><path d="M287.95985,195.89474c0,0 -23.63787,-19.03575 -29.88018,-21.75864c-2.71984,-1.1864 -6.68138,-4.54765 -6.68138,-4.54765c0,0 -3.3305,7.08036 -5.50847,9.63232c-3.82544,4.48231 -22.6402,20.22275 -22.6402,20.22275c0,0 0.563,-8.11727 -1.01219,-13.5848c-0.94723,-3.28781 -3.7114,-4.6577 -4.89888,-5.42892c-1.21939,-0.79195 -11.90963,8.27489 -13.57298,6.33178c-0.59503,-0.6951 1.57674,-5.685 3.54066,-9.31144c1.54936,-2.86092 2.94052,-4.59947 2.94052,-4.59947c0,0 1.03673,-1.98697 3.34938,-4.75806c2.69897,-3.23397 6.91005,-7.42319 9.7846,-9.04342c2.12545,-1.19801 6.51848,-3.93736 10.57187,-5.35597c5.54254,-1.93976 10.68521,-2.42362 10.68521,-2.42362c0,0 11.46824,-0.70691 16.6844,1.68036c3.13121,1.43308 11.02785,4.32452 15.1833,7.55342c2.30313,1.78959 5.92705,2.19462 8.03242,7.30229c2.53502,6.14991 3.57593,27.40038 3.57593,27.40038" fill="#9e7509" stroke="#000000" stroke-width="3" stroke-linecap="round"/><path d="M236.48168,182.88947l0.23386,18.94275" fill="none" stroke="#000000" stroke-width="3" stroke-linecap="round"/><path d="M266.58157,201.63483l0.46772,-18.47503" fill="none" stroke="#000000" stroke-width="3" stroke-linecap="round"/><path d="M233.20762,177.2768l8.419,7.01584" fill="none" stroke="#000000" stroke-width="3" stroke-linecap="round"/><path d="M274.76671,175.9101l-10.75761,7.95128" fill="none" stroke="#000000" stroke-width="3" stroke-linecap="round"/><path d="M267.31049,211.28418c0,0 0.82643,3.69903 -1.13954,5.14082c-1.93607,1.41986 -4.05608,0.9291 -4.84464,0.95168c-3.38867,0.097 -7.23076,-3.15272 -9.84596,-3.07786c-3.01784,0.08639 -7.58661,3.08725 -10.91854,3.18263c-0.79763,0.02283 -3.38579,-0.9008 -4.29066,-2.22017c-0.96852,-1.41218 -0.22805,-3.22727 -0.22805,-3.22727" fill="none" stroke="#000000" stroke-width="2.5" stroke-linecap="round"/></g></g></svg>