<svg version="1.1" xmlns="http://www.w3.org/2000/svg" xmlns:xlink="http://www.w3.org/1999/xlink" width="76.23491" height="77.91958" viewBox="0,0,76.23491,77.91958"><defs><linearGradient x1="203.13864" y1="180.45126" x2="276.86137" y2="179.54875" gradientUnits="userSpaceOnUse" id="color-1"><stop offset="0" stop-color="#b1aab3"/><stop offset="1" stop-color="#ffffff"/></linearGradient></defs><g transform="translate(-201.88255,-141.04021)"><g stroke="#000000" stroke-width="2.5" stroke-miterlimit="10"><path d="M245.04899,217.38154c-20.167,2.72388 -38.77607,-11.80426 -41.56455,-32.44952c-2.78849,-20.64525 11.29959,-39.58969 31.46656,-42.31356c20.167,-2.72388 38.77607,11.80426 41.56455,32.44952c2.78849,20.64525 -11.29958,39.58967 -31.46657,42.31355z" fill="url(#color-1)" stroke-linecap="butt"/><path d="M248.80197,188.72621l-24.33151,0.29787" fill="none" stroke-linecap="round"/><path d="M225.14433,171.45892l22.55795,0.0572" fill="none" stroke-linecap="round"/><path d="M257.31185,165.52975c0,0 0.94501,21.58378 0.97474,26.9173c0.01425,2.55506 -2.19527,5.69588 -2.19527,5.69588" fill="none" stroke-linecap="round"/><path d="M224.65313,193.66844c0,0 -2.00059,-2.76903 -1.8863,-4.30027c0.11755,-1.57497 2.58207,-5.02204 2.58207,-5.02204" fill="none" stroke-linecap="round"/><path d="M225.71637,176.10882c0,0 -2.00059,-2.76903 -1.8863,-4.30027c0.11755,-1.57497 2.58207,-5.02204 2.58207,-5.02204" fill="none" stroke-linecap="round"/></g></g></svg>