<svg version="1.1" xmlns="http://www.w3.org/2000/svg" xmlns:xlink="http://www.w3.org/1999/xlink" width="92.45153" height="107.32893" viewBox="0,0,92.45153,107.32893"><defs><linearGradient x1="273.5375" y1="128.62814" x2="273.5375" y2="154.73566" gradientUnits="userSpaceOnUse" id="color-1"><stop offset="0" stop-color="#ffffff"/><stop offset="1" stop-color="#1a1a1a"/></linearGradient><linearGradient x1="206.4625" y1="127.82814" x2="206.4625" y2="153.93566" gradientUnits="userSpaceOnUse" id="color-2"><stop offset="0" stop-color="#ffffff"/><stop offset="1" stop-color="#1a1a1a"/></linearGradient><linearGradient x1="240.2941" y1="129.08274" x2="240.2941" y2="202.81101" gradientUnits="userSpaceOnUse" id="color-3"><stop offset="0" stop-color="#2e2d2f"/><stop offset="1" stop-color="#dbdbdb"/></linearGradient><linearGradient x1="241.1441" y1="210.92187" x2="241.1441" y2="232.17187" gradientUnits="userSpaceOnUse" id="color-4"><stop offset="0" stop-color="#1d122f"/><stop offset="1" stop-color="#62e3ff"/></linearGradient><linearGradient x1="241.1441" y1="210.92187" x2="241.1441" y2="232.17187" gradientUnits="userSpaceOnUse" id="color-5"><stop offset="0" stop-color="#000000"/><stop offset="1" stop-color="#e60000"/></linearGradient></defs><g transform="translate(-194.08757,-125.59294)"><g stroke-miterlimit="10"><path d="M261.78589,145.89927l22.89428,-17.27113c0,0 1.5153,8.89828 -0.23483,12.56792c-0.5748,1.20523 -0.78708,2.95607 -2.06316,4.47168c-3.75388,4.45847 -10.15328,9.06793 -10.15328,9.06793" fill="url(#color-1)" stroke="#000000" stroke-width="2.5" stroke-linecap="round"/><path d="M207.7711,153.93566c0,0 -6.02162,-3.61154 -9.70293,-7.7658c-1.65484,-1.86745 -1.81088,-4.30053 -2.51351,-5.7738c-1.75013,-3.66963 -0.23483,-12.56791 -0.23483,-12.56791l22.89428,17.27113" fill="url(#color-2)" stroke="#000000" stroke-width="2.5" stroke-linecap="round"/><path d="M202.85356,170.5379c-2.47681,-20.19883 12.27804,-38.62867 32.95588,-41.16422c20.67784,-2.53556 39.4484,11.78336 41.92521,31.98217c2.47681,20.19883 -12.27804,38.62867 -32.95588,41.16422c-20.67784,2.53556 -39.44839,-11.78335 -41.9252,-31.98217z" fill="url(#color-3)" stroke="#000000" stroke-width="2.5" stroke-linecap="butt"/><path d="M250.05139,153.20729v20.61169" fill-opacity="0.21961" fill="#0046ff" stroke="#000000" stroke-width="2.5" stroke-linecap="round"/><path d="M231.60679,154.32491l0.27777,18.7963" fill-opacity="0.21961" fill="#0046ff" stroke="#000000" stroke-width="2.5" stroke-linecap="round"/><path d="M227.61148,186.46868c0,0 17.62574,-1.76508 22.90455,-2.29372c2.78912,-0.27932 6.6153,1.74946 6.6153,1.74946" fill-opacity="0.21961" fill="#0046ff" stroke="#000000" stroke-width="2.5" stroke-linecap="round"/><path d="M245.6941,215.67187v-12.25" fill="none" stroke="#000000" stroke-width="1.5" stroke-linecap="round"/><path d="M235.9441,203.17187v11.5" fill="none" stroke="#000000" stroke-width="1.5" stroke-linecap="round"/><path d="M230.1441,232.17187v-21.25h22v21.25z" fill="url(#color-4)" stroke="url(#color-5)" stroke-width="1.5" stroke-linecap="butt"/><path d="M239.3691,220.30937c0,-0.9665 0.7835,-1.75 1.75,-1.75c0.9665,0 1.75,0.7835 1.75,1.75c0,0.9665 -0.7835,1.75 -1.75,1.75c-0.9665,0 -1.75,-0.7835 -1.75,-1.75z" fill="#000000" stroke="none" stroke-width="0.5" stroke-linecap="butt"/><path d="M241.3691,225.43437l-0.125,-3.625" fill="none" stroke="#000000" stroke-width="1.5" stroke-linecap="round"/><path d="M235.44372,156.59784l-7.28571,-7.57142l-1.85715,-2" fill="none" stroke="#000000" stroke-width="2.5" stroke-linecap="round"/><path d="M246.63542,155.48878l6.28572,-4.42857l3.14286,-2.14286" fill="none" stroke="#000000" stroke-width="2.5" stroke-linecap="round"/></g></g></svg>