<svg version="1.1" xmlns="http://www.w3.org/2000/svg" xmlns:xlink="http://www.w3.org/1999/xlink" width="87.34829" height="82.30031" viewBox="0,0,87.34829,82.30031"><defs><linearGradient x1="240" y1="143.13588" x2="240" y2="216.86414" gradientUnits="userSpaceOnUse" id="color-1"><stop offset="0" stop-color="#b1aab3"/><stop offset="1" stop-color="#ffffff"/></linearGradient></defs><g transform="translate(-196.37587,-135.81383)"><g data-paper-data="{&quot;isPaintingLayer&quot;:true}" fill-rule="nonzero" stroke="#000000" stroke-linejoin="miter" stroke-miterlimit="10" stroke-dasharray="" stroke-dashoffset="0" style="mix-blend-mode: normal"><path d="M202.55946,184.59103c-2.47681,-20.19883 12.27804,-38.62867 32.95588,-41.16422c20.67784,-2.53556 39.4484,11.78336 41.92521,31.98217c2.47681,20.19883 -12.27804,38.62867 -32.95588,41.16422c-20.67784,2.53556 -39.44839,-11.78335 -41.9252,-31.98217z" data-paper-data="{&quot;index&quot;:null}" fill="url(#color-1)" stroke-width="2.5" stroke-linecap="butt"/><path d="M282.07015,182.03677c0,0 -23.63787,-19.03575 -29.88018,-21.75864c-2.71984,-1.1864 -6.68138,-4.54765 -6.68138,-4.54765c0,0 -3.3305,7.08036 -5.50847,9.63232c-3.82544,4.48231 -22.6402,20.22275 -22.6402,20.22275c0,0 0.563,-8.11727 -1.01219,-13.5848c-0.94723,-3.28781 -3.7114,-4.6577 -4.89888,-5.42892c-1.21939,-0.79195 -11.90963,8.27489 -13.57298,6.33178c-0.59503,-0.6951 1.57674,-5.685 3.54066,-9.31144c1.54936,-2.86092 2.94052,-4.59947 2.94052,-4.59947c0,0 1.03673,-1.98697 3.34938,-4.75806c2.69897,-3.23397 6.91005,-7.42319 9.7846,-9.04342c2.12545,-1.19801 6.51848,-3.93736 10.57187,-5.35597c5.54254,-1.93976 10.68521,-2.42362 10.68521,-2.42362c0,0 11.46824,-0.70691 16.6844,1.68036c3.13121,1.43308 11.02785,4.32452 15.1833,7.55342c2.30313,1.78959 5.92705,2.19462 8.03242,7.30229c2.53502,6.14991 3.57593,27.40038 3.57593,27.40038" fill="#9e7509" stroke-width="3" stroke-linecap="round"/><path d="M237.10599,168.83411l0.23386,18.94275" fill="none" stroke-width="3" stroke-linecap="round"/><path d="M254.64557,169.30183l-0.46772,18.47503" fill="none" stroke-width="3" stroke-linecap="round"/><path d="M233.83193,163.22144l8.419,7.01584" fill="none" stroke-width="3" stroke-linecap="round"/><path d="M262.36299,162.05213l-10.75761,7.95128" fill="none" stroke-width="3" stroke-linecap="round"/><path d="M253.71013,202.04239c0,0 -19.13204,-0.16352 -23.61625,-0.20185c-1.78581,-0.01526 -4.44709,-3.30607 -4.44709,-3.30607" fill="none" stroke-width="3" stroke-linecap="round"/></g></g></svg>