<svg version="1.1" xmlns="http://www.w3.org/2000/svg" xmlns:xlink="http://www.w3.org/1999/xlink" width="100.9773" height="77.93816" viewBox="0,0,100.9773,77.93816"><g transform="translate(-190.13635,-141.03092)"><g stroke-miterlimit="10"><path d="M289.86167,179.63108c0.20857,20.83167 -16.11854,37.88425 -36.46762,38.088c-20.34907,0.20374 -37.01436,-16.5185 -37.22294,-37.35017c-0.20857,-20.83168 16.11854,-37.88425 36.46762,-38.08799c20.34907,-0.20375 37.01437,16.51849 37.22294,37.35017z" fill="#ababab" stroke="#000000" stroke-width="2.5" stroke-linecap="butt"/><path d="M243.59248,154.6785c3.35459,0.01883 8.74046,-1.05432 11.15974,2.4496c3.27597,4.7447 3.04036,15.23536 2.99435,23.4319c-0.03947,7.03065 -0.2438,17.38843 -2.79746,22.02789c-2.62207,4.76376 -7.64556,3.71553 -11.64627,3.69307c-7.89708,-0.04433 -7.70023,-11.99368 -7.62024,-26.24331c0.07999,-14.24963 0.01283,-25.40349 7.9099,-25.35916z" fill="none" stroke="#000000" stroke-width="2.5" stroke-linecap="butt"/><path d="M246.28439,182.71226c4.13286,0.0232 7.46442,3.39235 7.44122,7.52523c-0.0232,4.13286 -3.39235,7.46441 -7.52523,7.44121c-4.13286,-0.0232 -7.46441,-3.39235 -7.44121,-7.52522c0.0232,-4.13286 3.39235,-7.46442 7.52522,-7.44122z" fill="none" stroke="#000000" stroke-width="2.5" stroke-linecap="butt"/><path d="M246.74401,192.14604c-1.35875,-0.00763 -2.45405,-1.11529 -2.44642,-2.47404c0.00763,-1.35875 1.11529,-2.45405 2.47404,-2.44642c1.35875,0.00763 2.45405,1.11529 2.44642,2.47404c-0.00763,1.35875 -1.11529,2.45405 -2.47404,2.44642z" fill="#07050c" stroke="none" stroke-width="0.5" stroke-linecap="butt"/><path d="M241.19834,193.92072l4.49675,-8.77511l1.11809,-2.11157" fill="none" stroke="#000000" stroke-width="2.5" stroke-linecap="round"/><path d="M246.53448,161.91334c4.18809,0.02351 7.56416,3.43768 7.54065,7.62579c-0.02351,4.18809 -3.43768,7.56415 -7.62579,7.54064c-4.18809,-0.02351 -7.56415,-3.43768 -7.54064,-7.62578c0.02351,-4.18809 3.43768,-7.56416 7.62578,-7.54065z" fill="none" stroke="#000000" stroke-width="2.5" stroke-linecap="butt"/><path d="M246.99557,172.30422c-1.37691,-0.00773 -2.48685,-1.1302 -2.47912,-2.50711c0.00773,-1.37691 1.1302,-2.48685 2.50711,-2.47912c1.37691,0.00773 2.48685,1.1302 2.47912,2.50711c-0.00773,1.37691 -1.1302,2.48685 -2.50711,2.47912z" fill="#07050c" stroke="none" stroke-width="0.5" stroke-linecap="butt"/><path d="M241.229,165.3686l5.46424,10.98659" fill="none" stroke="#000000" stroke-width="2.5" stroke-linecap="round"/><path d="M269.79926,160.19391c1.15333,0.00647 2.72878,0.57004 3.63832,2.40785c1.74723,3.53045 2.38974,10.42564 2.34876,17.72606c-0.03227,5.74946 0.19028,13.73656 -1.0047,17.39349c-1.11221,3.40368 -3.58402,2.68106 -5.20803,2.67195c-1.76345,-0.0099 -3.754,0.31316 -4.84555,-3.63533c-0.99374,-3.59466 -1.17122,-11.20857 -1.14153,-16.4986c0.03868,-6.89088 -0.87141,-13.57716 0.75297,-17.18938c0.99238,-2.20683 4.18214,-2.88323 5.45976,-2.87606z" fill="none" stroke="#000000" stroke-width="2.5" stroke-linecap="butt"/><path d="M264.65362,191.2155l9.10154,-0.24891" fill="none" stroke="#000000" stroke-width="2.5" stroke-linecap="round"/><path d="M264.50751,181.61453l10.00265,-0.44386" fill="none" stroke="#000000" stroke-width="2.5" stroke-linecap="round"/><path d="M264.16084,172.11244l9.50266,-0.44667" fill="none" stroke="#000000" stroke-width="2.5" stroke-linecap="round"/><path d="M269.28712,161.50771l0.44681,39.1698" fill="none" stroke="#000000" stroke-width="2.5" stroke-linecap="round"/><path d="M215.68599,179.37378l-15.99975,-0.08981" fill="none" stroke="#000000" stroke-width="2.5" stroke-linecap="round"/><path d="M195.35688,184.50242c-2.89944,-0.01628 -5.23672,-2.37994 -5.22045,-5.27939c0.01628,-2.89944 2.37994,-5.23672 5.27939,-5.22045c2.89944,0.01628 5.23672,2.37994 5.22045,5.27939c-0.01628,2.89944 -2.37994,5.23672 -5.27939,5.22045z" fill="#000000" stroke="none" stroke-width="0.5" stroke-linecap="butt"/></g></g></svg>