<svg version="1.1" xmlns="http://www.w3.org/2000/svg" xmlns:xlink="http://www.w3.org/1999/xlink" width="77.93297" height="71.19048" viewBox="0,0,77.93297,71.19048"><defs><linearGradient x1="202.27915" y1="182.50002" x2="277.72083" y2="182.50002" gradientUnits="userSpaceOnUse" id="color-1"><stop offset="0" stop-color="#fcf2ff"/><stop offset="1" stop-color="#ffffff"/></linearGradient></defs><g transform="translate(-201.03354,-146.90695)"><g data-paper-data="{&quot;isPaintingLayer&quot;:true}" fill-rule="nonzero" stroke="#000000" stroke-width="2.5" stroke-linejoin="miter" stroke-miterlimit="10" stroke-dasharray="" stroke-dashoffset="0" style="mix-blend-mode: normal"><path d="M240.56837,216.84306c-20.83024,0.29953 -37.97094,-14.83357 -38.28483,-33.80072c-0.31389,-18.96715 16.3179,-34.58589 37.14814,-34.8854c20.83024,-0.29953 37.97094,14.83357 38.28483,33.80072c0.31389,18.96715 -16.3179,34.58589 -37.14814,34.8854z" fill="url(#color-1)" stroke-linecap="butt"/><path d="M231.16651,167.92201v22.68239" fill="none" stroke-linecap="round"/><path d="M248.38882,189.77578l0.33333,-21.02522" fill="none" stroke-linecap="round"/><path d="M254.25705,198.80099c0,0 -21.59373,0.63456 -26.92722,0.6014c-2.55504,-0.01588 -5.66858,-2.11118 -5.66858,-2.11118" fill="none" stroke-linecap="round"/><path d="M226.52029,168.0393c0,0 2.79331,-1.83312 4.32304,-1.70912c1.57341,0.12754 4.99006,2.46401 4.99006,2.46401" fill="none" stroke-linecap="round"/><path d="M244.06559,169.2307c0,0 2.79331,-1.83312 4.32304,-1.70912c1.57341,0.12754 4.99006,2.46401 4.99006,2.46401" fill="none" stroke-linecap="round"/></g></g></svg>