<svg version="1.1" xmlns="http://www.w3.org/2000/svg" xmlns:xlink="http://www.w3.org/1999/xlink" width="77.65245" height="76.22826" viewBox="0,0,77.65245,76.22826"><defs><linearGradient x1="240" y1="143.13588" x2="240" y2="216.86414" gradientUnits="userSpaceOnUse" id="color-1"><stop offset="0" stop-color="#b1aab3"/><stop offset="1" stop-color="#ffffff"/></linearGradient></defs><g transform="translate(-201.0381,-141.88587)"><g data-paper-data="{&quot;isPaintingLayer&quot;:true}" fill-rule="nonzero" stroke="#000000" stroke-width="2.5" stroke-linejoin="miter" stroke-miterlimit="10" stroke-dasharray="" stroke-dashoffset="0" style="mix-blend-mode: normal"><path d="M202.55946,184.59103c-2.47681,-20.19883 12.27804,-38.62867 32.95588,-41.16422c20.67784,-2.53556 39.4484,11.78336 41.92521,31.98217c2.47681,20.19883 -12.27804,38.62867 -32.95588,41.16422c-20.67784,2.53556 -39.44839,-11.78335 -41.9252,-31.98217z" data-paper-data="{&quot;index&quot;:null}" fill="url(#color-1)" stroke-linecap="butt"/><path d="M231.16669,188.69446v-24.33333" fill="none" stroke-linecap="round"/><path d="M248.72226,165.25l-0.33333,22.55556" fill="none" stroke-linecap="round"/><path d="M221.27279,152.56706l16.60159,11.94505" fill="none" stroke-linecap="round"/><path d="M257.91776,152.16215l-14.77947,12.95734" fill="none" stroke-linecap="round"/><path d="M225.46651,205.61639c0,0 0.33754,-4.3108 4.75754,-7.3388c2.85429,-1.95538 5.45209,-2.56621 7.0113,-2.65207c1.97719,-0.10887 10.29949,0.82316 11.95965,2.0215c4.09424,2.95531 5.25235,7.60506 5.25235,7.60506c0,0 0.44329,0.09698 -0.67713,0.1129c-3.94788,0.05609 -28.26837,0.29834 -28.26837,0.29834" fill="none" stroke-linecap="round"/></g></g></svg>