<svg viewBox="0,0,89.33305,76.25214" height="76.25214" width="89.33305" xmlns:xlink="http://www.w3.org/1999/xlink" xmlns="http://www.w3.org/2000/svg" version="1.1"><defs><linearGradient id="color-1" gradientUnits="userSpaceOnUse" y2="216.84834" x2="239.90936" y1="143.15347" x1="239.90936"><stop stop-color="#c8b55a" offset="0"></stop><stop stop-color="#367943" offset="1"></stop></linearGradient></defs><g transform="translate(-195.66754,-141.90816)"><g style="mix-blend-mode: normal" stroke-dashoffset="0" stroke-dasharray="" stroke-miterlimit="10" stroke-linejoin="miter" stroke-width="2.5" fill-rule="nonzero" data-paper-data="{&quot;isPaintingLayer&quot;:true}"><path stroke-linecap="butt" stroke="#000000" fill="url(#color-1)" d="M240.47771,216.84366c-9.13316,0.14089 -33.68018,0.51867 -40.2874,-4.65719c-8.46203,-6.62885 2.17884,-20.17763 2.00257,-31.60374c-0.31389,-20.34768 16.3179,-37.10324 37.14814,-37.42456c20.83024,-0.32133 37.97094,15.91323 38.28483,36.26093c0.15748,10.20854 10.61309,24.92298 3.8496,31.70144c-6.71751,6.73237 -30.61814,5.56302 -40.99774,5.72313z"></path><path stroke-linecap="butt" stroke="#000000" fill="#000000" d="M227.54784,176.83117c0,5.14622 -4.02921,9.31805 -8.99948,9.31805c-4.97027,0 -8.99948,-4.17183 -8.99948,-9.31805c0,-5.14622 4.02921,-9.31805 8.99948,-9.31805c4.97027,0 8.99948,4.17183 8.99948,9.31805z"></path><path stroke-linecap="butt" stroke="#000000" fill="#000000" d="M269.1829,175.93772c0,5.14622 -4.02921,9.31805 -8.99948,9.31805c-4.97027,0 -8.99948,-4.17183 -8.99948,-9.31805c0,-5.14622 4.02921,-9.31804 8.99948,-9.31804c4.97028,0 8.99948,4.17183 8.99948,9.31804z"></path><path stroke-linecap="round" stroke="#000000" fill="none" d="M236.78624,178.82222h6.68988"></path><path stroke-linecap="round" stroke="#000000" fill="none" d="M219.58369,174.3623v7.00844"></path><path stroke-linecap="round" stroke="#ffffff" fill="none" d="M217.6723,172.29162l0.31857,7.80486"></path><path stroke-linecap="round" stroke="#ffffff" fill="none" d="M260.3601,173.24732l0.47785,5.41562"></path></g></g></svg>