<svg version="1.1" xmlns="http://www.w3.org/2000/svg" xmlns:xlink="http://www.w3.org/1999/xlink" width="774" height="79" viewBox="0,0,774,79"><defs><linearGradient x1="224.60001" y1="254.14609" x2="224.60001" y2="333.14609" gradientUnits="userSpaceOnUse" id="color-1"><stop offset="0" stop-color="#afc7dc"/><stop offset="1" stop-color="#665eeb"/></linearGradient><linearGradient x1="242.22501" y1="263.39608" x2="242.22501" y2="310.39609" gradientUnits="userSpaceOnUse" id="color-2"><stop offset="0" stop-color="#b1b1b1"/><stop offset="1" stop-color="#707070"/></linearGradient><linearGradient x1="242.22501" y1="263.39608" x2="242.22501" y2="310.39609" gradientUnits="userSpaceOnUse" id="color-3"><stop offset="0" stop-color="#d60000"/><stop offset="1" stop-color="#ae0fd6"/></linearGradient><linearGradient x1="112.82673" y1="281.39609" x2="112.82673" y2="317.14609" gradientUnits="userSpaceOnUse" id="color-4"><stop offset="0" stop-color="#b1b1b1"/><stop offset="1" stop-color="#707070"/></linearGradient><linearGradient x1="112.82673" y1="281.39609" x2="112.82673" y2="317.14609" gradientUnits="userSpaceOnUse" id="color-5"><stop offset="0" stop-color="#d60000"/><stop offset="1" stop-color="#ae0fd6"/></linearGradient></defs><g transform="translate(162.39999,-254.14608)"><g data-paper-data="{&quot;isPaintingLayer&quot;:true}" fill-rule="nonzero" stroke-linecap="butt" stroke-linejoin="miter" stroke-miterlimit="10" stroke-dasharray="" stroke-dashoffset="0" style="mix-blend-mode: normal"><path d="M-162.39999,333.14609v-79h774v79z" fill="url(#color-1)" stroke="none" stroke-width="0"/><path d="M307.60001,286.89609c0,12.97869 -29.26938,23.5 -65.375,23.5c-36.10562,0 -65.375,-10.52131 -65.375,-23.5c0,-12.97869 29.26938,-23.5 65.375,-23.5c36.10562,0 65.375,10.52131 65.375,23.5z" fill="url(#color-2)" stroke="url(#color-3)" stroke-width="2.5"/><path d="M150.05346,299.27109c0,9.87209 -16.66697,17.875 -37.22673,17.875c-20.55975,0 -37.22673,-8.00291 -37.22673,-17.875c0,-9.87209 16.66697,-17.875 37.22673,-17.875c20.55975,0 37.22673,8.00291 37.22673,17.875z" fill="url(#color-4)" stroke="url(#color-5)" stroke-width="2.5"/></g></g></svg>