<svg version="1.1" xmlns="http://www.w3.org/2000/svg" xmlns:xlink="http://www.w3.org/1999/xlink" width="111.61644" height="148.5" viewBox="0,0,111.61644,148.5"><defs><linearGradient x1="240" y1="108" x2="240" y2="252" gradientUnits="userSpaceOnUse" id="color-1"><stop offset="0" stop-color="#000000"/><stop offset="1" stop-color="#525252"/></linearGradient><linearGradient x1="209.81662" y1="157.51127" x2="213.89303" y2="183.78148" gradientTransform="translate(-296.47358,-360.66254) rotate(8.47221) scale(1.80675,1.73757) skewX(-0.68297)" gradientUnits="userSpaceOnUse" id="color-2"><stop offset="0" stop-color="#000000"/><stop offset="1" stop-color="#9b9b9b"/></linearGradient></defs><g transform="translate(-184.19178,-105.75001)"><g stroke-miterlimit="10"><path d="M186.44178,248.21348c0,-17.0667 0,-88.07171 0,-135.66785c0,-2.99995 2.05724,-4.54562 4.83944,-4.54562c10.70155,0 81.52994,0 98.58683,0c2.1263,0 3.69017,1.08098 3.69017,3.3737c0,12.19511 0,133.25963 0,133.25963c0,0 0,2.37004 0,3.58014c0,3.04179 -2.89821,3.78653 -5.71921,3.78653c-20.48312,0 -89.43036,0 -98.20864,0c-1.80888,0 -3.18859,-3.78653 -3.18859,-3.78653z" fill="#52ff79" stroke="url(#color-1)" stroke-width="4.5"/><text transform="translate(193.85952,180.1644) rotate(-8.82038) scale(0.55297,0.57605) skewX(0)" font-size="40" xml:space="preserve" fill="url(#color-2)" stroke="none" stroke-width="1" font-family="Pixel" font-weight="normal" text-anchor="start"><tspan x="0" dy="0">Not</tspan><tspan x="0" dy="48px">Avalible</tspan></text></g></g></svg>