<svg version="1.1" xmlns="http://www.w3.org/2000/svg" xmlns:xlink="http://www.w3.org/1999/xlink" width="69.00418" height="69.03468" viewBox="0,0,69.00418,69.03468"><g transform="translate(-205.49791,-145.46741)"><g stroke-miterlimit="10"><path d="M238.59927,147.24791c18.08849,-0.7736 33.37922,13.26289 34.15282,31.35136c0.7736,18.08849 -13.26289,33.37922 -31.35136,34.15282c-18.08849,0.7736 -33.37922,-13.26289 -34.15282,-31.35136c-0.7736,-18.08849 13.26289,-33.37922 31.35136,-34.15282z" fill="#ffe0e0" stroke="#000000" stroke-width="3.5" stroke-linecap="butt"/><path d="M242.34981,162.45899c3.18385,-0.13617 5.98407,4.87862 6.25446,11.20085c0.27039,6.32222 -2.09144,11.55778 -5.2753,11.69395c-3.18385,0.13617 -5.98407,-4.87862 -6.25446,-11.20085c-0.27039,-6.32222 2.09144,-11.55778 5.2753,-11.69395z" fill="#ff0000" stroke="none" stroke-width="0" stroke-linecap="butt"/><path d="M223.08711,163.76794c3.18386,-0.13617 5.98406,4.87863 6.25445,11.20085c0.27039,6.32222 -2.09144,11.55778 -5.27529,11.69395c-3.18386,0.13617 -5.98407,-4.87862 -6.25446,-11.20085c-0.27039,-6.32222 2.09144,-11.55778 5.2753,-11.69395z" fill="#ff0000" stroke="none" stroke-width="0" stroke-linecap="butt"/><path d="M258.01133,189.45241c0,0 -5.13864,4.86615 -7.5345,5.42229c-4.75484,1.10373 -21.23815,3.29788 -21.23815,3.29788" fill="none" stroke="#000000" stroke-width="3" stroke-linecap="round"/></g></g></svg>