<svg version="1.1" xmlns="http://www.w3.org/2000/svg" xmlns:xlink="http://www.w3.org/1999/xlink" width="77.65245" height="76.22826" viewBox="0,0,77.65245,76.22826"><defs><linearGradient x1="240" y1="143.13588" x2="240" y2="216.86414" gradientUnits="userSpaceOnUse" id="color-1"><stop offset="0" stop-color="#b1aab3"/><stop offset="1" stop-color="#ffffff"/></linearGradient></defs><g transform="translate(-201.0381,-141.88588)"><g data-paper-data="{&quot;isPaintingLayer&quot;:true}" fill-rule="nonzero" stroke="#000000" stroke-width="2.5" stroke-linejoin="miter" stroke-miterlimit="10" stroke-dasharray="" stroke-dashoffset="0" style="mix-blend-mode: normal"><path d="M202.55946,184.59103c-2.47681,-20.19883 12.27804,-38.62867 32.95588,-41.16422c20.67784,-2.53556 39.4484,11.78336 41.92521,31.98217c2.47681,20.19883 -12.27804,38.62867 -32.95588,41.16422c-20.67784,2.53556 -39.44839,-11.78335 -41.9252,-31.98217z" data-paper-data="{&quot;index&quot;:null}" fill="url(#color-1)" stroke-linecap="butt"/><path d="M230.84674,187.81802l-0.65517,-23.58651" fill="none" stroke-linecap="round"/><path d="M250.18235,187.42764l-0.08166,-24.17799" fill="none" stroke-linecap="round"/><path d="M251.20788,202.59017c0,4.88161 -4.27573,8.83893 -9.55011,8.83893c-5.27438,0 -9.55011,-3.95733 -9.55011,-8.83893c0,-4.88161 4.27573,-8.83893 9.55011,-8.83893c5.27438,0 9.55011,3.95733 9.55011,8.83893z" fill="none" stroke-linecap="butt"/></g></g></svg>