<svg version="1.1" xmlns="http://www.w3.org/2000/svg" xmlns:xlink="http://www.w3.org/1999/xlink" width="82.71813" height="97.1193" viewBox="0,0,82.71813,97.1193"><defs><linearGradient x1="240" y1="143.13588" x2="240" y2="216.86414" gradientUnits="userSpaceOnUse" id="color-1"><stop offset="0" stop-color="#b1aab3"/><stop offset="1" stop-color="#ffffff"/></linearGradient></defs><g transform="translate(-197.19499,-120.99483)"><g data-paper-data="{&quot;isPaintingLayer&quot;:true}" fill-rule="nonzero" stroke="#000000" stroke-linejoin="miter" stroke-miterlimit="10" stroke-dasharray="" stroke-dashoffset="0" style="mix-blend-mode: normal"><path d="M202.55946,184.59103c-2.47681,-20.19883 12.27804,-38.62867 32.95588,-41.16422c20.67784,-2.53556 39.4484,11.78336 41.92521,31.98217c2.47681,20.19883 -12.27804,38.62867 -32.95588,41.16422c-20.67784,2.53556 -39.44839,-11.78335 -41.9252,-31.98217z" data-paper-data="{&quot;index&quot;:null}" fill="url(#color-1)" stroke-width="2.5" stroke-linecap="butt"/><path d="M277.87444,207.7666c0.18802,1.88645 -8.03021,-11.1638 -20.14923,-10.23325c-5.13742,0.39449 -4.92614,-1.63369 -11.14043,-1.57059c-4.78738,0.0486 -12.86558,1.98154 -18.83466,-0.2465c-7.08057,-2.6429 -16.88097,10.27825 -21.22479,9.55426c-4.51064,-0.75179 1.88474,-12.73319 1.77964,-13.78773c-0.26772,-2.68615 14.42721,-4.60494 35.30088,-4.81688c7.84096,-0.07962 16.79278,0.57637 22.41944,2.10662c4.94314,1.34436 10.98676,4.73973 12.72382,9.17772c1.54937,3.95849 -0.95348,9.02568 -0.87467,9.81636z" fill="#2c7543" stroke-width="2.5" stroke-linecap="butt"/><path d="M217.87841,139.39595c0,0 -0.56114,-6.40094 0.22516,-9.15787c0.87643,-3.07299 4.79245,-8.43493 4.79245,-8.43493c0,0 10.02303,1.4849 14.93031,1.56368c5.24741,0.0842 16.59728,-1.09058 16.59728,-1.09058c0,0 3.0987,5.74636 4.20185,8.25909c1.18894,2.70811 2.69366,7.44741 2.69366,7.44741c0,0 6.80545,-1.59978 9.94038,-1.71324c2.63627,-0.09541 7.6338,1.07724 7.6338,1.07724c0,0 -0.19895,4.38679 -2.44673,7.74264c-1.31912,1.96939 -3.7861,3.14986 -6.15306,4.03755c-9.46873,3.55115 -25.17588,3.61059 -32.9829,3.57643c-5.88224,-0.02573 -17.47208,-0.4202 -25.19723,-2.01865c-3.45355,-0.71459 -7.12948,-1.46069 -9.58756,-3.42236c-4.31569,-3.44413 -4.54899,-7.52747 -4.54899,-7.52747c0,0 3.55237,-1.14669 5.93666,-1.23386c3.14817,-0.1151 14.13916,0.93685 14.13916,0.93685" fill="#854124" stroke-width="1.5" stroke-linecap="round"/><path d="M244.85385,144.76229c-1.58801,1.01047 -6.3855,-3.99103 -6.3855,-3.99103c0,0 -5.42278,4.29815 -6.86146,3.07736c-1.4399,-1.22071 1.76684,-7.39812 1.76684,-7.39812c0,0 -5.70319,-3.90554 -5.00368,-5.671c0.6995,-1.76679 7.47917,-0.58078 7.47917,-0.58078c0,0 1.89652,-6.71066 3.76767,-6.58285c1.87371,0.12901 2.85769,7.03966 2.85769,7.03966c0,0 6.87559,-0.24355 7.33156,1.60314c0.4597,1.84536 -5.71311,4.93144 -5.71311,4.93144c0,0 2.35266,6.56169 0.76082,7.57221z" fill="#ffff00" stroke-width="1.28786" stroke-linecap="butt"/><path d="M241.64947,139.97254c-0.79963,0.50789 -3.21121,-2.00668 -3.21121,-2.00668c0,0 -2.7244,2.16013 -3.44695,1.5466c-0.7225,-0.61351 0.88754,-3.71636 0.88754,-3.71636c0,0 -2.86435,-1.9641 -2.51403,-2.85c0.35161,-0.88727 3.75717,-0.29133 3.75717,-0.29133c0,0 0.95366,-3.37268 1.89492,-3.30695c0.94,0.06443 1.43291,3.53638 1.43291,3.53638c0,0 3.45669,-0.12151 3.68595,0.80567c0.23186,0.9284 -2.86891,2.47805 -2.86891,2.47805c0,0 1.17973,3.29678 0.3826,3.80462z" fill="#ffffff" stroke-width="0.5" stroke-linecap="butt"/><path d="M229.88101,182.54984l-0.28706,-20.66858" fill="none" stroke-width="3" stroke-linecap="round"/><path d="M247.53541,182.11924l0.4306,-20.23798" fill="none" stroke-width="3" stroke-linecap="round"/><path d="M250.40605,159.58475l-5.45421,2.87063" fill="none" stroke-width="3" stroke-linecap="round"/><path d="M226.86685,206.23257c0,0 16.71746,-0.24951 21.9726,-0.32794c2.94003,-0.04388 6.59022,2.05033 6.59022,2.05033" fill="none" stroke-width="3" stroke-linecap="round"/><path d="M232.07272,162.45538l-5.45421,-2.87063" data-paper-data="{&quot;index&quot;:null}" fill="none" stroke-width="3" stroke-linecap="round"/></g></g></svg>