<svg version="1.1" xmlns="http://www.w3.org/2000/svg" xmlns:xlink="http://www.w3.org/1999/xlink" width="76.23359" height="77.92043" viewBox="0,0,76.23359,77.92043"><defs><linearGradient x1="203.13768" y1="180.3644" x2="276.86233" y2="179.63561" gradientUnits="userSpaceOnUse" id="color-1"><stop offset="0" stop-color="#b1aab3"/><stop offset="1" stop-color="#ffffff"/></linearGradient></defs><g transform="translate(-201.88321,-141.03978)"><g stroke="#000000" stroke-width="2.5" stroke-miterlimit="10"><path d="M244.96089,217.39333c-20.17336,2.67635 -38.74815,-11.89561 -41.48797,-32.54737c-2.73983,-20.65177 11.39285,-39.56295 31.56619,-42.2393c20.17336,-2.67635 38.74815,11.89561 41.48797,32.54737c2.73983,20.65177 -11.39284,39.56294 -31.56619,42.23929z" fill="url(#color-1)" stroke-linecap="butt"/><path d="M248.78135,188.74694l-24.33214,0.24053" fill="none" stroke-linecap="round"/><path d="M225.1645,171.42397l22.55775,0.11036" fill="none" stroke-linecap="round"/><path d="M212.75351,198.99747l11.78036,-16.71885" fill="none" stroke-linecap="round"/><path d="M211.98639,162.35829l13.1028,14.65067" fill="none" stroke-linecap="round"/><path d="M265.75879,194.27957c0,0 -4.31393,-0.29491 -7.38547,-4.68477c-1.9835,-2.83482 -2.61998,-5.42646 -2.72125,-6.98474c-0.12841,-1.97602 0.72131,-10.30712 1.90318,-11.97905c2.9147,-4.12325 7.55277,-5.32727 7.55277,-5.32727c0,0 0.09259,-0.44423 0.11959,0.67598c0.09511,3.94713 0.57775,28.26404 0.57775,28.26404" fill="none" stroke-linecap="round"/></g></g></svg>