<svg version="1.1" xmlns="http://www.w3.org/2000/svg" xmlns:xlink="http://www.w3.org/1999/xlink" width="90.93146" height="59.19125" viewBox="0,0,90.93146,59.19125"><defs><linearGradient x1="195.27915" y1="188.50001" x2="283.72083" y2="188.50001" gradientUnits="userSpaceOnUse" id="color-1"><stop offset="0" stop-color="#fcf2ff"/><stop offset="1" stop-color="#ffffff"/></linearGradient></defs><g transform="translate(-194.0343,-158.90618)"><g data-paper-data="{&quot;isPaintingLayer&quot;:true}" fill-rule="nonzero" stroke="#000000" stroke-width="2.5" stroke-linejoin="miter" stroke-miterlimit="10" stroke-dasharray="" stroke-dashoffset="0" style="mix-blend-mode: normal"><path d="M240.16631,216.84382c-24.41967,0.24721 -44.51403,-12.24236 -44.88201,-27.89622c-0.36798,-15.65386 19.12978,-28.54423 43.54945,-28.79142c24.41967,-0.24721 44.51403,12.24236 44.88201,27.89622c0.36798,15.65386 -19.12978,28.54423 -43.54945,28.79142z" fill="url(#color-1)" stroke-linecap="butt"/><path d="M229.14434,176.46857v18.7201" fill="none" stroke-linecap="round"/><path d="M249.33436,194.5048l0.39077,-17.35242" fill="none" stroke-linecap="round"/><path d="M256.2138,201.95344c0,0 -25.31473,0.52371 -31.56728,0.49634c-2.99532,-0.01311 -6.64538,-1.74239 -6.64538,-1.74239" fill="none" stroke-linecap="round"/><path d="M223.69749,176.56537c0,0 3.27465,-1.5129 5.06798,-1.41056c1.84454,0.10526 5.84994,2.03358 5.84994,2.03358" fill="none" stroke-linecap="round"/><path d="M244.26617,177.54865c0,0 3.27465,-1.5129 5.06798,-1.41056c1.84454,0.10526 5.84994,2.03358 5.84994,2.03358" fill="none" stroke-linecap="round"/></g></g></svg>