<svg version="1.1" xmlns="http://www.w3.org/2000/svg" xmlns:xlink="http://www.w3.org/1999/xlink" width="83.56555" height="76.22826" viewBox="0,0,83.56555,76.22826"><defs><linearGradient x1="240" y1="143.13588" x2="240" y2="216.86414" gradientUnits="userSpaceOnUse" id="color-1"><stop offset="0" stop-color="#b1aab3"/><stop offset="1" stop-color="#ffffff"/></linearGradient></defs><g transform="translate(-195.125,-141.88587)"><g data-paper-data="{&quot;isPaintingLayer&quot;:true}" fill-rule="nonzero" stroke-linejoin="miter" stroke-miterlimit="10" stroke-dasharray="" stroke-dashoffset="0" style="mix-blend-mode: normal"><path d="M202.55946,184.59103c-2.47681,-20.19883 12.27804,-38.62867 32.95588,-41.16422c20.67784,-2.53556 39.4484,11.78336 41.92521,31.98217c2.47681,20.19883 -12.27804,38.62867 -32.95588,41.16422c-20.67784,2.53556 -39.44839,-11.78335 -41.9252,-31.98217z" data-paper-data="{&quot;index&quot;:null}" fill="url(#color-1)" stroke="#000000" stroke-width="2.5" stroke-linecap="butt"/><path d="M197.125,184.50007l-2,-0.25" fill="none" stroke="none" stroke-width="0" stroke-linecap="round"/><path d="M229.56137,187.14287l-0.57413,-23.39568" fill="none" stroke="#000000" stroke-width="2.5" stroke-linecap="round"/><path d="M248.34347,186.28167l-0.14353,-23.9698" fill="none" stroke="#000000" stroke-width="2.5" stroke-linecap="round"/><path d="M255.24168,198.22634c0,0 -2.39182,3.19814 -4.01697,3.23739c-4.59812,0.11107 -26.41176,0.63797 -26.41176,0.63797" fill="none" stroke="#000000" stroke-width="2.5" stroke-linecap="round"/><path d="M223.96363,163.02952c0,0 2.75109,-1.18646 4.30712,-1.20808c1.84069,-0.02557 6.02717,1.06454 6.02717,1.06454" fill="none" stroke="#000000" stroke-width="2.5" stroke-linecap="round"/><path d="M242.74573,162.16833c0,0 3.01847,-1.29179 4.73655,-1.29179c2.05038,0 6.74599,1.29179 6.74599,1.29179" fill="none" stroke="#000000" stroke-width="2.5" stroke-linecap="round"/></g></g></svg>