<svg version="1.1" xmlns="http://www.w3.org/2000/svg" xmlns:xlink="http://www.w3.org/1999/xlink" width="96.99743" height="82.49234" viewBox="0,0,96.99743,82.49234"><defs><linearGradient x1="213.87055" y1="178.47116" x2="287.59655" y2="179.04948" gradientUnits="userSpaceOnUse" id="color-1"><stop offset="0" stop-color="#b1aab3"/><stop offset="1" stop-color="#ffffff"/></linearGradient></defs><g transform="translate(-191.59337,-138.75161)"><g stroke="#000000" stroke-miterlimit="10"><path d="M255.03075,216.23572c-20.21764,2.31829 -38.53117,-12.58067 -40.90445,-33.27776c-2.37328,-20.69709 12.09243,-39.35476 32.31005,-41.67305c20.21764,-2.31829 38.53117,12.58067 40.90445,33.27776c2.37328,20.69709 -12.09242,39.35475 -32.31005,41.67304z" fill="url(#color-1)" stroke-width="2.5" stroke-linecap="butt"/><path d="M278.79637,141.10485c1.88787,-0.17322 -11.22645,7.94239 -10.39099,20.06834c0.35418,5.14036 -1.67228,4.91317 -1.65793,11.12777c0.01105,4.78761 1.88056,12.88073 -0.39423,18.83215c-2.69836,7.05962 10.14552,16.96107 9.38748,21.29908c-0.78715,4.5046 -12.71801,-1.98456 -13.77335,-1.88774c-2.68817,0.24664 -4.49163,-14.46289 -4.53983,-35.33758c-0.01811,-7.84134 0.70808,-16.78774 2.28241,-22.40223c1.38309,-4.93244 4.82576,-10.94924 9.27724,-12.65144c3.97052,-1.51827 9.01792,1.02425 9.8092,0.95164z" fill="#2c7543" stroke-width="2.5" stroke-linecap="butt"/><path d="M209.95722,200.56273c0,0 -6.40514,0.51091 -9.15582,-0.29699c-3.06602,-0.90051 -8.39708,-4.85847 -8.39708,-4.85847c0,0 1.56348,-10.01107 1.68075,-14.91759c0.12536,-5.24659 -0.96036,-16.60532 -0.96036,-16.60532c0,0 5.77049,-3.05353 8.2918,-4.13694c2.71735,-1.16766 7.46831,-2.63516 7.46831,-2.63516c0,0 -1.54635,-6.81779 -1.63521,-9.95351c-0.07473,-2.63694 1.13709,-7.62512 1.13709,-7.62512c0,0 4.38509,0.23335 7.72321,2.50739c1.95898,1.33453 3.12006,3.81069 3.98916,6.18454c3.47677,9.49629 3.413,25.20343 3.3176,33.00994c-0.07187,5.88186 -0.55724,17.46825 -2.21624,25.18062c-0.74166,3.44784 -1.51657,7.1178 -3.49746,9.56042c-3.47788,4.28854 -7.56292,4.4898 -7.56292,4.4898c0,0 -1.11879,-3.56126 -1.18725,-5.94616c-0.0904,-3.14898 1.04773,-14.13138 1.04773,-14.13138" fill="#854124" stroke-width="1.5" stroke-linecap="round"/><path d="M215.53499,173.63021c0.99798,1.59589 -4.041,6.354 -4.041,6.354c0,0 4.25548,5.45633 3.02344,6.88539c-1.23197,1.43028 -7.38403,-1.82482 -7.38403,-1.82482c0,0 -3.95016,5.67238 -5.71007,4.95904c-1.76125,-0.71334 -0.5221,-7.4835 -0.5221,-7.4835c0,0 -6.69558,-1.9491 -6.55309,-3.81919c0.1437,-1.87264 7.06186,-2.80238 7.06186,-2.80238c0,0 -0.18961,-6.87729 1.6606,-7.31876c1.84891,-0.44521 4.88647,5.75162 4.88647,5.75162c0,0 6.57994,-2.30112 7.57794,-0.7014z" fill="#ffff00" stroke-width="1.28786" stroke-linecap="butt"/><path d="M210.72025,176.79692c0.5016,0.80359 -2.03181,3.19537 -2.03181,3.19537c0,0 2.13869,2.74126 1.51951,3.45898c-0.61916,0.71767 -3.70928,-0.91666 -3.70928,-0.91666c0,0 -1.98651,2.84886 -2.86963,2.4916c-0.88448,-0.35856 -0.26185,-3.75934 -0.26185,-3.75934c0,0 -3.3651,-0.98009 -3.29198,-1.9208c0.0718,-0.93947 3.54751,-1.40513 3.54751,-1.40513c0,0 -0.09439,-3.45754 0.83456,-3.67952c0.93019,-0.22457 2.45547,2.88826 2.45547,2.88826c0,0 3.30593,-1.15383 3.8075,-0.35274z" fill="#ffffff" stroke-width="0.5" stroke-linecap="butt"/><path d="M234.40873,189.02393l20.6702,-0.12493" fill="none" stroke-width="3" stroke-linecap="round"/><path d="M234.55284,170.65243l20.23398,0.58933" fill="none" stroke-width="3" stroke-linecap="round"/><path d="M235.1033,173.67101l-2.82776,-5.47656" fill="none" stroke-width="3" stroke-linecap="round"/><path d="M276.86229,192.09883c0,0 -0.11837,-16.7189 -0.15558,-21.9745c-0.02082,-2.94028 2.10196,-6.57393 2.10196,-6.57393" fill="none" stroke-width="3" stroke-linecap="round"/><path d="M232.08895,191.98126l2.91332,-5.43152" fill="none" stroke-width="3" stroke-linecap="round"/></g></g></svg>