<svg version="1.1" xmlns="http://www.w3.org/2000/svg" xmlns:xlink="http://www.w3.org/1999/xlink" width="988" height="856" viewBox="0,0,988,856"><defs><linearGradient x1="338.40001" y1="-162.70001" x2="338.40001" y2="693.3" gradientUnits="userSpaceOnUse" id="color-1"><stop offset="0" stop-color="#130c1f"/><stop offset="1" stop-color="#2d6972"/></linearGradient></defs><g transform="translate(155.6,162.70001)"><g stroke-miterlimit="10"><path d="M-155.6,693.3v-856h988v856z" fill="url(#color-1)" stroke="none" stroke-width="NaN"/><path d="M37.65762,309.00117l-5.99567,-64.40719l103.72693,-9.65595l5.99567,64.40718z" fill="#007979" stroke="#000000" stroke-width="2.5"/><path d="M41.55887,302.67847c0,-1.21358 0.9838,-2.19738 2.19738,-2.19738c1.21358,0 2.19738,0.9838 2.19738,2.19738c0,1.21358 -0.9838,2.19738 -2.19738,2.19738c-1.21358,0 -2.19738,-0.9838 -2.19738,-2.19738z" fill="#130c1f" stroke="none" stroke-width="0.5"/><path d="M36.63674,250.4688c0,-1.21358 0.9838,-2.19738 2.19738,-2.19738c1.21358,0 2.19738,0.9838 2.19738,2.19738c0,1.21358 -0.9838,2.19738 -2.19738,2.19738c-1.21358,0 -2.19738,-0.9838 -2.19738,-2.19738z" fill="#130c1f" stroke="none" stroke-width="0.5"/><path d="M126.28971,241.32771c0,-1.21358 0.9838,-2.19738 2.19738,-2.19738c1.21358,0 2.19738,0.9838 2.19738,2.19738c0,1.21358 -0.9838,2.19738 -2.19738,2.19738c-1.21358,0 -2.19738,-0.9838 -2.19738,-2.19738z" fill="#130c1f" stroke="none" stroke-width="0.5"/><path d="M131.21183,294.06475c0,-1.21358 0.9838,-2.19738 2.19738,-2.19738c1.21358,0 2.19738,0.9838 2.19738,2.19738c0,1.21358 -0.9838,2.19738 -2.19738,2.19738c-1.21358,0 -2.19738,-0.9838 -2.19738,-2.19738z" fill="#130c1f" stroke="none" stroke-width="0.5"/><text transform="translate(44.16821,274.27313) rotate(-7.64988) scale(0.27444,0.27444)" font-size="40" xml:space="preserve" fill="#130c1f" stroke="none" stroke-width="1" font-family="Sans Serif" font-weight="normal" text-anchor="start"><tspan x="0" dy="0">WARNING!</tspan><tspan x="0" dy="46.15px">Dont' click him...</tspan></text></g></g></svg>