<svg version="1.1" xmlns="http://www.w3.org/2000/svg" xmlns:xlink="http://www.w3.org/1999/xlink" width="77.65245" height="76.22826" viewBox="0,0,77.65245,76.22826"><defs><linearGradient x1="240" y1="143.13588" x2="240" y2="216.86414" gradientUnits="userSpaceOnUse" id="color-1"><stop offset="0" stop-color="#b1aab3"/><stop offset="1" stop-color="#ffffff"/></linearGradient></defs><g transform="translate(-201.0381,-141.88587)"><g stroke="#000000" stroke-width="2.5" stroke-miterlimit="10"><path d="M202.55946,184.59103c-2.47681,-20.19883 12.27804,-38.62867 32.95588,-41.16422c20.67784,-2.53556 39.4484,11.78336 41.92521,31.98217c2.47681,20.19883 -12.27804,38.62867 -32.95588,41.16422c-20.67784,2.53556 -39.44839,-11.78335 -41.9252,-31.98217z" fill="url(#color-1)" stroke-linecap="butt"/><path d="M231.1667,188.69451v-24.33333" fill="none" stroke-linecap="round"/><path d="M248.72229,165.25l-0.33333,22.55556" fill="none" stroke-linecap="round"/><path d="M254.25726,197.4877c0,0 -21.59373,0.68073 -26.92722,0.64517c-2.55504,-0.01703 -5.66858,-2.26483 -5.66858,-2.26483" fill="none" stroke-linecap="round"/><path d="M226.52045,164.48698c0,0 2.79331,-1.96654 4.32304,-1.83352c1.57341,0.13682 4.99006,2.64335 4.99006,2.64335" fill="none" stroke-linecap="round"/><path d="M244.06574,165.76509c0,0 2.79331,-1.96654 4.32304,-1.83352c1.57341,0.13682 4.99006,2.64335 4.99006,2.64335" fill="none" stroke-linecap="round"/></g></g></svg>