<svg version="1.1" xmlns="http://www.w3.org/2000/svg" xmlns:xlink="http://www.w3.org/1999/xlink" width="77.65245" height="76.22826" viewBox="0,0,77.65245,76.22826"><defs><linearGradient x1="240" y1="143.13588" x2="240" y2="216.86414" gradientUnits="userSpaceOnUse" id="color-1"><stop offset="0" stop-color="#b1aab3"/><stop offset="1" stop-color="#ffffff"/></linearGradient></defs><g transform="translate(-201.0381,-141.88588)"><g data-paper-data="{&quot;isPaintingLayer&quot;:true}" fill-rule="nonzero" stroke="#000000" stroke-linejoin="miter" stroke-miterlimit="10" stroke-dasharray="" stroke-dashoffset="0" style="mix-blend-mode: normal"><path d="M202.55946,184.59103c-2.47681,-20.19883 12.27804,-38.62867 32.95588,-41.16422c20.67784,-2.53556 39.4484,11.78336 41.92521,31.98217c2.47681,20.19883 -12.27804,38.62867 -32.95588,41.16422c-20.67784,2.53556 -39.44839,-11.78335 -41.9252,-31.98217z" data-paper-data="{&quot;index&quot;:null}" fill="url(#color-1)" stroke-width="2.5" stroke-linecap="butt"/><path d="M225.97095,198.81721c0,0 19.91587,-0.67622 25.4586,-0.86442c2.68791,-0.09127 5.78389,1.82865 5.78389,1.82865" fill="none" stroke-width="2.5" stroke-linecap="round"/><path d="M238.50566,168.10526c0,9.10266 -5.48656,16.48183 -12.25458,16.48183c-6.76801,0 -12.25458,-7.37917 -12.25458,-16.48183c0,-4.81977 -2.40076,2.9568 0.05143,-0.057c2.17903,-2.67808 20.39798,-0.73731 23.5824,-0.73731c3.11404,0 -1.33761,-1.81361 0.82425,0.75985c2.5367,3.01968 0.05107,-4.87998 0.05107,0.03445z" fill="#000000" stroke-width="2.5" stroke-linecap="butt"/><path d="M264.04238,167.96802c0,9.10267 -4.75712,16.77361 -11.52514,16.77361c-6.76801,0 -12.25458,-7.37916 -12.25458,-16.48183c0,-4.81977 -2.40076,2.9568 0.05143,-0.05699c2.17903,-2.67808 20.39798,-0.73731 23.5824,-0.73731c3.11404,0 -1.33761,-1.81361 0.82425,0.75985c2.5367,3.01968 -0.67836,-5.17176 -0.67836,-0.25733z" fill="#000000" stroke-width="2.5" stroke-linecap="butt"/><path d="M211.71007,167.26604l55.2223,0.21716" fill="none" stroke-width="6" stroke-linecap="round"/></g></g></svg>