<svg version="1.1" xmlns="http://www.w3.org/2000/svg" xmlns:xlink="http://www.w3.org/1999/xlink" width="76.22841" height="77.65106" viewBox="0,0,76.22841,77.65106"><defs><linearGradient x1="203.13588" y1="180.01073" x2="276.86413" y2="179.98928" gradientUnits="userSpaceOnUse" id="color-1"><stop offset="0" stop-color="#b1aab3"/><stop offset="1" stop-color="#ffffff"/></linearGradient></defs><g transform="translate(-201.88579,-141.31079)"><g stroke="#000000" stroke-width="2.5" stroke-miterlimit="10"><path d="M244.60192,217.43921c-20.19811,2.48269 -38.63224,-12.2668 -41.17381,-32.9439c-2.54158,-20.6771 11.77188,-39.45183 31.96997,-41.93451c20.19811,-2.48269 38.63224,12.2668 41.17381,32.9439c2.54158,20.6771 -11.77187,39.45182 -31.96997,41.9345z" fill="url(#color-1)" stroke-linecap="butt"/><path d="M247.82068,189.15099l-23.58632,0.66203" fill="none" stroke-linecap="round"/><path d="M247.42467,169.81549l-24.17797,0.08869" fill="none" stroke-linecap="round"/><path d="M262.5869,168.78555c4.88161,-0.00142 8.84017,4.27316 8.84171,9.54754c0.00153,5.27438 -3.95455,9.55126 -8.83615,9.55268c-4.88161,0.00142 -8.84017,-4.27316 -8.84171,-9.54754c-0.00153,-5.27438 3.95455,-9.55126 8.83615,-9.55268z" fill="none" stroke-linecap="butt"/></g></g></svg>