<svg version="1.1" xmlns="http://www.w3.org/2000/svg" xmlns:xlink="http://www.w3.org/1999/xlink" width="361.97478" height="337.13138" viewBox="0,0,361.97478,337.13138"><g transform="translate(-54.65866,-3.48835)"><g stroke="none" stroke-miterlimit="10"><text transform="translate(74.68665,71.41438) scale(1.34507,1.34507)" font-size="40" xml:space="preserve" fill="#ffffff" font-family="Pixel" font-weight="normal" text-anchor="start"><tspan x="0" dy="0">Hey there!</tspan></text><text transform="translate(55.55599,104.4481) scale(0.35893,0.35893)" font-size="40" xml:space="preserve" fill="#00ffff" font-family="Scratch" font-weight="normal" text-anchor="start"><tspan x="0" dy="0">Your score! (Share in comments!) ==&gt;</tspan></text><text transform="translate(67.8767,178.75529) scale(0.50229,0.50229)" font-size="40" xml:space="preserve" fill="#ffffff" font-family="Pixel" font-weight="normal" text-anchor="start"><tspan x="0" dy="0">Thanks for playing Tactigun! 2.</tspan><tspan x="0" dy="46.150000000000006px">Feedback is appreciated in your</tspan><tspan x="0" dy="46.150000000000006px">platform's respective comment</tspan><tspan x="0" dy="46.150000000000006px">section. In coming updates there</tspan><tspan x="0" dy="46.150000000000006px">will be a continue screen added!</tspan></text><text transform="translate(67.62506,316.10476) scale(0.43274,0.43274)" font-size="40" xml:space="preserve" fill="#ffffff" font-family="Pixel" font-weight="normal" text-anchor="start"><tspan x="0" dy="0">If you want to play again, refresh the</tspan><tspan x="0" dy="46.150000000000006px">page or press      if you are on scratch!</tspan></text><path d="M214.59627,323.70679v9.23731c0,0.18328 -0.07332,0.36656 -0.21994,0.43988c-1.173,1.02637 -2.63923,1.53955 -4.14213,1.53955c-1.5029,0 -2.96914,-0.54984 -4.14213,-1.53955c-0.95306,-0.80643 -2.12605,-1.28296 -3.37235,-1.28296c-1.13633,0 -2.23602,0.36656 -3.15242,1.09968v6.12155c0,0.36656 -0.29324,0.65981 -0.65981,0.65981c-0.36656,0 -0.65981,-0.29324 -0.65981,-0.65981v-15.61545c0,-0.29324 0.18328,-0.47653 0.36656,-0.5865c1.173,-0.95306 2.56591,-1.46624 4.03216,-1.46624c1.5029,0 3.00579,0.54985 4.17879,1.53956c0.95306,0.80643 2.12605,1.2463 3.37235,1.2463c1.2463,0 2.4193,-0.43988 3.37235,-1.2463c0.21994,-0.14662 0.47652,-0.18328 0.69646,-0.07332c0.21994,0.10997 0.32991,0.32991 0.32991,0.5865z" fill="#549a10"/><text transform="translate(160.16644,291.60761) scale(0.2569,0.2569)" font-size="40" xml:space="preserve" fill="#00ffff" font-family="Scratch" font-weight="normal" text-anchor="start"><tspan x="0" dy="0">PS: Check back for updates often!</tspan></text><text transform="translate(272.60721,103.58286) scale(0.35893,0.35893)" font-size="40" xml:space="preserve" fill="#00ffff" font-family="Scratch" font-weight="normal" text-anchor="start"><tspan x="0" dy="0">Normal:</tspan></text><text transform="translate(274.449,137.00675) scale(0.35893,0.35893)" font-size="40" xml:space="preserve" fill="#00ffff" font-family="Scratch" font-weight="normal" text-anchor="start"><tspan x="0" dy="0">Encore:</tspan></text></g></g></svg>