<svg version="1.1" xmlns="http://www.w3.org/2000/svg" xmlns:xlink="http://www.w3.org/1999/xlink" width="78.43734" height="92.81194" viewBox="0,0,78.43734,92.81194"><defs><linearGradient x1="239.94453" y1="143.17018" x2="239.94453" y2="216.86505" gradientUnits="userSpaceOnUse" id="color-1"><stop offset="0" stop-color="#ffe8e8"/><stop offset="1" stop-color="#00dede"/></linearGradient><linearGradient x1="262.73073" y1="129.9374" x2="262.73073" y2="161.95494" gradientUnits="userSpaceOnUse" id="color-2"><stop offset="0" stop-color="#ffffff"/><stop offset="1" stop-color="#00dede"/></linearGradient><linearGradient x1="217.04146" y1="129.23629" x2="217.04146" y2="162.18864" gradientUnits="userSpaceOnUse" id="color-3"><stop offset="0" stop-color="#ffffff"/><stop offset="1" stop-color="#00dede"/></linearGradient></defs><g transform="translate(-200.72804,-125.55311)"><g stroke="#000000" stroke-miterlimit="10"><path d="M202.22804,179.4358c0.31389,-20.3477 17.45459,-36.58226 38.28483,-36.26093c20.83024,0.32132 37.46203,17.07688 37.14814,37.42456c-0.31389,20.3477 -17.45459,36.58226 -38.28483,36.26093c-20.83024,-0.32132 -37.46203,-17.07688 -37.14814,-37.42456z" fill="url(#color-1)" stroke-width="3" stroke-linecap="butt"/><path d="M248.54431,159.23705c0,0 0.23371,12.11281 0.23371,16.03061c0,4.17673 -0.25,7.69422 -0.25,7.69422" fill="none" stroke-width="2.5" stroke-linecap="round"/><path d="M230.75506,159.19112c0,0 0.5718,12.64043 0.62594,16.30349c0.05685,3.84648 0.1748,8.07838 0.1748,8.07838" fill="none" stroke-width="2.5" stroke-linecap="round"/><path d="M254.90162,149.8023l13.08746,-19.8649l2.57075,32.01754" fill="url(#color-2)" stroke-width="2.5" stroke-linecap="round"/><path d="M207.92698,162.18864l7.01114,-32.95235l11.21782,21.73453" fill="url(#color-3)" stroke-width="2.5" stroke-linecap="round"/><path d="M257.82295,197.2115c0,3.48493 -7.79516,6.31002 -17.41099,6.31002c-9.61583,0 -17.411,-2.8251 -17.411,-6.31002c0,-3.48493 7.79517,-6.31003 17.411,-6.31003c9.61583,0 17.41099,2.8251 17.41099,6.31003z" fill="none" stroke-width="2.5" stroke-linecap="butt"/><path d="M255.25219,193.47223l5.84262,-2.10334" fill="none" stroke-width="2.5" stroke-linecap="round"/><path d="M263.43186,196.51039h-5.37521" fill="none" stroke-width="2.5" stroke-linecap="round"/><path d="M256.65443,200.48337l4.44039,2.80445" fill="none" stroke-width="2.5" stroke-linecap="round"/><path d="M218.56057,201.41819l6.54373,-0.70112" fill="none" stroke-width="2.5" stroke-linecap="round"/><path d="M217.85945,196.04297l3.97298,1.63594" fill="none" stroke-width="2.5" stroke-linecap="round"/><path d="M224.40317,194.40705l-5.84261,-2.33705" fill="none" stroke-width="2.5" stroke-linecap="round"/><path d="M241.69733,193.93963l-2.33704,1.86964l-1.63594,-2.10334z" fill="none" stroke-width="2.5" stroke-linecap="round"/><path d="M252.68144,208.66303c0,0 -13.68777,1.87697 -18.00274,1.96327c-2.82266,0.05646 -5.36773,-1.49586 -5.36773,-1.49586" fill="none" stroke-width="2.5" stroke-linecap="round"/></g></g></svg>