<svg version="1.1" xmlns="http://www.w3.org/2000/svg" xmlns:xlink="http://www.w3.org/1999/xlink" width="76.696" height="78.4286" viewBox="0,0,76.696,78.4286"><defs><linearGradient x1="203.15472" y1="179.60115" x2="276.84527" y2="180.39884" gradientUnits="userSpaceOnUse" id="color-1"><stop offset="0" stop-color="#b8a9a9"/><stop offset="1" stop-color="#ffebeb"/></linearGradient></defs><g transform="translate(-201.652,-140.77937)"><g stroke="#000000" stroke-miterlimit="10"><path d="M239.00996,217.70798c-20.34311,-0.53412 -36.39118,-17.84955 -35.8444,-38.67509c0.54677,-20.82554 17.48138,-37.27499 37.82447,-36.74087c20.34311,0.53412 36.39118,17.84955 35.8444,38.67509c-0.54677,20.82554 -17.48138,37.27499 -37.82447,36.74087z" fill="url(#color-1)" stroke-width="3" stroke-linecap="butt"/><path d="M224.45747,170.99774c0,0 6.9709,0.07546 10.88847,0.11787c4.17649,0.04521 7.69106,0.33327 7.69106,0.33327" fill="none" stroke-width="2.5" stroke-linecap="round"/><path d="M243.46436,188.4267c0,0 -4.23293,0.07214 -8.0798,0.08735c-3.66343,0.01449 -10.22829,0.04782 -10.22829,0.04782" fill="none" stroke-width="2.5" stroke-linecap="round"/><path d="M225.60445,192.81553c0,0 -2.3025,-3.20444 -2.28632,-4.69911c0.01492,-1.37802 2.37992,-3.94745 2.37992,-3.94745" fill="none" stroke-width="2.5" stroke-linecap="round"/><path d="M224.94755,175.65478c0,0 -2.30249,-3.20444 -2.28631,-4.69911c0.01492,-1.37803 2.37991,-3.94745 2.37991,-3.94745" fill="none" stroke-width="2.5" stroke-linecap="round"/><path d="M252.3099,166.46075c0,0 1.35767,17.53198 1.27445,22.21471c-0.03999,2.25015 -1.74784,4.42406 -1.74784,4.42406" fill="none" stroke-width="2.5" stroke-linecap="round"/></g></g></svg>