<svg version="1.1" xmlns="http://www.w3.org/2000/svg" xmlns:xlink="http://www.w3.org/1999/xlink" width="77.93297" height="72.19043" viewBox="0,0,77.93297,72.19043"><defs><linearGradient x1="202.27915" y1="182.00001" x2="277.72083" y2="182.00001" gradientUnits="userSpaceOnUse" id="color-1"><stop offset="0" stop-color="#fcf2ff"/><stop offset="1" stop-color="#ffffff"/></linearGradient></defs><g transform="translate(-201.03354,-145.907)"><g data-paper-data="{&quot;isPaintingLayer&quot;:true}" fill-rule="nonzero" stroke="#000000" stroke-width="2.5" stroke-linejoin="miter" stroke-miterlimit="10" stroke-dasharray="" stroke-dashoffset="0" style="mix-blend-mode: normal"><path d="M240.56837,216.84299c-20.83024,0.30389 -37.97094,-15.0495 -38.28483,-34.29276c-0.31389,-19.24326 16.3179,-35.08935 37.14814,-35.39323c20.83024,-0.30389 37.97094,15.0495 38.28483,34.29276c0.31389,19.24326 -16.3179,35.08935 -37.14814,35.39323z" fill="url(#color-1)" stroke-linecap="butt"/><path d="M231.16651,190.22237v-23.01257" fill="none" stroke-linecap="round"/><path d="M248.3888,189.38169l0.33333,-21.33129" fill="none" stroke-linecap="round"/><path d="M254.25705,198.53828c0,0 -21.59373,0.64379 -26.92722,0.61015c-2.55504,-0.01611 -5.66858,-2.14191 -5.66858,-2.14191" fill="none" stroke-linecap="round"/><path d="M226.52029,167.32879c0,0 2.79331,-1.85981 4.32304,-1.734c1.57341,0.12939 4.99006,2.49987 4.99006,2.49987" fill="none" stroke-linecap="round"/><path d="M244.06559,168.53753c0,0 2.79331,-1.85981 4.32304,-1.734c1.57341,0.12939 4.99006,2.49987 4.99006,2.49987" fill="none" stroke-linecap="round"/></g></g></svg>