<svg version="1.1" xmlns="http://www.w3.org/2000/svg" xmlns:xlink="http://www.w3.org/1999/xlink" width="76.23648" height="77.91856" viewBox="0,0,76.23648,77.91856"><defs><linearGradient x1="203.14002" y1="180.553" x2="276.85999" y2="179.44701" gradientUnits="userSpaceOnUse" id="color-1"><stop offset="0" stop-color="#b1aab3"/><stop offset="1" stop-color="#ffffff"/></linearGradient></defs><g transform="translate(-201.88176,-141.04072)"><g stroke="#000000" stroke-width="2.5" stroke-miterlimit="10"><path d="M245.15215,217.36746c-20.1594,2.77953 -38.8085,-11.6972 -41.65395,-32.33468c-2.84546,-20.63748 11.19028,-39.62072 31.34966,-42.40025c20.1594,-2.77953 38.8085,11.6972 41.65395,32.33468c2.84546,20.63748 -11.19027,39.62071 -31.34966,42.40024z" fill="url(#color-1)" stroke-linecap="butt"/><path d="M248.826,188.70189l-24.33059,0.36502" fill="none" stroke-linecap="round"/><path d="M247.67884,171.49492l-22.55802,0.00506" fill="none" stroke-linecap="round"/><path d="M255.8326,194.26225c0,0 -0.1226,-24.32139 -0.12574,-28.26966c-0.00089,-1.12053 0.10273,-0.67875 0.10273,-0.67875c0,0 4.6666,1.08823 7.68299,5.13768c1.22311,1.642 2.27988,9.94938 2.20068,11.92798c-0.06246,1.56032 -0.63425,4.16699 -2.5466,7.05029c-2.96136,4.46493 -7.26661,4.86709 -7.26661,4.86709" fill="none" stroke-linecap="round"/><path d="M224.52677,184.40936l-0.06273,9.31508" fill="none" stroke-linecap="round"/><path d="M225.09446,176.49082l0.06273,-9.31508" fill="none" stroke-linecap="round"/></g></g></svg>