<svg version="1.1" xmlns="http://www.w3.org/2000/svg" xmlns:xlink="http://www.w3.org/1999/xlink" width="76.16663" height="77.88126" viewBox="0,0,76.16663,77.88126"><defs><linearGradient x1="203.16379" y1="180.90952" x2="276.8362" y2="179.09049" gradientUnits="userSpaceOnUse" id="color-1"><stop offset="0" stop-color="#5175ca"/><stop offset="1" stop-color="#39418e"/></linearGradient><linearGradient x1="228.86386" y1="194.59253" x2="248.29199" y2="194.11283" gradientUnits="userSpaceOnUse" id="color-2"><stop offset="0" stop-color="#ff0000"/><stop offset="1" stop-color="#e786ff"/></linearGradient><linearGradient x1="227.86361" y1="168.21389" x2="247.29175" y2="167.7342" gradientUnits="userSpaceOnUse" id="color-3"><stop offset="0" stop-color="#ff0000"/><stop offset="1" stop-color="#e57bff"/></linearGradient></defs><g transform="translate(-201.93251,-141.05937)"><g stroke-miterlimit="10"><path d="M276.81749,178.52243c0.83539,20.81596 -14.97114,38.35216 -35.30489,39.1682c-20.33373,0.81604 -37.49471,-15.3971 -38.33009,-36.21306c-0.83539,-20.81596 14.97114,-38.35216 35.30489,-39.1682c20.33373,-0.81604 37.49471,15.3971 38.33009,36.21306z" fill="url(#color-1)" stroke="#000000" stroke-width="2.5" stroke-linecap="butt"/><path d="M238.33148,184.37125c5.36492,-0.13246 9.8244,4.22899 9.96051,9.74158c0.13611,5.51259 -4.10269,10.08881 -9.46761,10.22128c-5.36492,0.13246 -9.8244,-4.22899 -9.96051,-9.74158c-0.13611,-5.51259 4.10269,-10.08881 9.46761,-10.22128z" fill="url(#color-2)" stroke-opacity="0.88627" stroke="#4c0000" stroke-width="1.5" stroke-linecap="butt"/><path d="M237.33123,157.99263c5.36493,-0.13246 9.8244,4.22898 9.96051,9.74158c0.13611,5.51259 -4.10268,10.0888 -9.46761,10.22127c-5.36493,0.13246 -9.82441,-4.22898 -9.96052,-9.74158c-0.13611,-5.51259 4.10269,-10.08881 9.46762,-10.22128z" fill="url(#color-3)" stroke-opacity="0.88627" stroke="#4c0000" stroke-width="1.5" stroke-linecap="butt"/><path d="M223.06645,201.61997l9.8398,-15.44358" fill="none" stroke-opacity="0.88627" stroke="#4c0000" stroke-width="2.5" stroke-linecap="round"/><path d="M222.08223,161.78417l12.16975,16.85344" fill="none" stroke-opacity="0.88627" stroke="#4c0000" stroke-width="2.5" stroke-linecap="round"/><path d="M258.69314,197.03268c0,0 -1.72836,-20.84772 -1.69726,-26.9855c0.01625,-3.20692 1.87032,-7.16575 1.87032,-7.16575" fill="none" stroke-opacity="0.88627" stroke="#4c0000" stroke-width="2.5" stroke-linecap="round"/></g></g></svg>