<svg version="1.1" xmlns="http://www.w3.org/2000/svg" xmlns:xlink="http://www.w3.org/1999/xlink" width="136.45945" height="69.06406" viewBox="0,0,136.45945,69.06406"><defs><linearGradient x1="207.21797" y1="180.00001" x2="272.78202" y2="180.00001" gradientUnits="userSpaceOnUse" id="color-1"><stop offset="0" stop-color="#d6bcbc"/><stop offset="1" stop-color="#b69999"/></linearGradient><linearGradient x1="234.33269" y1="167.01589" x2="257.24841" y2="167.01589" gradientUnits="userSpaceOnUse" id="color-2"><stop offset="0" stop-color="#d60000"/><stop offset="1" stop-color="#d67284"/></linearGradient><linearGradient x1="235.37414" y1="188.22114" x2="258.28986" y2="188.22114" gradientUnits="userSpaceOnUse" id="color-3"><stop offset="0" stop-color="#d60000"/><stop offset="1" stop-color="#d67284"/></linearGradient><linearGradient x1="288.28099" y1="179.58743" x2="324.84483" y2="179.58743" gradientUnits="userSpaceOnUse" id="color-4"><stop offset="0" stop-color="#000000"/><stop offset="1" stop-color="#3c3c3c"/></linearGradient><linearGradient x1="207.21963" y1="180.33121" x2="272.78036" y2="179.66882" gradientUnits="userSpaceOnUse" id="color-5"><stop offset="0" stop-color="#423a3a"/><stop offset="1" stop-color="#413737"/></linearGradient><linearGradient x1="238.04291" y1="171.13875" x2="260.95726" y2="170.90724" gradientUnits="userSpaceOnUse" id="color-6"><stop offset="0" stop-color="#00d61c"/><stop offset="1" stop-color="#d60066"/></linearGradient><linearGradient x1="238.82814" y1="189.8515" x2="261.74248" y2="189.62" gradientUnits="userSpaceOnUse" id="color-7"><stop offset="0" stop-color="#4cd600"/><stop offset="1" stop-color="#d60049"/></linearGradient></defs><g transform="translate(-205.4679,-145.46797)"><g stroke-miterlimit="10"><path d="M207.21797,180.00001c0,-18.10502 14.67702,-32.78203 32.78203,-32.78203c18.10502,0 32.78203,14.67702 32.78203,32.78203c0,18.10502 -14.67702,32.78203 -32.78203,32.78203c-18.10502,0 -32.78203,-14.67702 -32.78203,-32.78203z" fill="url(#color-1)" stroke="#000000" stroke-width="3.5"/><path d="M234.33269,167.01589c0,-3.18676 5.12986,-5.77015 11.45786,-5.77015c6.328,0 11.45786,2.58338 11.45786,5.77015c0,3.18676 -5.12986,5.77015 -11.45786,5.77015c-6.328,0 -11.45786,-2.58338 -11.45786,-5.77015z" fill="url(#color-2)" stroke="#000000" stroke-width="1.5"/><path d="M235.37414,188.22114c0,-3.18677 5.12986,-5.77014 11.45786,-5.77014c6.328,0 11.45786,2.58338 11.45786,5.77014c0,3.18677 -5.12986,5.77015 -11.45786,5.77015c-6.328,0 -11.45786,-2.58338 -11.45786,-5.77015z" fill="url(#color-3)" stroke="#000000" stroke-width="1.5"/><path d="M288.28099,187.27974v-15.38462h36.56384v15.38462z" fill="url(#color-4)" stroke="#ffa369" stroke-width="3.5"/><path d="M325.12393,181.12589v-3.84615h15.05342v3.84615z" fill="#000000" stroke="#ffa369" stroke-width="3.5"/><path d="M313.66952,173.23087c-7.59682,0.73771 -14.56108,-3.45406 -15.5551,-9.36257c-0.99403,-5.9085 4.3586,-11.29633 11.95542,-12.03404c7.59682,-0.73771 14.56107,3.45405 15.55509,9.36256c0.75079,4.4627 -2.11905,8.62836 -6.84185,10.71768c-1.53007,0.67688 -3.25462,1.13584 -5.11356,1.31636z" fill="#d2b8b8" stroke="#000000" stroke-width="2.5"/><path d="M297.96821,208.87235c-5.76169,0.8117 -11.10609,-3.31183 -11.93704,-9.21017c-0.83095,-5.89833 3.16621,-11.33789 8.9279,-12.14959c5.76169,-0.8117 11.10608,3.31183 11.93703,9.21017c0.83095,5.89833 -3.1662,11.33789 -8.92789,12.14959z" fill="#d2b8b8" stroke="#000000" stroke-width="2.5"/><path d="M207.22167,180.4923c-0.27188,-18.10297 14.18308,-32.99874 32.28605,-33.27062c18.10297,-0.27188 32.99874,14.18309 33.27062,32.28606c0.27188,18.10298 -14.18309,32.99874 -32.28605,33.27061c-18.10297,0.27188 -32.99874,-14.18308 -33.27061,-32.28605z" fill="url(#color-5)" stroke="#ffa369" stroke-width="3.5"/><path d="M238.04352,171.19504c-0.04785,-3.1864 5.04263,-5.84653 11.36991,-5.94155c6.32728,-0.09503 11.49536,2.41102 11.54322,5.59743c0.04786,3.1864 -5.04263,5.84654 -11.36992,5.94157c-6.32728,0.09503 -11.49536,-2.41103 -11.54322,-5.59744z" fill="url(#color-6)" stroke="#000000" stroke-width="1.5"/><path d="M238.82874,189.90782c-0.04785,-3.18641 5.04263,-5.84653 11.36991,-5.94156c6.32728,-0.09503 11.49536,2.41103 11.54322,5.59743c0.04786,3.18641 -5.04263,5.84652 -11.36992,5.94155c-6.32728,0.09503 -11.49536,-2.41102 -11.54322,-5.59743z" fill="url(#color-7)" stroke="#000000" stroke-width="1.5"/><path d="M246.55065,183.40869c0.55225,-0.00558 1.00447,0.4376 1.01005,0.98985c0.00204,0.20172 -0.05579,0.3901 -0.15695,0.54824c-0.0531,0.2375 -0.19078,0.44342 -0.38006,0.58409c0.13388,1.30102 -1.73128,3.51989 -2.29267,4.43572c-0.47589,0.77636 -0.47777,3.26708 -1.20908,3.69483c-0.17096,0.29648 -0.48979,0.49744 -0.8568,0.50116c-0.31402,0.00317 -0.5957,-0.13875 -0.78132,-0.36332c-0.89351,-0.35925 -1.81355,-0.62069 -2.53162,-1.4847c-2.39391,-2.8804 1.31894,-6.95776 4.32881,-7.07686c0.4966,-0.01965 1.13928,-0.3963 1.74878,-0.5737c0.01092,-0.1738 0.0663,-0.33572 0.15502,-0.47441c0.09904,-0.44298 0.49234,-0.77609 0.96584,-0.78087z" fill="#000000" stroke="none" stroke-width="0.5"/><path d="M238.32287,171.86734c-0.36229,-1.38936 2.75678,-5.97304 4.14865,-5.19623c0.28379,0.15838 0.44545,0.4937 0.53465,0.78467c0.78295,2.55434 2.6581,4.74213 3.42282,7.1496c0.08629,0.27166 0.47181,1.55814 0.09556,1.77822c-0.17096,0.29648 -0.48979,0.49744 -0.8568,0.50115c-0.3269,0.00331 -0.61874,-0.15063 -0.80365,-0.39134c-2.05587,-0.9262 -5.96352,-2.41055 -6.54124,-4.62608z" fill="#000000" stroke="none" stroke-width="0.5"/></g></g></svg>