<svg version="1.1" xmlns="http://www.w3.org/2000/svg" xmlns:xlink="http://www.w3.org/1999/xlink" width="124.77299" height="114.2658" viewBox="0,0,124.77299,114.2658"><defs><linearGradient x1="239.99999" y1="143.13587" x2="239.99999" y2="216.86413" gradientUnits="userSpaceOnUse" id="color-1"><stop offset="0" stop-color="#34b349"/><stop offset="1" stop-color="#ff6d6d"/></linearGradient><linearGradient x1="240" y1="141.76904" x2="240" y2="218.23096" gradientTransform="translate(-135.15915,-120.17981) scale(0.60357,0.60357)" gradientUnits="userSpaceOnUse" id="color-2"><stop offset="0" stop-color="#000000" stop-opacity="0.21961"/><stop offset="1" stop-color="#000000"/></linearGradient></defs><g transform="translate(-179.88256,-132.01455)"><g data-paper-data="{&quot;isPaintingLayer&quot;:true}" fill-rule="nonzero" stroke-linejoin="miter" stroke-miterlimit="10" stroke-dasharray="" stroke-dashoffset="0" style="mix-blend-mode: normal"><path d="M202.55945,184.59102c-2.47681,-20.19883 12.27804,-38.62867 32.95588,-41.16422c20.67784,-2.53556 39.4484,11.78336 41.92521,31.98217c2.47681,20.19883 -12.27804,38.62867 -32.95588,41.16422c-20.67784,2.53556 -39.44839,-11.78335 -41.9252,-31.98217z" data-paper-data="{&quot;index&quot;:null}" fill="url(#color-1)" stroke="#000000" stroke-width="2.5" stroke-linecap="butt"/><path d="M190.9,220.725v-23.25h24.5v23.25z" fill="#ffffff" stroke="none" stroke-width="2.5" stroke-linecap="butt"/><path d="M196.65,208.475l10.75,-2.25l-11,10.5" fill="none" stroke="#000000" stroke-width="2" stroke-linecap="round"/><path d="M207.15,206.975l1.25,9.25" fill="none" stroke="#000000" stroke-width="2" stroke-linecap="round"/><text transform="translate(180.35573,242.31295) scale(0.36398,0.36398)" font-size="40" xml:space="preserve" fill="#000000" fill-rule="nonzero" stroke="none" stroke-width="1" stroke-linecap="butt" stroke-linejoin="miter" stroke-miterlimit="10" stroke-dasharray="" stroke-dashoffset="0" font-family="Pixel" font-weight="normal" text-anchor="start" style="mix-blend-mode: normal"><tspan x="0" dy="0">Quarter-Life 2</tspan></text><text transform="translate(223.93344,199.11548) scale(1.65681,1.65681)" font-size="40" xml:space="preserve" fill="url(#color-2)" fill-rule="nonzero" stroke="none" stroke-width="1" stroke-linecap="butt" stroke-linejoin="miter" stroke-miterlimit="10" stroke-dasharray="" stroke-dashoffset="0" font-family="Marker" font-weight="normal" text-anchor="start" style="mix-blend-mode: normal"><tspan x="0" dy="0">λ</tspan></text></g></g></svg>