<svg version="1.1" xmlns="http://www.w3.org/2000/svg" xmlns:xlink="http://www.w3.org/1999/xlink" width="220.5" height="43.83334" viewBox="0,0,220.5,43.83334"><defs><linearGradient x1="243.2" y1="224.63333" x2="243.2" y2="265.96666" gradientUnits="userSpaceOnUse" id="color-1"><stop offset="0" stop-color="#2c5623"/><stop offset="1" stop-color="#ffc668"/></linearGradient><linearGradient x1="243.51429" y1="236.53334" x2="243.51429" y2="257.39049" gradientUnits="userSpaceOnUse" id="color-2"><stop offset="0" stop-color="#9e7509"/><stop offset="1" stop-color="#099e65"/></linearGradient><linearGradient x1="239.74373" y1="234.51172" x2="243.44713" y2="255.03745" gradientUnits="userSpaceOnUse" id="color-3"><stop offset="0" stop-color="#9e9e9e"/><stop offset="1" stop-color="#099e65"/></linearGradient></defs><g transform="translate(-132.95,-223.38332)"><g stroke-miterlimit="10"><path d="M134.2,265.96666v-41.33334h218v41.33334z" fill="url(#color-1)" stroke="#000000" stroke-width="2.5" stroke-linecap="butt"/><path d="M208.22857,226.24763l-0.14286,10.57143" fill="none" stroke="#000000" stroke-width="3" stroke-linecap="round"/><path d="M199.94286,257.39049v-20.85714h87.14286v20.85714z" fill="url(#color-2)" stroke="#000000" stroke-width="3" stroke-linecap="butt"/><path d="M278.51429,225.10477v10.42857" fill="none" stroke="#000000" stroke-width="3" stroke-linecap="round"/><text transform="translate(216.08572,250.03528) scale(0.28315,0.28315)" font-size="40" xml:space="preserve" fill="#000000" stroke="none" stroke-width="1" stroke-linecap="butt" font-family="Marker" font-weight="normal" text-anchor="start"><tspan x="0" dy="0">The Locker</tspan></text><path d="M200.56805,262.774l-3.7034,-20.52572l85.75815,-15.4731l3.7034,20.52572z" fill="url(#color-3)" stroke="#000000" stroke-width="3" stroke-linecap="butt"/><text transform="translate(215.79938,253.2503) rotate(-10.22768) scale(0.32595,0.32595)" font-size="40" xml:space="preserve" fill="#000000" stroke="none" stroke-width="1" stroke-linecap="butt" font-family="Pixel" font-weight="normal" text-anchor="start"><tspan x="0" dy="0">out rn</tspan></text><path d="M203.39144,257.68583c-0.09806,-0.54351 0.26304,-1.06361 0.80655,-1.16167c0.54351,-0.09806 1.06361,0.26304 1.16167,0.80655c0.09806,0.54351 -0.26304,1.06361 -0.80655,1.16167c-0.54351,0.09806 -1.06361,-0.26304 -1.16167,-0.80655z" fill="#000000" stroke="none" stroke-width="0.5" stroke-linecap="butt"/><path d="M201.35178,246.38125c-0.09806,-0.54351 0.26304,-1.06361 0.80655,-1.16167c0.54351,-0.09806 1.06361,0.26304 1.16167,0.80655c0.09806,0.54351 -0.26304,1.06361 -0.80655,1.16167c-0.54351,0.09806 -1.06361,-0.26304 -1.16167,-0.80655z" fill="#000000" stroke="none" stroke-width="0.5" stroke-linecap="butt"/><path d="M277.17377,231.72818c-0.09806,-0.54351 0.26304,-1.06361 0.80655,-1.16167c0.54351,-0.09806 1.06361,0.26304 1.16167,0.80655c0.09806,0.54351 -0.26304,1.06361 -0.80655,1.16167c-0.54351,0.09806 -1.06361,-0.26304 -1.16167,-0.80655z" fill="#000000" stroke="none" stroke-width="0.5" stroke-linecap="butt"/><path d="M279.58409,243.29013c-0.09806,-0.54351 0.26304,-1.06361 0.80655,-1.16167c0.54351,-0.09806 1.06361,0.26304 1.16167,0.80655c0.09806,0.54351 -0.26304,1.06361 -0.80655,1.16167c-0.54351,0.09806 -1.06361,-0.26304 -1.16167,-0.80655z" fill="#000000" stroke="none" stroke-width="0.5" stroke-linecap="butt"/></g></g></svg>