<svg version="1.1" xmlns="http://www.w3.org/2000/svg" xmlns:xlink="http://www.w3.org/1999/xlink" width="461.94633" height="484.22654" viewBox="0,0,461.94633,484.22654"><defs><linearGradient x1="272.78731" y1="83.99198" x2="272.78731" y2="110.09949" gradientUnits="userSpaceOnUse" id="color-1"><stop offset="0" stop-color="#ffffff"/><stop offset="1" stop-color="#1a1a1a"/></linearGradient><linearGradient x1="205.71231" y1="83.19197" x2="205.71231" y2="109.29949" gradientUnits="userSpaceOnUse" id="color-2"><stop offset="0" stop-color="#ffffff"/><stop offset="1" stop-color="#1a1a1a"/></linearGradient><linearGradient x1="239.54391" y1="84.44658" x2="239.54391" y2="158.17484" gradientUnits="userSpaceOnUse" id="color-3"><stop offset="0" stop-color="#2e2d2f"/><stop offset="1" stop-color="#dbdbdb"/></linearGradient><linearGradient x1="240.39391" y1="166.2857" x2="240.39391" y2="187.5357" gradientUnits="userSpaceOnUse" id="color-4"><stop offset="0" stop-color="#1d122f"/><stop offset="1" stop-color="#62e3ff"/></linearGradient><linearGradient x1="240.39391" y1="166.2857" x2="240.39391" y2="187.5357" gradientUnits="userSpaceOnUse" id="color-5"><stop offset="0" stop-color="#000000"/><stop offset="1" stop-color="#e60000"/></linearGradient><linearGradient x1="108.02394" y1="102.4683" x2="108.02394" y2="128.57581" gradientUnits="userSpaceOnUse" id="color-6"><stop offset="0" stop-color="#ffffff"/><stop offset="1" stop-color="#1a1a1a"/></linearGradient><linearGradient x1="40.94894" y1="101.66829" x2="40.94894" y2="127.77581" gradientUnits="userSpaceOnUse" id="color-7"><stop offset="0" stop-color="#ffffff"/><stop offset="1" stop-color="#1a1a1a"/></linearGradient><linearGradient x1="74.78054" y1="102.9229" x2="74.78054" y2="176.65116" gradientUnits="userSpaceOnUse" id="color-8"><stop offset="0" stop-color="#2e2d2f"/><stop offset="1" stop-color="#dbdbdb"/></linearGradient><linearGradient x1="418.30115" y1="96.65708" x2="418.30115" y2="122.76459" gradientUnits="userSpaceOnUse" id="color-9"><stop offset="0" stop-color="#ffffff"/><stop offset="1" stop-color="#1a1a1a"/></linearGradient><linearGradient x1="351.22615" y1="95.85707" x2="351.22615" y2="121.96459" gradientUnits="userSpaceOnUse" id="color-10"><stop offset="0" stop-color="#ffffff"/><stop offset="1" stop-color="#1a1a1a"/></linearGradient><linearGradient x1="385.05775" y1="97.11168" x2="385.05775" y2="170.83994" gradientUnits="userSpaceOnUse" id="color-11"><stop offset="0" stop-color="#2e2d2f"/><stop offset="1" stop-color="#dbdbdb"/></linearGradient><linearGradient x1="385.90775" y1="178.9508" x2="385.90775" y2="200.2008" gradientUnits="userSpaceOnUse" id="color-12"><stop offset="0" stop-color="#1d122f"/><stop offset="1" stop-color="#62e3ff"/></linearGradient><linearGradient x1="385.90775" y1="178.9508" x2="385.90775" y2="200.2008" gradientUnits="userSpaceOnUse" id="color-13"><stop offset="0" stop-color="#000000"/><stop offset="1" stop-color="#e60000"/></linearGradient><linearGradient x1="138.00304" y1="124.67834" x2="138.00304" y2="151.14478" gradientUnits="userSpaceOnUse" id="color-14"><stop offset="0" stop-color="#2e2d2f"/><stop offset="1" stop-color="#dbdbdb"/></linearGradient><linearGradient x1="19.97228" y1="145.05718" x2="19.97228" y2="171.52363" gradientUnits="userSpaceOnUse" id="color-15"><stop offset="0" stop-color="#2e2d2f"/><stop offset="1" stop-color="#dbdbdb"/></linearGradient><linearGradient x1="135.4711" y1="250.10924" x2="135.4711" y2="276.21675" gradientUnits="userSpaceOnUse" id="color-16"><stop offset="0" stop-color="#ffffff"/><stop offset="1" stop-color="#1a1a1a"/></linearGradient><linearGradient x1="68.3961" y1="249.30923" x2="68.3961" y2="275.41675" gradientUnits="userSpaceOnUse" id="color-17"><stop offset="0" stop-color="#ffffff"/><stop offset="1" stop-color="#1a1a1a"/></linearGradient><linearGradient x1="102.2277" y1="250.56384" x2="102.2277" y2="324.2921" gradientUnits="userSpaceOnUse" id="color-18"><stop offset="0" stop-color="#2e2d2f"/><stop offset="1" stop-color="#dbdbdb"/></linearGradient><linearGradient x1="103.0777" y1="332.40296" x2="103.0777" y2="353.65296" gradientUnits="userSpaceOnUse" id="color-19"><stop offset="0" stop-color="#1d122f"/><stop offset="1" stop-color="#62e3ff"/></linearGradient><linearGradient x1="103.0777" y1="332.40296" x2="103.0777" y2="353.65296" gradientUnits="userSpaceOnUse" id="color-20"><stop offset="0" stop-color="#000000"/><stop offset="1" stop-color="#e60000"/></linearGradient><linearGradient x1="151.55973" y1="302.10732" x2="151.55973" y2="323.18499" gradientUnits="userSpaceOnUse" id="color-21"><stop offset="0" stop-color="#2e2d2f"/><stop offset="1" stop-color="#dbdbdb"/></linearGradient><linearGradient x1="51.86348" y1="304.32074" x2="51.86348" y2="325.39841" gradientUnits="userSpaceOnUse" id="color-22"><stop offset="0" stop-color="#2e2d2f"/><stop offset="1" stop-color="#dbdbdb"/></linearGradient><linearGradient x1="321.40666" y1="244.95919" x2="321.40666" y2="271.0667" gradientUnits="userSpaceOnUse" id="color-23"><stop offset="0" stop-color="#ffffff"/><stop offset="1" stop-color="#1a1a1a"/></linearGradient><linearGradient x1="254.33167" y1="244.15918" x2="254.33167" y2="270.2667" gradientUnits="userSpaceOnUse" id="color-24"><stop offset="0" stop-color="#ffffff"/><stop offset="1" stop-color="#1a1a1a"/></linearGradient><linearGradient x1="288.16327" y1="245.41379" x2="288.16327" y2="319.14205" gradientUnits="userSpaceOnUse" id="color-25"><stop offset="0" stop-color="#2e2d2f"/><stop offset="1" stop-color="#dbdbdb"/></linearGradient><linearGradient x1="289.01327" y1="327.25291" x2="289.01327" y2="348.50291" gradientUnits="userSpaceOnUse" id="color-26"><stop offset="0" stop-color="#1d122f"/><stop offset="1" stop-color="#62e3ff"/></linearGradient><linearGradient x1="289.01327" y1="327.25291" x2="289.01327" y2="348.50291" gradientUnits="userSpaceOnUse" id="color-27"><stop offset="0" stop-color="#000000"/><stop offset="1" stop-color="#e60000"/></linearGradient><linearGradient x1="359.25246" y1="274.80156" x2="359.25246" y2="307.25201" gradientUnits="userSpaceOnUse" id="color-28"><stop offset="0" stop-color="#2e2d2f"/><stop offset="1" stop-color="#dbdbdb"/></linearGradient><linearGradient x1="237.79905" y1="299.1707" x2="237.79905" y2="320.24836" gradientUnits="userSpaceOnUse" id="color-29"><stop offset="0" stop-color="#2e2d2f"/><stop offset="1" stop-color="#dbdbdb"/></linearGradient><linearGradient x1="49.60053" y1="-59.0556" x2="51.74634" y2="-49.18018" gradientUnits="userSpaceOnUse" id="color-30"><stop offset="0" stop-color="#ffffff"/><stop offset="1" stop-color="#1a1a1a"/></linearGradient><linearGradient x1="37.86034" y1="-58.01703" x2="35.37035" y2="-48.22273" gradientUnits="userSpaceOnUse" id="color-31"><stop offset="0" stop-color="#ffffff"/><stop offset="1" stop-color="#1a1a1a"/></linearGradient><linearGradient x1="128.81403" y1="-50.16609" x2="128.81403" y2="-40.06023" gradientUnits="userSpaceOnUse" id="color-32"><stop offset="0" stop-color="#ffffff"/><stop offset="1" stop-color="#1a1a1a"/></linearGradient><linearGradient x1="102.85024" y1="-50.47576" x2="102.85024" y2="-40.3699" gradientUnits="userSpaceOnUse" id="color-33"><stop offset="0" stop-color="#ffffff"/><stop offset="1" stop-color="#1a1a1a"/></linearGradient><linearGradient x1="128.15331" y1="-55.71318" x2="128.15331" y2="-45.60733" gradientUnits="userSpaceOnUse" id="color-34"><stop offset="0" stop-color="#ffffff"/><stop offset="1" stop-color="#1a1a1a"/></linearGradient><linearGradient x1="102.18951" y1="-56.02286" x2="102.18951" y2="-45.917" gradientUnits="userSpaceOnUse" id="color-35"><stop offset="0" stop-color="#ffffff"/><stop offset="1" stop-color="#1a1a1a"/></linearGradient><linearGradient x1="115.28525" y1="-55.6489" x2="115.28525" y2="-27.10972" gradientUnits="userSpaceOnUse" id="color-36"><stop offset="0" stop-color="#2e1919"/><stop offset="1" stop-color="#dbdbdb"/></linearGradient><linearGradient x1="139.7578" y1="-47.22767" x2="139.7578" y2="-36.98288" gradientUnits="userSpaceOnUse" id="color-37"><stop offset="0" stop-color="#2e1919"/><stop offset="1" stop-color="#dbdbdb"/></linearGradient><linearGradient x1="94.06974" y1="-39.22763" x2="94.06974" y2="-28.98283" gradientUnits="userSpaceOnUse" id="color-38"><stop offset="0" stop-color="#2e1919"/><stop offset="1" stop-color="#dbdbdb"/></linearGradient><linearGradient x1="57.46619" y1="-50.45136" x2="57.46619" y2="-40.34551" gradientUnits="userSpaceOnUse" id="color-39"><stop offset="0" stop-color="#ffffff"/><stop offset="1" stop-color="#1a1a1a"/></linearGradient><linearGradient x1="31.50239" y1="-50.76103" x2="31.50239" y2="-40.65518" gradientUnits="userSpaceOnUse" id="color-40"><stop offset="0" stop-color="#ffffff"/><stop offset="1" stop-color="#1a1a1a"/></linearGradient><linearGradient x1="56.80546" y1="-55.99846" x2="56.80546" y2="-45.89261" gradientUnits="userSpaceOnUse" id="color-41"><stop offset="0" stop-color="#ffffff"/><stop offset="1" stop-color="#1a1a1a"/></linearGradient><linearGradient x1="30.84167" y1="-56.30813" x2="30.84167" y2="-46.20228" gradientUnits="userSpaceOnUse" id="color-42"><stop offset="0" stop-color="#ffffff"/><stop offset="1" stop-color="#1a1a1a"/></linearGradient><linearGradient x1="43.93741" y1="-55.93417" x2="43.93741" y2="-27.39499" gradientUnits="userSpaceOnUse" id="color-43"><stop offset="0" stop-color="#870000"/><stop offset="1" stop-color="#dbdbdb"/></linearGradient><linearGradient x1="68.40995" y1="-47.51295" x2="68.40995" y2="-37.26816" gradientUnits="userSpaceOnUse" id="color-44"><stop offset="0" stop-color="#870000"/><stop offset="1" stop-color="#dbdbdb"/></linearGradient><linearGradient x1="22.7219" y1="-39.5129" x2="22.7219" y2="-29.26811" gradientUnits="userSpaceOnUse" id="color-45"><stop offset="0" stop-color="#870000"/><stop offset="1" stop-color="#dbdbdb"/></linearGradient><linearGradient x1="225.06725" y1="-54.8683" x2="225.06725" y2="-26.32913" gradientUnits="userSpaceOnUse" id="color-46"><stop offset="0" stop-color="#2e1919"/><stop offset="1" stop-color="#dbdbdb"/></linearGradient><linearGradient x1="249.5398" y1="-46.44708" x2="249.5398" y2="-36.20229" gradientUnits="userSpaceOnUse" id="color-47"><stop offset="0" stop-color="#2e1919"/><stop offset="1" stop-color="#dbdbdb"/></linearGradient><linearGradient x1="203.85174" y1="-38.44703" x2="203.85174" y2="-28.20224" gradientUnits="userSpaceOnUse" id="color-48"><stop offset="0" stop-color="#2e1919"/><stop offset="1" stop-color="#dbdbdb"/></linearGradient></defs><g transform="translate(-5.18473,62.34407)"><g stroke-miterlimit="10"><path d="M261.0357,101.2631l22.89428,-17.27113c0,0 1.5153,8.89828 -0.23483,12.56792c-0.5748,1.20523 -0.78708,2.95607 -2.06316,4.47168c-3.75388,4.45847 -10.15328,9.06793 -10.15328,9.06793" fill="url(#color-1)" stroke="#000000" stroke-width="2.5" stroke-linecap="round"/><path d="M207.02091,109.29949c0,0 -6.02162,-3.61154 -9.70293,-7.7658c-1.65484,-1.86745 -1.81088,-4.30053 -2.51351,-5.7738c-1.75013,-3.66963 -0.23483,-12.56791 -0.23483,-12.56791l22.89428,17.27113" fill="url(#color-2)" stroke="#000000" stroke-width="2.5" stroke-linecap="round"/><path d="M202.10337,125.90173c-2.47681,-20.19883 12.27804,-38.62867 32.95588,-41.16422c20.67784,-2.53556 39.4484,11.78336 41.92521,31.98217c2.47681,20.19883 -12.27804,38.62867 -32.95588,41.16422c-20.67784,2.53556 -39.44839,-11.78335 -41.9252,-31.98217z" fill="url(#color-3)" stroke="#000000" stroke-width="2.5" stroke-linecap="butt"/><path d="M226.86129,141.83251c0,0 17.62574,-1.76508 22.90455,-2.29372c2.78912,-0.27932 6.6153,1.74946 6.6153,1.74946" fill-opacity="0.21961" fill="#0046ff" stroke="#000000" stroke-width="2.5" stroke-linecap="round"/><path d="M244.94391,171.0357v-12.25" fill="none" stroke="#000000" stroke-width="1.5" stroke-linecap="round"/><path d="M235.19391,170.0357v-11.5" fill="none" stroke="#000000" stroke-width="1.5" stroke-linecap="round"/><path d="M229.39391,187.5357v-21.25h22v21.25z" fill="url(#color-4)" stroke="url(#color-5)" stroke-width="1.5" stroke-linecap="butt"/><path d="M238.61891,175.6732c0,-0.9665 0.7835,-1.75 1.75,-1.75c0.9665,0 1.75,0.7835 1.75,1.75c0,0.9665 -0.7835,1.75 -1.75,1.75c-0.9665,0 -1.75,-0.7835 -1.75,-1.75z" fill="#000000" stroke="none" stroke-width="0.5" stroke-linecap="butt"/><path d="M240.61891,180.7982l-0.125,-3.625" fill="none" stroke="#000000" stroke-width="1.5" stroke-linecap="round"/><path d="M249.3012,129.18282v-22.05292" fill-opacity="0.21961" fill="#0046ff" stroke="#000000" stroke-width="2.5" stroke-linecap="round"/><path d="M231.13437,128.43626l-0.27777,-20.1106" fill-opacity="0.21961" fill="#0046ff" stroke="#000000" stroke-width="2.5" stroke-linecap="round"/><path d="M234.69353,110.75752l-7.28571,-8.10084l-1.85715,-2.13985" fill="none" stroke="#000000" stroke-width="2.5" stroke-linecap="round"/><path d="M245.88523,109.57091l6.28572,-4.73823l3.14286,-2.2927" fill="none" stroke="#000000" stroke-width="2.5" stroke-linecap="round"/><path d="M96.27233,119.73942l22.89428,-17.27113c0,0 1.5153,8.89828 -0.23483,12.56792c-0.5748,1.20523 -0.78708,2.95607 -2.06316,4.47168c-3.75388,4.45847 -10.15328,9.06793 -10.15328,9.06793" fill="url(#color-6)" stroke="#000000" stroke-width="2.5" stroke-linecap="round"/><path d="M42.25754,127.77581c0,0 -6.02162,-3.61154 -9.70293,-7.7658c-1.65484,-1.86745 -1.81088,-4.30053 -2.51351,-5.7738c-1.75013,-3.66963 -0.23483,-12.56791 -0.23483,-12.56791l22.89428,17.27113" fill="url(#color-7)" stroke="#000000" stroke-width="2.5" stroke-linecap="round"/><path d="M37.34,144.37805c-2.47681,-20.19883 12.27804,-38.62867 32.95588,-41.16422c20.67784,-2.53556 39.4484,11.78336 41.92521,31.98217c2.47681,20.19883 -12.27804,38.62867 -32.95588,41.16422c-20.67784,2.53556 -39.44839,-11.78335 -41.9252,-31.98217z" fill="url(#color-8)" stroke="#000000" stroke-width="2.5" stroke-linecap="butt"/><path d="M91.61777,158.53296c0,0 -3.82618,2.02878 -6.6153,1.74946c-5.27881,-0.52864 -22.90455,-2.29372 -22.90455,-2.29372" fill-opacity="0.21961" fill="#0046ff" stroke="#000000" stroke-width="2.5" stroke-linecap="round"/><path d="M84.53783,125.60622v22.05292" fill-opacity="0.21961" fill="#0046ff" stroke="#000000" stroke-width="2.5" stroke-linecap="round"/><path d="M66.09323,126.80198l0.27777,20.1106" fill-opacity="0.21961" fill="#0046ff" stroke="#000000" stroke-width="2.5" stroke-linecap="round"/><path d="M69.93016,129.23384l-7.28571,-8.10084l-1.85715,-2.13985" fill="none" stroke="#000000" stroke-width="2.5" stroke-linecap="round"/><path d="M81.12186,128.04723l6.28572,-4.73823l3.14286,-2.2927" fill="none" stroke="#000000" stroke-width="2.5" stroke-linecap="round"/><text transform="translate(26.06463,76.01174) scale(0.5,0.5)" font-size="40" xml:space="preserve" fill="#ffffff" stroke="none" stroke-width="1" stroke-linecap="butt" font-family="Pixel" font-weight="normal" text-anchor="start"><tspan x="0" dy="0">unchained?</tspan></text><text transform="translate(205.03608,63.20766) scale(0.5,0.5)" font-size="40" xml:space="preserve" fill="#ffffff" stroke="none" stroke-width="1" stroke-linecap="butt" font-family="Pixel" font-weight="normal" text-anchor="start"><tspan x="0" dy="0">normal</tspan></text><path d="M406.54954,113.9282l22.89428,-17.27113c0,0 1.5153,8.89828 -0.23483,12.56792c-0.5748,1.20523 -0.78708,2.95607 -2.06316,4.47168c-3.75388,4.45847 -10.15328,9.06793 -10.15328,9.06793" fill="url(#color-9)" stroke="#000000" stroke-width="2.5" stroke-linecap="round"/><path d="M352.53475,121.96459c0,0 -6.02162,-3.61154 -9.70293,-7.7658c-1.65484,-1.86745 -1.81088,-4.30053 -2.51351,-5.7738c-1.75013,-3.66963 -0.23483,-12.56791 -0.23483,-12.56791l22.89428,17.27113" fill="url(#color-10)" stroke="#000000" stroke-width="2.5" stroke-linecap="round"/><path d="M347.61721,138.56683c-2.47681,-20.19883 12.27804,-38.62867 32.95588,-41.16422c20.67784,-2.53556 39.4484,11.78336 41.92521,31.98217c2.47681,20.19883 -12.27804,38.62867 -32.95588,41.16422c-20.67784,2.53556 -39.44839,-11.78335 -41.9252,-31.98217z" fill="url(#color-11)" stroke="#000000" stroke-width="2.5" stroke-linecap="butt"/><path d="M390.45775,183.7008v-12.25" fill="none" stroke="#000000" stroke-width="1.5" stroke-linecap="round"/><path d="M380.70775,182.7008v-11.5" fill="none" stroke="#000000" stroke-width="1.5" stroke-linecap="round"/><path d="M374.90775,200.2008v-21.25h22v21.25z" fill="url(#color-12)" stroke="url(#color-13)" stroke-width="1.5" stroke-linecap="butt"/><path d="M384.13275,188.3383c0,-0.9665 0.7835,-1.75 1.75,-1.75c0.9665,0 1.75,0.7835 1.75,1.75c0,0.9665 -0.7835,1.75 -1.75,1.75c-0.9665,0 -1.75,-0.7835 -1.75,-1.75z" fill="#000000" stroke="none" stroke-width="0.5" stroke-linecap="butt"/><path d="M386.13275,193.4633l-0.125,-3.625" fill="none" stroke="#000000" stroke-width="1.5" stroke-linecap="round"/><path d="M394.81504,141.84792v-22.05292" fill-opacity="0.21961" fill="#0046ff" stroke="#000000" stroke-width="2.5" stroke-linecap="round"/><path d="M376.37044,120.99076l0.27777,20.1106" fill-opacity="0.21961" fill="#0046ff" stroke="#000000" stroke-width="2.5" stroke-linecap="round"/><path d="M380.20737,123.42262l-7.28571,-8.10084l-1.85715,-2.13985" fill="none" stroke="#000000" stroke-width="2.5" stroke-linecap="round"/><path d="M391.39907,122.23601l6.28572,-4.73823l3.14286,-2.2927" fill="none" stroke="#000000" stroke-width="2.5" stroke-linecap="round"/><path d="M401.5461,148.93983c0,0 0.82643,3.69903 -1.13954,5.14082c-1.93607,1.41986 -4.05608,0.9291 -4.84464,0.95168c-3.38867,0.097 -7.23076,-3.15272 -9.84596,-3.07786c-3.01784,0.08639 -7.58661,3.08725 -10.91854,3.18263c-0.79763,0.02283 -3.38579,-0.9008 -4.29066,-2.22017c-0.96852,-1.41218 -0.22805,-3.22727 -0.22805,-3.22727" fill="none" stroke="#000000" stroke-width="2.5" stroke-linecap="round"/><text transform="translate(375.87602,81.10349) scale(0.5,0.5)" font-size="40" xml:space="preserve" fill="#ffffff" stroke="none" stroke-width="1" stroke-linecap="butt" font-family="Pixel" font-weight="normal" text-anchor="start"><tspan x="0" dy="0">:3</tspan></text><path d="M124.5629,139.55961c-0.88911,-7.25083 4.40748,-13.86664 11.83027,-14.77684c7.42279,-0.9102 14.1609,4.22991 15.05001,11.48074c0.88911,7.25083 -4.40748,13.86664 -11.83027,14.77683c-7.42279,0.91019 -14.1609,-4.2299 -15.05001,-11.48073z" fill="url(#color-14)" stroke="#000000" stroke-width="2.5" stroke-linecap="butt"/><path d="M6.53214,159.93846c-0.88911,-7.25083 4.40748,-13.86665 11.83027,-14.77684c7.42279,-0.91019 14.1609,4.22991 15.05001,11.48073c0.88911,7.25083 -4.40748,13.86664 -11.83026,14.77684c-7.42279,0.91019 -14.1609,-4.2299 -15.05001,-11.48073z" fill="url(#color-15)" stroke="#000000" stroke-width="2.5" stroke-linecap="butt"/><path d="M123.71949,267.38036l22.89428,-17.27113c0,0 1.5153,8.89828 -0.23483,12.56792c-0.5748,1.20523 -0.78708,2.95607 -2.06316,4.47168c-3.75388,4.45847 -10.15328,9.06793 -10.15328,9.06793" fill="url(#color-16)" stroke="#000000" stroke-width="2.5" stroke-linecap="round"/><path d="M69.7047,275.41675c0,0 -6.02162,-3.61154 -9.70293,-7.7658c-1.65484,-1.86745 -1.81088,-4.30053 -2.51351,-5.7738c-1.75013,-3.66963 -0.23483,-12.56791 -0.23483,-12.56791l22.89428,17.27113" fill="url(#color-17)" stroke="#000000" stroke-width="2.5" stroke-linecap="round"/><path d="M64.78716,292.01899c-2.47681,-20.19883 12.27804,-38.62867 32.95588,-41.16422c20.67784,-2.53556 39.4484,11.78336 41.92521,31.98217c2.47681,20.19883 -12.27804,38.62867 -32.95588,41.16422c-20.67784,2.53556 -39.44839,-11.78335 -41.9252,-31.98217z" fill="url(#color-18)" stroke="#000000" stroke-width="2.5" stroke-linecap="butt"/><path d="M89.54508,307.94977c0,0 17.62574,-1.76508 22.90455,-2.29372c2.78912,-0.27932 6.6153,1.74946 6.6153,1.74946" fill-opacity="0.21961" fill="#0046ff" stroke="#000000" stroke-width="2.5" stroke-linecap="round"/><path d="M107.6277,337.15296v-12.25" fill="none" stroke="#000000" stroke-width="1.5" stroke-linecap="round"/><path d="M97.8777,336.15296v-11.5" fill="none" stroke="#000000" stroke-width="1.5" stroke-linecap="round"/><path d="M92.0777,353.65296v-21.25h22v21.25z" fill="url(#color-19)" stroke="url(#color-20)" stroke-width="1.5" stroke-linecap="butt"/><path d="M101.3027,341.79046c0,-0.9665 0.7835,-1.75 1.75,-1.75c0.9665,0 1.75,0.7835 1.75,1.75c0,0.9665 -0.7835,1.75 -1.75,1.75c-0.9665,0 -1.75,-0.7835 -1.75,-1.75z" fill="#000000" stroke="none" stroke-width="0.5" stroke-linecap="butt"/><path d="M103.3027,346.91546l-0.125,-3.625" fill="none" stroke="#000000" stroke-width="1.5" stroke-linecap="round"/><path d="M111.98499,295.30008v-22.05292" fill-opacity="0.21961" fill="#0046ff" stroke="#000000" stroke-width="2.5" stroke-linecap="round"/><path d="M93.81816,294.55352l-0.27777,-20.1106" fill-opacity="0.21961" fill="#0046ff" stroke="#000000" stroke-width="2.5" stroke-linecap="round"/><path d="M97.37732,276.87478l-7.28571,-8.10084l-1.85715,-2.13985" fill="none" stroke="#000000" stroke-width="2.5" stroke-linecap="round"/><path d="M108.56902,275.68817l6.28572,-4.73823l3.14286,-2.2927" fill="none" stroke="#000000" stroke-width="2.5" stroke-linecap="round"/><text transform="translate(53.0055,232.32048) scale(0.29846,0.29846)" font-size="40" xml:space="preserve" fill="#ffffff" stroke="none" stroke-width="1" stroke-linecap="butt" font-family="Pixel" font-weight="normal" text-anchor="start"><tspan x="0" dy="0">normal (w/arms)</tspan></text><path d="M140.85611,313.95865c-0.70808,-5.7745 3.51009,-11.04329 9.42154,-11.76816c5.91145,-0.72487 11.27763,3.36867 11.98571,9.14317c0.70808,5.7745 -3.51008,11.04329 -9.42153,11.76816c-5.91145,0.72487 -11.27763,-3.36866 -11.98571,-9.14317z" fill="url(#color-21)" stroke="#000000" stroke-width="2.5" stroke-linecap="butt"/><path d="M41.15986,316.17207c-0.70808,-5.7745 3.51008,-11.04329 9.42153,-11.76816c5.91145,-0.72487 11.27763,3.36867 11.98571,9.14317c0.70808,5.7745 -3.51008,11.04328 -9.42153,11.76815c-5.91145,0.72487 -11.27763,-3.36866 -11.98571,-9.14316z" fill="url(#color-22)" stroke="#000000" stroke-width="2.5" stroke-linecap="butt"/><path d="M309.65506,262.23031l22.89428,-17.27113c0,0 1.5153,8.89828 -0.23483,12.56792c-0.5748,1.20523 -0.78708,2.95607 -2.06316,4.47168c-3.75388,4.45847 -10.15328,9.06793 -10.15328,9.06793" fill="url(#color-23)" stroke="#000000" stroke-width="2.5" stroke-linecap="round"/><path d="M255.64027,270.2667c0,0 -6.02162,-3.61154 -9.70293,-7.7658c-1.65484,-1.86745 -1.81088,-4.30053 -2.51351,-5.7738c-1.75013,-3.66963 -0.23483,-12.56791 -0.23483,-12.56791l22.89428,17.27113" fill="url(#color-24)" stroke="#000000" stroke-width="2.5" stroke-linecap="round"/><path d="M250.72273,286.86894c-2.47681,-20.19883 12.27804,-38.62867 32.95588,-41.16422c20.67784,-2.53556 39.4484,11.78336 41.92521,31.98217c2.47681,20.19883 -12.27804,38.62867 -32.95588,41.16422c-20.67784,2.53556 -39.44839,-11.78335 -41.9252,-31.98217z" fill="url(#color-25)" stroke="#000000" stroke-width="2.5" stroke-linecap="butt"/><path d="M305.0005,301.02386c0,0 -3.82618,2.02878 -6.6153,1.74946c-5.27881,-0.52864 -22.90455,-2.29372 -22.90455,-2.29372" fill-opacity="0.21961" fill="#0046ff" stroke="#000000" stroke-width="2.5" stroke-linecap="round"/><path d="M293.56327,332.00291v-12.25" fill="none" stroke="#000000" stroke-width="1.5" stroke-linecap="round"/><path d="M283.81327,331.00291v-11.5" fill="none" stroke="#000000" stroke-width="1.5" stroke-linecap="round"/><path d="M278.01327,348.50291v-21.25h22v21.25z" fill="url(#color-26)" stroke="url(#color-27)" stroke-width="1.5" stroke-linecap="butt"/><path d="M287.23827,336.64041c0,-0.9665 0.7835,-1.75 1.75,-1.75c0.9665,0 1.75,0.7835 1.75,1.75c0,0.9665 -0.7835,1.75 -1.75,1.75c-0.9665,0 -1.75,-0.7835 -1.75,-1.75z" fill="#000000" stroke="none" stroke-width="0.5" stroke-linecap="butt"/><path d="M289.23827,341.76541l-0.125,-3.625" fill="none" stroke="#000000" stroke-width="1.5" stroke-linecap="round"/><path d="M297.92055,290.15003v-22.05292" fill-opacity="0.21961" fill="#0046ff" stroke="#000000" stroke-width="2.5" stroke-linecap="round"/><path d="M279.75372,289.40347l-0.27777,-20.1106" fill-opacity="0.21961" fill="#0046ff" stroke="#000000" stroke-width="2.5" stroke-linecap="round"/><path d="M283.31289,271.72473l-7.28571,-8.10084l-1.85715,-2.13985" fill="none" stroke="#000000" stroke-width="2.5" stroke-linecap="round"/><path d="M294.50459,270.53812l6.28572,-4.73823l3.14286,-2.2927" fill="none" stroke="#000000" stroke-width="2.5" stroke-linecap="round"/><text transform="translate(280.32751,228.98109) scale(0.29846,0.29846)" font-size="40" xml:space="preserve" fill="#ffffff" stroke="none" stroke-width="1" stroke-linecap="butt" font-family="Pixel" font-weight="normal" text-anchor="start"><tspan x="0" dy="0">idk</tspan></text><path d="M342.77353,293.04746c-1.09013,-8.89023 5.404,-17.00187 14.50507,-18.11785c9.10107,-1.11599 17.36265,5.18628 18.45279,14.0765c1.09013,8.89023 -5.404,17.00187 -14.50507,18.11786c-9.10107,1.11599 -17.36265,-5.18628 -18.45279,-14.0765z" fill="url(#color-28)" stroke="#000000" stroke-width="2.5" stroke-linecap="butt"/><path d="M227.09543,311.02203c-0.70808,-5.7745 3.51009,-11.04329 9.42154,-11.76816c5.91145,-0.72487 11.27763,3.36867 11.98571,9.14317c0.70808,5.7745 -3.51008,11.04328 -9.42153,11.76815c-5.91145,0.72487 -11.27763,-3.36866 -11.98571,-9.14317z" fill="url(#color-29)" stroke="#000000" stroke-width="2.5" stroke-linecap="butt"/><path d="M46.57491,-51.55675l7.24045,-8.41467c0,0 1.30453,3.24131 0.94414,4.77323c-0.11837,0.50313 -0.05476,1.18285 -0.41288,1.86103c-1.05349,1.99499 -3.09527,4.26454 -3.09527,4.26454" fill="url(#color-30)" stroke="#000000" stroke-width="2.5" stroke-linecap="round"/><path d="M35.86127,-48.09792c0,0 -1.91458,-1.92919 -2.89942,-3.83877c-0.44271,-0.85841 -0.2692,-1.78607 -0.39228,-2.40578c-0.30658,-1.54359 1.11056,-4.73728 1.11056,-4.73728l6.94162,8.66283" fill="url(#color-31)" stroke="#000000" stroke-width="2.5" stroke-linecap="round"/><path d="M124.26515,-43.48068l8.86206,-6.68541c0,0 0.58655,3.4444 -0.0909,4.86487c-0.2225,0.46653 -0.30467,1.14425 -0.79862,1.73092c-1.45307,1.72581 -3.93019,3.51007 -3.93019,3.51007" fill="url(#color-32)" stroke="#000000" stroke-width="2.5" stroke-linecap="round"/><path d="M103.35678,-40.3699c0,0 -2.33088,-1.39798 -3.75587,-3.00603c-0.64057,-0.72286 -0.70097,-1.66467 -0.97294,-2.23496c-0.67745,-1.42046 -0.0909,-4.86486 -0.0909,-4.86486l8.86206,6.68541" fill="url(#color-33)" stroke="#000000" stroke-width="2.5" stroke-linecap="round"/><path d="M123.60442,-49.02778l8.86206,-6.68541c0,0 0.58655,3.4444 -0.0909,4.86487c-0.2225,0.46653 -0.30467,1.14425 -0.79862,1.73092c-1.45307,1.72581 -3.93019,3.51007 -3.93019,3.51007" fill="url(#color-34)" stroke="#000000" stroke-width="2.5" stroke-linecap="round"/><path d="M102.69606,-45.917c0,0 -2.33088,-1.39798 -3.75587,-3.00603c-0.64057,-0.72286 -0.70097,-1.66467 -0.97294,-2.23496c-0.67745,-1.42046 -0.0909,-4.86486 -0.0909,-4.86486l8.86206,6.68541" fill="url(#color-35)" stroke="#000000" stroke-width="2.5" stroke-linecap="round"/><path d="M100.79254,-39.60219c-0.95874,-7.81868 4.75266,-14.95262 12.75676,-15.93409c8.0041,-0.98148 15.26992,4.56117 16.22866,12.37985c0.95874,7.81868 -4.75266,14.95262 -12.75676,15.93409c-8.0041,0.98148 -15.26992,-4.56117 -16.22866,-12.37985z" fill="url(#color-36)" stroke="#000000" stroke-width="2.5" stroke-linecap="butt"/><path d="M110.37599,-33.32393c0,0 6.82268,-0.68324 8.86603,-0.88787c1.07963,-0.10812 2.56069,0.67719 2.56069,0.67719" fill-opacity="0.21961" fill="#0046ff" stroke="#000000" stroke-width="2.5" stroke-linecap="round"/><path d="M119.06216,-38.22044v-8.53638" fill-opacity="0.21961" fill="#0046ff" stroke="#000000" stroke-width="2.5" stroke-linecap="round"/><path d="M112.03004,-38.50943l-0.10752,-7.78453" fill-opacity="0.21961" fill="#0046ff" stroke="#000000" stroke-width="2.5" stroke-linecap="round"/><path d="M134.55531,-41.46734c-0.34416,-2.80669 1.70608,-5.36758 4.57933,-5.71991c2.87326,-0.35232 5.48149,1.63734 5.82565,4.44403c0.34416,2.80669 -1.70607,5.36758 -4.57933,5.71991c-2.87326,0.35232 -5.48149,-1.63734 -5.82565,-4.44403z" fill="url(#color-37)" stroke="#000000" stroke-width="2.5" stroke-linecap="butt"/><path d="M88.86725,-33.46729c-0.34416,-2.80669 1.70608,-5.36758 4.57933,-5.71991c2.87326,-0.35232 5.48149,1.63734 5.82565,4.44403c0.34416,2.80669 -1.70607,5.36758 -4.57933,5.71991c-2.87326,0.35232 -5.48149,-1.63734 -5.82565,-4.44403z" fill="url(#color-38)" stroke="#000000" stroke-width="2.5" stroke-linecap="butt"/><path d="M116.84406,-47.45832c0,0 1.60377,-0.89388 2.31598,-0.97621c0.74675,-0.08631 2.06583,0.46973 2.06583,0.46973" fill="none" stroke="#000000" stroke-width="2.5" stroke-linecap="round"/><path d="M109.84733,-47.33468c0,0 1.72655,-0.62459 2.44274,-0.59142c0.75092,0.03479 1.96352,0.79554 1.96352,0.79554" fill="none" stroke="#000000" stroke-width="2.5" stroke-linecap="round"/><path d="M52.9173,-43.76595l8.86206,-6.68541c0,0 0.58655,3.4444 -0.0909,4.86487c-0.2225,0.46653 -0.30467,1.14425 -0.79862,1.73092c-1.45307,1.72581 -3.93019,3.51007 -3.93019,3.51007" fill="url(#color-39)" stroke="#000000" stroke-width="2.5" stroke-linecap="round"/><path d="M32.00893,-40.65518c0,0 -2.33088,-1.39798 -3.75587,-3.00603c-0.64057,-0.72286 -0.70097,-1.66467 -0.97294,-2.23496c-0.67745,-1.42046 -0.0909,-4.86486 -0.0909,-4.86486l8.86206,6.68541" fill="url(#color-40)" stroke="#000000" stroke-width="2.5" stroke-linecap="round"/><path d="M52.25658,-49.31305l8.86206,-6.68541c0,0 0.58655,3.4444 -0.0909,4.86487c-0.2225,0.46653 -0.30467,1.14425 -0.79862,1.73092c-1.45307,1.72581 -3.93019,3.51007 -3.93019,3.51007" fill="url(#color-41)" stroke="#000000" stroke-width="2.5" stroke-linecap="round"/><path d="M31.34821,-46.20228c0,0 -2.33088,-1.39798 -3.75587,-3.00603c-0.64057,-0.72286 -0.70097,-1.66467 -0.97294,-2.23496c-0.67745,-1.42046 -0.0909,-4.86486 -0.0909,-4.86486l8.86206,6.68541" fill="url(#color-42)" stroke="#000000" stroke-width="2.5" stroke-linecap="round"/><path d="M29.4447,-39.88746c-0.95874,-7.81868 4.75266,-14.95262 12.75676,-15.93409c8.0041,-0.98148 15.26992,4.56117 16.22866,12.37985c0.95874,7.81868 -4.75266,14.95262 -12.75676,15.93409c-8.0041,0.98148 -15.26992,-4.56117 -16.22866,-12.37985z" fill="url(#color-43)" stroke="#000000" stroke-width="2.5" stroke-linecap="butt"/><path d="M39.06444,-33.6092c0,0 6.82268,-0.68324 8.86603,-0.88787c1.07963,-0.10812 2.89686,1.19673 2.89686,1.19673" fill="none" stroke="#000000" stroke-width="2.5" stroke-linecap="round"/><path d="M47.71432,-38.50572v-8.53638" fill-opacity="0.21961" fill="#0046ff" stroke="#000000" stroke-width="2.5" stroke-linecap="round"/><path d="M40.68219,-38.7947l-0.10752,-7.78453" fill-opacity="0.21961" fill="#0046ff" stroke="#000000" stroke-width="2.5" stroke-linecap="round"/><path d="M63.20746,-41.75261c-0.34416,-2.80669 1.70608,-5.36758 4.57933,-5.71991c2.87326,-0.35232 5.48149,1.63734 5.82565,4.44403c0.34416,2.80669 -1.70607,5.36758 -4.57933,5.71991c-2.87326,0.35232 -5.48149,-1.63734 -5.82565,-4.44403z" fill="url(#color-44)" stroke="#000000" stroke-width="2.5" stroke-linecap="butt"/><path d="M17.51941,-33.75257c-0.34416,-2.80669 1.70608,-5.36758 4.57933,-5.71991c2.87326,-0.35232 5.48149,1.63734 5.82565,4.44403c0.34416,2.80669 -1.70607,5.36758 -4.57933,5.71991c-2.87326,0.35232 -5.48149,-1.63734 -5.82565,-4.44403z" fill="url(#color-45)" stroke="#000000" stroke-width="2.5" stroke-linecap="butt"/><path d="M45.2651,-49.05963c0,0 1.31343,-1.22051 2.02565,-1.30283c0.74675,-0.08631 2.35616,0.79635 2.35616,0.79635" fill="none" stroke="#000000" stroke-width="2.5" stroke-linecap="round"/><path d="M38.4078,-49.0315c0,0 1.18218,-1.06009 1.89836,-1.02691c0.75092,0.03479 2.50789,1.23104 2.50789,1.23104" fill="none" stroke="#000000" stroke-width="2.5" stroke-linecap="round"/><text transform="translate(147.13241,-13.5817) scale(0.5,0.5)" font-size="40" xml:space="preserve" fill="#ffffff" stroke="none" stroke-width="1" stroke-linecap="butt" font-family="Pixel" font-weight="normal" text-anchor="start"><tspan x="0" dy="0">???</tspan></text><path d="M210.57454,-38.82159c-0.95874,-7.81869 4.75265,-14.95262 12.75676,-15.93409c8.00411,-0.98148 15.26992,4.56117 16.22866,12.37985c0.95874,7.81869 -4.75266,14.95262 -12.75676,15.9341c-8.0041,0.98148 -15.26991,-4.56117 -16.22865,-12.37985z" fill="url(#color-46)" stroke="#000000" stroke-width="2.5" stroke-linecap="butt"/><path d="M231.58471,-33.23075c0,0 -1.48106,0.78532 -2.56069,0.6772c-2.04336,-0.20463 -8.86603,-0.88787 -8.86603,-0.88787" fill-opacity="0.21961" fill="#0046ff" stroke="#000000" stroke-width="2.5" stroke-linecap="round"/><path d="M228.84416,-37.43985v-8.53637" fill-opacity="0.21961" fill="#0046ff" stroke="#000000" stroke-width="2.5" stroke-linecap="round"/><path d="M221.81204,-37.72883l-0.10753,-7.78453" fill-opacity="0.21961" fill="#0046ff" stroke="#000000" stroke-width="2.5" stroke-linecap="round"/><path d="M244.33731,-40.68675c-0.34416,-2.80669 1.70607,-5.36758 4.57933,-5.7199c2.87326,-0.35233 5.48149,1.63734 5.82565,4.44403c0.34416,2.80669 -1.70607,5.36758 -4.57933,5.7199c-2.87326,0.35233 -5.48149,-1.63734 -5.82565,-4.44403z" fill="url(#color-47)" stroke="#000000" stroke-width="2.5" stroke-linecap="butt"/><path d="M198.64925,-32.6867c-0.34416,-2.80669 1.70607,-5.36758 4.57933,-5.71991c2.87326,-0.35233 5.48149,1.63733 5.82565,4.44403c0.34416,2.80669 -1.70607,5.36758 -4.57933,5.71991c-2.87326,0.35233 -5.48149,-1.63734 -5.82565,-4.44403z" fill="url(#color-48)" stroke="#000000" stroke-width="2.5" stroke-linecap="butt"/><path d="M226.62606,-46.67773c0,0 1.60376,-0.89388 2.31598,-0.97621c0.74675,-0.08631 2.06582,0.46973 2.06582,0.46973" fill="none" stroke="#000000" stroke-width="2.5" stroke-linecap="round"/><path d="M219.62933,-46.55409c0,0 1.72655,-0.62459 2.44274,-0.59141c0.75092,0.03478 1.96352,0.79554 1.96352,0.79554" fill="none" stroke="#000000" stroke-width="2.5" stroke-linecap="round"/><text transform="translate(48.88106,393.55746) scale(0.5,0.5)" font-size="40" xml:space="preserve" fill="#ffffff" stroke="none" stroke-width="1" stroke-linecap="butt" font-family="Pixel" font-weight="normal" text-anchor="start"><tspan x="0" dy="0">Comment 'Vault keeper smiling is cursed'</tspan><tspan x="0" dy="46.150000000000006px">if you see this...</tspan></text></g></g></svg>