<svg version="1.1" xmlns="http://www.w3.org/2000/svg" xmlns:xlink="http://www.w3.org/1999/xlink" width="209.50001" height="87.5" viewBox="0,0,209.50001,87.5"><defs><linearGradient x1="320" y1="139.5" x2="320" y2="220.5" gradientUnits="userSpaceOnUse" id="color-1"><stop offset="0" stop-color="#060f02"/><stop offset="1" stop-color="#f7801e"/></linearGradient><linearGradient x1="327.24513" y1="158.2835" x2="327.24513" y2="202.60924" gradientTransform="translate(-244.15372,-199.4102) scale(1.04117,1.04117)" gradientUnits="userSpaceOnUse" id="color-2"><stop offset="0" stop-color="#ffffff"/><stop offset="1" stop-color="#585858"/></linearGradient></defs><g transform="translate(-215.25,-136.24999)"><g stroke-miterlimit="10"><path d="M218.5,212.4913c0,-16.28466 0,-52.56587 0,-62.59304c0,-5.00963 4.25673,-10.39827 9.38393,-10.39827c19.96762,0 148.01986,0 184.14188,0c6.00918,0 9.4742,2.92032 9.4742,7.6019c0,16.39592 0,54.39465 0,64.20702c0,4.51286 -3.57546,9.19108 -9.76277,9.19108c-36.73982,0 -165.57107,0 -184.74909,0c-4.68093,0 -8.48814,-3.09349 -8.48814,-8.0087z" fill="url(#color-1)" stroke="#003e1d" stroke-width="6.5"/><text transform="translate(234.49988,191.52552) scale(0.96046,0.96046)" font-size="40" xml:space="preserve" fill="url(#color-2)" stroke="none" stroke-width="1" font-family="Marker" font-weight="normal" text-anchor="start"><tspan x="0" dy="0">DUNGEON</tspan></text></g></g></svg>