<svg version="1.1" xmlns="http://www.w3.org/2000/svg" xmlns:xlink="http://www.w3.org/1999/xlink" width="92.62162" height="55.5463" viewBox="0,0,92.62162,55.5463"><defs><linearGradient x1="291.58133" y1="166.72842" x2="284.07681" y2="186.90727" gradientUnits="userSpaceOnUse" id="color-1"><stop offset="0" stop-color="#539800"/><stop offset="1" stop-color="#982700"/></linearGradient><linearGradient x1="291.58133" y1="166.72842" x2="284.07681" y2="186.90727" gradientUnits="userSpaceOnUse" id="color-2"><stop offset="0" stop-color="#000000"/><stop offset="1" stop-color="#2d2d2d"/></linearGradient><linearGradient x1="330.74789" y1="161.99633" x2="317.70267" y2="192.03984" gradientUnits="userSpaceOnUse" id="color-3"><stop offset="0" stop-color="#539800"/><stop offset="1" stop-color="#982700"/></linearGradient><linearGradient x1="330.74789" y1="161.99633" x2="317.70267" y2="192.03984" gradientUnits="userSpaceOnUse" id="color-4"><stop offset="0" stop-color="#000000"/><stop offset="1" stop-color="#2d2d2d"/></linearGradient><linearGradient x1="372.19041" y1="165.12428" x2="361.86907" y2="188.89463" gradientUnits="userSpaceOnUse" id="color-5"><stop offset="0" stop-color="#539800"/><stop offset="1" stop-color="#982700"/></linearGradient><linearGradient x1="372.07881" y1="165.46473" x2="361.90039" y2="188.90591" gradientUnits="userSpaceOnUse" id="color-6"><stop offset="0" stop-color="#000000"/><stop offset="1" stop-color="#2d2d2d"/></linearGradient></defs><g transform="translate(-284.87153,-149.303)"><g stroke-miterlimit="10"><path d="M285.87565,187.66428l-0.00394,-21.69206l3.91079,-0.0008l0.00394,21.69206z" fill="url(#color-1)" stroke="url(#color-2)" stroke-width="2"/><path d="M290.47029,182.2242l-0.00222,-10.40031l67.5122,-0.01191l0.00222,10.40031z" fill="url(#color-3)" stroke="url(#color-4)" stroke-width="2"/><path d="M358.80117,187.78883l-0.00458,-21.56825c0,0 12.24165,-0.30468 14.55098,-0.22772c0.70495,0.0235 1.64082,0.76727 1.64082,0.76727c0,0 1.5042,2.27043 1.50477,4.89667c0.0002,0.96275 0.39997,2.8983 0.50135,4.88039c0.09996,1.95408 -0.09845,3.95037 -0.09812,5.52153c0.00038,1.74089 -0.16738,3.80495 -1.75862,4.79775c-1.5413,0.96163 -3.89377,0.78706 -3.89377,0.78706z" fill="url(#color-5)" stroke="url(#color-6)" stroke-width="2"/><path d="M332.35703,171.94961c-7.59682,0.73771 -14.56108,-3.45406 -15.5551,-9.36257c-0.99403,-5.9085 4.3586,-11.29633 11.95542,-12.03404c7.59682,-0.73771 14.56107,3.45405 15.55509,9.36256c0.75079,4.4627 -2.11905,8.62836 -6.84185,10.71768c-1.53007,0.67688 -3.25462,1.13584 -5.11356,1.31636z" fill="#fcf2ff" stroke="#000000" stroke-width="2.5"/><path d="M318.90572,203.49734c-5.76169,0.8117 -11.10609,-3.31183 -11.93704,-9.21017c-0.83095,-5.89833 3.16621,-11.33789 8.9279,-12.14959c5.76169,-0.8117 11.10608,3.31183 11.93703,9.21017c0.83095,5.89833 -3.1662,11.33789 -8.92789,12.14959z" fill="#fcf2ff" stroke="#000000" stroke-width="2.5"/></g></g></svg>