<svg version="1.1" xmlns="http://www.w3.org/2000/svg" xmlns:xlink="http://www.w3.org/1999/xlink" width="77.65245" height="76.22826" viewBox="0,0,77.65245,76.22826"><defs><linearGradient x1="239.99999" y1="143.13587" x2="239.99999" y2="216.86413" gradientUnits="userSpaceOnUse" id="color-1"><stop offset="0" stop-color="#b1aab3"/><stop offset="1" stop-color="#ffffff"/></linearGradient></defs><g transform="translate(-201.03809,-141.88586)"><g stroke="#000000" stroke-width="2.5" stroke-miterlimit="10"><path d="M202.55945,184.59102c-2.47681,-20.19883 12.27804,-38.62867 32.95588,-41.16422c20.67784,-2.53556 39.4484,11.78336 41.92521,31.98217c2.47681,20.19883 -12.27804,38.62867 -32.95588,41.16422c-20.67784,2.53556 -39.44839,-11.78335 -41.9252,-31.98217z" fill="url(#color-1)" stroke-linecap="butt"/><path d="M248.41962,161.35796v24.33333" fill-opacity="0.21961" fill="#0046ff" stroke-linecap="round"/><path d="M231.81698,185.45652l-0.33333,-22.55556" fill-opacity="0.21961" fill="#0046ff" stroke-linecap="round"/><path d="M255.5233,191.67649c0,0 0.82643,3.69903 -1.13954,5.14082c-1.93607,1.41986 -4.05608,0.9291 -4.84464,0.95168c-3.38867,0.097 -7.23076,-3.15272 -9.84596,-3.07786c-3.01784,0.08639 -7.58661,3.08725 -10.91854,3.18263c-0.79763,0.02283 -3.38579,-0.9008 -4.29066,-2.22017c-0.96852,-1.41218 -0.22805,-3.22727 -0.22805,-3.22727" fill="none" stroke-linecap="round"/></g></g></svg>