<svg version="1.1" xmlns="http://www.w3.org/2000/svg" xmlns:xlink="http://www.w3.org/1999/xlink" width="111.975" height="67.41096" viewBox="0,0,111.975,67.41096"><defs><linearGradient x1="221.88202" y1="195.34981" x2="221.88202" y2="212.48161" gradientUnits="userSpaceOnUse" id="color-1"><stop offset="0" stop-color="#539800"/><stop offset="1" stop-color="#982700"/></linearGradient><linearGradient x1="221.88202" y1="195.34981" x2="221.88202" y2="212.48161" gradientUnits="userSpaceOnUse" id="color-2"><stop offset="0" stop-color="#000000"/><stop offset="1" stop-color="#2d2d2d"/></linearGradient><linearGradient x1="228.81138" y1="191.7116" x2="228.81138" y2="201.60142" gradientUnits="userSpaceOnUse" id="color-3"><stop offset="0" stop-color="#000000"/><stop offset="1" stop-color="#2d2d2d"/></linearGradient><linearGradient x1="233.38619" y1="161.40059" x2="233.38619" y2="203.74352" gradientUnits="userSpaceOnUse" id="color-4"><stop offset="0" stop-color="#539800"/><stop offset="1" stop-color="#982700"/></linearGradient><linearGradient x1="233.38619" y1="161.40059" x2="233.38619" y2="203.74352" gradientUnits="userSpaceOnUse" id="color-5"><stop offset="0" stop-color="#000000"/><stop offset="1" stop-color="#2d2d2d"/></linearGradient><linearGradient x1="192.38725" y1="184.28949" x2="192.38725" y2="212.72932" gradientUnits="userSpaceOnUse" id="color-6"><stop offset="0" stop-color="#539800"/><stop offset="1" stop-color="#982700"/></linearGradient><linearGradient x1="192.38725" y1="184.28949" x2="192.38725" y2="212.72932" gradientUnits="userSpaceOnUse" id="color-7"><stop offset="0" stop-color="#000000"/><stop offset="1" stop-color="#2d2d2d"/></linearGradient><linearGradient x1="280.9087" y1="147.00871" x2="280.9087" y2="180.51034" gradientUnits="userSpaceOnUse" id="color-8"><stop offset="0" stop-color="#539800"/><stop offset="1" stop-color="#982700"/></linearGradient><linearGradient x1="280.94892" y1="147.47263" x2="280.94892" y2="180.51034" gradientUnits="userSpaceOnUse" id="color-9"><stop offset="0" stop-color="#000000"/><stop offset="1" stop-color="#2d2d2d"/></linearGradient><linearGradient x1="245.79006" y1="174.14314" x2="245.79006" y2="179.91219" gradientUnits="userSpaceOnUse" id="color-10"><stop offset="0" stop-color="#000000"/><stop offset="1" stop-color="#2d2d2d"/></linearGradient><linearGradient x1="252.04303" y1="172.043" x2="252.04303" y2="178.11568" gradientUnits="userSpaceOnUse" id="color-11"><stop offset="0" stop-color="#000000"/><stop offset="1" stop-color="#2d2d2d"/></linearGradient><linearGradient x1="258.23907" y1="169.51904" x2="258.23907" y2="174.68082" gradientUnits="userSpaceOnUse" id="color-12"><stop offset="0" stop-color="#000000"/><stop offset="1" stop-color="#2d2d2d"/></linearGradient></defs><g transform="translate(-183.32315,-146.61622)"><g data-paper-data="{&quot;isPaintingLayer&quot;:true}" fill-rule="nonzero" stroke-width="2" stroke-linejoin="miter" stroke-miterlimit="10" stroke-dasharray="" stroke-dashoffset="0" style="mix-blend-mode: normal"><path d="M220.87493,212.48161l-5.58989,-14.12185l7.60407,-3.00995l5.58989,14.12185z" fill="url(#color-1)" stroke="url(#color-2)" stroke-linecap="butt"/><path d="M226.37099,201.60142l-2.72329,-6.87987l7.60407,-3.00995l2.72329,6.87987z" fill="none" stroke="url(#color-3)" stroke-linecap="butt"/><path d="M198.41726,203.74352l-5.01659,-12.67346l74.95445,-29.66947l5.01659,12.67346z" fill="url(#color-4)" stroke="url(#color-5)" stroke-linecap="butt"/><path d="M195.08413,212.72932l-10.46313,-26.4332l5.06938,-2.00663l10.46313,26.4332z" fill="url(#color-6)" stroke="url(#color-7)" stroke-linecap="butt"/><path d="M276.96923,180.51034l-10.40342,-26.28233c0,0 13.44527,-5.74848 16.04646,-6.66909c0.79404,-0.28102 2.19175,0.21431 2.19175,0.21431c0,0 2.76474,2.10615 4.03151,5.3064c0.46438,1.17317 1.8414,3.35635 2.90956,5.7273c1.05307,2.33745 1.79521,4.8574 2.55306,6.77196c0.83972,2.12139 1.64857,4.71047 0.36042,6.6193c-1.24772,1.84892 -3.94388,2.6695 -3.94388,2.6695z" fill="url(#color-8)" stroke="url(#color-9)" stroke-linecap="butt"/><path d="M244.64827,174.14314l2.28359,5.76905" fill="none" stroke="url(#color-10)" stroke-linecap="round"/><path d="M250.84115,172.043l2.40377,6.07268" fill="none" stroke="url(#color-11)" stroke-linecap="round"/><path d="M257.21747,169.51904l2.04321,5.16178" fill="none" stroke="url(#color-12)" stroke-linecap="round"/></g></g></svg>