<svg version="1.1" xmlns="http://www.w3.org/2000/svg" xmlns:xlink="http://www.w3.org/1999/xlink" width="69.00418" height="69.03468" viewBox="0,0,69.00418,69.03468"><defs><linearGradient x1="240" y1="147.21741" x2="240" y2="212.78259" gradientUnits="userSpaceOnUse" id="color-1"><stop offset="0" stop-color="#d6bcbc"/><stop offset="1" stop-color="#1a1616"/></linearGradient></defs><g transform="translate(-205.49791,-145.46741)"><g stroke="#000000" stroke-miterlimit="10"><path d="M238.59927,147.24791c18.08849,-0.7736 33.37922,13.26289 34.15282,31.35136c0.7736,18.08849 -13.26289,33.37922 -31.35136,34.15282c-18.08849,0.7736 -33.37922,-13.26289 -34.15282,-31.35136c-0.7736,-18.08849 13.26289,-33.37922 31.35136,-34.15282z" fill="url(#color-1)" stroke-width="3.5" stroke-linecap="butt"/><path d="M244.84981,161.83399c3.18385,-0.13617 5.98407,4.87862 6.25446,11.20085c0.27039,6.32222 -2.09144,11.55778 -5.2753,11.69395c-3.18385,0.13617 -5.98407,-4.87862 -6.25446,-11.20085c-0.27039,-6.32222 2.09144,-11.55778 5.2753,-11.69395z" fill="#d60000" stroke-width="1.5" stroke-linecap="butt"/><path d="M224.71211,163.14294c3.18386,-0.13617 5.98406,4.87863 6.25445,11.20085c0.27039,6.32222 -2.09144,11.55778 -5.27529,11.69395c-3.18386,0.13617 -5.98407,-4.87862 -6.25446,-11.20085c-0.27039,-6.32222 2.09144,-11.55778 5.2753,-11.69395z" fill="#d60000" stroke-width="1.5" stroke-linecap="butt"/><path d="M218.4375,159.25l12.25,7.5" fill="none" stroke-width="2.5" stroke-linecap="round"/><path d="M247.1875,158.875l-9.125,7.875" fill="none" stroke-width="2.5" stroke-linecap="round"/></g></g></svg>