<svg version="1.1" xmlns="http://www.w3.org/2000/svg" xmlns:xlink="http://www.w3.org/1999/xlink" width="77.93297" height="102.18852" viewBox="0,0,77.93297,102.18852"><defs><linearGradient x1="202.27915" y1="167.00001" x2="277.72083" y2="167.00001" gradientUnits="userSpaceOnUse" id="color-1"><stop offset="0" stop-color="#fcf2ff"/><stop offset="1" stop-color="#ffffff"/></linearGradient></defs><g transform="translate(-201.03354,-115.90891)"><g data-paper-data="{&quot;isPaintingLayer&quot;:true}" fill-rule="nonzero" stroke="#000000" stroke-width="2.5" stroke-linejoin="miter" stroke-miterlimit="10" stroke-dasharray="" stroke-dashoffset="0" style="mix-blend-mode: normal"><path d="M240.56837,216.84109c-20.83024,0.4347 -37.97094,-21.52752 -38.28483,-49.05401c-0.31389,-27.52647 16.3179,-50.19349 37.14814,-50.62817c20.83024,-0.4347 37.97094,21.52752 38.28483,49.05401c0.31389,27.52647 -16.3179,50.19349 -37.14814,50.62817z" fill="url(#color-1)" stroke-linecap="butt"/><path d="M231.16651,178.76168v-32.91828" fill="none" stroke-linecap="round"/><path d="M248.72211,147.04583l-0.33333,30.5133" fill="none" stroke-linecap="round"/><path d="M254.25705,190.65716c0,0 -21.59373,0.9209 -26.92722,0.87279c-2.55504,-0.02304 -5.66858,-3.06388 -5.66858,-3.06388" fill="none" stroke-linecap="round"/><path d="M226.52028,146.0136c0,0 2.79331,-2.66035 4.32304,-2.4804c1.57341,0.18509 4.99006,3.57594 4.99006,3.57594" fill="none" stroke-linecap="round"/><path d="M244.06557,147.74264c0,0 2.79331,-2.66035 4.32304,-2.4804c1.57341,0.18509 4.99006,3.57594 4.99006,3.57594" fill="none" stroke-linecap="round"/></g></g></svg>