<svg version="1.1" xmlns="http://www.w3.org/2000/svg" xmlns:xlink="http://www.w3.org/1999/xlink" width="136.45937" height="69.06406" viewBox="0,0,136.45937,69.06406"><defs><linearGradient x1="207.21799" y1="180.00002" x2="272.78202" y2="180.00002" gradientUnits="userSpaceOnUse" id="color-1"><stop offset="0" stop-color="#d6bcbc"/><stop offset="1" stop-color="#b69999"/></linearGradient><linearGradient x1="237.5895" y1="189.11154" x2="257.12598" y2="189.11154" gradientUnits="userSpaceOnUse" id="color-2"><stop offset="0" stop-color="#d6171a"/><stop offset="1" stop-color="#ad17d6"/></linearGradient><linearGradient x1="241.07435" y1="163.90001" x2="256.33745" y2="163.90001" gradientUnits="userSpaceOnUse" id="color-3"><stop offset="0" stop-color="#d6171a"/><stop offset="1" stop-color="#ad17d6"/></linearGradient><linearGradient x1="288.28099" y1="179.58742" x2="324.84483" y2="179.58742" gradientUnits="userSpaceOnUse" id="color-4"><stop offset="0" stop-color="#000000"/><stop offset="1" stop-color="#3c3c3c"/></linearGradient></defs><g transform="translate(-205.46798,-145.46798)"><g stroke-miterlimit="10"><path d="M207.21799,180.00002c0,-18.10502 14.67702,-32.78203 32.78203,-32.78203c18.10502,0 32.78203,14.67702 32.78203,32.78203c0,18.10502 -14.67702,32.78203 -32.78203,32.78203c-18.10502,0 -32.78203,-14.67702 -32.78203,-32.78203z" fill="url(#color-1)" stroke="#000000" stroke-width="3.5" stroke-linecap="butt"/><path d="M237.5895,194.90709l11.78401,-16.25767l3.02988,6.83679l4.72259,14.08747" fill="none" stroke="url(#color-2)" stroke-width="3" stroke-linecap="round"/><path d="M256.33745,155.72632l-3.68957,11.00602l-2.36713,5.34133l-9.20641,-12.70151" fill="none" stroke="url(#color-3)" stroke-width="3" stroke-linecap="round"/><path d="M288.28099,187.27973v-15.38462h36.56384v15.38462z" fill="url(#color-4)" stroke="#000000" stroke-width="3.5" stroke-linecap="butt"/><path d="M325.12393,181.12588v-3.84615h15.05342v3.84615z" fill="#000000" stroke="#000000" stroke-width="3.5" stroke-linecap="butt"/><path d="M313.66952,173.23086c-7.59682,0.73771 -14.56108,-3.45406 -15.5551,-9.36257c-0.99403,-5.9085 4.3586,-11.29633 11.95542,-12.03404c7.59682,-0.73771 14.56107,3.45405 15.55509,9.36256c0.75079,4.4627 -2.11905,8.62836 -6.84185,10.71768c-1.53007,0.67688 -3.25462,1.13584 -5.11356,1.31636z" fill="#d2b8b8" stroke="#000000" stroke-width="2.5" stroke-linecap="butt"/><path d="M297.96821,208.87234c-5.76169,0.8117 -11.10609,-3.31183 -11.93704,-9.21017c-0.83095,-5.89833 3.16621,-11.33789 8.9279,-12.14959c5.76169,-0.8117 11.10608,3.31183 11.93703,9.21017c0.83095,5.89833 -3.1662,11.33789 -8.92789,12.14959z" fill="#d2b8b8" stroke="#000000" stroke-width="2.5" stroke-linecap="butt"/></g></g></svg>