<svg version="1.1" xmlns="http://www.w3.org/2000/svg" xmlns:xlink="http://www.w3.org/1999/xlink" width="76.4137" height="89.31907" viewBox="0,0,76.4137,89.31907"><defs><linearGradient x1="203.03942" y1="181.65584" x2="276.71967" y2="180.18826" gradientUnits="userSpaceOnUse" id="color-1"><stop offset="0" stop-color="#c8b55a"/><stop offset="1" stop-color="#367943"/></linearGradient></defs><g transform="translate(-201.80544,-135.34046)"><g stroke-width="2.5" stroke-miterlimit="10"><path d="M276.70368,179.62012c0.32274,9.12854 1.18928,33.66317 -3.85398,40.37215c-6.45902,8.59236 -20.21702,-1.77659 -31.63735,-1.37281c-20.33739,0.71904 -37.42084,-15.57578 -38.15691,-36.39549c-0.73608,-20.81971 15.15391,-38.28031 35.49133,-38.99934c10.20338,-0.36074 24.70669,-11.10731 31.61849,-4.48014c6.86481,6.58211 6.17165,30.50129 6.53843,40.87564z" fill="url(#color-1)" stroke="#000000" stroke-linecap="butt"/><path d="M236.95661,193.34424c5.1452,-0.10248 9.39644,3.84285 9.49542,8.81213c0.09898,4.96928 -3.99179,9.08077 -9.13698,9.18326c-5.1452,0.10248 -9.39644,-3.84285 -9.49542,-8.81213c-0.09898,-4.96928 3.99179,-9.08077 9.13698,-9.18326z" fill="#000000" stroke="#000000" stroke-linecap="butt"/><path d="M235.23421,151.73523c5.1452,-0.10248 9.39644,3.84285 9.49542,8.81213c0.09898,4.96928 -3.99179,9.08077 -9.13698,9.18326c-5.1452,0.10248 -9.39643,-3.84285 -9.49541,-8.81213c-0.09898,-4.96929 3.99179,-9.08077 9.13697,-9.18326z" fill="#000000" stroke="#000000" stroke-linecap="butt"/><path d="M238.76329,184.06802l-0.13322,-6.68855" fill="none" stroke="#000000" stroke-linecap="round"/><path d="M234.64683,201.35598l7.00705,-0.13957" fill="none" stroke="#000000" stroke-linecap="round"/><path d="M240.41159,202.83429l-7.79697,0.47393" fill="none" stroke="#ffffff" stroke-linecap="round"/><path d="M232.72004,160.60986l5.40503,-0.5856" fill="none" stroke="#ffffff" stroke-linecap="round"/></g></g></svg>