<svg version="1.1" xmlns="http://www.w3.org/2000/svg" xmlns:xlink="http://www.w3.org/1999/xlink" width="82.33284" height="87.4335" viewBox="0,0,82.33284,87.4335"><defs><linearGradient x1="206.06238" y1="180.3601" x2="279.78645" y2="179.57427" gradientUnits="userSpaceOnUse" id="color-1"><stop offset="0" stop-color="#b1aab3"/><stop offset="1" stop-color="#ffffff"/></linearGradient></defs><g transform="translate(-198.70858,-136.23106)"><g stroke="#000000" stroke-miterlimit="10"><path d="M247.91424,217.35667c-20.17128,2.69196 -38.75734,-11.86562 -41.51314,-32.51526c-2.75581,-20.64964 11.36223,-39.57175 31.53349,-42.26371c20.17128,-2.69196 38.75734,11.86562 41.51314,32.51526c2.75581,20.64964 -11.36222,39.57174 -31.53349,42.2637z" fill="url(#color-1)" stroke-width="2.5" stroke-linecap="butt"/><path d="M244.51265,137.87772c0,0 -18.78272,23.83942 -21.43892,30.1104c-1.15734,2.73233 -4.47618,6.72947 -4.47618,6.72947c0,0 7.11546,3.25484 9.69049,5.40549c4.52283,3.77745 20.46291,22.42337 20.46291,22.42337c0,0 -8.12281,-0.47645 -13.57324,1.15693c-3.27753,0.98222 -4.61788,3.76083 -5.3764,4.95647c-0.77891,1.22776 8.40136,11.82076 6.47609,13.50472c-0.68872,0.6024 -5.70148,-1.51606 -9.34865,-3.44121c-2.87727,-1.51878 -4.63055,-2.89133 -4.63055,-2.89133c0,0 -1.99791,-1.01549 -4.79349,-3.29848c-3.26255,-2.66435 -7.49642,-6.83054 -9.1472,-9.68765c-1.2206,-2.11256 -4.00661,-6.47614 -5.46835,-10.51418c-1.99873,-5.52155 -2.53737,-10.65877 -2.53737,-10.65877c0,0 -0.8291,-11.46005 1.50243,-16.70136c1.39962,-3.14631 4.20673,-11.07332 7.39116,-15.26295c1.76494,-2.32207 2.13132,-5.9501 7.21626,-8.1098c6.12254,-2.60043 27.36071,-3.86778 27.36071,-3.86778" fill="#9e7509" stroke-width="3" stroke-linecap="round"/><path d="M239.38683,184.73316l18.93918,-0.43575" fill="none" stroke-width="3" stroke-linecap="round"/><path d="M257.56217,167.89865l-18.47897,-0.27078" fill="none" stroke-width="3" stroke-linecap="round"/><path d="M267.1569,165.29243c0,0 0.04041,19.1327 0.04988,23.61706c0.00378,1.78587 -3.25848,4.48208 -3.25848,4.48208" fill="none" stroke-width="3" stroke-linecap="round"/></g></g></svg>