<svg version="1.1" xmlns="http://www.w3.org/2000/svg" xmlns:xlink="http://www.w3.org/1999/xlink" width="398.8217" height="202.85679" viewBox="0,0,398.8217,202.85679"><defs><linearGradient x1="345.63482" y1="200.60506" x2="345.63482" y2="221.85506" gradientUnits="userSpaceOnUse" id="color-1"><stop offset="0" stop-color="#1d122f"/><stop offset="1" stop-color="#62e3ff"/></linearGradient><linearGradient x1="345.63482" y1="200.60506" x2="345.63482" y2="221.85506" gradientUnits="userSpaceOnUse" id="color-2"><stop offset="0" stop-color="#000000"/><stop offset="1" stop-color="#e60000"/></linearGradient><linearGradient x1="381.5073" y1="118.59152" x2="381.5073" y2="144.69903" gradientUnits="userSpaceOnUse" id="color-3"><stop offset="0" stop-color="#ffffff"/><stop offset="1" stop-color="#1a1a1a"/></linearGradient><linearGradient x1="314.4323" y1="117.79151" x2="314.4323" y2="143.89902" gradientUnits="userSpaceOnUse" id="color-4"><stop offset="0" stop-color="#ffffff"/><stop offset="1" stop-color="#1a1a1a"/></linearGradient><linearGradient x1="345.8757" y1="120.78322" x2="345.8757" y2="194.51148" gradientUnits="userSpaceOnUse" id="color-5"><stop offset="0" stop-color="#b1aab3"/><stop offset="1" stop-color="#ffffff"/></linearGradient><linearGradient x1="184.38903" y1="130.21111" x2="184.38903" y2="156.31862" gradientUnits="userSpaceOnUse" id="color-6"><stop offset="0" stop-color="#ffffff"/><stop offset="1" stop-color="#1a1a1a"/></linearGradient><linearGradient x1="117.31403" y1="129.4111" x2="117.31403" y2="155.51861" gradientUnits="userSpaceOnUse" id="color-7"><stop offset="0" stop-color="#ffffff"/><stop offset="1" stop-color="#1a1a1a"/></linearGradient><linearGradient x1="150.58686" y1="133.72994" x2="150.58686" y2="207.45821" gradientUnits="userSpaceOnUse" id="color-8"><stop offset="0" stop-color="#2e2d2f"/><stop offset="1" stop-color="#dbdbdb"/></linearGradient><linearGradient x1="211.1837" y1="170.89281" x2="211.1837" y2="197.35925" gradientUnits="userSpaceOnUse" id="color-9"><stop offset="0" stop-color="#2e2d2f"/><stop offset="1" stop-color="#dbdbdb"/></linearGradient><linearGradient x1="92.40275" y1="173.64224" x2="92.40275" y2="200.10869" gradientUnits="userSpaceOnUse" id="color-10"><stop offset="0" stop-color="#2e2d2f"/><stop offset="1" stop-color="#dbdbdb"/></linearGradient><linearGradient x1="151.61122" y1="194.01914" x2="151.61122" y2="235.35248" gradientUnits="userSpaceOnUse" id="color-11"><stop offset="0" stop-color="#2c5623"/><stop offset="1" stop-color="#ffc668"/></linearGradient><linearGradient x1="151.92551" y1="205.91915" x2="151.92551" y2="226.7763" gradientUnits="userSpaceOnUse" id="color-12"><stop offset="0" stop-color="#9e7509"/><stop offset="1" stop-color="#099e65"/></linearGradient></defs><g transform="translate(-41.36122,-113.46117)"><g stroke-miterlimit="10"><path d="M350.18482,205.35506v-12.25" fill="none" stroke="#000000" stroke-width="1.5" stroke-linecap="round"/><path d="M340.43482,204.35506v-11.5" fill="none" stroke="#000000" stroke-width="1.5" stroke-linecap="round"/><path d="M334.63482,221.85506v-21.25h22v21.25z" fill="url(#color-1)" stroke="url(#color-2)" stroke-width="1.5" stroke-linecap="butt"/><path d="M343.85982,209.99256c0,-0.9665 0.7835,-1.75 1.75,-1.75c0.9665,0 1.75,0.7835 1.75,1.75c0,0.9665 -0.7835,1.75 -1.75,1.75c-0.9665,0 -1.75,-0.7835 -1.75,-1.75z" fill="#000000" stroke="none" stroke-width="0.5" stroke-linecap="butt"/><path d="M345.73482,211.49256l0.125,3.625" fill="none" stroke="#000000" stroke-width="1.5" stroke-linecap="round"/><path d="M369.75569,135.86264l22.89428,-17.27113c0,0 1.5153,8.89828 -0.23483,12.56792c-0.5748,1.20523 -0.78708,2.95607 -2.06316,4.47168c-3.75388,4.45847 -10.15328,9.06793 -10.15328,9.06793" fill="url(#color-3)" stroke="#000000" stroke-width="2.5" stroke-linecap="round"/><path d="M315.7409,143.89902c0,0 -6.02162,-3.61154 -9.70293,-7.7658c-1.65484,-1.86745 -1.81088,-4.30053 -2.51351,-5.7738c-1.75013,-3.66963 -0.23483,-12.56791 -0.23483,-12.56791l22.89428,17.27113" fill="url(#color-4)" stroke="#000000" stroke-width="2.5" stroke-linecap="round"/><path d="M308.43516,162.23837c-2.47681,-20.19883 12.27804,-38.62867 32.95588,-41.16422c20.67784,-2.53556 39.4484,11.78336 41.92521,31.98217c2.47681,20.19883 -12.27804,38.62867 -32.95588,41.16422c-20.67784,2.53556 -39.44839,-11.78335 -41.9252,-31.98217z" fill="url(#color-5)" stroke="#000000" stroke-width="2.5" stroke-linecap="butt"/><path d="M387.94585,159.68411c0,0 -23.63787,-19.03575 -29.88018,-21.75864c-2.71984,-1.1864 -6.68138,-4.54765 -6.68138,-4.54765c0,0 -3.3305,7.08036 -5.50847,9.63232c-3.82544,4.48231 -22.6402,20.22275 -22.6402,20.22275c0,0 0.563,-8.11727 -1.01219,-13.5848c-0.94723,-3.28781 -3.7114,-4.6577 -4.89888,-5.42892c-1.21939,-0.79195 -11.90963,8.27489 -13.57298,6.33178c-0.59503,-0.6951 1.57674,-5.685 3.54066,-9.31144c1.54936,-2.86092 2.94052,-4.59947 2.94052,-4.59947c0,0 1.03673,-1.98697 3.34938,-4.75806c2.69897,-3.23397 6.91005,-7.42319 9.7846,-9.04342c2.12545,-1.19801 6.51848,-3.93736 10.57187,-5.35597c5.54254,-1.93976 10.68521,-2.42362 10.68521,-2.42362c0,0 11.46824,-0.70691 16.6844,1.68036c3.13121,1.43308 11.02785,4.32452 15.1833,7.55342c2.30313,1.78959 5.92705,2.19462 8.03242,7.30229c2.53502,6.14991 3.57593,27.40038 3.57593,27.40038" fill="#9e7509" stroke="#000000" stroke-width="3" stroke-linecap="round"/><path d="M343.21555,165.4242l-0.23386,-18.94275" fill="none" stroke="#000000" stroke-width="3" stroke-linecap="round"/><path d="M360.05355,165.4242l0.46772,-18.47503" fill="none" stroke="#000000" stroke-width="3" stroke-linecap="round"/><path d="M348.12663,147.88462l-8.419,-7.01584" fill="none" stroke="#000000" stroke-width="3" stroke-linecap="round"/><path d="M368.23869,139.69947l-10.75761,7.95128" fill="none" stroke="#000000" stroke-width="3" stroke-linecap="round"/><path d="M331.52249,179.68973c0,0 2.66128,-3.29081 4.44709,-3.30607c4.48421,-0.03833 23.61625,-0.20185 23.61625,-0.20185" fill="none" stroke="#000000" stroke-width="3" stroke-linecap="round"/><path d="M172.63742,147.48223l22.89428,-17.27113c0,0 1.5153,8.89828 -0.23483,12.56792c-0.5748,1.20523 -0.78708,2.95607 -2.06316,4.47168c-3.75388,4.45847 -10.15328,9.06793 -10.15328,9.06793" fill="url(#color-6)" stroke="#000000" stroke-width="2.5" stroke-linecap="round"/><path d="M118.62263,155.51861c0,0 -6.02162,-3.61154 -9.70293,-7.7658c-1.65484,-1.86745 -1.81088,-4.30053 -2.51351,-5.7738c-1.75013,-3.66963 -0.23483,-12.56791 -0.23483,-12.56791l22.89428,17.27113" fill="url(#color-7)" stroke="#000000" stroke-width="2.5" stroke-linecap="round"/><path d="M113.14632,175.1851c-2.47681,-20.19883 12.27804,-38.62867 32.95588,-41.16422c20.67784,-2.53556 39.4484,11.78336 41.92521,31.98217c2.47681,20.19883 -12.27804,38.62867 -32.95588,41.16422c-20.67784,2.53556 -39.44839,-11.78335 -41.9252,-31.98217z" fill="url(#color-8)" stroke="#000000" stroke-width="2.5" stroke-linecap="butt"/><path d="M167.42409,189.34001c0,0 -3.82618,2.02878 -6.6153,1.74946c-5.27881,-0.52864 -22.90455,-2.29372 -22.90455,-2.29372" fill-opacity="0.21961" fill="#0046ff" stroke="#000000" stroke-width="2.5" stroke-linecap="round"/><path d="M160.34415,156.41327v22.05292" fill-opacity="0.21961" fill="#0046ff" stroke="#000000" stroke-width="2.5" stroke-linecap="round"/><path d="M142.17732,177.71963l-0.27777,-20.1106" fill-opacity="0.21961" fill="#0046ff" stroke="#000000" stroke-width="2.5" stroke-linecap="round"/><path d="M145.73648,160.04089l-7.28571,-8.10084l-1.85715,-2.13985" fill="none" stroke="#000000" stroke-width="2.5" stroke-linecap="round"/><path d="M156.92818,158.85428l6.28572,-4.73823l3.14286,-2.2927" fill="none" stroke="#000000" stroke-width="2.5" stroke-linecap="round"/><path d="M197.74356,185.77408c-0.88911,-7.25083 4.40748,-13.86664 11.83027,-14.77684c7.42279,-0.9102 14.1609,4.22991 15.05001,11.48074c0.88911,7.25083 -4.40748,13.86664 -11.83027,14.77683c-7.42279,0.91019 -14.1609,-4.2299 -15.05001,-11.48073z" fill="url(#color-9)" stroke="#000000" stroke-width="2.5" stroke-linecap="butt"/><path d="M78.96261,188.52352c-0.88911,-7.25083 4.40748,-13.86665 11.83027,-14.77684c7.42279,-0.91019 14.1609,4.22991 15.05001,11.48073c0.88911,7.25083 -4.40748,13.86664 -11.83026,14.77684c-7.42279,0.91019 -14.1609,-4.2299 -15.05001,-11.48073z" fill="url(#color-10)" stroke="#000000" stroke-width="2.5" stroke-linecap="butt"/><path d="M42.61122,235.35248v-41.33334h218v41.33334z" fill="url(#color-11)" stroke="#000000" stroke-width="2.5" stroke-linecap="butt"/><path d="M108.35408,226.7763v-20.85714h87.14286v20.85714z" fill="url(#color-12)" stroke="#000000" stroke-width="3" stroke-linecap="butt"/><text transform="translate(116.99353,219.42109) scale(0.28315,0.28315)" font-size="40" xml:space="preserve" fill="#000000" stroke="none" stroke-width="1" stroke-linecap="butt" font-family="Marker" font-weight="normal" text-anchor="start"><tspan x="0" dy="0">The Dungeon</tspan></text><text transform="translate(61.93292,311.06796) scale(0.5,0.5)" font-size="40" xml:space="preserve" fill="#ffffff" stroke="none" stroke-width="1" stroke-linecap="butt" font-family="Pixel" font-weight="normal" text-anchor="start"><tspan x="0" dy="0">Comment 'Swaptigun!' if you see this</tspan></text></g></g></svg>