<svg version="1.1" xmlns="http://www.w3.org/2000/svg" xmlns:xlink="http://www.w3.org/1999/xlink" width="220.5" height="113.4918" viewBox="0,0,220.5,113.4918"><defs><linearGradient x1="184.4381" y1="207.89525" x2="184.4381" y2="228.89525" gradientUnits="userSpaceOnUse" id="color-1"><stop offset="0" stop-color="#ffffff"/><stop offset="1" stop-color="#a4a4a4"/></linearGradient><linearGradient x1="297.4381" y1="204.7524" x2="297.4381" y2="225.7524" gradientUnits="userSpaceOnUse" id="color-2"><stop offset="0" stop-color="#ffffff"/><stop offset="1" stop-color="#a4a4a4"/></linearGradient><linearGradient x1="240" y1="161.04691" x2="240" y2="234.77517" gradientUnits="userSpaceOnUse" id="color-3"><stop offset="0" stop-color="#b1aab3"/><stop offset="1" stop-color="#ffffff"/></linearGradient><linearGradient x1="243.2" y1="224.63333" x2="243.2" y2="265.96666" gradientUnits="userSpaceOnUse" id="color-4"><stop offset="0" stop-color="#2c5623"/><stop offset="1" stop-color="#ffc668"/></linearGradient><linearGradient x1="243.51429" y1="236.53334" x2="243.51429" y2="257.39049" gradientUnits="userSpaceOnUse" id="color-5"><stop offset="0" stop-color="#9e7509"/><stop offset="1" stop-color="#099e65"/></linearGradient></defs><g transform="translate(-132.95,-153.72486)"><g data-paper-data="{&quot;isPaintingLayer&quot;:true}" fill-rule="nonzero" stroke-linejoin="miter" stroke-miterlimit="10" stroke-dasharray="" stroke-dashoffset="0" style="mix-blend-mode: normal"><path d="M195.10477,218.39525c0,5.79899 -4.77563,10.5 -10.66666,10.5c-5.89103,0 -10.66667,-4.70101 -10.66667,-10.5c0,-5.79899 4.77564,-10.5 10.66667,-10.5c5.89103,0 10.66666,4.70101 10.66666,10.5z" fill="url(#color-1)" stroke="#000000" stroke-width="2.5" stroke-linecap="butt"/><path d="M308.10477,215.2524c0,5.79899 -4.77563,10.5 -10.66666,10.5c-5.89103,0 -10.66667,-4.70101 -10.66667,-10.5c0,-5.79899 4.77564,-10.5 10.66667,-10.5c5.89103,0 10.66666,4.70101 10.66666,10.5z" fill="url(#color-2)" stroke="#000000" stroke-width="2.5" stroke-linecap="butt"/><path d="M202.55946,202.50206c-2.47681,-20.19883 12.27804,-38.62867 32.95588,-41.16422c20.67784,-2.53556 39.4484,11.78336 41.92521,31.98217c2.47681,20.19883 -12.27804,38.62867 -32.95588,41.16422c-20.67784,2.53556 -39.44839,-11.78335 -41.9252,-31.98217z" data-paper-data="{&quot;index&quot;:null}" fill="url(#color-3)" stroke="#000000" stroke-width="2.5" stroke-linecap="butt"/><path d="M282.07015,199.9478c0,0 -23.63787,-19.03575 -29.88018,-21.75864c-2.71984,-1.1864 -6.68138,-4.54765 -6.68138,-4.54765c0,0 -3.3305,7.08036 -5.50847,9.63232c-3.82544,4.48231 -22.6402,20.22275 -22.6402,20.22275c0,0 0.563,-8.11727 -1.01219,-13.5848c-0.94723,-3.28781 -3.7114,-4.6577 -4.89888,-5.42892c-1.21939,-0.79195 -11.90963,8.27489 -13.57298,6.33178c-0.59503,-0.6951 1.57674,-5.685 3.54066,-9.31144c1.54936,-2.86092 2.94052,-4.59947 2.94052,-4.59947c0,0 1.03673,-1.98697 3.34938,-4.75806c2.69897,-3.23397 6.91005,-7.42319 9.7846,-9.04342c2.12545,-1.19801 6.51848,-3.93736 10.57187,-5.35597c5.54254,-1.93976 10.68521,-2.42362 10.68521,-2.42362c0,0 11.46824,-0.70691 16.6844,1.68036c3.13121,1.43308 11.02785,4.32452 15.1833,7.55342c2.30313,1.78959 5.92705,2.19462 8.03242,7.30229c2.53502,6.14991 3.57593,27.40038 3.57593,27.40038" fill="#9e7509" stroke="#000000" stroke-width="3" stroke-linecap="round"/><path d="M253.71013,219.95342c0,0 -19.13204,-0.16352 -23.61625,-0.20185c-1.78581,-0.01526 -4.44709,-3.30607 -4.44709,-3.30607" fill="none" stroke="#000000" stroke-width="3" stroke-linecap="round"/><path d="M134.2,265.96666v-41.33334h218v41.33334z" fill="url(#color-4)" stroke="#000000" stroke-width="2.5" stroke-linecap="butt"/><path d="M208.08571,236.81906l0.14286,-10.57143" fill="none" stroke="#000000" stroke-width="3" stroke-linecap="round"/><path d="M199.94286,257.39049v-20.85714h87.14286v20.85714z" fill="url(#color-5)" stroke="#000000" stroke-width="3" stroke-linecap="butt"/><path d="M278.51429,225.10477v10.42857" fill="none" stroke="#000000" stroke-width="3" stroke-linecap="round"/><text transform="translate(216.08572,250.03528) scale(0.28315,0.28315)" font-size="40" xml:space="preserve" fill="#000000" fill-rule="nonzero" stroke="none" stroke-width="1" stroke-linecap="butt" stroke-linejoin="miter" stroke-miterlimit="10" stroke-dasharray="" stroke-dashoffset="0" font-family="Marker" font-weight="normal" text-anchor="start" style="mix-blend-mode: normal"><tspan x="0" dy="0">The Locker</tspan></text><path d="M234.08572,204.24762l8.71429,-0.14286" fill="none" stroke="#000000" stroke-width="3" stroke-linecap="round"/><path d="M249.8,204.24762l8.71429,-0.14286" fill="none" stroke="#000000" stroke-width="3" stroke-linecap="round"/></g></g></svg>