<svg version="1.1" xmlns="http://www.w3.org/2000/svg" xmlns:xlink="http://www.w3.org/1999/xlink" width="77.65245" height="76.22826" viewBox="0,0,77.65245,76.22826"><defs><linearGradient x1="240" y1="143.13588" x2="240" y2="216.86414" gradientUnits="userSpaceOnUse" id="color-1"><stop offset="0" stop-color="#b1aab3"/><stop offset="1" stop-color="#ffffff"/></linearGradient></defs><g transform="translate(-201.0381,-141.88587)"><g data-paper-data="{&quot;isPaintingLayer&quot;:true}" fill-rule="nonzero" stroke="#000000" stroke-width="2.5" stroke-linejoin="miter" stroke-miterlimit="10" stroke-dasharray="" stroke-dashoffset="0" style="mix-blend-mode: normal"><path d="M202.55946,184.59103c-2.47681,-20.19883 12.27804,-38.62867 32.95588,-41.16422c20.67784,-2.53556 39.4484,11.78336 41.92521,31.98217c2.47681,20.19883 -12.27804,38.62867 -32.95588,41.16422c-20.67784,2.53556 -39.44839,-11.78335 -41.9252,-31.98217z" data-paper-data="{&quot;index&quot;:null}" fill="url(#color-1)" stroke-linecap="butt"/><path d="M231.1667,188.69448v-24.33333" fill="none" stroke-linecap="round"/><path d="M248.72227,165.25l-0.33333,22.55556" fill="none" stroke-linecap="round"/><path d="M225.50186,195.61688c0,0 24.32049,0.24225 28.26837,0.29834c1.12042,0.01592 0.67713,0.1129 0.67713,0.1129c0,0 -1.15811,4.64975 -5.25235,7.60506c-1.66016,1.19834 -9.98246,2.13037 -11.95965,2.0215c-1.55921,-0.08586 -4.15701,-0.69669 -7.0113,-2.65207c-4.42,-3.028 -4.75754,-7.3388 -4.75754,-7.3388" data-paper-data="{&quot;index&quot;:null}" fill="none" stroke-linecap="round"/><path d="M235.82325,164.46237l-9.31309,-0.20246" fill="none" stroke-linecap="round"/><path d="M243.73239,165.14878l9.31309,0.20246" fill="none" stroke-linecap="round"/></g></g></svg>