<svg version="1.1" xmlns="http://www.w3.org/2000/svg" xmlns:xlink="http://www.w3.org/1999/xlink" width="67.7473" height="59.64005" viewBox="0,0,67.7473,59.64005"><defs><linearGradient x1="294.53099" y1="174.58742" x2="334.59483" y2="174.58742" gradientUnits="userSpaceOnUse" id="color-1"><stop offset="0" stop-color="#4a9f9f"/><stop offset="1" stop-color="#3c3c3c"/></linearGradient><linearGradient x1="303.12461" y1="174.16217" x2="320.87461" y2="174.16217" gradientUnits="userSpaceOnUse" id="color-2"><stop offset="0" stop-color="#4a9f9f"/><stop offset="1" stop-color="#3c3c3c"/></linearGradient></defs><g transform="translate(-291.03117,-145.58425)"><g stroke="#000000" stroke-miterlimit="10"><path d="M294.53099,182.27973v-15.38462h40.06384v15.38462z" fill="url(#color-1)" stroke-width="3.5" stroke-linecap="butt"/><path d="M319.91952,168.23086c-7.59682,0.73771 -14.56108,-3.45406 -15.5551,-9.36257c-0.99403,-5.9085 4.3586,-11.29633 11.95542,-12.03404c7.59682,-0.73771 14.56107,3.45405 15.55509,9.36256c0.75079,4.4627 -2.11905,8.62836 -6.84185,10.71768c-1.53007,0.67688 -3.25462,1.13584 -5.11356,1.31636z" fill="#fcf2ff" stroke-width="2.5" stroke-linecap="butt"/><path d="M304.21821,203.87234c-5.76169,0.8117 -11.10609,-3.31183 -11.93704,-9.21017c-0.83095,-5.89833 3.16621,-11.33789 8.9279,-12.14959c5.76169,-0.8117 11.10608,3.31183 11.93703,9.21017c0.83095,5.89833 -3.1662,11.33789 -8.92789,12.14959z" fill="#fcf2ff" stroke-width="2.5" stroke-linecap="butt"/><path d="M303.12461,175.47467v-2.625h17.75v2.625z" fill="url(#color-2)" stroke-width="3.5" stroke-linecap="butt"/><path d="M327.73499,171.09378v5.97826" fill="none" stroke-width="1" stroke-linecap="round"/><path d="M329.58281,170.60465l0.16304,6.30435" fill="none" stroke-width="1" stroke-linecap="round"/><path d="M331.43064,170.11552l0.32609,6.25" fill="none" stroke-width="1" stroke-linecap="round"/><path d="M334.8002,178.86552v-8.26087h23.47826v8.26087z" fill="#000000" stroke-width="1" stroke-linecap="butt"/></g></g></svg>