<svg version="1.1" xmlns="http://www.w3.org/2000/svg" xmlns:xlink="http://www.w3.org/1999/xlink" width="77.93297" height="76.19018" viewBox="0,0,77.93297,76.19018"><defs><linearGradient x1="239.65723" y1="143.15022" x2="239.65723" y2="216.84509" gradientUnits="userSpaceOnUse" id="color-1"><stop offset="0" stop-color="#989898"/><stop offset="1" stop-color="#575757"/></linearGradient></defs><g transform="translate(-200.69075,-141.90491)"><g stroke="#000000" stroke-width="2.5" stroke-miterlimit="10"><path d="M260.25857,161.61351c0,0 4.41042,-0.49405 6.51716,-1.71732c2.81659,-1.63545 7.88662,-7.22295 7.88662,-7.22295c0,0 2.20688,2.38178 1.92198,4.68903c-0.14874,1.2045 0.03763,2.44745 -0.33414,3.59439c-0.40119,1.2377 -1.37053,2.36359 -1.78554,3.20873c-1.49801,3.05049 -7.91476,7.05064 -7.91476,7.05064" fill="#ffffff" stroke-linecap="round"/><path d="M212.00896,171.21604c0,0 -6.41676,-4.00015 -7.91476,-7.05064c-0.41502,-0.84514 -1.38436,-1.97103 -1.78554,-3.20873c-0.37178,-1.14694 -0.18541,-2.3899 -0.33414,-3.5944c-0.2849,-2.30725 1.92198,-4.68903 1.92198,-4.68903c0,0 5.07002,5.58751 7.88661,7.22295c2.10674,1.22328 6.51716,1.71732 6.51716,1.71732" fill="#ffffff" stroke-linecap="round"/><path d="M240.22558,216.8404c-20.83024,0.32133 -37.97094,-15.91323 -38.28483,-36.26093c-0.31389,-20.34768 16.3179,-37.10324 37.14814,-37.42456c20.83024,-0.32133 37.97094,15.91323 38.28483,36.26093c0.31389,20.34768 -16.3179,37.10324 -37.14814,37.42456z" fill="url(#color-1)" stroke-linecap="butt"/><path d="M232.39693,163.77571l0.26834,17.84358" fill="none" stroke-linecap="round"/><path d="M247.46039,163.40164l-0.17107,18.28536" fill="none" stroke-linecap="round"/><path d="M227.03044,160.97735l11.03646,5.53977" fill="none" stroke-linecap="round"/><path d="M242.69474,166.16876l8.87214,-6.21185" fill="none" stroke-linecap="round"/><path d="M230.4205,190.79787c0,0 6.72566,-1.73861 10.08467,-1.76708c3.24585,-0.02751 9.74156,1.59906 9.74156,1.59906" fill="none" stroke-linecap="round"/></g></g></svg>