<svg version="1.1" xmlns="http://www.w3.org/2000/svg" xmlns:xlink="http://www.w3.org/1999/xlink" width="93.29576" height="78.41855" viewBox="0,0,93.29576,78.41855"><defs><linearGradient x1="203.11266" y1="179.03795" x2="276.79377" y2="180.46204" gradientUnits="userSpaceOnUse" id="color-1"><stop offset="0" stop-color="#ffe8e8"/><stop offset="1" stop-color="#00dede"/></linearGradient><linearGradient x1="190.32267" y1="156.00029" x2="222.33423" y2="156.619" gradientUnits="userSpaceOnUse" id="color-2"><stop offset="0" stop-color="#ffffff"/><stop offset="1" stop-color="#00dede"/></linearGradient><linearGradient x1="188.73879" y1="201.66748" x2="221.68498" y2="202.30426" gradientUnits="userSpaceOnUse" id="color-3"><stop offset="0" stop-color="#ffffff"/><stop offset="1" stop-color="#00dede"/></linearGradient></defs><g transform="translate(-185.0061,-140.52965)"><g stroke="#000000" stroke-miterlimit="10"><path d="M238.64267,217.4482c-20.33783,-0.70703 -36.23813,-18.15825 -35.51434,-38.97839c0.72379,-20.82014 17.79761,-37.12504 38.13543,-36.41801c20.33783,0.70703 36.23813,18.15825 35.51434,38.97839c-0.72379,20.82014 -17.79761,37.12504 -38.13543,36.41801z" fill="url(#color-1)" stroke-width="3" stroke-linecap="butt"/><path d="M219.34271,170.75025c0,0 12.11506,0.0004 16.03213,0.07611c4.17595,0.08071 7.68795,0.39864 7.68795,0.39864" fill="none" stroke-width="2.5" stroke-linecap="round"/><path d="M218.95303,188.5353c0,0 12.64912,-0.32743 16.31254,-0.31077c3.84686,0.01749 8.08025,-0.01866 8.08025,-0.01866" fill="none" stroke-width="2.5" stroke-linecap="round"/><path d="M210.03257,164.21181l-19.60829,-13.46889l32.06124,-1.95156" fill="url(#color-2)" stroke-width="2.5" stroke-linecap="round"/><path d="M221.50886,211.41704l-32.81071,-7.64661l21.94725,-10.79572" fill="url(#color-3)" stroke-width="2.5" stroke-linecap="round"/><path d="M257.48937,162.20717c3.48428,0.06734 6.15821,7.91564 5.97239,17.52967c-0.18582,9.61403 -3.16103,17.35316 -6.64529,17.28581c-3.48428,-0.06734 -6.15822,-7.91565 -5.9724,-17.52968c0.18582,-9.61403 3.16102,-17.35315 6.6453,-17.2858z" fill="none" stroke-width="2.5" stroke-linecap="butt"/><path d="M253.70112,164.70519l-1.99004,-5.88217" fill="none" stroke-width="2.5" stroke-linecap="round"/><path d="M256.79291,161.95997l0.10387,-5.37421" fill="none" stroke-width="2.5" stroke-linecap="round"/><path d="M263.62778,159.05333l-2.88973,4.38537" fill="none" stroke-width="2.5" stroke-linecap="round"/><path d="M260.93656,201.54351l-0.57454,-6.55606" fill="none" stroke-width="2.5" stroke-linecap="round"/><path d="M257.26121,198.2l-1.71241,3.94063" fill="none" stroke-width="2.5" stroke-linecap="round"/><path d="M254.03964,195.56651l-2.44952,5.79636" fill="none" stroke-width="2.5" stroke-linecap="round"/><path d="M253.9065,178.26655l1.82413,2.37273l-2.13456,1.59499z" fill="none" stroke-width="2.5" stroke-linecap="round"/><path d="M268.83941,167.56901c0,0 1.61212,13.72148 1.61502,18.03732c0.0019,2.82322 -1.59931,5.33782 -1.59931,5.33782" fill="none" stroke-width="2.5" stroke-linecap="round"/></g></g></svg>