<svg version="1.1" xmlns="http://www.w3.org/2000/svg" xmlns:xlink="http://www.w3.org/1999/xlink" width="76.69583" height="78.42995" viewBox="0,0,76.69583,78.42995"><defs><linearGradient x1="203.15421" y1="179.65116" x2="276.84577" y2="180.34883" gradientUnits="userSpaceOnUse" id="color-1"><stop offset="0" stop-color="#b1b1b1"/><stop offset="1" stop-color="#fff2f2"/></linearGradient></defs><g transform="translate(-201.65208,-140.77934)"><g stroke="#000000" stroke-miterlimit="10"><path d="M239.06115,217.70929c-20.34382,-0.50651 -36.41538,-17.80013 -35.89686,-38.6264c0.51851,-20.82626 17.43077,-37.29868 37.77457,-36.79217c20.34382,0.50651 36.41538,17.80013 35.89686,38.6264c-0.51851,20.82626 -17.43077,37.29868 -37.77457,36.79217z" fill="url(#color-1)" stroke-width="3" stroke-linecap="butt"/><path d="M224.44525,171.01884c0,0 6.971,0.066 10.88862,0.10309c4.17654,0.03954 7.69151,0.32283 7.69151,0.32283" fill="none" stroke-width="2.5" stroke-linecap="round"/><path d="M243.4758,188.42201c0,0 -4.23283,0.07788 -8.07967,0.09831c-3.66341,0.01946 -10.22821,0.0617 -10.22821,0.0617" fill="none" stroke-width="2.5" stroke-linecap="round"/><path d="M255.69654,172.5232c3.52065,0.03333 6.34293,3.41807 6.30371,7.56002c-0.03921,4.14194 -2.92507,7.47264 -6.44572,7.43931c-2.81662,-0.02667 -5.18625,-2.19839 -6.00125,-5.18679c-0.20372,-0.74696 -0.31031,-1.54497 -0.30247,-2.37323c0.03921,-4.14194 2.92507,-7.47264 6.44572,-7.43931z" fill="none" stroke-width="2.5" stroke-linecap="butt"/></g></g></svg>