<svg version="1.1" xmlns="http://www.w3.org/2000/svg" xmlns:xlink="http://www.w3.org/1999/xlink" width="77.93297" height="118.18751" viewBox="0,0,77.93297,118.18751"><defs><linearGradient x1="202.27915" y1="66.00001" x2="277.72083" y2="66.00001" gradientUnits="userSpaceOnUse" id="color-1"><stop offset="0" stop-color="#fcf2ff"/><stop offset="1" stop-color="#ffffff"/></linearGradient></defs><g transform="translate(-201.03352,-6.90993)"><g data-paper-data="{&quot;isPaintingLayer&quot;:true}" fill-rule="nonzero" stroke="#000000" stroke-width="2.5" stroke-linejoin="miter" stroke-miterlimit="10" stroke-dasharray="" stroke-dashoffset="0" style="mix-blend-mode: normal"><path d="M240.56836,123.84007c-20.83024,0.50446 -37.97094,-24.98246 -38.28483,-56.92667c-0.31389,-31.94418 16.3179,-58.24903 37.14814,-58.75347c20.83024,-0.50446 37.97094,24.98246 38.28483,56.92667c0.31389,31.94418 -16.3179,58.24903 -37.14814,58.75347z" fill="url(#color-1)" stroke-linecap="butt"/><path d="M231.16651,79.64931v-38.20132" fill="none" stroke-linecap="round"/><path d="M248.7221,42.84339l-0.33333,35.41037" fill="none" stroke-linecap="round"/><path d="M254.25705,93.45389c0,0 -21.59373,1.06869 -26.92722,1.01286c-2.55504,-0.02674 -5.66858,-3.5556 -5.66858,-3.5556" fill="none" stroke-linecap="round"/><path d="M226.52025,41.6455c0,0 2.79331,-3.08731 4.32304,-2.87848c1.57341,0.2148 4.99006,4.14984 4.99006,4.14984" fill="none" stroke-linecap="round"/><path d="M244.06554,43.65203c0,0 2.79331,-3.08731 4.32304,-2.87848c1.57341,0.2148 4.99006,4.14984 4.99006,4.14984" fill="none" stroke-linecap="round"/></g></g></svg>