<svg version="1.1" xmlns="http://www.w3.org/2000/svg" xmlns:xlink="http://www.w3.org/1999/xlink" width="76.17861" height="78.24867" viewBox="0,0,76.17861,78.24867"><defs><linearGradient x1="203.15658" y1="180.38201" x2="276.84342" y2="179.29362" gradientUnits="userSpaceOnUse" id="color-1"><stop offset="0" stop-color="#989898"/><stop offset="1" stop-color="#575757"/></linearGradient></defs><g transform="translate(-201.91967,-140.88403)"><g stroke="#000000" stroke-width="2.5" stroke-miterlimit="10"><path d="M221.3136,159.51023c0,0 -0.55913,-4.40264 -1.81338,-6.49109c-1.67687,-2.79213 -7.33864,-7.77909 -7.33864,-7.77909c0,0 2.34893,-2.24182 4.66013,-1.99102c1.20657,0.13093 2.44663,-0.07377 3.59893,0.28102c1.24349,0.38287 2.38357,1.33547 3.23475,1.73796c3.07228,1.45279 7.16676,7.80977 7.16676,7.80977" fill="#ffffff" stroke-linecap="round"/><path d="M231.62768,207.61276c0,0 -3.90495,6.47514 -6.93298,8.01803c-0.83892,0.42746 -1.95037,1.41332 -3.18201,1.83273c-1.14132,0.38868 -2.3869,0.22069 -3.58907,0.38719c-2.30279,0.31894 -4.7169,-1.85252 -4.7169,-1.85252c0,0 5.51202,-5.15199 7.10569,-7.99242c1.19203,-2.12458 1.62088,-6.54181 1.62088,-6.54181" fill="#ffffff" stroke-linecap="round"/><path d="M276.83033,178.7254c0.62893,20.82322 -15.35071,38.20182 -35.69155,38.81619c-20.34082,0.61437 -37.34019,-15.76815 -37.96911,-36.59137c-0.62893,-20.82322 15.35071,-38.20182 35.69155,-38.81619c20.34082,-0.61437 37.34019,15.76815 37.96911,36.59137z" fill="url(#color-1)" stroke-linecap="butt"/><path d="M223.88705,187.3369l17.83767,-0.53184" fill="none" stroke-linecap="round"/><path d="M223.29055,172.28061l18.28589,-0.099" fill="none" stroke-linecap="round"/><path d="M221.16825,192.74414l5.37617,-11.11707" fill="none" stroke-linecap="round"/><path d="M219.78555,168.22544l6.3422,8.77943" fill="none" stroke-linecap="round"/><path d="M250.93545,188.91403c0,0 -1.83775,-6.69925 -1.91583,-10.05747c-0.07544,-3.24509 1.45501,-9.76411 1.45501,-9.76411" fill="none" stroke-linecap="round"/></g></g></svg>