<svg version="1.1" xmlns="http://www.w3.org/2000/svg" xmlns:xlink="http://www.w3.org/1999/xlink" width="925.7415" height="567.36088" viewBox="0,0,925.7415,567.36088"><defs><linearGradient x1="259.92192" y1="10.75486" x2="259.92192" y2="209.75485" gradientUnits="userSpaceOnUse" id="color-1"><stop offset="0" stop-color="#bca9ff"/><stop offset="1" stop-color="#c1feff"/></linearGradient><linearGradient x1="296.06521" y1="103.86973" x2="296.06521" y2="353.86972" gradientUnits="userSpaceOnUse" id="color-2"><stop offset="0" stop-color="#00d6d6"/><stop offset="1" stop-color="#6c9262"/></linearGradient><linearGradient x1="168.04168" y1="107.76973" x2="168.04168" y2="151.86974" gradientUnits="userSpaceOnUse" id="color-3"><stop offset="0" stop-color="#ffffff"/><stop offset="1" stop-color="#bababa"/></linearGradient><linearGradient x1="258.97586" y1="104.4129" x2="258.97586" y2="148.21714" gradientUnits="userSpaceOnUse" id="color-4"><stop offset="0" stop-color="#ffffff"/><stop offset="1" stop-color="#b0b0b0"/></linearGradient><linearGradient x1="264.89711" y1="218.75486" x2="264.89711" y2="306.75488" gradientUnits="userSpaceOnUse" id="color-5"><stop offset="0" stop-color="#fffec9"/><stop offset="1" stop-color="#ffc9d5"/></linearGradient><linearGradient x1="257.70642" y1="198.7549" x2="257.70642" y2="225.75489" gradientUnits="userSpaceOnUse" id="color-6"><stop offset="0" stop-color="#00f3ff"/><stop offset="1" stop-color="#e1ffdc"/></linearGradient><linearGradient x1="247.29013" y1="-84.78774" x2="247.29013" y2="474.07314" gradientUnits="userSpaceOnUse" id="color-7"><stop offset="0" stop-color="#00dbff"/><stop offset="1" stop-color="#00dbff" stop-opacity="0"/></linearGradient><linearGradient x1="247.29013" y1="-84.78774" x2="247.29013" y2="474.07314" gradientUnits="userSpaceOnUse" id="color-8"><stop offset="0" stop-color="#000000"/><stop offset="1" stop-color="#e7ff6f"/></linearGradient></defs><g transform="translate(215.58062,89.03774)"><g data-paper-data="{&quot;isPaintingLayer&quot;:true}" fill-rule="nonzero" stroke-linejoin="miter" stroke-miterlimit="10" stroke-dasharray="" stroke-dashoffset="0" style="mix-blend-mode: normal"><path d="M-101.48876,209.75485v-199h722.82132v199z" fill="url(#color-1)" stroke="none" stroke-width="0" stroke-linecap="butt"/><path d="M62.06522,353.86972l46.66666,-129.62963l51.33334,-116.25515c0,0 22.71586,19.2745 32.16995,27.31751c7.33643,6.24143 19.83005,16.92118 19.83005,16.92118l45,-48.35391l273,232.51029" fill="url(#color-2)" stroke="#000000" stroke-width="3" stroke-linecap="round"/><path d="M160.54782,107.76973l29.97032,25.90628l-12.98669,16.21614l-11.98772,-7.91031l-8.99079,9.88789l-10.98772,-8.37668l12.78587,-30.38386z" fill="url(#color-3)" stroke="#2b2b2b" stroke-width="3.5" stroke-linecap="round"/><path d="M256.1889,104.4129l35.20835,28.37229l-20.95405,15.18484l-15.09101,-8.92324l-14.25791,9.17035l-14.53983,-11.89751l24.2261,-26.81753z" fill="url(#color-4)" stroke="#2b2b2b" stroke-width="3.5" stroke-linecap="round"/><path d="M-96.04282,306.75488v-88h721.87988v88z" fill="url(#color-5)" stroke="none" stroke-width="0" stroke-linecap="butt"/><path d="M-103.93471,225.75489v-27h723.28228v27z" fill="url(#color-6)" stroke="none" stroke-width="0" stroke-linecap="butt"/><path d="M-211.33062,474.07314v-558.86088h917.2415v558.86088z" fill="url(#color-7)" stroke="url(#color-8)" stroke-width="8.5" stroke-linecap="butt"/></g></g></svg>