<svg version="1.1" xmlns="http://www.w3.org/2000/svg" xmlns:xlink="http://www.w3.org/1999/xlink" width="77.65245" height="76.22826" viewBox="0,0,77.65245,76.22826"><defs><linearGradient x1="240" y1="143.13588" x2="240" y2="216.86414" gradientUnits="userSpaceOnUse" id="color-1"><stop offset="0" stop-color="#b1aab3"/><stop offset="1" stop-color="#ffffff"/></linearGradient><linearGradient x1="219.06779" y1="176.40329" x2="235.54849" y2="176.40329" gradientUnits="userSpaceOnUse" id="color-2"><stop offset="0" stop-color="#e2ff00"/><stop offset="1" stop-color="#00ffea"/></linearGradient></defs><g transform="translate(-201.0381,-141.88587)"><g data-paper-data="{&quot;isPaintingLayer&quot;:true}" fill-rule="nonzero" stroke-linejoin="miter" stroke-miterlimit="10" stroke-dasharray="" stroke-dashoffset="0" style="mix-blend-mode: normal"><path d="M202.55946,184.59103c-2.47681,-20.19883 12.27804,-38.62867 32.95588,-41.16422c20.67784,-2.53556 39.4484,11.78336 41.92521,31.98217c2.47681,20.19883 -12.27804,38.62867 -32.95588,41.16422c-20.67784,2.53556 -39.44839,-11.78335 -41.9252,-31.98217z" data-paper-data="{&quot;index&quot;:null}" fill="url(#color-1)" stroke="#000000" stroke-width="2.5" stroke-linecap="butt"/><path d="M240.56838,215.42043c-6.6406,0.10244 -14.85557,-2.26984 -20.20804,-5.10131c-4.90829,-2.5965 -9.10968,-8.22592 -11.86354,-12.23367c-3.66312,-5.33101 -5.07521,-9.59112 -5.19727,-17.5036c-0.11374,-7.37304 2.29445,-14.08286 5.75197,-19.66346c6.08434,-9.8204 16.48828,-16.13385 29.77061,-16.33874c0.79044,-0.01219 0.73329,-0.9834 0.50329,0.0776c-0.38756,1.78779 -0.70032,3.68493 -0.89062,-2.12613c0.41332,5.05648 0.42624,6.39454 0.48083,9.22024c0.02724,1.4099 0.49167,2.90562 0.17043,5.9857c-0.27928,2.67766 1.37436,36.23328 1.51208,37.33597c0.11447,0.91654 -1.02509,-9.07828 -0.19257,-8.36738c0.44192,0.37736 -0.25968,-2.86055 -0.39547,-7.46447c-0.30784,-10.4377 -0.27608,-0.61817 -0.29754,1.11227c-0.03296,2.65841 0.06183,-21.0985 -0.00485,-18.7496c-0.20686,7.28753 0.22223,12.63084 0.32536,19.31608c0.11248,7.29184 0.58647,28.24481 1.3294,35.08032c0.1872,1.72239 5.9864,-0.08357 11.2113,-1.8529c6.93153,-2.34725 14.89816,-9.04002 13.12131,-7.58884c-6.40096,5.22772 -15.93431,9.94242 -24.9235,10.08109z" fill="#00caca" stroke="#000000" stroke-width="0" stroke-linecap="butt"/><path d="M241.23149,215.6067l-2.46263,-71.60576" fill="none" stroke="#000000" stroke-width="2.5" stroke-linecap="round"/><path d="M235.54849,176.40329c0,10.61965 -3.68931,15.99204 -8.24033,15.99204c-4.55102,0 -8.24036,-5.37238 -8.24036,-15.99204c0,-10.61964 3.12103,-16.48996 7.67206,-16.48996c4.55102,0 8.80863,5.87032 8.80863,16.48996z" fill="url(#color-2)" stroke="#000000" stroke-width="1.5" stroke-linecap="butt"/><path d="M234.29849,212.76519c0,-0.69036 0.55964,-1.25 1.25,-1.25c0.69036,0 1.25,0.55964 1.25,1.25c0,0.69036 -0.55964,1.25 -1.25,1.25c-0.69036,0 -1.25,-0.55964 -1.25,-1.25z" fill="#000000" stroke="none" stroke-width="0.5" stroke-linecap="butt"/><path d="M230.88868,212.1969c0,-0.69036 0.55964,-1.25 1.25,-1.25c0.69036,0 1.25,0.55964 1.25,1.25c0,0.69036 -0.55964,1.25 -1.25,1.25c-0.69036,0 -1.25,-0.55964 -1.25,-1.25z" fill="#000000" stroke="none" stroke-width="0.5" stroke-linecap="butt"/><path d="M227.85776,211.24975c0,-0.69036 0.55964,-1.25 1.25,-1.25c0.69036,0 1.25,0.55964 1.25,1.25c0,0.69036 -0.55964,1.25 -1.25,1.25c-0.69036,0 -1.25,-0.55964 -1.25,-1.25z" fill="#000000" stroke="none" stroke-width="0.5" stroke-linecap="butt"/><path d="M221.7959,207.83995c0,-0.69036 0.55964,-1.25 1.25,-1.25c0.69036,0 1.25,0.55964 1.25,1.25c0,0.69036 -0.55964,1.25 -1.25,1.25c-0.69036,0 -1.25,-0.55964 -1.25,-1.25z" fill="#000000" stroke="none" stroke-width="0.5" stroke-linecap="butt"/><path d="M217.43892,205.18788c0,-0.69036 0.55964,-1.25 1.25,-1.25c0.69036,0 1.25,0.55964 1.25,1.25c0,0.69036 -0.55964,1.25 -1.25,1.25c-0.69036,0 -1.25,-0.55964 -1.25,-1.25z" fill="#000000" stroke="none" stroke-width="0.5" stroke-linecap="butt"/><path d="M213.46084,201.02035c0,-0.69036 0.55964,-1.25 1.25,-1.25c0.69036,0 1.25,0.55964 1.25,1.25c0,0.69036 -0.55964,1.25 -1.25,1.25c-0.69036,0 -1.25,-0.55964 -1.25,-1.25z" fill="#000000" stroke="none" stroke-width="0.5" stroke-linecap="butt"/><path d="M206.07294,192.30641c0,-0.69036 0.55964,-1.25 1.25,-1.25c0.69036,0 1.25,0.55964 1.25,1.25c0,0.69036 -0.55964,1.25 -1.25,1.25c-0.69036,0 -1.25,-0.55964 -1.25,-1.25z" fill="#000000" stroke="none" stroke-width="0.5" stroke-linecap="butt"/><path d="M203.79974,184.35023c0,-0.69036 0.55964,-1.25 1.25,-1.25c0.69036,0 1.25,0.55964 1.25,1.25c0,0.69036 -0.55964,1.25 -1.25,1.25c-0.69036,0 -1.25,-0.55964 -1.25,-1.25z" fill="#000000" stroke="none" stroke-width="0.5" stroke-linecap="butt"/><path d="M204.17861,174.49969c0,-0.69036 0.55964,-1.25 1.25,-1.25c0.69036,0 1.25,0.55964 1.25,1.25c0,0.69036 -0.55964,1.25 -1.25,1.25c-0.69036,0 -1.25,-0.55964 -1.25,-1.25z" fill="#000000" stroke="none" stroke-width="0.5" stroke-linecap="butt"/><path d="M206.26237,165.78573c0,-0.69036 0.55964,-1.25 1.25,-1.25c0.69036,0 1.25,0.55964 1.25,1.25c0,0.69036 -0.55964,1.25 -1.25,1.25c-0.69036,0 -1.25,-0.55964 -1.25,-1.25z" fill="#000000" stroke="none" stroke-width="0.5" stroke-linecap="butt"/><path d="M210.05104,160.48162c0,-0.69036 0.55964,-1.25 1.25,-1.25c0.69036,0 1.25,0.55964 1.25,1.25c0,0.69036 -0.55964,1.25 -1.25,1.25c-0.69036,0 -1.25,-0.55964 -1.25,-1.25z" fill="#000000" stroke="none" stroke-width="0.5" stroke-linecap="butt"/><path d="M214.59744,155.36693c0,-0.69036 0.55964,-1.25 1.25,-1.25c0.69036,0 1.25,0.55964 1.25,1.25c0,0.69036 -0.55964,1.25 -1.25,1.25c-0.69036,0 -1.25,-0.55964 -1.25,-1.25z" fill="#000000" stroke="none" stroke-width="0.5" stroke-linecap="butt"/><path d="M220.46987,150.82053c0,-0.69036 0.55964,-1.25 1.25,-1.25c0.69036,0 1.25,0.55964 1.25,1.25c0,0.69036 -0.55964,1.25 -1.25,1.25c-0.69036,0 -1.25,-0.55964 -1.25,-1.25z" fill="#000000" stroke="none" stroke-width="0.5" stroke-linecap="butt"/><path d="M226.72115,147.78958c0,-0.69036 0.55964,-1.25 1.25,-1.25c0.69036,0 1.25,0.55964 1.25,1.25c0,0.69036 -0.55964,1.25 -1.25,1.25c-0.69036,0 -1.25,-0.55964 -1.25,-1.25z" fill="#000000" stroke="none" stroke-width="0.5" stroke-linecap="butt"/><path d="M234.29849,145.89524c0,-0.69036 0.55964,-1.25 1.25,-1.25c0.69036,0 1.25,0.55964 1.25,1.25c0,0.69036 -0.55964,1.25 -1.25,1.25c-0.69036,0 -1.25,-0.55964 -1.25,-1.25z" fill="#000000" stroke="none" stroke-width="0.5" stroke-linecap="butt"/><path d="M252.6875,164.375l0.75,25.25" fill="none" stroke="#000000" stroke-width="2.5" stroke-linecap="round"/><path d="M230.3125,203.00001l25.5,-1.125" fill="none" stroke="#000000" stroke-width="2.5" stroke-linecap="round"/></g></g></svg>