<svg version="1.1" xmlns="http://www.w3.org/2000/svg" xmlns:xlink="http://www.w3.org/1999/xlink" width="474.618" height="454.3252" viewBox="0,0,474.618,454.3252"><defs><linearGradient x1="281.54514" y1="172.6053" x2="281.54514" y2="198.64697" gradientUnits="userSpaceOnUse" id="color-1"><stop offset="0" stop-color="#ff0013"/><stop offset="1" stop-color="#ff0034"/></linearGradient><linearGradient x1="199.1493" y1="172.49313" x2="199.1493" y2="198.5348" gradientUnits="userSpaceOnUse" id="color-2"><stop offset="0" stop-color="#ff0013"/><stop offset="1" stop-color="#ff0034"/></linearGradient><linearGradient x1="203.42652" y1="183.83327" x2="278.86822" y2="183.83327" gradientUnits="userSpaceOnUse" id="color-3"><stop offset="0" stop-color="#fcf2ff"/><stop offset="1" stop-color="#ffffff"/></linearGradient><linearGradient x1="447.89378" y1="147.10699" x2="447.89378" y2="173.14866" gradientUnits="userSpaceOnUse" id="color-4"><stop offset="0" stop-color="#ff0013"/><stop offset="1" stop-color="#ff0034"/></linearGradient><linearGradient x1="365.49794" y1="146.89866" x2="365.49794" y2="172.94033" gradientUnits="userSpaceOnUse" id="color-5"><stop offset="0" stop-color="#ff0013"/><stop offset="1" stop-color="#ff0034"/></linearGradient><linearGradient x1="369.77516" y1="158.2388" x2="445.21686" y2="158.2388" gradientUnits="userSpaceOnUse" id="color-6"><stop offset="0" stop-color="#fcf2ff"/><stop offset="1" stop-color="#ffffff"/></linearGradient><linearGradient x1="447.492" y1="47.06235" x2="447.492" y2="73.10402" gradientUnits="userSpaceOnUse" id="color-7"><stop offset="0" stop-color="#ff0013"/><stop offset="1" stop-color="#ff0034"/></linearGradient><linearGradient x1="365.09616" y1="46.85402" x2="365.09616" y2="72.89569" gradientUnits="userSpaceOnUse" id="color-8"><stop offset="0" stop-color="#ff0013"/><stop offset="1" stop-color="#ff0034"/></linearGradient><linearGradient x1="369.37337" y1="58.19416" x2="444.81508" y2="58.19416" gradientUnits="userSpaceOnUse" id="color-9"><stop offset="0" stop-color="#fcf2ff"/><stop offset="1" stop-color="#ffffff"/></linearGradient><linearGradient x1="74.27447" y1="71.7812" x2="100.30154" y2="70.90958" gradientUnits="userSpaceOnUse" id="color-10"><stop offset="0" stop-color="#ff0013"/><stop offset="1" stop-color="#ff0034"/></linearGradient><linearGradient x1="76.92019" y1="154.13463" x2="102.94727" y2="153.26301" gradientUnits="userSpaceOnUse" id="color-11"><stop offset="0" stop-color="#ff0013"/><stop offset="1" stop-color="#ff0034"/></linearGradient><linearGradient x1="88.11081" y1="149.48025" x2="85.58574" y2="74.08082" gradientUnits="userSpaceOnUse" id="color-12"><stop offset="0" stop-color="#fcf2ff"/><stop offset="1" stop-color="#ffffff"/></linearGradient><linearGradient x1="118.12804" y1="249.24822" x2="118.12804" y2="275.28989" gradientUnits="userSpaceOnUse" id="color-13"><stop offset="0" stop-color="#ff0013"/><stop offset="1" stop-color="#ff0034"/></linearGradient><linearGradient x1="35.7322" y1="249.13605" x2="35.7322" y2="275.17772" gradientUnits="userSpaceOnUse" id="color-14"><stop offset="0" stop-color="#ff0013"/><stop offset="1" stop-color="#ff0034"/></linearGradient><linearGradient x1="40.00942" y1="260.47619" x2="115.45112" y2="260.47619" gradientUnits="userSpaceOnUse" id="color-15"><stop offset="0" stop-color="#fcf2ff"/><stop offset="1" stop-color="#ffffff"/></linearGradient><linearGradient x1="395.65992" y1="293.53664" x2="395.65992" y2="319.57831" gradientUnits="userSpaceOnUse" id="color-16"><stop offset="0" stop-color="#ff0013"/><stop offset="1" stop-color="#ff0034"/></linearGradient><linearGradient x1="313.26408" y1="293.42447" x2="313.26408" y2="319.46614" gradientUnits="userSpaceOnUse" id="color-17"><stop offset="0" stop-color="#ff0013"/><stop offset="1" stop-color="#ff0034"/></linearGradient><linearGradient x1="317.5413" y1="304.76461" x2="392.983" y2="304.76461" gradientUnits="userSpaceOnUse" id="color-18"><stop offset="0" stop-color="#fcf2ff"/><stop offset="1" stop-color="#ffffff"/></linearGradient></defs><g transform="translate(-25.23915,58.32982)"><g stroke-miterlimit="10"><path d="M195.65578,179.49571l0.11364,-39.43182c0,0 19.63665,-1.01147 32.49395,-0.67665c15.67254,0.40814 54.77878,2.94938 54.77878,2.94938l1.02273,36.25" fill="none" stroke="#000000" stroke-width="3" stroke-linecap="round"/><path d="M277.17013,172.70947l11.14584,-0.10417c0,0 1.52778,8.65509 1.52778,13.01777c0,4.31741 -1.52778,13.0239 -1.52778,13.0239l-13.54167,-0.10417" fill="url(#color-1)" stroke="#000000" stroke-width="3" stroke-linecap="round"/><path d="M205.92014,198.43063l-13.54167,0.10417c0,0 -2.22222,-8.06974 -2.22222,-12.3989c0,-4.35128 2.22222,-13.64277 2.22222,-13.64277l11.14583,0.10417" fill="url(#color-2)" stroke="#000000" stroke-width="3" stroke-linecap="round"/><path d="M241.71572,220.67602c-20.83024,0.32133 -37.97094,-15.91323 -38.28483,-36.26093c-0.31389,-20.34768 16.3179,-37.10324 37.14814,-37.42456c20.83024,-0.32133 37.97094,15.91323 38.28483,36.26093c0.31389,20.34768 -16.3179,37.10324 -37.14814,37.42456z" fill="url(#color-3)" stroke="#000000" stroke-width="2.5" stroke-linecap="butt"/><path d="M199.45258,185.50429c0,0 1.00362,-21.36241 3.44783,-27.54471c2.02995,-5.13457 5.52405,-5.54174 7.74468,-7.34076c4.00659,-3.24591 11.62035,-6.15258 14.63939,-7.59321c5.0293,-2.39985 16.08671,-1.68921 16.08671,-1.68921c0,0 4.95844,0.48641 10.30243,2.43639c3.90818,1.42608 8.14384,4.17986 10.19315,5.38418c2.77158,1.62876 6.8318,5.84005 9.43409,9.09106c2.2298,2.78569 3.22939,4.78313 3.22939,4.78313c0,0 1.34133,1.74771 2.83518,4.6237c1.89357,3.64554 3.98754,8.66173 3.41382,9.36049c-1.60376,1.95334 -11.91105,-7.16126 -13.08675,-6.36513c-1.14494,0.77528 -3.81009,2.15239 -4.72339,5.45752c-1.51876,5.49633 -0.97593,13.65636 -0.97593,13.65636c0,0 -18.14076,-15.82335 -21.82916,-20.32927c-2.09995,-2.5654 -5.31114,-9.68306 -5.31114,-9.68306c0,0 -3.81962,3.37896 -6.44203,4.5716c-6.01869,2.73723 -28.80978,21.87325 -28.80978,21.87325" fill="#9e092f" stroke="#000000" stroke-width="2.5" stroke-linecap="round"/><path d="M233.8368,208.05403l24.0625,-0.83333" fill="none" stroke="#000000" stroke-width="3" stroke-linecap="round"/><path d="M229.85704,168.09521l0.00664,26.11748" fill="none" stroke="#000000" stroke-width="3" stroke-linecap="round"/><path d="M245.35561,168.21986l0.00663,26.11748" fill="none" stroke="#000000" stroke-width="3" stroke-linecap="round"/><path d="M362.00442,153.90124l0.11364,-39.43182c0,0 19.63665,-1.01147 32.49395,-0.67665c15.67254,0.40814 54.77878,2.94938 54.77878,2.94938l1.02273,36.25" fill="none" stroke="#000000" stroke-width="3" stroke-linecap="round"/><path d="M443.51877,147.21116l11.14584,-0.10417c0,0 1.52778,8.65509 1.52778,13.01777c0,4.31741 -1.52778,13.0239 -1.52778,13.0239l-13.54167,-0.10417" fill="url(#color-4)" stroke="#000000" stroke-width="3" stroke-linecap="round"/><path d="M372.26878,172.83616l-13.54167,0.10417c0,0 -2.22222,-8.06974 -2.22222,-12.3989c0,-4.35128 2.22222,-13.64277 2.22222,-13.64277l11.14583,0.10417" fill="url(#color-5)" stroke="#000000" stroke-width="3" stroke-linecap="round"/><path d="M408.06436,195.08155c-20.83024,0.32133 -37.97094,-15.91323 -38.28483,-36.26093c-0.31389,-20.34768 16.3179,-37.10324 37.14814,-37.42456c20.83024,-0.32133 37.97094,15.91323 38.28483,36.26093c0.31389,20.34768 -16.3179,37.10324 -37.14814,37.42456z" fill="url(#color-6)" stroke="#000000" stroke-width="2.5" stroke-linecap="butt"/><path d="M365.80122,159.90982c0,0 1.00362,-21.36241 3.44783,-27.54471c2.02995,-5.13457 5.52405,-5.54174 7.74468,-7.34076c4.00659,-3.24591 11.62035,-6.15258 14.63939,-7.59321c5.0293,-2.39985 16.08671,-1.68921 16.08671,-1.68921c0,0 4.95844,0.48641 10.30243,2.43639c3.90818,1.42608 8.14384,4.17986 10.19315,5.38418c2.77158,1.62876 6.8318,5.84005 9.43409,9.09106c2.2298,2.78569 3.22939,4.78313 3.22939,4.78313c0,0 1.34133,1.74771 2.83518,4.6237c1.89357,3.64554 3.98754,8.66173 3.41382,9.36049c-1.60376,1.95334 -11.91105,-7.16126 -13.08675,-6.36513c-1.14494,0.77528 -3.81009,2.15239 -4.72339,5.45752c-1.51876,5.49633 -0.97593,13.65636 -0.97593,13.65636c0,0 -18.14076,-15.82335 -21.82916,-20.32927c-2.09995,-2.5654 -5.31114,-9.68306 -5.31114,-9.68306c0,0 -3.81962,3.37896 -6.44203,4.5716c-6.01869,2.73723 -28.80978,21.87325 -28.80978,21.87325" fill="#9e092f" stroke="#000000" stroke-width="2.5" stroke-linecap="round"/><path d="M400.18544,182.45956l24.0625,-0.83333" fill="none" stroke="#000000" stroke-width="3" stroke-linecap="round"/><path d="M387.55847,168.61822l-0.00664,-26.11748" fill="none" stroke="#000000" stroke-width="3" stroke-linecap="round"/><path d="M413.41418,169.10001l-0.00663,-26.11748" fill="none" stroke="#000000" stroke-width="3" stroke-linecap="round"/><path d="M361.60264,53.8566l0.11364,-39.43182c0,0 19.63665,-1.01147 32.49395,-0.67665c15.67254,0.40814 54.77878,2.94938 54.77878,2.94938l1.02273,36.25" fill="none" stroke="#000000" stroke-width="3" stroke-linecap="round"/><path d="M443.11699,47.16652l11.14584,-0.10417c0,0 1.52778,8.65509 1.52778,13.01777c0,4.31741 -1.52778,13.0239 -1.52778,13.0239l-13.54167,-0.10417" fill="url(#color-7)" stroke="#000000" stroke-width="3" stroke-linecap="round"/><path d="M371.867,72.79152l-13.54167,0.10417c0,0 -2.22222,-8.06974 -2.22222,-12.3989c0,-4.35128 2.22222,-13.64277 2.22222,-13.64277l11.14583,0.10417" fill="url(#color-8)" stroke="#000000" stroke-width="3" stroke-linecap="round"/><path d="M407.66257,95.03691c-20.83024,0.32133 -37.97094,-15.91323 -38.28483,-36.26093c-0.31389,-20.34768 16.3179,-37.10324 37.14814,-37.42456c20.83024,-0.32133 37.97094,15.91323 38.28483,36.26093c0.31389,20.34768 -16.3179,37.10324 -37.14814,37.42456z" fill="url(#color-9)" stroke="#000000" stroke-width="2.5" stroke-linecap="butt"/><path d="M365.39944,59.86518c0,0 1.00362,-21.36241 3.44783,-27.54471c2.02995,-5.13457 5.52405,-5.54174 7.74468,-7.34076c4.00659,-3.24591 11.62035,-6.15258 14.63939,-7.59321c5.0293,-2.39985 16.08671,-1.68921 16.08671,-1.68921c0,0 4.95844,0.48641 10.30243,2.43639c3.90818,1.42608 8.14384,4.17986 10.19315,5.38418c2.77158,1.62876 6.8318,5.84005 9.43409,9.09106c2.2298,2.78569 3.22939,4.78313 3.22939,4.78313c0,0 1.34133,1.74771 2.83518,4.6237c1.89357,3.64554 3.98754,8.66173 3.41382,9.36049c-1.60376,1.95334 -11.91105,-7.16126 -13.08675,-6.36513c-1.14494,0.77528 -3.81009,2.15239 -4.72339,5.45752c-1.51876,5.49633 -0.97593,13.65636 -0.97593,13.65636c0,0 -18.14076,-15.82335 -21.82916,-20.32927c-2.09995,-2.5654 -5.31114,-9.68306 -5.31114,-9.68306c0,0 -3.81962,3.37896 -6.44203,4.5716c-6.01869,2.73723 -28.80978,21.87325 -28.80978,21.87325" fill="#9e092f" stroke="#000000" stroke-width="2.5" stroke-linecap="round"/><path d="M387.15669,68.57358l-0.00664,-26.11748" fill="none" stroke="#000000" stroke-width="3" stroke-linecap="round"/><path d="M413.01239,69.05537l-0.00663,-26.11748" fill="none" stroke="#000000" stroke-width="3" stroke-linecap="round"/><path d="M423.30106,78.14475c0,0 0.82643,3.69903 -1.13954,5.14082c-1.93607,1.41986 -4.05608,0.9291 -4.84464,0.95168c-3.38867,0.097 -7.23076,-3.15272 -9.84596,-3.07786c-3.01784,0.08639 -7.58661,3.08725 -10.91854,3.18263c-0.79763,0.02283 -3.38579,-0.9008 -4.29066,-2.22017c-0.96852,-1.41218 -0.22805,-3.22727 -0.22805,-3.22727" fill="none" stroke="#000000" stroke-width="2.5" stroke-linecap="round"/><text transform="translate(203.6829,127.56223) scale(0.5,0.5)" font-size="40" xml:space="preserve" fill="#ffffff" stroke="none" stroke-width="1" stroke-linecap="butt" font-family="Pixel" font-weight="normal" text-anchor="start"><tspan x="0" dy="0">lobby</tspan></text><path d="M84.03577,157.39182l-39.41353,1.20623c0,0 -1.66815,-19.59179 -1.76386,-32.4531c-0.11666,-15.67742 1.11425,-54.8468 1.11425,-54.8468l36.19546,-2.23546" fill="none" stroke="#000000" stroke-width="3" stroke-linecap="round"/><path d="M74.52501,76.15028l-0.47717,-11.13611c0,0 8.59911,-1.81661 12.95934,-1.96264c4.31499,-0.14451 13.06774,1.09101 13.06774,1.09101l0.34913,13.53757" fill="url(#color-10)" stroke="#000000" stroke-width="3" stroke-linecap="round"/><path d="M102.61653,146.49945l0.55736,13.5306c0,0 -7.99084,2.49107 -12.31757,2.63597c-4.34884,0.14564 -13.7095,-1.76434 -13.7095,-1.76434l-0.26894,-11.14307" fill="url(#color-11)" stroke="#000000" stroke-width="3" stroke-linecap="round"/><path d="M123.65136,109.97936c1.01835,20.80781 -14.63341,38.48229 -34.9592,39.47705c-20.32577,0.99476 -37.62862,-15.06689 -38.64696,-35.87471c-1.01835,-20.80781 14.63341,-38.48229 34.9592,-39.47705c20.32577,-0.99476 37.62862,15.06689 38.64696,35.87471z" fill="url(#color-12)" stroke="#000000" stroke-width="2.5" stroke-linecap="butt"/><path d="M89.91391,153.39603c0,0 -21.38403,-0.28805 -27.64468,-2.52396c-5.19964,-1.85696 -5.72353,-5.33547 -7.59587,-7.49464c-3.37819,-3.8957 -6.53807,-11.40791 -8.07894,-14.37704c-2.56684,-4.94616 -2.22669,-16.02116 -2.22669,-16.02116c0,0 0.32018,-4.97194 2.0902,-10.3782c1.29447,-3.95372 3.90494,-8.27918 5.03999,-10.36765c1.53508,-2.82454 5.60811,-7.02344 8.7702,-9.73309c2.7095,-2.32179 4.67236,-3.38767 4.67236,-3.38767c0,0 1.70184,-1.39908 4.52621,-2.98835c3.58012,-2.01453 8.52341,-4.27522 9.24098,-3.72521c2.00592,1.53748 -6.75858,12.14407 -5.92354,13.29246c0.81317,1.11835 2.27871,3.73591 5.61256,4.53808c5.54408,1.33394 13.68137,0.5183 13.68137,0.5183c0,0 -15.2073,18.66021 -19.58725,22.49736c-2.49368,2.18464 -9.49987,5.63226 -9.49987,5.63226c0,0 3.50491,3.70438 4.78466,6.28541c2.93714,5.9237 22.82527,28.06153 22.82527,28.06153" fill="#9e092f" stroke="#000000" stroke-width="2.5" stroke-linecap="round"/><path d="M111.07495,100.66824c0,0 1.13097,16.58313 1.40277,20.56841c0.11136,1.63282 -1.06452,3.65272 -1.06452,3.65272" fill="none" stroke="#000000" stroke-width="3" stroke-linecap="round"/><path d="M79.21432,123.5913l26.10262,-0.8808" fill="none" stroke="#000000" stroke-width="3" stroke-linecap="round"/><path d="M104.3793,107.21645l-26.10262,0.88079" fill="none" stroke="#000000" stroke-width="3" stroke-linecap="round"/><path d="M85.77329,116.02387l-18.97184,17.94971" fill="none" stroke="#000000" stroke-width="3" stroke-linecap="round"/><path d="M81.75155,113.86488l-18.97184,-17.94971" fill="none" stroke="#000000" stroke-width="3" stroke-linecap="round"/><text transform="translate(45.82576,48.63366) scale(0.5,0.5)" font-size="40" xml:space="preserve" fill="#ffffff" stroke="none" stroke-width="1" stroke-linecap="butt" font-family="Pixel" font-weight="normal" text-anchor="start"><tspan x="0" dy="0">ingame</tspan></text><path d="M333.39286,208.21429v-210.71429h163.21429v210.71429z" fill="none" stroke="#ffffff" stroke-width="6.5" stroke-linecap="butt"/><path d="M32.23868,256.13863l0.11364,-39.43182c0,0 19.63665,-1.01147 32.49395,-0.67665c15.67254,0.40814 54.77878,2.94938 54.77878,2.94938l1.02273,36.25" fill="none" stroke="#000000" stroke-width="3" stroke-linecap="round"/><path d="M113.75303,249.35239l11.14584,-0.10417c0,0 1.52778,8.65509 1.52778,13.01777c0,4.31741 -1.52778,13.0239 -1.52778,13.0239l-13.54167,-0.10417" fill="url(#color-13)" stroke="#000000" stroke-width="3" stroke-linecap="round"/><path d="M42.50304,275.07355l-13.54167,0.10417c0,0 -2.22222,-8.06974 -2.22222,-12.3989c0,-4.35128 2.22222,-13.64277 2.22222,-13.64277l11.14583,0.10417" fill="url(#color-14)" stroke="#000000" stroke-width="3" stroke-linecap="round"/><path d="M78.29862,297.31894c-20.83024,0.32133 -37.97094,-15.91323 -38.28483,-36.26093c-0.31389,-20.34768 16.3179,-37.10324 37.14814,-37.42456c20.83024,-0.32133 37.97094,15.91323 38.28483,36.26093c0.31389,20.34768 -16.3179,37.10324 -37.14814,37.42456z" fill="url(#color-15)" stroke="#000000" stroke-width="2.5" stroke-linecap="butt"/><path d="M36.03548,262.14721c0,0 1.00362,-21.36241 3.44783,-27.54471c2.02995,-5.13457 5.52405,-5.54174 7.74468,-7.34076c4.00659,-3.24591 11.62035,-6.15258 14.63939,-7.59321c5.0293,-2.39985 16.08671,-1.68921 16.08671,-1.68921c0,0 4.95844,0.48641 10.30243,2.43639c3.90818,1.42608 8.14384,4.17986 10.19315,5.38418c2.77158,1.62876 6.8318,5.84005 9.43409,9.09106c2.2298,2.78569 3.22939,4.78313 3.22939,4.78313c0,0 1.34133,1.74771 2.83518,4.6237c1.89357,3.64554 3.98754,8.66173 3.41382,9.36049c-1.60376,1.95334 -11.91105,-7.16126 -13.08675,-6.36513c-1.14494,0.77528 -3.81009,2.15239 -4.72339,5.45752c-1.51876,5.49633 -0.97593,13.65636 -0.97593,13.65636c0,0 -18.14076,-15.82335 -21.82916,-20.32927c-2.09995,-2.5654 -5.31114,-9.68306 -5.31114,-9.68306c0,0 -3.81962,3.37896 -6.44203,4.5716c-6.01869,2.73723 -28.80978,21.87325 -28.80978,21.87325" fill="#9e092f" stroke="#000000" stroke-width="2.5" stroke-linecap="round"/><path d="M93.19604,277.73126c0,0 -1.97536,2.30883 -4.07907,2.38168c-4.26262,0.14762 -19.34958,0.67011 -19.34958,0.67011" fill="none" stroke="#000000" stroke-width="3" stroke-linecap="round"/><path d="M66.43994,244.73813l0.00664,26.11748" fill="none" stroke="#000000" stroke-width="3" stroke-linecap="round"/><path d="M81.93851,244.86278l0.00663,26.11748" fill="none" stroke="#000000" stroke-width="3" stroke-linecap="round"/><path d="M70.65089,246.54763l-9.90099,-6.45065" fill="none" stroke="#000000" stroke-width="3" stroke-linecap="round"/><path d="M78.30165,245.3475l6.45065,-3.60036" fill="none" stroke="#000000" stroke-width="3" stroke-linecap="round"/><text transform="translate(374.39603,239.64179) scale(0.5,0.5)" font-size="40" xml:space="preserve" fill="#ffffff" stroke="none" stroke-width="1" stroke-linecap="butt" font-family="Pixel" font-weight="normal" text-anchor="start"><tspan x="0" dy="0">tests</tspan></text><text transform="translate(51.0652,195.38072) scale(0.5,0.5)" font-size="40" xml:space="preserve" fill="#ffffff" stroke="none" stroke-width="1" stroke-linecap="butt" font-family="Pixel" font-weight="normal" text-anchor="start"><tspan x="0" dy="0">alt</tspan></text><text transform="translate(110.7941,-19.75034) scale(0.76395,0.76395)" font-size="40" xml:space="preserve" fill="#ffffff" stroke="none" stroke-width="1" stroke-linecap="butt" font-family="Pixel" font-weight="normal" text-anchor="start"><tspan x="0" dy="0">See you in 1.1!</tspan></text><path d="M309.77056,300.42705l0.11364,-39.43182c0,0 19.63665,-1.01147 32.49395,-0.67665c15.67254,0.40814 54.77878,2.94938 54.77878,2.94938l1.02273,36.25" fill="none" stroke="#000000" stroke-width="3" stroke-linecap="round"/><path d="M391.28491,293.64081l11.14584,-0.10417c0,0 1.52778,8.65509 1.52778,13.01777c0,4.31741 -1.52778,13.0239 -1.52778,13.0239l-13.54167,-0.10417" fill="url(#color-16)" stroke="#000000" stroke-width="3" stroke-linecap="round"/><path d="M320.03492,319.36197l-13.54167,0.10417c0,0 -2.22222,-8.06974 -2.22222,-12.3989c0,-4.35128 2.22222,-13.64277 2.22222,-13.64277l11.14583,0.10417" fill="url(#color-17)" stroke="#000000" stroke-width="3" stroke-linecap="round"/><path d="M355.8305,341.60736c-20.83024,0.32133 -37.97094,-15.91323 -38.28483,-36.26093c-0.31389,-20.34768 16.3179,-37.10324 37.14814,-37.42456c20.83024,-0.32133 37.97094,15.91323 38.28483,36.26093c0.31389,20.34768 -16.3179,37.10324 -37.14814,37.42456z" fill="url(#color-18)" stroke="#000000" stroke-width="2.5" stroke-linecap="butt"/><path d="M313.56736,306.43563c0,0 1.00362,-21.36241 3.44783,-27.54471c2.02995,-5.13457 5.52405,-5.54174 7.74468,-7.34076c4.00659,-3.24591 11.62035,-6.15258 14.63939,-7.59321c5.0293,-2.39985 16.08671,-1.68921 16.08671,-1.68921c0,0 4.95844,0.48641 10.30243,2.43639c3.90818,1.42608 8.14384,4.17986 10.19315,5.38418c2.77158,1.62876 6.8318,5.84005 9.43409,9.09106c2.2298,2.78569 3.22939,4.78313 3.22939,4.78313c0,0 1.34133,1.74771 2.83518,4.6237c1.89357,3.64554 3.98754,8.66173 3.41382,9.36049c-1.60376,1.95334 -11.91105,-7.16126 -13.08675,-6.36513c-1.14494,0.77528 -3.81009,2.15239 -4.72339,5.45752c-1.51876,5.49633 -0.97593,13.65636 -0.97593,13.65636c0,0 -18.14076,-15.82335 -21.82916,-20.32927c-2.09995,-2.5654 -5.31114,-9.68306 -5.31114,-9.68306c0,0 -3.81962,3.37896 -6.44203,4.5716c-6.01869,2.73723 -28.80978,21.87325 -28.80978,21.87325" fill="#9e092f" stroke="#000000" stroke-width="2.5" stroke-linecap="round"/><path d="M343.97846,315.14403l-0.00664,-26.11748" fill="none" stroke="#000000" stroke-width="3" stroke-linecap="round"/><path d="M359.47039,289.1512l0.00663,26.11748" fill="none" stroke="#000000" stroke-width="3" stroke-linecap="round"/><path d="M368.87389,323.78308c0,0 0.82643,3.69903 -1.13954,5.14082c-1.93607,1.41986 -4.05608,0.9291 -4.84464,0.95168c-3.38867,0.097 -7.23076,-3.15272 -9.84596,-3.07786c-3.01784,0.08639 -7.58661,3.08725 -10.91854,3.18263c-0.79763,0.02283 -3.38579,-0.9008 -4.29066,-2.22017c-0.96852,-1.41218 -0.22805,-3.22727 -0.22805,-3.22727" fill="none" stroke="#000000" stroke-width="2.5" stroke-linecap="round"/><text transform="translate(34.56429,390.74538) scale(0.5,0.5)" font-size="40" xml:space="preserve" fill="#ffffff" stroke="none" stroke-width="1" stroke-linecap="butt" font-family="Pixel" font-weight="normal" text-anchor="start"><tspan x="0" dy="0">Comment 'Techno for 1.1!' if you see this...</tspan></text></g></g></svg>