<svg version="1.1" xmlns="http://www.w3.org/2000/svg" xmlns:xlink="http://www.w3.org/1999/xlink" width="97.96895" height="105.08913" viewBox="0,0,97.96895,105.08913"><defs><linearGradient x1="253.78423" y1="137.97644" x2="253.78423" y2="171.68147" gradientUnits="userSpaceOnUse" id="color-1"><stop offset="0" stop-color="#515052"/><stop offset="1" stop-color="#1a1a1a"/></linearGradient><linearGradient x1="226.21573" y1="138.19521" x2="226.21573" y2="171.90024" gradientUnits="userSpaceOnUse" id="color-2"><stop offset="0" stop-color="#5a595b"/><stop offset="1" stop-color="#1a1a1a"/></linearGradient><linearGradient x1="240.96118" y1="128.45542" x2="240.96118" y2="202.1837" gradientUnits="userSpaceOnUse" id="color-3"><stop offset="0" stop-color="#2e2d2f"/><stop offset="1" stop-color="#dbdbdb"/></linearGradient><linearGradient x1="241.81118" y1="210.29456" x2="241.81118" y2="231.54456" gradientUnits="userSpaceOnUse" id="color-4"><stop offset="0" stop-color="#1d122f"/><stop offset="1" stop-color="#62e3ff"/></linearGradient><linearGradient x1="241.81118" y1="210.29456" x2="241.81118" y2="231.54456" gradientUnits="userSpaceOnUse" id="color-5"><stop offset="0" stop-color="#000000"/><stop offset="1" stop-color="#e60000"/></linearGradient></defs><g transform="translate(-191.09227,-127.20544)"><g stroke-miterlimit="10"><path d="M238.61282,160.27362l27.87234,-23.13936c0,0 23.43201,-12.09345 21.17257,-7.35592c-0.9071,1.90201 -13.32024,23.15013 -15.45666,25.56102c-4.7526,5.36318 -20.10624,16.34211 -20.10624,16.34211" fill="url(#color-1)" stroke="#000000" stroke-width="2.5" stroke-linecap="round"/><path d="M227.90517,171.90024c0,0 -15.35363,-10.97892 -20.10624,-16.34211c-2.13641,-2.41089 -14.54955,-23.65901 -15.45666,-25.56102c-2.25943,-4.73752 21.17257,7.35592 21.17257,7.35592l27.87234,23.13936" fill="url(#color-2)" stroke="#000000" stroke-width="2.5" stroke-linecap="round"/><path d="M203.52064,169.91059c-2.47681,-20.19883 12.27804,-38.62867 32.95588,-41.16422c20.67784,-2.53556 39.4484,11.78336 41.92521,31.98217c2.47681,20.19883 -12.27804,38.62867 -32.95588,41.16422c-20.67784,2.53556 -39.44839,-11.78335 -41.9252,-31.98217z" fill="url(#color-3)" stroke="#000000" stroke-width="2.5" stroke-linecap="butt"/><path d="M246.3612,215.04456v-12.25" fill="none" stroke="#000000" stroke-width="1.5" stroke-linecap="round"/><path d="M236.6112,202.54456v11.5" fill="none" stroke="#000000" stroke-width="1.5" stroke-linecap="round"/><path d="M230.81118,231.54456v-21.25h22v21.25z" fill="url(#color-4)" stroke="url(#color-5)" stroke-width="1.5" stroke-linecap="butt"/><path d="M240.0362,219.68206c0,-0.9665 0.7835,-1.75 1.75,-1.75c0.9665,0 1.75,0.7835 1.75,1.75c0,0.9665 -0.7835,1.75 -1.75,1.75c-0.9665,0 -1.75,-0.7835 -1.75,-1.75z" fill="#000000" stroke="none" stroke-width="0.5" stroke-linecap="butt"/><path d="M241.9112,221.18206l0.125,3.625" fill="none" stroke="#000000" stroke-width="1.5" stroke-linecap="round"/><path d="M237.31798,164.45952c0,7.22204 -5.91968,13.07667 -13.22196,13.07667c-7.30229,0 -13.22196,-5.85462 -13.22196,-13.07667c0,-7.22204 5.91968,-13.07667 13.22196,-13.07667c7.30229,0 13.22196,5.85462 13.22196,13.07667z" fill="#ffffff" stroke="#000000" stroke-width="2.5" stroke-linecap="butt"/><path d="M271.00375,163.974c0,7.22204 -5.91968,13.07667 -13.22196,13.07667c-7.30229,0 -13.22196,-5.85462 -13.22196,-13.07667c0,-7.22204 5.91967,-13.07666 13.22196,-13.07666c7.30229,0 13.22196,5.85461 13.22196,13.07666z" fill="#ffffff" stroke="#000000" stroke-width="2.5" stroke-linecap="butt"/><path d="M210.87404,164.16306h25.44154" fill="none" stroke="#000000" stroke-width="2.5" stroke-linecap="round"/><path d="M269.58529,163.83689l-24.78919,0.32617" fill="none" stroke="#000000" stroke-width="2.5" stroke-linecap="round"/><path d="M235.33706,165.10835c-1.83332,0 -2.17284,-1.49381 -2.23571,-2.04709c-1.47584,0.14129 -3.20875,0.09004 -3.96158,0.09004c-5.34044,0 -10.70647,-0.13935 -15.99048,0.62973c0,0 -2.22738,0.3182 -2.54558,-1.90919c-0.26657,-1.86597 1.25338,-2.39206 1.75365,-2.51365c-0.48793,-0.41272 -0.79774,-1.02949 -0.79774,-1.71863c0,-0.76561 0.3824,-1.44191 0.96661,-1.84833l2.13217,-1.52298c0.79104,-0.93805 1.5912,-1.72979 2.20426,-1.96916c1.82005,-0.71065 3.78206,0.03164 5.58697,0.16056c2.12751,0.15196 5.33988,-0.24065 7.34215,0.41706c2.25348,0.74022 4.10391,2.58155 5.52089,4.64401c0.40922,0.3713 0.71852,0.82061 0.8662,1.37403c0.47555,0.82107 0.88489,1.64649 1.22627,2.42492l0.18193,1.53867c0,0 0,2.25 -2.25,2.25zM233.24976,163.0463c-0.0051,0.00054 -0.01021,0.00108 -0.01532,0.00161l0.03453,0.04441c-0.00633,-0.01522 -0.01274,-0.03056 -0.01921,-0.04602z" fill="#000000" stroke="none" stroke-width="0.5" stroke-linecap="butt"/><path d="M267.43409,165.32485l-0.86931,2.04331c-2.04985,2.93927 -5.18468,4.2694 -8.05776,4.31903c-3.75153,0.0648 -7.28671,-2.05365 -9.71193,-5.62372c0,0 -0.32128,-0.48192 -0.39332,-1.11974c-0.86828,-0.02464 -1.72915,-0.08095 -2.58007,-0.17892c0,0 -2.23263,-0.27908 -1.95355,-2.5117c0.13855,-1.1084 0.75859,-1.59775 1.3479,-1.80952c-0.03961,-0.16716 -0.06058,-0.34153 -0.06058,-0.52079c0,-1.0456 0.71322,-1.92462 1.6797,-2.17709l0.48527,-0.13865c-0.13345,-0.28758 -0.20794,-0.60809 -0.20794,-0.94599c0,-1.0456 0.71322,-1.92462 1.6797,-2.17709l2.15547,-0.61585c0.45867,-0.35939 0.92652,-0.70648 1.40701,-1.03621l-0.43821,0.21354c0,0 1.00623,-2.01246 3.01869,-1.00623l0.00001,-0.00002c0.04396,0.02198 0.08649,0.04444 0.12761,0.06736c0.65211,-0.42272 1.31002,-0.74792 1.95635,-0.9015c4.83934,-1.14991 10.46948,2.64694 12.23647,6.94907c0.58226,1.41764 2.01788,2.9981 1.37236,4.38807c-0.43862,0.94446 -1.69797,1.33881 -3.0525,1.49835c0.09833,0.68501 -0.14138,1.28429 -0.14138,1.28429zM262.82055,165.52436l0.26141,-0.73154c-3.13961,0.06786 -6.36628,0.44433 -9.56107,0.66224c2.61126,2.72826 6.99637,3.78247 9.29966,0.0693z" fill="#000000" stroke="none" stroke-width="0.5" stroke-linecap="butt"/><path d="M233.36872,166.67055l-0.98755,1.98886c-2.21856,2.8141 -5.42595,3.95825 -8.297,3.83944c-3.74888,-0.15514 -7.15385,-2.4771 -9.3657,-6.18315c0,0 -0.29249,-0.49991 -0.32703,-1.14086c-0.86534,-0.07548 -1.72144,-0.18213 -2.56515,-0.3298c0,0 -2.21244,-0.40943 -1.80301,-2.62186c0.20326,-1.09838 0.85091,-1.55055 1.45162,-1.72743c-0.02975,-0.16919 -0.04046,-0.34449 -0.02996,-0.52344c0.06127,-1.0438 0.82477,-1.87952 1.80439,-2.07492l0.49256,-0.10998c-0.11637,-0.29491 -0.17195,-0.61923 -0.15215,-0.95655c0.06127,-1.0438 0.82477,-1.87952 1.80439,-2.07492l2.18785,-0.48849c0.47894,-0.3319 0.96633,-0.65097 1.46531,-0.95198l-0.44997,0.1875c0,0 1.12243,-1.95004 3.07247,-0.82761l0.00001,-0.00002c0.0426,0.02452 0.08374,0.04943 0.12344,0.07472c0.67576,-0.38378 1.3516,-0.66987 2.00581,-0.78531c4.89841,-0.86436 10.29639,3.25588 11.80824,7.65416c0.49819,1.44932 1.83873,3.11119 1.11287,4.46095c-0.49321,0.91714 -1.7735,1.23701 -3.13505,1.31691c0.05802,0.68959 -0.21639,1.2738 -0.21639,1.2738zM228.75142,166.59938l0.30383,-0.71496c-3.13819,-0.11624 -6.38138,0.07052 -9.58345,0.10085c2.4469,2.87659 6.7627,4.18594 9.27962,0.61412z" fill="#000000" stroke="none" stroke-width="0.5" stroke-linecap="butt"/><path d="M216.57131,182.75494c0,-0.27614 0.22386,-0.5 0.5,-0.5c0.27614,0 0.5,0.22386 0.5,0.5c0,0.27614 -0.22386,0.5 -0.5,0.5c-0.27614,0 -0.5,-0.22386 -0.5,-0.5z" fill="#000000" stroke="none" stroke-width="0.5" stroke-linecap="butt"/><path d="M223.42096,186.01668c0,-0.27614 0.22386,-0.5 0.5,-0.5c0.27614,0 0.5,0.22386 0.5,0.5c0,0.27614 -0.22386,0.5 -0.5,0.5c-0.27614,0 -0.5,-0.22386 -0.5,-0.5z" fill="#000000" stroke="none" stroke-width="0.5" stroke-linecap="butt"/><path d="M217.87601,189.27841c0,-0.27614 0.22386,-0.5 0.5,-0.5c0.27614,0 0.5,0.22386 0.5,0.5c0,0.27614 -0.22386,0.5 -0.5,0.5c-0.27614,0 -0.5,-0.22386 -0.5,-0.5z" fill="#000000" stroke="none" stroke-width="0.5" stroke-linecap="butt"/><path d="M263.54029,183.73346c0,-0.27614 0.22386,-0.5 0.5,-0.5c0.27614,0 0.5,0.22386 0.5,0.5c0,0.27614 -0.22386,0.5 -0.5,0.5c-0.27614,0 -0.5,-0.22386 -0.5,-0.5z" fill="#000000" stroke="none" stroke-width="0.5" stroke-linecap="butt"/><path d="M257.343,185.36433c0,-0.27614 0.22386,-0.5 0.5,-0.5c0.27614,0 0.5,0.22386 0.5,0.5c0,0.27614 -0.22386,0.5 -0.5,0.5c-0.27614,0 -0.5,-0.22386 -0.5,-0.5z" fill="#000000" stroke="none" stroke-width="0.5" stroke-linecap="butt"/><path d="M263.86647,188.62607c0,-0.27614 0.22386,-0.5 0.5,-0.5c0.27614,0 0.5,0.22386 0.5,0.5c0,0.27614 -0.22386,0.5 -0.5,0.5c-0.27614,0 -0.5,-0.22386 -0.5,-0.5z" fill="#000000" stroke="none" stroke-width="0.5" stroke-linecap="butt"/><path d="M232.72763,190.90927h18.59189" fill="none" stroke="#000000" stroke-width="0.5" stroke-linecap="round"/><path d="M217.39747,145.57115c0,0 3.05836,-0.65235 4.56643,-0.65235c1.72454,0 5.21878,0.65235 5.21878,0.65235" fill="none" stroke="#000000" stroke-width="0.5" stroke-linecap="round"/><path d="M251.64569,144.9188c0,0 3.69096,-1.20222 5.50496,-1.31215c1.77297,-0.10745 5.25876,0.65981 5.25876,0.65981" fill="none" stroke="#000000" stroke-width="0.5" stroke-linecap="round"/></g></g></svg>