<svg version="1.1" xmlns="http://www.w3.org/2000/svg" xmlns:xlink="http://www.w3.org/1999/xlink" width="78.43734" height="92.81194" viewBox="0,0,78.43734,92.81194"><g transform="translate(-200.72804,-125.4281)"><g stroke="#000000" stroke-miterlimit="10"><path d="M202.22804,179.3108c0.31389,-20.3477 17.45459,-36.58226 38.28483,-36.26093c20.83024,0.32132 37.46203,17.07688 37.14814,37.42456c-0.31389,20.3477 -17.45459,36.58226 -38.28483,36.26093c-20.83024,-0.32132 -37.46203,-17.07688 -37.14814,-37.42456z" fill="#ffab19" stroke-width="3" stroke-linecap="butt"/><path d="M251.1858,188.88118c-5.79118,0.07877 -10.80433,-7.02328 -11.19719,-15.86287c-0.39287,-8.83959 3.98334,-16.06934 9.7745,-16.1481c5.79118,-0.07877 10.80435,7.02329 11.19721,15.86288c0.39286,8.83959 -3.98334,16.06933 -9.77451,16.1481z" fill="#ffffff" stroke-width="2.5" stroke-linecap="butt"/><path d="M230.8108,188.75618c-5.79118,0.07876 -10.80433,-7.02328 -11.19719,-15.86287c-0.39287,-8.83959 3.98334,-16.06934 9.7745,-16.14811c5.79118,-0.07876 10.80434,7.02329 11.19721,15.86288c0.39287,8.83959 -3.98334,16.06934 -9.77451,16.1481z" fill="#ffffff" stroke-width="2.5" stroke-linecap="butt"/><path d="M248.45172,163.21853c0,0 0.3263,8.13133 0.3263,12.04913c0,4.17673 -0.25,7.69422 -0.25,7.69422" fill="none" stroke-width="2.5" stroke-linecap="round"/><path d="M231.68099,162.70964c0,0 -0.35413,9.12191 -0.29999,12.78497c0.05685,3.84648 0.1748,8.07838 0.1748,8.07838" fill="none" stroke-width="2.5" stroke-linecap="round"/><path d="M254.90162,149.6773l13.08746,-19.8649l2.57075,32.01754" fill="#ffab19" stroke-width="2.5" stroke-linecap="round"/><path d="M207.92698,162.06364l7.01114,-32.95235l11.21782,21.73453" fill="#ffab19" stroke-width="2.5" stroke-linecap="round"/><path d="M257.82295,197.2115c0,3.48493 -7.79516,6.31002 -17.41099,6.31002c-9.61583,0 -17.411,-2.8251 -17.411,-6.31002c0,-3.48493 7.79517,-6.31003 17.411,-6.31003c9.61583,0 17.41099,2.8251 17.41099,6.31003z" fill="#ffffff" stroke-width="2.5" stroke-linecap="butt"/><path d="M255.25219,193.47223l5.84262,-2.10334" fill="none" stroke-width="2.5" stroke-linecap="round"/><path d="M258.05665,196.51039h5.37521" fill="none" stroke-width="2.5" stroke-linecap="round"/><path d="M261.09482,203.28782l-4.44039,-2.80445" fill="none" stroke-width="2.5" stroke-linecap="round"/><path d="M218.56057,201.41819l6.54373,-0.70112" fill="none" stroke-width="2.5" stroke-linecap="round"/><path d="M221.83243,197.67891l-3.97298,-1.63594" fill="none" stroke-width="2.5" stroke-linecap="round"/><path d="M218.56056,192.07l5.84261,2.33705" fill="none" stroke-width="2.5" stroke-linecap="round"/><path d="M241.69733,193.93963l-2.33704,1.86964l-1.63594,-2.10334z" fill="none" stroke-width="2.5" stroke-linecap="round"/><path d="M252.68144,208.66303c0,0 -13.68777,1.87697 -18.00274,1.96327c-2.82266,0.05646 -5.36773,-1.49586 -5.36773,-1.49586" fill="none" stroke-width="2.5" stroke-linecap="round"/></g></g></svg>