<svg version="1.1" xmlns="http://www.w3.org/2000/svg" xmlns:xlink="http://www.w3.org/1999/xlink" width="136.35991" height="148.5" viewBox="0,0,136.35991,148.5"><defs><linearGradient x1="240" y1="108" x2="240" y2="252" gradientUnits="userSpaceOnUse" id="color-1"><stop offset="0" stop-color="#000000"/><stop offset="1" stop-color="#525252"/></linearGradient><linearGradient x1="237.29806" y1="116.92351" x2="237.29806" y2="138.70411" gradientTransform="translate(-435.45632,-293.67556) scale(2.20381,2.20381)" gradientUnits="userSpaceOnUse" id="color-2"><stop offset="0" stop-color="#000000"/><stop offset="1" stop-color="#545454"/></linearGradient><linearGradient x1="242.1259" y1="160.20289" x2="242.1259" y2="228.45079" gradientUnits="userSpaceOnUse" id="color-3"><stop offset="0" stop-color="#ababab"/><stop offset="1" stop-color="#242424"/></linearGradient></defs><g transform="translate(-184.19178,-105.75001)"><g stroke-miterlimit="10"><path d="M186.44178,248.21348c0,-17.0667 0,-88.07171 0,-135.66785c0,-2.99995 2.05724,-4.54562 4.83944,-4.54562c10.70155,0 81.52994,0 98.58683,0c2.1263,0 3.69017,1.08098 3.69017,3.3737c0,12.19511 0,133.25963 0,133.25963c0,0 0,2.37004 0,3.58014c0,3.04179 -2.89821,3.78653 -5.71921,3.78653c-20.48312,0 -89.43036,0 -98.20864,0c-1.80888,0 -3.18859,-3.78653 -3.18859,-3.78653z" fill="#00ff3c" stroke="url(#color-1)" stroke-width="4.5" stroke-linecap="butt"/><text transform="translate(197.59266,133.25822) scale(0.45376,0.45376)" font-size="40" xml:space="preserve" fill="url(#color-2)" stroke="none" stroke-width="1" stroke-linecap="butt" font-family="Pixel" font-weight="normal" text-anchor="start"><tspan x="0" dy="0">Training</tspan></text><text transform="translate(314.80169,161.96697) scale(0.5,0.5)" font-size="40" xml:space="preserve" fill="#000000" stroke="none" stroke-width="1" stroke-linecap="butt" font-family="Pixel" font-weight="normal" text-anchor="start"><tspan x="0" dy="0"> </tspan></text><path d="M242.65908,228.44632c-19.29056,0.30144 -35.16737,-14.73001 -35.46183,-33.57368c-0.29447,-18.84366 15.10492,-34.36386 34.39548,-34.66531c19.29056,-0.30144 35.16737,14.73001 35.46182,33.57368c0.29447,18.84366 -15.10491,34.36388 -34.39548,34.66531z" fill="url(#color-3)" stroke="#000000" stroke-width="2" stroke-linecap="butt"/><path d="M265.35345,185.29496c0,3.10669 1.02182,8.08881 -2.2105,10.34746c-4.37691,3.05844 -14.09324,2.8948 -21.68408,2.8948c-6.51109,0 -16.10422,-0.13539 -20.41397,-2.47614c-4.42522,-2.40347 -3.4806,-7.06102 -3.4806,-10.7661c0,-7.3135 11.067,-7.19332 24.2636,-7.19332c13.1966,0 23.52555,-0.12018 23.52555,7.19332z" fill="none" stroke="#000000" stroke-width="2" stroke-linecap="butt"/><path d="M239.40613,187.93359c0,3.82745 -3.10277,6.93022 -6.93022,6.93022c-3.82745,0 -6.93022,-3.10277 -6.93022,-6.93022c0,-3.82745 3.10277,-6.93022 6.93022,-6.93022c3.82745,0 6.93022,3.10277 6.93022,6.93022z" fill="none" stroke="#000000" stroke-width="2" stroke-linecap="butt"/><path d="M230.67215,188.40827c0,-1.25834 1.02009,-2.27842 2.27842,-2.27842c1.25834,0 2.27842,1.02009 2.27842,2.27842c0,1.25834 -1.02009,2.27842 -2.27842,2.27842c-1.25834,0 -2.27842,-1.02009 -2.27842,-2.27842z" fill="#07050c" stroke="none" stroke-width="2" stroke-linecap="butt"/><path d="M228.99984,183.28181l8.14976,4.1187l1.96128,1.02446" fill="none" stroke="#000000" stroke-width="2" stroke-linecap="round"/><path d="M258.66875,188.05707c0,3.8786 -3.14422,7.02284 -7.02284,7.02284c-3.8786,0 -7.02283,-3.14422 -7.02283,-7.02284c0,-3.8786 3.14422,-7.02283 7.02283,-7.02283c3.8786,0 7.02284,3.14422 7.02284,7.02283z" fill="none" stroke="#000000" stroke-width="2" stroke-linecap="butt"/><path d="M249.04843,188.53809c0,-1.27516 1.03372,-2.30888 2.30888,-2.30888c1.27516,0 2.30888,1.03372 2.30888,2.30888c0,1.27516 -1.03372,2.30888 -2.30888,2.30888c-1.27516,0 -2.30888,-1.03372 -2.30888,-2.30888z" fill="#07050c" stroke="none" stroke-width="2" stroke-linecap="butt"/><path d="M255.44134,183.16177l-10.14597,5.11739" fill="none" stroke="#000000" stroke-width="2" stroke-linecap="round"/><path d="M260.382,209.59302c0,1.0681 -0.51372,2.53002 -2.21093,3.38187c-3.26037,1.63641 -9.64248,2.26726 -16.40341,2.26726c-5.32458,0 -12.72008,0.24762 -16.11287,-0.84001c-3.15784,-1.0123 -2.50149,-3.30513 -2.50149,-4.80912c0,-1.63314 -0.30952,-3.47485 3.34139,-4.50623c3.32376,-0.93896 10.37386,-1.1429 15.27297,-1.1429c6.38166,0 12.56891,-0.87757 15.92253,0.60795c2.04884,0.90755 2.69182,3.85797 2.69182,5.04118z" fill="none" stroke="#000000" stroke-width="2" stroke-linecap="butt"/><path d="M231.627,204.98904l0.27782,8.42739" fill="none" stroke="#000000" stroke-width="2" stroke-linecap="round"/><path d="M240.98048,214.0647l-0.46304,-9.26088" fill="none" stroke="#000000" stroke-width="2" stroke-linecap="round"/><path d="M249.7783,213.23122l-0.46304,-8.79783" fill="none" stroke="#000000" stroke-width="2" stroke-linecap="round"/><path d="M259.16266,209.12556l-36.27176,0.61739" fill="none" stroke="#000000" stroke-width="2" stroke-linecap="round"/><path d="M242.33874,144.76249v14.8174" fill="none" stroke="#000000" stroke-width="2" stroke-linecap="round"/><path d="M237.48358,140.78032c0,-2.68519 2.17678,-4.86196 4.86196,-4.86196c2.68519,0 4.86196,2.17678 4.86196,4.86196c0,2.68519 -2.17678,4.86196 -4.86196,4.86196c-2.68519,0 -4.86196,-2.17678 -4.86196,-4.86196z" fill="#000000" stroke="none" stroke-width="2" stroke-linecap="butt"/></g></g></svg>