<svg version="1.1" xmlns="http://www.w3.org/2000/svg" xmlns:xlink="http://www.w3.org/1999/xlink" width="732.79791" height="171.11812" viewBox="0,0,732.79791,171.11812"><defs><linearGradient x1="240.87997" y1="99.72514" x2="240.87997" y2="262.55906" gradientUnits="userSpaceOnUse" id="color-1"><stop offset="0" stop-color="#357004"/><stop offset="1" stop-color="#ffd821"/></linearGradient><linearGradient x1="85.59784" y1="130.84084" x2="85.59784" y2="150.85602" gradientTransform="translate(-124.35918,-349.77977) scale(2.3982,2.3982)" gradientUnits="userSpaceOnUse" id="color-2"><stop offset="0" stop-color="#000000"/><stop offset="1" stop-color="#383838"/></linearGradient><linearGradient x1="352.24938" y1="132.71315" x2="352.24938" y2="152.72833" gradientTransform="translate(-745.17728,-354.26992) scale(2.3982,2.3982)" gradientUnits="userSpaceOnUse" id="color-3"><stop offset="0" stop-color="#000000"/><stop offset="1" stop-color="#4c4c4c"/></linearGradient><linearGradient x1="207.33423" y1="131.04635" x2="207.33423" y2="147.44349" gradientTransform="translate(-559.0774,-419.61702) scale(2.92731,2.92731)" gradientUnits="userSpaceOnUse" id="color-4"><stop offset="0" stop-color="#000000"/><stop offset="1" stop-color="#545454"/></linearGradient></defs><g transform="translate(125.60835,-94.44094)"><g stroke-miterlimit="10"><path d="M-121.0795,262.55905l-1.50174,-163.593c0,0 76.38455,-1.52511 146.45896,-1.52511c7.93708,0 16.575,18.86191 24.30104,22.29141c15.35228,6.81472 24.24304,2.99279 38.49395,2.99279c45.2392,0 114.07925,1.94466 189.00854,2.15873c39.78709,0.11367 58.41196,0.45743 99.01106,-1.8184c25.91992,-1.45297 15.18146,-24.43297 37.64527,-24.43297c71.73379,0 191.82759,-0.5464 191.82759,-0.5464l-1.32574,164.47296z" fill="url(#color-1)" stroke="#665800" stroke-width="6" stroke-linecap="butt"/><text transform="translate(51.85529,145.85117) scale(0.41698,0.41698)" font-size="40" xml:space="preserve" fill="url(#color-2)" stroke="none" stroke-width="1" stroke-linecap="butt" font-family="Marker" font-weight="normal" text-anchor="start"><tspan x="0" dy="0">Your HP:</tspan></text><text transform="translate(310.72402,147.72347) scale(0.41698,0.41698)" font-size="40" xml:space="preserve" fill="url(#color-3)" stroke="none" stroke-width="1" stroke-linecap="butt" font-family="Marker" font-weight="normal" text-anchor="start"><tspan x="0" dy="0">Enemy HP:</tspan></text><text transform="translate(190.98643,143.34537) scale(0.34161,0.34161)" font-size="40" xml:space="preserve" fill="url(#color-4)" stroke="none" stroke-width="1" stroke-linecap="butt" font-family="Marker" font-weight="normal" text-anchor="start"><tspan x="0" dy="0">Kills:</tspan></text><path d="M131.35277,139.84589l14.49042,-15.04774" fill="none" stroke="none" stroke-width="2.5" stroke-linecap="round"/><path d="M149.01086,125.35547l-9.4745,14.55315l9.4745,12.3142l-6.13057,10.07526l10.03184,13.43367l-11.14648,13.43368l15.04775,16.79209c0,0 -14.40582,13.28767 -17.10321,21.41487c-1.4175,4.27091 14.42011,9.61614 15.05674,15.60984c0.57154,5.38082 -14.11593,11.67238 -14.11593,11.67238" fill="none" stroke="#c3a500" stroke-width="2.5" stroke-linecap="round"/><path d="M288.67849,257.42532c0,0 -12.84908,-15.231 -9.54784,-24.41977c1.21826,-3.39096 6.91381,-4.96208 9.1239,-8.44394c1.56384,-2.46374 0.13427,-7.13244 -0.33833,-8.5564c-2.23713,-6.74043 -15.40012,-7.27698 -15.40012,-7.27698l15.04774,-16.79209l-11.14648,-13.43368l10.03184,-13.43367l-6.13056,-10.07526l9.4745,-12.3142l-9.4745,-14.55315" fill="none" stroke="#c3a500" stroke-width="2.5" stroke-linecap="round"/></g></g></svg>