<svg version="1.1" xmlns="http://www.w3.org/2000/svg" xmlns:xlink="http://www.w3.org/1999/xlink" width="105.33819" height="77.90847" viewBox="0,0,105.33819,77.90847"><g transform="translate(-187.32727,-141.04577)"><g stroke="#000000" stroke-miterlimit="10"><path d="M211.91814,185.55453l-23.94611,0.344l-0.13763,-9.5809l23.94611,-0.344z" fill="#ff0025" stroke-width="1" stroke-linecap="butt"/><path d="M285.59829,178.90251c0.6205,20.82348 -15.36618,38.1956 -35.70727,38.80173c-20.34107,0.60613 -37.3338,-15.78327 -37.95429,-36.60674c-0.6205,-20.82348 15.36618,-38.1956 35.70727,-38.80173c20.34107,-0.60613 37.3338,15.78327 37.95429,36.60674z" fill="#ffad50" stroke-width="2.5" stroke-linecap="butt"/><path d="M284.7592,180.0347c4.06533,-0.0584 7.38123,1.30666 7.40626,3.04895c0.02503,1.74229 -3.25028,3.20203 -7.31562,3.26043c-4.06533,0.0584 -7.38123,-1.30665 -7.40626,-3.04894c-0.02503,-1.74229 3.25028,-3.20204 7.31562,-3.26044z" fill="#ff0025" stroke-width="1" stroke-linecap="butt"/><path d="M270.80073,194.99272l-11.65647,-14.18362l-0.00937,-0.65218l11.21613,-16.46917z" fill="#caff69" stroke-width="1" stroke-linecap="butt"/><path d="M284.62259,172.80757c4.06533,-0.0584 7.38122,1.30665 7.40625,3.04894c0.02503,1.74228 -3.25028,3.20203 -7.31561,3.26043c-4.06533,0.0584 -7.38122,-1.30667 -7.40625,-3.04894c-0.02503,-1.74228 3.25028,-3.20203 7.31561,-3.26043z" fill="#ff0025" stroke-width="1" stroke-linecap="butt"/><path d="M270.90912,163.57932l11.68457,16.14019l0.00937,0.65219l-11.24423,14.5126z" fill="#caff69" stroke-width="1" stroke-linecap="butt"/><path d="M234.04888,189.07969l22.25668,0.30534" fill="none" stroke-width="2.5" stroke-linecap="round"/><path d="M234.77282,171.78973l20.12831,0.08589" fill="none" stroke-width="2.5" stroke-linecap="round"/></g></g></svg>